<svg width="25" height="25" viewBox="0 0 25 25" fill="none" xmlns="http://www.w3.org/2000/svg">
<g clip-path="url(#clip0_350_15819)">
<mask id="mask0_350_15819" style="mask-type:luminance" maskUnits="userSpaceOnUse" x="0" y="0" width="25" height="25">
<path d="M25 0H0V25H25V0Z" fill="white"/>
</mask>
<g mask="url(#mask0_350_15819)">
<mask id="mask1_350_15819" style="mask-type:luminance" maskUnits="userSpaceOnUse" x="0" y="0" width="25" height="25">
<path d="M25 0H0V25H25V0Z" fill="white"/>
</mask>
<g mask="url(#mask1_350_15819)">
<path fill-rule="evenodd" clip-rule="evenodd" d="M0.078125 11.9629C0.078125 6.33789 0.078125 3.51289 1.81563 1.76289C3.57813 0.0253906 6.39063 0.0253906 12.0281 0.0253906H13.0281C18.6531 0.0253906 21.4781 0.0253906 23.2281 1.76289C24.9656 3.50039 24.9656 6.33789 24.9656 11.9629V12.9629C24.9656 18.5879 24.9656 21.4129 23.2281 23.1629C21.4906 24.9004 18.6531 24.9004 13.0281 24.9004H12.0281C6.40313 24.9004 3.57813 24.9004 1.82813 23.1629C0.078125 21.4129 0.078125 18.6004 0.078125 12.9629V11.9629ZM12.5164 12.4C13.7289 12.4 14.8289 11.9 15.6164 11.1125C16.4039 10.325 16.9039 9.225 16.9039 8.0125C16.9039 6.8 16.4039 5.7 15.6164 4.9125C14.8289 4.125 13.7289 3.625 12.5164 3.625C11.3039 3.625 10.2039 4.125 9.41641 4.9125C8.62891 5.6875 8.12891 6.7875 8.12891 8.0125C8.12891 9.2375 8.62891 10.325 9.41641 11.1125C10.2039 11.9 11.3164 12.4 12.5164 12.4ZM11.1164 6.5875C11.4789 6.225 11.9789 6 12.5289 6C13.0914 6 13.5789 6.225 13.9414 6.5875C14.3039 6.95 14.5289 7.45 14.5289 8C14.5289 8.5625 14.3039 9.05 13.9414 9.4125C13.5789 9.775 13.0789 10 12.5289 10C11.9664 10 11.4789 9.775 11.1164 9.4125C10.7539 9.05 10.5289 8.55 10.5289 8C10.5289 7.45 10.7664 6.95 11.1164 6.5875ZM17.1533 12.4126L18.4408 14.1751C18.5158 14.2626 18.5033 14.3751 18.3408 14.4501C17.2533 15.3501 15.9908 15.9251 14.6783 16.2376L17.4033 21.0376C17.4783 21.1876 17.3908 21.3501 17.2283 21.3501H14.5658C14.4783 21.3501 14.4033 21.2876 14.3783 21.2126L12.4783 16.9626L10.5783 21.2126C10.5533 21.3001 10.4783 21.3501 10.3908 21.3501H7.7283C7.5783 21.3501 7.4783 21.1751 7.5533 21.0376L10.2783 16.2376C8.9658 15.9251 7.7033 15.3251 6.6158 14.4501C6.5408 14.3751 6.5283 14.2626 6.5908 14.1751L7.8783 12.4126C7.9533 12.3251 8.1033 12.3126 8.1908 12.3876C9.4158 13.4251 10.9033 14.1001 12.5158 14.1001C14.1283 14.1001 15.6283 13.4251 16.8408 12.3876C16.9283 12.3001 17.0783 12.3126 17.1533 12.4126Z" fill="#172D2D"/>
</g>
</g>
</g>
<defs>
<clipPath id="clip0_350_15819">
<rect width="25" height="25" fill="white"/>
</clipPath>
</defs>
</svg>
