<svg width="26" height="26" viewBox="0 0 26 26" fill="none" xmlns="http://www.w3.org/2000/svg">
<mask id="mask0_670_1671" style="mask-type:alpha" maskUnits="userSpaceOnUse" x="0" y="0" width="26" height="26">
<rect x="0.8125" y="0.8125" width="24.375" height="24.375" fill="#D9D9D9"/>
</mask>
<g mask="url(#mask0_670_1671)">
<path fill-rule="evenodd" clip-rule="evenodd" d="M15.5774 6.71859C13.3943 7.62091 9.03125 9.48847 2.48815 12.3213C1.42566 12.7412 0.869074 13.1519 0.818405 13.5535C0.732775 14.2323 1.58815 14.4996 2.75296 14.8636C2.9114 14.9131 3.07557 14.9644 3.24388 15.0187C4.38987 15.3889 5.93143 15.822 6.73282 15.8392C7.45976 15.8548 8.27111 15.557 9.16687 14.9457C15.2803 10.8449 18.4361 8.77218 18.6342 8.72749C18.774 8.69597 18.9677 8.65633 19.0989 8.77224C19.2301 8.88816 19.2172 9.10768 19.2033 9.16657C19.1186 9.52554 15.7609 12.6275 14.0233 14.2328C13.4816 14.7333 13.0974 15.0883 13.0188 15.1693C12.8429 15.3509 12.6635 15.5227 12.4912 15.6878C11.4265 16.7077 10.6282 17.4725 12.5354 18.7215C13.4519 19.3217 14.1854 19.818 14.9171 20.3132C15.7161 20.8539 16.5131 21.3933 17.5443 22.065C17.807 22.2361 18.0579 22.4139 18.3023 22.587C19.2323 23.2458 20.0677 23.8377 21.0999 23.7433C21.6996 23.6884 22.3192 23.128 22.6338 21.4566C23.3773 17.5066 24.8389 8.94809 25.1767 5.42134C25.2063 5.11235 25.169 4.7169 25.1391 4.54331C25.1092 4.36972 25.0468 4.12239 24.8197 3.9393C24.5508 3.72246 24.1356 3.67674 23.95 3.67983C23.1058 3.69477 21.8106 4.1423 15.5774 6.71859Z" fill="#172D2D"/>
</g>
</svg>
