<svg width="26" height="26" viewBox="0 0 26 26" fill="none" xmlns="http://www.w3.org/2000/svg">
<path fill-rule="evenodd" clip-rule="evenodd" d="M21.5313 4.31641C19.2461 2.03125 16.1992 0.8125 13 0.8125C6.29687 0.8125 0.8125 6.29687 0.8125 13C0.8125 15.1328 1.42189 17.2656 2.48829 19.0938L0.8125 25.1875L7.21096 23.5117C9.03908 24.4258 11.0195 25.0352 13 25.0352C19.7031 25.0352 25.1875 19.5508 25.1875 12.8477C25.1875 9.64844 23.8164 6.60157 21.5313 4.31641ZM7.82032 21.6836C9.34376 22.5977 11.1719 23.0547 13 23.0547C18.6367 23.0547 23.0547 18.4844 23.0547 13.1523C23.0547 10.4102 22.1406 7.97265 20.1602 5.99219C18.1797 4.16406 15.7422 3.09766 13 3.09766C7.51563 3.09766 2.9453 7.66797 2.9453 13.1523C2.9453 14.9805 3.40234 16.8086 4.46874 18.4844L4.77345 18.9414L3.70702 22.5977L7.51562 21.5312L7.82032 21.6836ZM18.4844 15.4375C18.1797 15.2852 16.6563 14.5234 16.3516 14.5234C16.0469 14.3711 15.8945 14.3711 15.7422 14.6758C15.666 14.8281 15.4756 15.0566 15.2852 15.2852C15.0947 15.5137 14.9043 15.7422 14.8281 15.8945C14.6758 16.0469 14.5234 16.0469 14.2187 16.0469C14.1712 16.0231 14.1088 15.9956 14.0326 15.9621C13.6212 15.7808 12.8098 15.4234 11.7813 14.5234C10.8672 13.7617 10.2578 12.6953 10.1055 12.3906C9.95314 12.0859 10.1055 11.9336 10.2578 11.7812L10.7148 11.3242C10.791 11.2481 10.8291 11.1719 10.8672 11.0957C10.9053 11.0195 10.9434 10.9433 11.0196 10.8672C11.1211 10.7656 11.0873 10.6641 11.0534 10.5625C11.0365 10.5117 11.0196 10.4609 11.0196 10.4102C11.0196 10.2578 10.4102 8.73437 10.1055 8.125C9.95314 7.66797 9.64845 7.66797 9.49611 7.66797H8.8867C8.73436 7.66797 8.42966 7.66797 8.12498 7.97265C7.8203 8.27735 7.0586 9.03906 7.0586 10.5625C7.0586 11.8266 7.79276 12.9857 8.12979 13.5179C8.19895 13.6271 8.25139 13.7098 8.27733 13.7617C8.29619 13.7806 8.34305 13.8461 8.41647 13.9488C8.93625 14.6757 10.7872 17.2641 13.457 18.332C15.6081 19.2178 16.2878 19.1576 16.8056 19.1118C16.9112 19.1025 17.0101 19.0938 17.1133 19.0938C17.7227 19.0938 18.9414 18.332 19.0938 17.7227C19.3984 16.9609 19.3984 16.3516 19.2461 16.3516C19.1175 15.7085 18.8803 15.6083 18.6261 15.501C18.5793 15.4812 18.5318 15.4612 18.4844 15.4375Z" fill="#172D2D"/>
</svg>
