<svg width="67" height="79" viewBox="0 0 67 79" fill="none" xmlns="http://www.w3.org/2000/svg">
<path d="M33.5001 0C15.5342 0 0.969971 14.5666 0.969971 32.5301C0.969971 50.4937 26.5374 79 33.5001 79C40.4603 79 66.0302 50.4937 66.0302 32.5301C66.0302 14.5666 51.4661 0 33.5001 0ZM33.5001 47.4608C25.2524 47.4608 18.5694 40.7754 18.5694 32.5301C18.5694 24.2825 25.2524 17.5994 33.5001 17.5994C41.7454 17.5994 48.4308 24.2825 48.4308 32.5301C48.4308 40.7754 41.7454 47.4608 33.5001 47.4608Z" fill="#172D2D"/>
<path d="M33.5001 47.4608C25.2524 47.4608 18.5694 40.7754 18.5694 32.5301C18.5694 24.2825 25.2524 17.5994 33.5001 17.5994C41.7454 17.5994 48.4308 24.2825 48.4308 32.5301C48.4308 40.7754 41.7454 47.4608 33.5001 47.4608Z" fill="white"/>
</svg>
