<svg width="138" height="39" viewBox="0 0 138 39" fill="none" xmlns="http://www.w3.org/2000/svg">
<mask id="mask0_2002_66" style="mask-type:alpha" maskUnits="userSpaceOnUse" x="38" y="26" width="100" height="13">
<rect x="38" y="26" width="100" height="13" fill="#D9D9D9"/>
</mask>
<g mask="url(#mask0_2002_66)">
<path d="M38 26.0036H45.2507C46.5929 25.9516 47.9003 26.4614 48.8887 27.4221C49.3634 27.892 49.7373 28.4637 49.9855 29.0989C50.2337 29.7341 50.3504 30.418 50.3277 31.1048C50.3528 31.7839 50.2369 32.4606 49.9884 33.0875C49.7398 33.7144 49.3645 34.2763 48.8887 34.7339C47.8892 35.6706 46.5859 36.1635 45.2507 36.1095H40.7817V39H38V26.0036ZM40.7817 28.68V33.4332H45.1392C45.7744 33.4671 46.3984 33.2473 46.8873 32.8176C47.1113 32.6022 47.2867 32.3366 47.4007 32.0402C47.5147 31.7438 47.5643 31.4241 47.546 31.1048C47.5608 30.7778 47.5097 30.4514 47.3962 30.1469C47.2826 29.8424 47.1092 29.5668 46.8873 29.3384C46.4102 28.8829 45.7815 28.6461 45.1392 28.68H40.7817Z" fill="#172D2D"/>
<path d="M52.2175 26.0033H59.4733C60.8152 25.9537 62.1217 26.4631 63.1113 27.4218C63.585 27.8922 63.958 28.4641 64.2053 29.0993C64.4527 29.7344 64.5685 30.4181 64.5453 31.1045C64.5885 31.9918 64.3864 32.8732 63.9636 33.6412C63.5407 34.4092 62.9153 35.0306 62.1638 35.4295L64.0538 38.9997H61.0137L59.5696 36.1092H55.0094V38.9997H52.2277L52.2175 26.0033ZM54.9993 28.6797V33.4329H59.3618C59.9953 33.4654 60.6173 33.2458 61.1049 32.8173C61.3288 32.6019 61.5042 32.3363 61.6182 32.0399C61.7322 31.7435 61.7819 31.4238 61.7635 31.1045C61.7783 30.7775 61.7273 30.4511 61.6137 30.1466C61.5002 29.8421 61.3267 29.5665 61.1049 29.3381C60.6293 28.8835 60.0024 28.6467 59.3618 28.6797H54.9993Z" fill="#172D2D"/>
<path d="M71.2895 26.0031H75.8041L81.0331 38.9994H78.0943L77.2937 37.0243H69.6934L68.8928 38.9994H65.9084L71.2895 26.0031ZM73.0224 28.6098L70.7321 34.4657H76.2043L73.98 28.6098H73.0224Z" fill="#172D2D"/>
<path d="M82.8113 26.0031H85.441L92.8032 34.744V26.0031H95.5646V38.9994H92.9146L85.5474 30.2317V38.9994H82.8113V26.0031Z" fill="#172D2D"/>
<path d="M102.709 26.0031H107.224L112.453 38.9994H109.514L108.713 37.0243H101.113L100.313 38.9994H97.3281L102.709 26.0031ZM104.442 28.6098L102.152 34.4657H107.624L105.4 28.6098H104.442Z" fill="#172D2D"/>
<path d="M120.641 26.0031H123.423V38.9994H120.641V26.0031Z" fill="#172D2D"/>
<path d="M125.206 26.0031H138V28.6366H132.994V38.9994H130.212V28.6366H125.206V26.0031Z" fill="#172D2D"/>
</g>
<path d="M7.416 15.27C6.114 15.27 4.977 14.997 4.005 14.451C3.039 13.905 2.289 13.137 1.755 12.147C1.221 11.157 0.954 10.005 0.954 8.691C0.954 7.737 1.113 6.864 1.431 6.072C1.749 5.274 2.196 4.581 2.772 3.993C3.354 3.399 4.038 2.94 4.824 2.616C5.616 2.292 6.483 2.13 7.425 2.13C8.319 2.13 9.111 2.244 9.801 2.472C10.491 2.694 11.082 3.009 11.574 3.417L10.818 4.533C10.392 4.161 9.903 3.885 9.351 3.705C8.799 3.525 8.193 3.435 7.533 3.435C6.753 3.435 6.045 3.558 5.409 3.804C4.779 4.05 4.236 4.401 3.78 4.857C3.33 5.307 2.982 5.856 2.736 6.504C2.496 7.146 2.376 7.872 2.376 8.682C2.376 9.798 2.592 10.749 3.024 11.535C3.456 12.315 4.065 12.912 4.851 13.326C5.643 13.74 6.573 13.947 7.641 13.947C8.325 13.947 8.973 13.848 9.585 13.65C10.203 13.446 10.776 13.113 11.304 12.651L11.952 13.821C11.328 14.313 10.638 14.679 9.882 14.919C9.132 15.153 8.31 15.27 7.416 15.27ZM14.0092 15V6.27H15.3412V7.602C15.7192 6.996 16.1542 6.579 16.6462 6.351C17.1442 6.117 17.6752 6 18.2392 6C18.4012 6 18.5632 6.006 18.7252 6.018C18.8932 6.03 19.0522 6.054 19.2022 6.09L18.9952 7.485C18.8332 7.443 18.6712 7.41 18.5092 7.386C18.3532 7.362 18.1942 7.35 18.0322 7.35C17.2522 7.35 16.6072 7.596 16.0972 8.088C15.5932 8.58 15.3412 9.228 15.3412 10.032V15H14.0092ZM24.7085 15.27C23.7905 15.27 22.9805 15.078 22.2785 14.694C21.5765 14.31 21.0275 13.773 20.6315 13.083C20.2355 12.387 20.0375 11.58 20.0375 10.662C20.0375 9.996 20.1485 9.378 20.3705 8.808C20.5985 8.238 20.9165 7.743 21.3245 7.323C21.7385 6.903 22.2185 6.579 22.7645 6.351C23.3165 6.117 23.9165 6 24.5645 6C25.2545 6 25.8695 6.123 26.4095 6.369C26.9495 6.615 27.3995 6.957 27.7595 7.395C28.1255 7.833 28.3865 8.349 28.5425 8.943C28.7045 9.531 28.7465 10.167 28.6685 10.851H21.4145C21.3845 11.499 21.5045 12.066 21.7745 12.552C22.0445 13.032 22.4405 13.407 22.9625 13.677C23.4845 13.947 24.1055 14.082 24.8255 14.082C25.2995 14.082 25.7675 14.001 26.2295 13.839C26.6975 13.677 27.1025 13.446 27.4445 13.146L28.0925 14.181C27.7985 14.421 27.4595 14.625 27.0755 14.793C26.6975 14.955 26.3045 15.075 25.8965 15.153C25.4945 15.231 25.0985 15.27 24.7085 15.27ZM21.4775 9.744H27.3005C27.2705 8.934 27.0215 8.301 26.5535 7.845C26.0915 7.389 25.4225 7.161 24.5465 7.161C23.7005 7.161 22.9985 7.389 22.4405 7.845C21.8885 8.301 21.5675 8.934 21.4775 9.744ZM33.2696 15.27C32.6456 15.27 32.1056 15.156 31.6496 14.928C31.1936 14.7 30.8426 14.382 30.5966 13.974C30.3506 13.56 30.2276 13.077 30.2276 12.525C30.2276 12.069 30.3446 11.652 30.5786 11.274C30.8186 10.89 31.1936 10.572 31.7036 10.32C32.2196 10.062 32.8916 9.891 33.7196 9.807C34.5476 9.723 35.5556 9.747 36.7436 9.879L36.7886 10.932C35.8106 10.806 34.9826 10.761 34.3046 10.797C33.6326 10.833 33.0926 10.929 32.6846 11.085C32.2766 11.241 31.9796 11.442 31.7936 11.688C31.6136 11.934 31.5236 12.204 31.5236 12.498C31.5236 13.002 31.7006 13.395 32.0546 13.677C32.4086 13.959 32.9006 14.1 33.5306 14.1C34.0586 14.1 34.5326 14.001 34.9526 13.803C35.3726 13.605 35.7056 13.332 35.9516 12.984C36.1976 12.636 36.3206 12.237 36.3206 11.787V9.24C36.3206 8.796 36.2246 8.415 36.0326 8.097C35.8406 7.779 35.5586 7.533 35.1866 7.359C34.8206 7.185 34.3736 7.098 33.8456 7.098C33.3896 7.098 32.9336 7.167 32.4776 7.305C32.0276 7.443 31.5866 7.671 31.1546 7.989L30.7226 6.9C31.2506 6.528 31.7936 6.27 32.3516 6.126C32.9096 5.982 33.4406 5.91 33.9446 5.91C34.7426 5.91 35.4146 6.036 35.9606 6.288C36.5066 6.54 36.9206 6.912 37.2026 7.404C37.4846 7.896 37.6256 8.505 37.6256 9.231V15H36.3656V13.893C36.0536 14.337 35.6246 14.679 35.0786 14.919C34.5326 15.153 33.9296 15.27 33.2696 15.27ZM43.8435 15.27C43.0695 15.27 42.4425 15.042 41.9625 14.586C41.4825 14.13 41.2425 13.416 41.2425 12.444V3.687H42.5745V6.27H45.2565V7.44H42.5745V12.066C42.5745 12.78 42.6975 13.284 42.9435 13.578C43.1955 13.866 43.5705 14.01 44.0685 14.01C44.2905 14.01 44.4945 13.986 44.6805 13.938C44.8665 13.89 45.0345 13.83 45.1845 13.758L45.5175 14.874C45.2715 14.994 45.0045 15.09 44.7165 15.162C44.4285 15.234 44.1375 15.27 43.8435 15.27ZM39.1635 7.44V6.27H41.4855V7.44H39.1635ZM51.5855 15.27C50.6675 15.27 49.8575 15.078 49.1555 14.694C48.4535 14.31 47.9045 13.773 47.5085 13.083C47.1125 12.387 46.9145 11.58 46.9145 10.662C46.9145 9.996 47.0255 9.378 47.2475 8.808C47.4755 8.238 47.7935 7.743 48.2015 7.323C48.6155 6.903 49.0955 6.579 49.6415 6.351C50.1935 6.117 50.7935 6 51.4415 6C52.1315 6 52.7465 6.123 53.2865 6.369C53.8265 6.615 54.2765 6.957 54.6365 7.395C55.0025 7.833 55.2635 8.349 55.4195 8.943C55.5815 9.531 55.6235 10.167 55.5455 10.851H48.2915C48.2615 11.499 48.3815 12.066 48.6515 12.552C48.9215 13.032 49.3175 13.407 49.8395 13.677C50.3615 13.947 50.9825 14.082 51.7025 14.082C52.1765 14.082 52.6445 14.001 53.1065 13.839C53.5745 13.677 53.9795 13.446 54.3215 13.146L54.9695 14.181C54.6755 14.421 54.3365 14.625 53.9525 14.793C53.5745 14.955 53.1815 15.075 52.7735 15.153C52.3715 15.231 51.9755 15.27 51.5855 15.27ZM48.3545 9.744H54.1775C54.1475 8.934 53.8985 8.301 53.4305 7.845C52.9685 7.389 52.2995 7.161 51.4235 7.161C50.5775 7.161 49.8755 7.389 49.3175 7.845C48.7655 8.301 48.4445 8.934 48.3545 9.744ZM61.4405 15.27C60.5705 15.27 59.8055 15.063 59.1455 14.649C58.4855 14.235 57.9695 13.677 57.5975 12.975C57.2255 12.273 57.0395 11.493 57.0395 10.635C57.0395 9.999 57.1445 9.402 57.3545 8.844C57.5705 8.28 57.8735 7.785 58.2635 7.359C58.6535 6.933 59.1185 6.6 59.6585 6.36C60.1985 6.12 60.7955 6 61.4495 6C62.3315 6 63.0785 6.18 63.6905 6.54C64.3085 6.894 64.8095 7.365 65.1935 7.953L64.9505 8.25V2.04H66.2825V15H65.0135V13.011L65.2205 13.317C64.8545 13.869 64.3745 14.334 63.7805 14.712C63.1865 15.084 62.4065 15.27 61.4405 15.27ZM61.6835 14.037C62.3195 14.037 62.8835 13.899 63.3755 13.623C63.8675 13.341 64.2515 12.948 64.5275 12.444C64.8095 11.934 64.9505 11.331 64.9505 10.635C64.9505 9.939 64.8095 9.336 64.5275 8.826C64.2515 8.316 63.8675 7.923 63.3755 7.647C62.8835 7.371 62.3195 7.233 61.6835 7.233C61.0475 7.233 60.4835 7.371 59.9915 7.647C59.5055 7.923 59.1215 8.316 58.8395 8.826C58.5575 9.336 58.4165 9.939 58.4165 10.635C58.4165 11.331 58.5575 11.934 58.8395 12.444C59.1215 12.948 59.5055 13.341 59.9915 13.623C60.4835 13.899 61.0475 14.037 61.6835 14.037ZM78.6696 15.27C78.0636 15.27 77.5206 15.18 77.0406 15C76.5606 14.826 76.1406 14.583 75.7806 14.271C75.4266 13.953 75.1296 13.593 74.8896 13.191L75.0966 12.903V15H73.8276V2.04H75.1596V8.313L74.9166 8.016C75.3006 7.428 75.7986 6.945 76.4106 6.567C77.0286 6.189 77.7786 6 78.6606 6C79.5366 6 80.3046 6.21 80.9646 6.63C81.6306 7.05 82.1466 7.611 82.5126 8.313C82.8846 9.015 83.0706 9.789 83.0706 10.635C83.0706 11.277 82.9626 11.88 82.7466 12.444C82.5366 13.002 82.2366 13.494 81.8466 13.92C81.4566 14.34 80.9916 14.67 80.4516 14.91C79.9176 15.15 79.3236 15.27 78.6696 15.27ZM78.4266 14.037C79.0626 14.037 79.6236 13.899 80.1096 13.623C80.6016 13.341 80.9886 12.948 81.2706 12.444C81.5526 11.934 81.6936 11.331 81.6936 10.635C81.6936 9.939 81.5526 9.336 81.2706 8.826C80.9946 8.316 80.6106 7.923 80.1186 7.647C79.6266 7.371 79.0626 7.233 78.4266 7.233C77.7906 7.233 77.2266 7.371 76.7346 7.647C76.2426 7.923 75.8556 8.316 75.5736 8.826C75.2976 9.336 75.1596 9.939 75.1596 10.635C75.1596 11.331 75.2976 11.934 75.5736 12.444C75.8556 12.948 76.2426 13.341 76.7346 13.623C77.2266 13.899 77.7906 14.037 78.4266 14.037ZM85.5169 19.041C85.2589 19.041 85.0009 19.008 84.7429 18.942C84.4909 18.882 84.2269 18.768 83.9509 18.6L84.2839 17.421C84.4639 17.547 84.6589 17.64 84.8689 17.7C85.0849 17.76 85.2709 17.79 85.4269 17.79C85.9069 17.79 86.2699 17.673 86.5159 17.439C86.7619 17.205 86.9689 16.848 87.1369 16.368L87.5329 15.216L84.0589 6.27H85.5439L88.2979 13.587L90.9799 6.27H92.4019L88.5229 16.53C88.2649 17.202 87.9889 17.718 87.6949 18.078C87.4009 18.444 87.0739 18.696 86.7139 18.834C86.3539 18.972 85.9549 19.041 85.5169 19.041Z" fill="#D7DCDC"/>
</svg>
