<svg width="48" height="48" viewBox="0 0 48 48" fill="none" xmlns="http://www.w3.org/2000/svg">
<circle cx="24" cy="24" r="24" fill="#FDFADF"/>
<path fill-rule="evenodd" clip-rule="evenodd" d="M16.7616 14H31.2384C31.7647 14 32.2189 14 32.5949 14.0267C32.9906 14.0548 33.3865 14.1167 33.7777 14.2855C34.6597 14.6661 35.3606 15.3961 35.7259 16.3149C35.8879 16.7224 35.9473 17.1347 35.9744 17.547C36 17.9386 36 18.4117 36 18.96V29.04C36 29.5882 36 30.0614 35.9744 30.453C35.9473 30.8652 35.8879 31.2776 35.7259 31.6851C35.3606 32.6039 34.6597 33.334 33.7777 33.7145C33.3865 33.8833 32.9906 33.9451 32.5949 33.9734C32.2189 34 31.7647 34 31.2384 34H16.7616C16.2352 34 15.7811 34 15.4051 33.9734C15.0093 33.9451 14.6135 33.8833 14.2223 33.7145C13.3402 33.334 12.6394 32.6039 12.274 31.6851C12.112 31.2776 12.0526 30.8652 12.0256 30.453C12 30.0614 12 29.5882 12 29.04V18.96C12 18.4117 12 17.9386 12.0256 17.547C12.0526 17.1347 12.112 16.7224 12.274 16.3149C12.6394 15.3961 13.3402 14.6661 14.2223 14.2855C14.6135 14.1167 15.0093 14.0548 15.4051 14.0267C15.7811 14 16.2352 14 16.7616 14ZM14.7809 16.8472C15.2174 16.3277 15.9755 16.275 16.4742 16.7296L23.2098 22.8688C23.6622 23.2811 24.3378 23.2811 24.7902 22.8688L31.5258 16.7296C32.0245 16.275 32.7827 16.3277 33.219 16.8472C33.6554 17.3668 33.6049 18.1565 33.1062 18.6111L26.3706 24.7502C25.0133 25.9874 22.9867 25.9874 21.6294 24.7502L14.8938 18.6111C14.3951 18.1565 14.3445 17.3668 14.7809 16.8472Z" fill="#172D2D"/>
</svg>
