<svg width="694" height="648" viewBox="0 0 694 648" fill="none" xmlns="http://www.w3.org/2000/svg">
<mask id="mask0_2002_4" style="mask-type:alpha" maskUnits="userSpaceOnUse" x="0" y="0" width="694" height="648">
<rect width="694" height="648" fill="#D9D9D9"/>
</mask>
<g mask="url(#mask0_2002_4)">
<mask id="mask1_2002_4" style="mask-type:alpha" maskUnits="userSpaceOnUse" x="0" y="12" width="667" height="840">
<rect x="0.000488281" y="12.6896" width="666.737" height="838.663" fill="url(#paint0_linear_2002_4)"/>
</mask>
<g mask="url(#mask1_2002_4)">
<path d="M243.717 53.7639C240.263 51.926 236.79 50.1639 233.259 48.4966C237.384 50.2208 240.109 51.7555 241.049 52.2481C241.951 52.7408 242.834 53.2523 243.736 53.7639H243.717Z" fill="#F2F8F6"/>
<path d="M472.231 421.206C472.231 439.585 477.678 558.308 404.337 674.929C392.714 693.421 380.382 709.716 367.857 724.059C364.904 727.412 361.931 730.69 358.958 733.836C351.612 741.661 344.229 748.804 336.864 755.379C333.488 758.391 330.113 761.271 326.775 764.037C275.336 806.669 228.213 820.519 216.59 822.509C202.627 824.896 194.016 824.214 186.613 823.058C180.744 822.149 164.211 818.416 153.95 805.589C153.759 805.362 153.605 805.172 153.528 805.058C151.399 802.273 143.92 791.776 145.013 778.286C145.358 774.136 146.106 765.44 153.183 760.078C153.72 759.718 163.118 752.859 172.171 757.709C177.138 760.362 181.971 766.444 180.514 773.322C179.056 780.029 171.998 785.069 163.943 784.368C164.71 786.187 166.436 789.635 169.697 792.894C184.695 807.749 214.097 799.98 220.79 798.199C225.566 796.949 229.747 795.452 233.027 794.031C233.084 794.012 233.161 793.974 233.238 793.955C237.361 792.231 240.085 790.696 241.024 790.204C241.926 789.711 242.808 789.199 243.71 788.688C244.189 788.423 244.669 788.138 245.167 787.873C263.752 777.149 280.591 764.947 295.57 752.404C295.647 752.347 295.724 752.271 295.801 752.195C299.099 749.315 302.302 746.322 305.486 743.233C308.651 740.221 311.72 737.076 314.788 733.873C322.479 725.821 329.844 717.276 336.883 708.219C339.664 704.619 342.406 700.981 345.092 697.23C396.281 626.102 427.831 528.675 427.831 421.244C427.831 313.813 396.281 216.386 345.092 145.258L367.877 118.391C380.401 132.734 392.733 149.029 404.356 167.521C477.697 284.142 472.25 402.865 472.25 421.244L472.231 421.206Z" fill="#F2F8F6"/>
<path d="M326.784 78.3706C319.649 84.7748 312.495 91.7663 305.495 99.1936C302.311 96.1052 299.089 93.1116 295.809 90.2316C295.732 90.1558 295.656 90.08 295.579 90.0232C280.6 77.4801 263.78 65.297 245.176 54.5539C244.677 54.2886 244.198 54.0044 243.718 53.7392C242.817 53.2087 241.934 52.716 241.033 52.2234C240.112 51.7308 237.37 50.196 233.246 48.4718C233.17 48.4529 233.093 48.415 233.035 48.396C229.736 46.975 225.575 45.4782 220.799 44.2277C214.105 42.4466 184.723 34.6782 169.705 49.5329C166.445 52.7918 164.718 56.2402 163.951 58.0591C171.987 57.3581 179.065 62.3791 180.522 69.1054C181.98 75.9832 177.147 82.0653 172.179 84.7179C163.127 89.5684 153.729 82.7285 153.192 82.3495C146.095 77.0064 145.367 68.2907 145.021 64.1412C143.928 50.6318 151.427 40.135 153.537 37.3687C153.614 37.2551 153.767 37.0845 153.959 36.8382C164.201 24.0109 180.752 20.2783 186.621 19.3689C194.025 18.2131 202.636 17.531 216.599 19.9183C228.221 21.9078 275.364 35.7582 326.784 78.3895V78.3706Z" fill="#F2F8F6"/>
<path d="M528.712 64.1453C528.367 68.2947 527.619 76.9915 520.542 82.3536C520.005 82.7136 510.607 89.5725 501.555 84.722C496.587 82.0694 491.754 75.9873 493.211 69.1095C494.669 62.4021 501.727 57.3622 509.782 58.0632C509.015 56.2443 507.289 52.7959 504.029 49.537C489.03 34.6823 459.628 42.4507 452.935 44.2317C448.159 45.4823 443.978 46.9791 440.698 48.4001C440.641 48.4191 440.564 48.457 440.487 48.4759C436.364 50.2001 433.64 51.7348 432.701 52.2275C431.799 52.7201 430.917 53.2317 430.016 53.7433C429.536 54.0085 429.057 54.2927 428.558 54.558C409.973 65.2821 393.134 77.4842 378.155 90.0272C378.078 90.0841 378.001 90.1599 377.925 90.2357C374.626 93.1535 371.423 96.1283 368.239 99.1977C365.113 102.248 362.006 105.356 358.975 108.558C351.246 116.61 343.9 125.155 336.881 134.212C334.1 137.812 331.357 141.45 328.672 145.202C277.463 216.33 245.913 313.756 245.913 421.187C245.913 528.618 277.463 626.045 328.672 697.173L326.332 700.167C319.83 708.579 312.926 716.613 305.887 724.04C293.325 709.697 281.031 693.403 269.37 674.91C196.066 558.29 201.475 439.566 201.475 421.187C201.475 402.809 196.066 284.085 269.37 167.465C281.031 148.972 293.325 132.678 305.887 118.334C308.841 114.981 311.813 111.703 314.786 108.558C322.132 100.732 329.516 93.5514 336.881 87.0146C340.256 84.002 343.632 81.122 346.969 78.3557C398.408 35.7244 445.493 21.874 457.135 19.8845C471.136 17.4972 479.728 18.1793 487.132 19.335C492.981 20.2445 509.514 23.9771 519.756 36.8044C519.947 37.0318 520.101 37.2213 520.178 37.3349C522.326 40.1202 529.786 50.617 528.693 64.1074L528.712 64.1453Z" fill="#F2F8F6"/>
<path d="M201.425 421.203C201.425 421.203 196.381 424.045 159.921 447.142C159.921 447.142 79.8085 504.249 38.2086 596.029C37.403 597.753 33.9124 605.654 31.9945 616.682C30.8245 623.427 25.6845 653.06 42.0252 666.437C45.6118 669.374 49.275 670.738 51.1546 671.345C49.697 663.481 54.1274 656.073 60.7635 654.027C67.5338 651.962 74.1123 656.149 77.2577 660.791C82.9731 669.241 76.9317 679.132 76.6248 679.681C71.8684 687.166 63.1609 688.681 59.0182 689.382C44.4227 691.883 32.4164 684.21 30.6903 683.092C25.9147 679.909 22.0596 675.873 19.0292 671.364C19.0292 671.364 18.4923 670.568 17.9936 669.772C15.7304 666.096 6.58193 646.827 7.00388 624.583C7.90531 579.318 48.6614 517.095 61.2814 498.129C68.4161 487.405 74.6301 478.803 78.8304 473.137C90.1462 458.813 106.027 440.567 127.182 421.222C106.027 401.896 90.1462 383.631 78.8304 369.306C74.6301 363.641 68.4161 355.039 61.2814 344.315C48.6614 325.349 7.90531 263.126 7.00388 217.861C6.58193 195.617 15.7304 176.348 17.9936 172.672C18.4923 171.857 19.0292 171.08 19.0292 171.08C22.0596 166.571 25.9147 162.535 30.6903 159.352C32.4164 158.215 44.4227 150.56 59.0182 153.061C63.1609 153.762 71.8684 155.297 76.6248 162.762C76.9509 163.312 82.9731 173.202 77.2577 181.653C74.1314 186.295 67.5338 190.501 60.7635 188.417C54.1274 186.371 49.697 178.981 51.1546 171.099C49.275 171.706 45.6118 173.07 42.0252 176.007C25.6653 189.383 30.8245 219.017 31.9945 225.762C33.9124 236.77 37.403 244.671 38.2086 246.396C79.8085 338.176 159.921 395.283 159.921 395.283C196.381 418.399 201.425 421.222 201.425 421.222V421.203Z" fill="#F2F8F6"/>
<path d="M612.447 498.113C625.067 517.079 665.823 579.302 666.724 624.567C667.146 646.811 657.998 666.08 655.734 669.756C655.236 670.571 654.699 671.348 654.699 671.348C651.668 675.857 647.813 679.893 643.038 683.076C641.311 684.213 629.305 691.868 614.71 689.367C610.567 688.666 601.86 687.131 597.103 679.666C596.777 679.116 590.755 669.226 596.47 660.775C599.596 656.133 606.194 651.927 612.964 654.011C619.6 656.057 624.031 663.447 622.573 671.329C624.453 670.722 628.116 669.358 631.703 666.421C648.063 653.045 642.903 623.411 641.733 616.666C639.815 605.658 636.325 597.757 635.519 596.013C593.919 504.233 513.807 447.126 513.807 447.126C477.347 424.01 472.303 421.187 472.303 421.187C472.303 421.187 477.347 418.345 513.807 395.248C513.807 395.248 593.919 338.141 635.519 246.361C636.325 244.637 639.815 236.736 641.733 225.727C642.903 218.982 648.043 189.349 631.703 175.972C628.116 173.035 624.453 171.671 622.573 171.064C624.031 178.928 619.6 186.336 612.964 188.382C606.194 190.448 599.616 186.26 596.47 181.618C590.755 173.168 596.796 163.277 597.103 162.728C601.86 155.244 610.567 153.728 614.71 153.027C629.305 150.526 641.311 158.199 643.038 159.317C647.813 162.5 651.668 166.536 654.699 171.046C654.699 171.046 655.236 171.841 655.734 172.637C657.998 176.313 667.146 195.582 666.724 217.826C665.823 263.091 625.067 325.314 612.447 344.28C605.312 355.004 599.098 363.606 594.897 369.272C583.582 383.596 567.701 401.842 546.546 421.187C567.701 440.513 583.582 458.778 594.897 473.103C599.098 478.768 605.312 487.37 612.447 498.094V498.113Z" fill="#F2F8F6"/>
</g>
</g>
<defs>
<linearGradient id="paint0_linear_2002_4" x1="446.5" y1="96.0002" x2="308.5" y2="410" gradientUnits="userSpaceOnUse">
<stop stop-color="#D9D9D9"/>
<stop offset="1" stop-color="#D9D9D9" stop-opacity="0"/>
</linearGradient>
</defs>
</svg>
