<svg width="100" height="100" viewBox="0 0 100 100" fill="none" xmlns="http://www.w3.org/2000/svg">
<circle cx="50" cy="50" r="50" fill="#FDFADF"/>
<path d="M33.3359 40.0002C33.3359 36.8575 33.3359 35.2861 34.3123 34.3098C35.2886 33.3335 36.8599 33.3335 40.0026 33.3335C43.1453 33.3335 44.7167 33.3335 45.693 34.3098C46.6693 35.2861 46.6693 36.8575 46.6693 40.0002V60.0002C46.6693 63.1428 46.6693 64.7142 45.693 65.6905C44.7167 66.6668 43.1453 66.6668 40.0026 66.6668C36.8599 66.6668 35.2886 66.6668 34.3123 65.6905C33.3359 64.7142 33.3359 63.1428 33.3359 60.0002V40.0002Z" fill="#172D2D"/>
<path d="M53.3359 40.0002C53.3359 36.8575 53.3359 35.2861 54.3123 34.3098C55.2886 33.3335 56.8599 33.3335 60.0026 33.3335C63.1453 33.3335 64.7166 33.3335 65.6929 34.3098C66.6693 35.2861 66.6693 36.8575 66.6693 40.0002V60.0002C66.6693 63.1428 66.6693 64.7142 65.6929 65.6905C64.7166 66.6668 63.1453 66.6668 60.0026 66.6668C56.8599 66.6668 55.2886 66.6668 54.3123 65.6905C53.3359 64.7142 53.3359 63.1428 53.3359 60.0002V40.0002Z" fill="#172D2D"/>
</svg>
