<svg width="864" height="864" viewBox="0 0 864 864" fill="none" xmlns="http://www.w3.org/2000/svg">
<path d="M433.598 0H430.359C430.359 237.286 237.317 430.38 0 430.38V433.62C237.274 433.62 430.359 626.671 430.359 864H432H433.641C433.641 626.714 626.683 433.62 864 433.62V430.38C626.726 430.38 433.641 237.329 433.641 0H433.598Z" fill="#F2F8F6"/>
<mask id="mask0_350_11318" style="mask-type:alpha" maskUnits="userSpaceOnUse" x="0" y="0" width="864" height="864">
<path d="M433.598 0H430.359C430.359 237.286 237.317 430.38 0 430.38V433.62C237.274 433.62 430.359 626.671 430.359 864H432H433.641C433.641 626.714 626.683 433.62 864 433.62V430.38C626.726 430.38 433.641 237.329 433.641 0H433.598Z" fill="#F2F8F6"/>
</mask>
<g mask="url(#mask0_350_11318)">
</g>
</svg>
