<svg width="48" height="48" viewBox="0 0 48 48" fill="none" xmlns="http://www.w3.org/2000/svg">
<circle cx="24" cy="24" r="24" fill="#FDFADF"/>
<path d="M28.7416 27.1139L28.1342 27.6999C28.1342 27.6999 26.6908 29.093 22.7508 25.2905C18.8108 21.4881 20.2543 20.0951 20.2543 20.0951L20.6367 19.726C21.5788 18.8169 21.6676 17.3572 20.8456 16.2916L19.1643 14.1117C18.147 12.7928 16.1813 12.6186 15.0153 13.7439L12.9225 15.7636C12.3443 16.3216 11.9569 17.0449 12.0039 17.8473C12.1241 19.9 13.0809 24.3167 18.4205 29.4698C24.0828 34.9343 29.3957 35.1515 31.5684 34.9549C32.2556 34.8928 32.8532 34.5531 33.3348 34.0882L35.2289 32.2604C36.5074 31.0265 36.1469 28.9111 34.511 28.048L31.9637 26.704C30.8896 26.1373 29.581 26.3037 28.7416 27.1139Z" fill="#172D2D"/>
</svg>
