<svg width="22" height="16" viewBox="0 0 22 16" fill="none" xmlns="http://www.w3.org/2000/svg">
<path d="M21.6013 7.68404C19.9238 3.29779 15.6888 0.410293 11 0.451543C6.27 0.355293 2.0075 3.25654 0.385 7.69779C0.33 7.90404 0.33 8.11029 0.385 8.30279C2.02125 12.7303 6.28375 15.6315 11 15.549C15.7025 15.5903 19.9238 12.7028 21.615 8.31654C21.67 8.11029 21.67 7.89029 21.6013 7.68404ZM11 13.514C7.2875 13.6515 3.8775 11.4378 2.475 8.00029C3.86375 4.54904 7.27375 2.34904 11 2.48654C14.6988 2.40404 18.0813 4.59029 19.5113 8.00029C18.0675 11.4103 14.6988 13.5965 11 13.514ZM11 4.35654C10.7525 4.35654 10.505 4.38404 10.2713 4.43904C10.6288 4.92029 10.8213 5.49779 10.8213 6.10279C10.7525 7.82154 9.30875 9.14154 7.59 9.07279C7.57625 9.07279 7.54875 9.07279 7.535 9.07279H7.43875C8.01625 11.0115 10.0513 12.1115 11.99 11.534C13.9288 10.9565 15.0288 8.92154 14.4513 6.98279C13.9975 5.42904 12.595 4.37029 11 4.35654Z" fill="#B9C0C0"/>
</svg>
