<svg width="320" height="197" viewBox="0 0 320 197" fill="none" xmlns="http://www.w3.org/2000/svg">
<mask id="mask0_554_27111" style="mask-type:alpha" maskUnits="userSpaceOnUse" x="0" y="0" width="320" height="197">
<rect width="320" height="196.571" rx="20" fill="url(#paint0_radial_554_27111)"/>
</mask>
<g mask="url(#mask0_554_27111)">
<path d="M-6.74142 15.9213C0.745728 15.7609 6.97751 10.4076 8.48676 3.32537V0H5.16141C-1.92078 1.51082 -7.27408 7.74103 -7.43451 15.2297C-14.9217 15.3902 -21.1534 20.7435 -22.6642 27.8241C-24.1735 20.7435 -30.4053 15.3902 -37.8924 15.2297C-38.0529 7.74103 -43.4077 1.51082 -50.4883 0H-57.1406C-64.2228 1.51082 -69.5761 7.74103 -69.7366 15.2297C-77.2237 15.3902 -83.4555 20.7435 -84.9663 27.8241C-86.4756 20.7435 -92.7073 15.3902 -100.194 15.2297C-100.355 7.74103 -105.71 1.51082 -112.79 0H-119.443C-126.525 1.51082 -131.878 7.74103 -132.039 15.2297C-139.526 15.3902 -145.758 20.7435 -147.268 27.8241C-148.778 20.7435 -155.009 15.3902 -162.497 15.2297C-162.657 7.74103 -168.012 1.51082 -175.092 0H-181.745C-188.827 1.51082 -194.18 7.74103 -194.341 15.2297C-201.828 15.3902 -208.06 20.7435 -209.57 27.8241C-211.08 20.7435 -217.311 15.3902 -224.799 15.2297C-224.959 7.74103 -230.314 1.51082 -237.394 0H-244.047C-251.129 1.51082 -256.482 7.74103 -256.643 15.2297C-264.13 15.3902 -270.362 20.7435 -271.872 27.8241C-273.382 20.7435 -279.613 15.3902 -287.101 15.2297C-287.261 7.74103 -292.616 1.51082 -299.697 0H-303.023V3.32537C-301.513 10.4076 -295.281 15.7609 -287.794 15.9213C-287.633 23.4084 -282.28 29.6402 -275.198 31.151C-282.28 32.6618 -287.633 38.892 -287.794 46.3808C-295.281 46.5412 -301.513 51.8945 -303.023 58.9751V65.6274C-301.513 72.7096 -295.281 78.0629 -287.794 78.2233C-287.633 85.7105 -282.28 91.9422 -275.198 93.4531C-282.28 94.9639 -287.633 101.194 -287.794 108.683C-295.281 108.843 -301.513 114.197 -303.023 121.277V127.929C-301.513 135.012 -295.281 140.365 -287.794 140.525C-287.633 148.013 -282.28 154.244 -275.198 155.755C-282.28 157.266 -287.633 163.496 -287.794 170.985C-295.281 171.145 -301.513 176.499 -303.023 183.579V190.231C-301.513 197.314 -295.281 202.667 -287.794 202.827C-287.633 210.315 -282.28 216.546 -275.198 218.057C-282.28 219.568 -287.633 225.798 -287.794 233.287C-295.281 233.447 -301.513 238.801 -303.023 245.881V252.534C-301.513 259.616 -295.281 264.969 -287.794 265.129C-287.633 272.617 -282.28 278.848 -275.198 280.359C-282.28 281.87 -287.633 288.1 -287.794 295.589C-295.281 295.749 -301.513 301.103 -303.023 308.183V311.51H-299.697C-292.616 309.999 -287.261 303.768 -287.101 296.28C-279.613 296.12 -273.382 290.767 -271.872 283.685C-270.362 290.767 -264.13 296.12 -256.643 296.28C-256.482 303.768 -251.129 309.999 -244.047 311.51H-237.394C-230.314 309.999 -224.959 303.768 -224.799 296.28C-217.311 296.12 -211.08 290.767 -209.57 283.685C-208.06 290.767 -201.828 296.12 -194.341 296.28C-194.18 303.768 -188.827 309.999 -181.745 311.51H-175.092C-168.012 309.999 -162.657 303.768 -162.497 296.28C-155.009 296.12 -148.778 290.767 -147.268 283.685C-145.758 290.767 -139.526 296.12 -132.039 296.28C-131.878 303.768 -126.525 309.999 -119.443 311.51H-112.79C-105.71 309.999 -100.355 303.768 -100.194 296.28C-92.7073 296.12 -86.4756 290.767 -84.9663 283.685C-83.4555 290.767 -77.2237 296.12 -69.7366 296.28C-69.5761 303.768 -64.2228 309.999 -57.1406 311.51H-50.4883C-43.4077 309.999 -38.0529 303.768 -37.8924 296.28C-30.4053 296.12 -24.1735 290.767 -22.6642 283.685C-21.1534 290.767 -14.9217 296.12 -7.43451 296.28C-7.27408 303.768 -1.92078 309.999 5.16141 311.51H8.48676V308.183C6.97751 301.103 0.745728 295.749 -6.74142 295.589C-6.90182 288.1 -12.2567 281.87 -19.3373 280.359C-12.2567 278.848 -6.90182 272.617 -6.74142 265.129C0.745728 264.969 6.97751 259.616 8.48676 252.534V245.881C6.97751 238.801 0.745728 233.447 -6.74142 233.287C-6.90182 225.798 -12.2567 219.568 -19.3373 218.057C-12.2567 216.546 -6.90182 210.315 -6.74142 202.827C0.745728 202.667 6.97751 197.314 8.48676 190.231V183.579C6.97751 176.499 0.745728 171.145 -6.74142 170.985C-6.90182 163.496 -12.2567 157.266 -19.3373 155.755C-12.2567 154.244 -6.90182 148.013 -6.74142 140.525C0.745728 140.365 6.97751 135.012 8.48676 127.929V121.277C6.97751 114.197 0.745728 108.843 -6.74142 108.683C-6.90182 101.194 -12.2567 94.9639 -19.3373 93.4531C-12.2567 91.9422 -6.90182 85.7105 -6.74142 78.2233C0.745728 78.0629 6.97751 72.7096 8.48676 65.6274V58.9751C6.97751 51.8945 0.745728 46.5412 -6.74142 46.3808C-6.90182 38.892 -12.2567 32.6618 -19.3373 31.151C-12.2567 29.6402 -6.90182 23.4084 -6.74142 15.9213ZM8.13321 0.353564C7.94629 8.4684 1.38123 15.035 -6.73361 15.2204C-6.54672 7.10555 0.0183716 0.54047 8.13321 0.353564ZM-302.668 0.353564C-294.553 0.54047 -287.988 7.10555 -287.801 15.2204C-295.916 15.035 -302.481 8.4684 -302.668 0.353564ZM-302.668 311.155C-302.481 303.04 -295.916 296.475 -287.801 296.288C-287.988 304.403 -294.553 310.97 -302.668 311.155ZM8.13321 311.155C0.0183716 310.97 -6.54672 304.403 -6.73361 296.288C1.38123 296.475 7.94629 303.04 8.13321 311.155ZM-23.0178 30.7959C-31.1327 30.6105 -37.6977 24.0439 -37.8846 15.9291C-29.7698 16.116 -23.2047 22.6811 -23.0178 30.7959ZM-38.5933 15.2204C-46.7082 15.035 -53.2732 8.4684 -53.4601 0.353564C-45.3453 0.54047 -38.7802 7.10555 -38.5933 15.2204ZM-54.1688 0.353564C-54.3557 8.4684 -60.9208 15.035 -69.0357 15.2204C-68.8488 7.10555 -62.2837 0.54047 -54.1688 0.353564ZM-69.0435 15.9213C-61.5563 15.7609 -55.3245 10.4076 -53.8153 3.32537C-52.3044 10.4076 -46.0727 15.7609 -38.5855 15.9213C-38.4251 23.4084 -33.0718 29.6402 -25.9896 31.151C-33.0718 32.6618 -38.4251 38.892 -38.5855 46.3808C-46.0727 46.5412 -52.3044 51.8945 -53.8153 58.9751C-55.3245 51.8945 -61.5563 46.5412 -69.0435 46.3808C-69.2039 38.892 -74.5587 32.6618 -81.6394 31.151C-74.5587 29.6402 -69.2039 23.4084 -69.0435 15.9213ZM-23.0178 31.5046C-23.2047 39.6194 -29.7698 46.1861 -37.8846 46.3714C-37.6977 38.2566 -31.1327 31.6915 -23.0178 31.5046ZM-25.9896 93.4531C-33.0718 94.9639 -38.4251 101.194 -38.5855 108.683C-46.0727 108.843 -52.3044 114.197 -53.8153 121.277C-55.3245 114.197 -61.5563 108.843 -69.0435 108.683C-69.2039 101.194 -74.5587 94.9639 -81.6394 93.4531C-74.5587 91.9422 -69.2039 85.7105 -69.0435 78.2233C-61.5563 78.0629 -55.3245 72.7096 -53.8153 65.6274C-52.3044 72.7096 -46.0727 78.0629 -38.5855 78.2233C-38.4251 85.7105 -33.0718 91.9422 -25.9896 93.4531ZM-37.8846 78.2311C-29.7698 78.418 -23.2047 84.9831 -23.0178 93.0979C-31.1327 92.9126 -37.6977 86.346 -37.8846 78.2311ZM-23.0178 93.8066C-23.2047 101.921 -29.7698 108.488 -37.8846 108.673C-37.6977 100.559 -31.1327 93.9935 -23.0178 93.8066ZM-25.9896 155.755C-33.0718 157.266 -38.4251 163.496 -38.5855 170.985C-46.0727 171.145 -52.3044 176.499 -53.8153 183.579C-55.3245 176.499 -61.5563 171.145 -69.0435 170.985C-69.2039 163.496 -74.5587 157.266 -81.6394 155.755C-74.5587 154.244 -69.2039 148.013 -69.0435 140.525C-61.5563 140.365 -55.3245 135.012 -53.8153 127.929C-52.3044 135.012 -46.0727 140.365 -38.5855 140.525C-38.4251 148.013 -33.0718 154.244 -25.9896 155.755ZM-37.8846 140.533C-29.7698 140.72 -23.2047 147.285 -23.0178 155.4C-31.1327 155.215 -37.6977 148.648 -37.8846 140.533ZM-23.0178 156.109C-23.2047 164.224 -29.7698 170.79 -37.8846 170.975C-37.6977 162.861 -31.1327 156.296 -23.0178 156.109ZM-25.9896 218.057C-33.0718 219.568 -38.4251 225.798 -38.5855 233.287C-46.0727 233.447 -52.3044 238.801 -53.8153 245.881C-55.3245 238.801 -61.5563 233.447 -69.0435 233.287C-69.2039 225.798 -74.5587 219.568 -81.6394 218.057C-74.5587 216.546 -69.2039 210.315 -69.0435 202.827C-61.5563 202.667 -55.3245 197.314 -53.8153 190.231C-52.3044 197.314 -46.0727 202.667 -38.5855 202.827C-38.4251 210.315 -33.0718 216.546 -25.9896 218.057ZM-37.8846 202.835C-29.7698 203.022 -23.2047 209.587 -23.0178 217.702C-31.1327 217.517 -37.6977 210.95 -37.8846 202.835ZM-23.0178 218.411C-23.2047 226.526 -29.7698 233.092 -37.8846 233.278C-37.6977 225.163 -31.1327 218.598 -23.0178 218.411ZM-38.5933 233.986C-38.7802 242.101 -45.3453 248.668 -53.4601 248.853C-53.2732 240.738 -46.7082 234.173 -38.5933 233.986ZM-38.5933 264.429C-46.7082 264.243 -53.2732 257.677 -53.4601 249.562C-45.3453 249.749 -38.7802 256.314 -38.5933 264.429ZM-54.1688 248.853C-62.2837 248.668 -68.8488 242.101 -69.0357 233.986C-60.9208 234.173 -54.3557 240.738 -54.1688 248.853ZM-116.117 245.881C-117.627 238.801 -123.858 233.447 -131.345 233.287C-131.506 225.798 -136.861 219.568 -143.941 218.057C-136.861 216.546 -131.506 210.315 -131.345 202.827C-123.858 202.667 -117.627 197.314 -116.117 190.231C-114.606 197.314 -108.375 202.667 -100.888 202.827C-100.727 210.315 -95.3738 216.546 -88.2917 218.057C-95.3738 219.568 -100.727 225.798 -100.888 233.287C-108.375 233.447 -114.606 238.801 -116.117 245.881ZM-100.895 233.986C-101.082 242.101 -107.647 248.668 -115.762 248.853C-115.575 240.738 -109.01 234.173 -100.895 233.986ZM-100.895 264.429C-109.01 264.243 -115.575 257.677 -115.762 249.562C-107.647 249.749 -101.082 256.314 -100.895 264.429ZM-116.471 248.853C-124.586 248.668 -131.151 242.101 -131.338 233.986C-123.223 234.173 -116.658 240.738 -116.471 248.853ZM-178.419 245.881C-179.929 238.801 -186.16 233.447 -193.648 233.287C-193.808 225.798 -199.163 219.568 -206.243 218.057C-199.163 216.546 -193.808 210.315 -193.648 202.827C-186.16 202.667 -179.929 197.314 -178.419 190.231C-176.909 197.314 -170.677 202.667 -163.19 202.827C-163.029 210.315 -157.676 216.546 -150.594 218.057C-157.676 219.568 -163.029 225.798 -163.19 233.287C-170.677 233.447 -176.909 238.801 -178.419 245.881ZM-163.197 233.986C-163.384 242.101 -169.949 248.668 -178.064 248.853C-177.877 240.738 -171.312 234.173 -163.197 233.986ZM-163.197 264.429C-171.312 264.243 -177.877 257.677 -178.064 249.562C-169.949 249.749 -163.384 256.314 -163.197 264.429ZM-178.773 248.853C-186.888 248.668 -193.453 242.101 -193.64 233.986C-185.525 234.173 -178.96 240.738 -178.773 248.853ZM-240.721 245.881C-242.231 238.801 -248.462 233.447 -255.95 233.287C-256.11 225.798 -261.465 219.568 -268.545 218.057C-261.465 216.546 -256.11 210.315 -255.95 202.827C-248.462 202.667 -242.231 197.314 -240.721 190.231C-239.211 197.314 -232.979 202.667 -225.492 202.827C-225.331 210.315 -219.978 216.546 -212.896 218.057C-219.978 219.568 -225.331 225.798 -225.492 233.287C-232.979 233.447 -239.211 238.801 -240.721 245.881ZM-225.499 233.986C-225.686 242.101 -232.251 248.668 -240.366 248.853C-240.179 240.738 -233.614 234.173 -225.499 233.986ZM-225.499 264.429C-233.614 264.243 -240.179 257.677 -240.366 249.562C-232.251 249.749 -225.686 256.314 -225.499 264.429ZM-241.075 248.853C-249.19 248.668 -255.755 242.101 -255.942 233.986C-247.827 234.173 -241.262 240.738 -241.075 248.853ZM-256.65 233.278C-264.765 233.092 -271.33 226.526 -271.517 218.411C-263.402 218.598 -256.837 225.163 -256.65 233.278ZM-271.517 217.702C-271.33 209.587 -264.765 203.022 -256.65 202.835C-256.837 210.95 -263.402 217.517 -271.517 217.702ZM-268.545 155.755C-261.465 154.244 -256.11 148.013 -255.95 140.525C-248.462 140.365 -242.231 135.012 -240.721 127.929C-239.211 135.012 -232.979 140.365 -225.492 140.525C-225.331 148.013 -219.978 154.244 -212.896 155.755C-219.978 157.266 -225.331 163.496 -225.492 170.985C-232.979 171.145 -239.211 176.499 -240.721 183.579C-242.231 176.499 -248.462 171.145 -255.95 170.985C-256.11 163.496 -261.465 157.266 -268.545 155.755ZM-256.65 170.975C-264.765 170.79 -271.33 164.224 -271.517 156.109C-263.402 156.296 -256.837 162.861 -256.65 170.975ZM-271.517 155.4C-271.33 147.285 -264.765 140.72 -256.65 140.533C-256.837 148.648 -263.402 155.215 -271.517 155.4ZM-268.545 93.4531C-261.465 91.9422 -256.11 85.7105 -255.95 78.2233C-248.462 78.0629 -242.231 72.7096 -240.721 65.6274C-239.211 72.7096 -232.979 78.0629 -225.492 78.2233C-225.331 85.7105 -219.978 91.9422 -212.896 93.4531C-219.978 94.9639 -225.331 101.194 -225.492 108.683C-232.979 108.843 -239.211 114.197 -240.721 121.277C-242.231 114.197 -248.462 108.843 -255.95 108.683C-256.11 101.194 -261.465 94.9639 -268.545 93.4531ZM-256.65 108.673C-264.765 108.488 -271.33 101.921 -271.517 93.8066C-263.402 93.9935 -256.837 100.559 -256.65 108.673ZM-271.517 93.0979C-271.33 84.9831 -264.765 78.418 -256.65 78.2311C-256.837 86.346 -263.402 92.9126 -271.517 93.0979ZM-255.942 77.5224C-255.755 69.4076 -249.19 62.8425 -241.075 62.6556C-241.262 70.7704 -247.827 77.3371 -255.942 77.5224ZM-255.942 47.0801C-247.827 47.267 -241.262 53.8321 -241.075 61.9469C-249.19 61.7616 -255.755 55.1949 -255.942 47.0801ZM-240.366 62.6556C-232.251 62.8425 -225.686 69.4076 -225.499 77.5224C-233.614 77.3371 -240.179 70.7704 -240.366 62.6556ZM-178.419 65.6274C-176.909 72.7096 -170.677 78.0629 -163.19 78.2233C-163.029 85.7105 -157.676 91.9422 -150.594 93.4531C-157.676 94.9639 -163.029 101.194 -163.19 108.683C-170.677 108.843 -176.909 114.197 -178.419 121.277C-179.929 114.197 -186.16 108.843 -193.648 108.683C-193.808 101.194 -199.163 94.9639 -206.243 93.4531C-199.163 91.9422 -193.808 85.7105 -193.648 78.2233C-186.16 78.0629 -179.929 72.7096 -178.419 65.6274ZM-193.64 77.5224C-193.453 69.4076 -186.888 62.8425 -178.773 62.6556C-178.96 70.7704 -185.525 77.3371 -193.64 77.5224ZM-193.64 47.0801C-185.525 47.267 -178.96 53.8321 -178.773 61.9469C-186.888 61.7616 -193.453 55.1949 -193.64 47.0801ZM-178.064 62.6556C-169.949 62.8425 -163.384 69.4076 -163.197 77.5224C-171.312 77.3371 -177.877 70.7704 -178.064 62.6556ZM-116.117 65.6274C-114.606 72.7096 -108.375 78.0629 -100.888 78.2233C-100.727 85.7105 -95.3738 91.9422 -88.2917 93.4531C-95.3738 94.9639 -100.727 101.194 -100.888 108.683C-108.375 108.843 -114.606 114.197 -116.117 121.277C-117.627 114.197 -123.858 108.843 -131.345 108.683C-131.506 101.194 -136.861 94.9639 -143.941 93.4531C-136.861 91.9422 -131.506 85.7105 -131.345 78.2233C-123.858 78.0629 -117.627 72.7096 -116.117 65.6274ZM-131.338 77.5224C-131.151 69.4076 -124.586 62.8425 -116.471 62.6556C-116.658 70.7704 -123.223 77.3371 -131.338 77.5224ZM-131.338 47.0801C-123.223 47.267 -116.658 53.8321 -116.471 61.9469C-124.586 61.7616 -131.151 55.1949 -131.338 47.0801ZM-115.762 62.6556C-107.647 62.8425 -101.082 69.4076 -100.895 77.5224C-109.01 77.3371 -115.575 70.7704 -115.762 62.6556ZM-69.7366 109.374C-69.5761 116.861 -64.2228 123.093 -57.1406 124.604C-64.2228 126.115 -69.5761 132.345 -69.7366 139.834C-77.2237 139.994 -83.4555 145.348 -84.9663 152.428C-86.4756 145.348 -92.7073 139.994 -100.194 139.834C-100.355 132.345 -105.71 126.115 -112.79 124.604C-105.71 123.093 -100.355 116.861 -100.194 109.374C-92.7073 109.214 -86.4756 103.861 -84.9663 96.7784C-83.4555 103.861 -77.2237 109.214 -69.7366 109.374ZM-84.6112 93.8066C-76.4963 93.9935 -69.9313 100.559 -69.7444 108.673C-77.8592 108.488 -84.4243 101.921 -84.6112 93.8066ZM-69.0357 109.382C-60.9208 109.569 -54.3557 116.134 -54.1688 124.249C-62.2837 124.064 -68.8488 117.497 -69.0357 109.382ZM-54.1688 124.958C-54.3557 133.072 -60.9208 139.639 -69.0357 139.824C-68.8488 131.71 -62.2837 125.145 -54.1688 124.958ZM-69.7444 140.533C-69.9313 148.648 -76.4963 155.215 -84.6112 155.4C-84.4243 147.285 -77.8592 140.72 -69.7444 140.533ZM-69.7444 170.975C-77.8592 170.79 -84.4243 164.224 -84.6112 156.109C-76.4963 156.296 -69.9313 162.861 -69.7444 170.975ZM-116.117 183.579C-117.627 176.499 -123.858 171.145 -131.345 170.985C-131.506 163.496 -136.861 157.266 -143.941 155.755C-136.861 154.244 -131.506 148.013 -131.345 140.525C-123.858 140.365 -117.627 135.012 -116.117 127.929C-114.606 135.012 -108.375 140.365 -100.888 140.525C-100.727 148.013 -95.3738 154.244 -88.2917 155.755C-95.3738 157.266 -100.727 163.496 -100.888 170.985C-108.375 171.145 -114.606 176.499 -116.117 183.579ZM-100.895 171.684C-101.082 179.799 -107.647 186.366 -115.762 186.551C-115.575 178.436 -109.01 171.871 -100.895 171.684ZM-100.895 202.127C-109.01 201.941 -115.575 195.375 -115.762 187.26C-107.647 187.447 -101.082 194.012 -100.895 202.127ZM-116.471 186.551C-124.586 186.366 -131.151 179.799 -131.338 171.684C-123.223 171.871 -116.658 178.436 -116.471 186.551ZM-132.046 170.975C-140.161 170.79 -146.726 164.224 -146.913 156.109C-138.798 156.296 -132.233 162.861 -132.046 170.975ZM-146.913 155.4C-146.726 147.285 -140.161 140.72 -132.046 140.533C-132.233 148.648 -138.798 155.215 -146.913 155.4ZM-131.338 139.824C-131.151 131.71 -124.586 125.145 -116.471 124.958C-116.658 133.072 -123.223 139.639 -131.338 139.824ZM-131.338 109.382C-123.223 109.569 -116.658 116.134 -116.471 124.249C-124.586 124.064 -131.151 117.497 -131.338 109.382ZM-115.762 124.958C-107.647 125.145 -101.082 131.71 -100.895 139.824C-109.01 139.639 -115.575 133.072 -115.762 124.958ZM-85.3199 156.109C-85.5068 164.224 -92.0718 170.79 -100.187 170.975C-99.9998 162.861 -93.4347 156.296 -85.3199 156.109ZM-100.187 140.533C-92.0718 140.72 -85.5068 147.285 -85.3199 155.4C-93.4347 155.215 -99.9998 148.648 -100.187 140.533ZM-115.762 124.249C-115.575 116.134 -109.01 109.569 -100.895 109.382C-101.082 117.497 -107.647 124.064 -115.762 124.249ZM-100.187 108.673C-99.9998 100.559 -93.4347 93.9935 -85.3199 93.8066C-85.5068 101.921 -92.0718 108.488 -100.187 108.673ZM-100.187 78.2311C-92.0718 78.418 -85.5068 84.9831 -85.3199 93.0979C-93.4347 92.9126 -99.9998 86.346 -100.187 78.2311ZM-146.913 93.0979C-146.726 84.9831 -140.161 78.418 -132.046 78.2311C-132.233 86.346 -138.798 92.9126 -146.913 93.0979ZM-132.046 108.673C-140.161 108.488 -146.726 101.921 -146.913 93.8066C-138.798 93.9935 -132.233 100.559 -132.046 108.673ZM-132.039 109.374C-131.878 116.861 -126.525 123.093 -119.443 124.604C-126.525 126.115 -131.878 132.345 -132.039 139.834C-139.526 139.994 -145.758 145.348 -147.268 152.428C-148.778 145.348 -155.009 139.994 -162.497 139.834C-162.657 132.345 -168.012 126.115 -175.092 124.604C-168.012 123.093 -162.657 116.861 -162.497 109.374C-155.009 109.214 -148.778 103.861 -147.268 96.7784C-145.758 103.861 -139.526 109.214 -132.039 109.374ZM-178.419 183.579C-179.929 176.499 -186.16 171.145 -193.648 170.985C-193.808 163.496 -199.163 157.266 -206.243 155.755C-199.163 154.244 -193.808 148.013 -193.648 140.525C-186.16 140.365 -179.929 135.012 -178.419 127.929C-176.909 135.012 -170.677 140.365 -163.19 140.525C-163.029 148.013 -157.676 154.244 -150.594 155.755C-157.676 157.266 -163.029 163.496 -163.19 170.985C-170.677 171.145 -176.909 176.499 -178.419 183.579ZM-163.197 171.684C-163.384 179.799 -169.949 186.366 -178.064 186.551C-177.877 178.436 -171.312 171.871 -163.197 171.684ZM-163.197 202.127C-171.312 201.941 -177.877 195.375 -178.064 187.26C-169.949 187.447 -163.384 194.012 -163.197 202.127ZM-178.773 186.551C-186.888 186.366 -193.453 179.799 -193.64 171.684C-185.525 171.871 -178.96 178.436 -178.773 186.551ZM-194.348 170.975C-202.463 170.79 -209.028 164.224 -209.215 156.109C-201.1 156.296 -194.535 162.861 -194.348 170.975ZM-209.215 155.4C-209.028 147.285 -202.463 140.72 -194.348 140.533C-194.535 148.648 -201.1 155.215 -209.215 155.4ZM-193.64 139.824C-193.453 131.71 -186.888 125.145 -178.773 124.958C-178.96 133.072 -185.525 139.639 -193.64 139.824ZM-193.64 109.382C-185.525 109.569 -178.96 116.134 -178.773 124.249C-186.888 124.064 -193.453 117.497 -193.64 109.382ZM-178.064 124.958C-169.949 125.145 -163.384 131.71 -163.197 139.824C-171.312 139.639 -177.877 133.072 -178.064 124.958ZM-147.622 156.109C-147.809 164.224 -154.374 170.79 -162.489 170.975C-162.302 162.861 -155.737 156.296 -147.622 156.109ZM-162.489 140.533C-154.374 140.72 -147.809 147.285 -147.622 155.4C-155.737 155.215 -162.302 148.648 -162.489 140.533ZM-178.064 124.249C-177.877 116.134 -171.312 109.569 -163.197 109.382C-163.384 117.497 -169.949 124.064 -178.064 124.249ZM-162.489 108.673C-162.302 100.559 -155.737 93.9935 -147.622 93.8066C-147.809 101.921 -154.374 108.488 -162.489 108.673ZM-162.489 78.2311C-154.374 78.418 -147.809 84.9831 -147.622 93.0979C-155.737 92.9126 -162.302 86.346 -162.489 78.2311ZM-209.215 93.0979C-209.028 84.9831 -202.463 78.418 -194.348 78.2311C-194.535 86.346 -201.1 92.9126 -209.215 93.0979ZM-194.348 108.673C-202.463 108.488 -209.028 101.921 -209.215 93.8066C-201.1 93.9935 -194.535 100.559 -194.348 108.673ZM-194.341 109.374C-194.18 116.861 -188.827 123.093 -181.745 124.604C-188.827 126.115 -194.18 132.345 -194.341 139.834C-201.828 139.994 -208.06 145.348 -209.57 152.428C-211.08 145.348 -217.311 139.994 -224.799 139.834C-224.959 132.345 -230.314 126.115 -237.394 124.604C-230.314 123.093 -224.959 116.861 -224.799 109.374C-217.311 109.214 -211.08 103.861 -209.57 96.7784C-208.06 103.861 -201.828 109.214 -194.341 109.374ZM-209.924 155.4C-218.039 155.215 -224.604 148.648 -224.791 140.533C-216.676 140.72 -210.111 147.285 -209.924 155.4ZM-225.499 139.824C-233.614 139.639 -240.179 133.072 -240.366 124.958C-232.251 125.145 -225.686 131.71 -225.499 139.824ZM-240.366 124.249C-240.179 116.134 -233.614 109.569 -225.499 109.382C-225.686 117.497 -232.251 124.064 -240.366 124.249ZM-224.791 108.673C-224.604 100.559 -218.039 93.9935 -209.924 93.8066C-210.111 101.921 -216.676 108.488 -224.791 108.673ZM-224.791 78.2311C-216.676 78.418 -210.111 84.9831 -209.924 93.0979C-218.039 92.9126 -224.604 86.346 -224.791 78.2311ZM-241.075 124.249C-249.19 124.064 -255.755 117.497 -255.942 109.382C-247.827 109.569 -241.262 116.134 -241.075 124.249ZM-255.942 139.824C-255.755 131.71 -249.19 125.145 -241.075 124.958C-241.262 133.072 -247.827 139.639 -255.942 139.824ZM-209.924 156.109C-210.111 164.224 -216.676 170.79 -224.791 170.975C-224.604 162.861 -218.039 156.296 -209.924 156.109ZM-225.499 171.684C-225.686 179.799 -232.251 186.366 -240.366 186.551C-240.179 178.436 -233.614 171.871 -225.499 171.684ZM-225.499 202.127C-233.614 201.941 -240.179 195.375 -240.366 187.26C-232.251 187.447 -225.686 194.012 -225.499 202.127ZM-241.075 186.551C-249.19 186.366 -255.755 179.799 -255.942 171.684C-247.827 171.871 -241.262 178.436 -241.075 186.551ZM-255.942 202.127C-255.755 194.012 -249.19 187.447 -241.075 187.26C-241.262 195.375 -247.827 201.941 -255.942 202.127ZM-209.924 218.411C-210.111 226.526 -216.676 233.092 -224.791 233.278C-224.604 225.163 -218.039 218.598 -209.924 218.411ZM-224.791 202.835C-216.676 203.022 -210.111 209.587 -209.924 217.702C-218.039 217.517 -224.604 210.95 -224.791 202.835ZM-224.799 202.136C-224.959 194.647 -230.314 188.417 -237.394 186.906C-230.314 185.395 -224.959 179.164 -224.799 171.676C-217.311 171.516 -211.08 166.163 -209.57 159.08C-208.06 166.163 -201.828 171.516 -194.341 171.676C-194.18 179.164 -188.827 185.395 -181.745 186.906C-188.827 188.417 -194.18 194.647 -194.341 202.136C-201.828 202.296 -208.06 207.65 -209.57 214.73C-211.08 207.65 -217.311 202.296 -224.799 202.136ZM-178.773 187.26C-178.96 195.375 -185.525 201.941 -193.64 202.127C-193.453 194.012 -186.888 187.447 -178.773 187.26ZM-194.348 202.835C-194.535 210.95 -201.1 217.517 -209.215 217.702C-209.028 209.587 -202.463 203.022 -194.348 202.835ZM-194.348 233.278C-202.463 233.092 -209.028 226.526 -209.215 218.411C-201.1 218.598 -194.535 225.163 -194.348 233.278ZM-147.622 218.411C-147.809 226.526 -154.374 233.092 -162.489 233.278C-162.302 225.163 -155.737 218.598 -147.622 218.411ZM-162.489 202.835C-154.374 203.022 -147.809 209.587 -147.622 217.702C-155.737 217.517 -162.302 210.95 -162.489 202.835ZM-162.497 202.136C-162.657 194.647 -168.012 188.417 -175.092 186.906C-168.012 185.395 -162.657 179.164 -162.497 171.676C-155.009 171.516 -148.778 166.163 -147.268 159.08C-145.758 166.163 -139.526 171.516 -132.039 171.676C-131.878 179.164 -126.525 185.395 -119.443 186.906C-126.525 188.417 -131.878 194.647 -132.039 202.136C-139.526 202.296 -145.758 207.65 -147.268 214.73C-148.778 207.65 -155.009 202.296 -162.497 202.136ZM-116.471 187.26C-116.658 195.375 -123.223 201.941 -131.338 202.127C-131.151 194.012 -124.586 187.447 -116.471 187.26ZM-132.046 202.835C-132.233 210.95 -138.798 217.517 -146.913 217.702C-146.726 209.587 -140.161 203.022 -132.046 202.835ZM-132.046 233.278C-140.161 233.092 -146.726 226.526 -146.913 218.411C-138.798 218.598 -132.233 225.163 -132.046 233.278ZM-85.3199 218.411C-85.5068 226.526 -92.0718 233.092 -100.187 233.278C-99.9998 225.163 -93.4347 218.598 -85.3199 218.411ZM-100.187 202.835C-92.0718 203.022 -85.5068 209.587 -85.3199 217.702C-93.4347 217.517 -99.9998 210.95 -100.187 202.835ZM-100.194 202.136C-100.355 194.647 -105.71 188.417 -112.79 186.906C-105.71 185.395 -100.355 179.164 -100.194 171.676C-92.7073 171.516 -86.4756 166.163 -84.9663 159.08C-83.4555 166.163 -77.2237 171.516 -69.7366 171.676C-69.5761 179.164 -64.2228 185.395 -57.1406 186.906C-64.2228 188.417 -69.5761 194.647 -69.7366 202.136C-77.2237 202.296 -83.4555 207.65 -84.9663 214.73C-86.4756 207.65 -92.7073 202.296 -100.194 202.136ZM-69.0357 171.684C-60.9208 171.871 -54.3557 178.436 -54.1688 186.551C-62.2837 186.366 -68.8488 179.799 -69.0357 171.684ZM-54.1688 187.26C-54.3557 195.375 -60.9208 201.941 -69.0357 202.127C-68.8488 194.012 -62.2837 187.447 -54.1688 187.26ZM-69.7444 202.835C-69.9313 210.95 -76.4963 217.517 -84.6112 217.702C-84.4243 209.587 -77.8592 203.022 -69.7444 202.835ZM-69.7444 233.278C-77.8592 233.092 -84.4243 226.526 -84.6112 218.411C-76.4963 218.598 -69.9313 225.163 -69.7444 233.278ZM-53.4601 187.26C-45.3453 187.447 -38.7802 194.012 -38.5933 202.127C-46.7082 201.941 -53.2732 195.375 -53.4601 187.26ZM-38.5933 171.684C-38.7802 179.799 -45.3453 186.366 -53.4601 186.551C-53.2732 178.436 -46.7082 171.871 -38.5933 171.684ZM-53.4601 124.958C-45.3453 125.145 -38.7802 131.71 -38.5933 139.824C-46.7082 139.639 -53.2732 133.072 -53.4601 124.958ZM-38.5933 109.382C-38.7802 117.497 -45.3453 124.064 -53.4601 124.249C-53.2732 116.134 -46.7082 109.569 -38.5933 109.382ZM-84.6112 93.0979C-84.4243 84.9831 -77.8592 78.418 -69.7444 78.2311C-69.9313 86.346 -76.4963 92.9126 -84.6112 93.0979ZM-69.0357 77.5224C-68.8488 69.4076 -62.2837 62.8425 -54.1688 62.6556C-54.3557 70.7704 -60.9208 77.3371 -69.0357 77.5224ZM-69.0357 47.0801C-60.9208 47.267 -54.3557 53.8321 -54.1688 61.9469C-62.2837 61.7616 -68.8488 55.1949 -69.0357 47.0801ZM-53.4601 62.6556C-45.3453 62.8425 -38.7802 69.4076 -38.5933 77.5224C-46.7082 77.3371 -53.2732 70.7704 -53.4601 62.6556ZM-38.5933 47.0801C-38.7802 55.1949 -45.3453 61.7616 -53.4601 61.9469C-53.2732 53.8321 -46.7082 47.267 -38.5933 47.0801ZM-69.7444 15.9291C-69.9313 24.0439 -76.4963 30.6105 -84.6112 30.7959C-84.4243 22.6811 -77.8592 16.116 -69.7444 15.9291ZM-69.7444 46.3714C-77.8592 46.1861 -84.4243 39.6194 -84.6112 31.5046C-76.4963 31.6915 -69.9313 38.2566 -69.7444 46.3714ZM-69.7366 47.0723C-69.5761 54.5595 -64.2228 60.7912 -57.1406 62.302C-64.2228 63.8129 -69.5761 70.0431 -69.7366 77.5318C-77.2237 77.6922 -83.4555 83.0455 -84.9663 90.1261C-86.4756 83.0455 -92.7073 77.6922 -100.194 77.5318C-100.355 70.0431 -105.71 63.8129 -112.79 62.302C-105.71 60.7912 -100.355 54.5595 -100.194 47.0723C-92.7073 46.9119 -86.4756 41.5586 -84.9663 34.4764C-83.4555 41.5586 -77.2237 46.9119 -69.7366 47.0723ZM-115.762 61.9469C-115.575 53.8321 -109.01 47.267 -100.895 47.0801C-101.082 55.1949 -107.647 61.7616 -115.762 61.9469ZM-100.187 46.3714C-99.9998 38.2566 -93.4347 31.6915 -85.3199 31.5046C-85.5068 39.6194 -92.0718 46.1861 -100.187 46.3714ZM-85.3199 30.7959C-93.4347 30.6105 -99.9998 24.0439 -100.187 15.9291C-92.0718 16.116 -85.5068 22.6811 -85.3199 30.7959ZM-100.895 15.2204C-109.01 15.035 -115.575 8.4684 -115.762 0.353564C-107.647 0.54047 -101.082 7.10555 -100.895 15.2204ZM-116.471 0.353564C-116.658 8.4684 -123.223 15.035 -131.338 15.2204C-131.151 7.10555 -124.586 0.54047 -116.471 0.353564ZM-131.345 15.9213C-123.858 15.7609 -117.627 10.4076 -116.117 3.32537C-114.606 10.4076 -108.375 15.7609 -100.888 15.9213C-100.727 23.4084 -95.3738 29.6402 -88.2917 31.151C-95.3738 32.6618 -100.727 38.892 -100.888 46.3808C-108.375 46.5412 -114.606 51.8945 -116.117 58.9751C-117.627 51.8945 -123.858 46.5412 -131.345 46.3808C-131.506 38.892 -136.861 32.6618 -143.941 31.151C-136.861 29.6402 -131.506 23.4084 -131.345 15.9213ZM-132.046 15.9291C-132.233 24.0439 -138.798 30.6105 -146.913 30.7959C-146.726 22.6811 -140.161 16.116 -132.046 15.9291ZM-132.046 46.3714C-140.161 46.1861 -146.726 39.6194 -146.913 31.5046C-138.798 31.6915 -132.233 38.2566 -132.046 46.3714ZM-132.039 47.0723C-131.878 54.5595 -126.525 60.7912 -119.443 62.302C-126.525 63.8129 -131.878 70.0431 -132.039 77.5318C-139.526 77.6922 -145.758 83.0455 -147.268 90.1261C-148.778 83.0455 -155.009 77.6922 -162.497 77.5318C-162.657 70.0431 -168.012 63.8129 -175.092 62.302C-168.012 60.7912 -162.657 54.5595 -162.497 47.0723C-155.009 46.9119 -148.778 41.5586 -147.268 34.4764C-145.758 41.5586 -139.526 46.9119 -132.039 47.0723ZM-178.064 61.9469C-177.877 53.8321 -171.312 47.267 -163.197 47.0801C-163.384 55.1949 -169.949 61.7616 -178.064 61.9469ZM-162.489 46.3714C-162.302 38.2566 -155.737 31.6915 -147.622 31.5046C-147.809 39.6194 -154.374 46.1861 -162.489 46.3714ZM-147.622 30.7959C-155.737 30.6105 -162.302 24.0439 -162.489 15.9291C-154.374 16.116 -147.809 22.6811 -147.622 30.7959ZM-163.197 15.2204C-171.312 15.035 -177.877 8.4684 -178.064 0.353564C-169.949 0.54047 -163.384 7.10555 -163.197 15.2204ZM-178.773 0.353564C-178.96 8.4684 -185.525 15.035 -193.64 15.2204C-193.453 7.10555 -186.888 0.54047 -178.773 0.353564ZM-193.648 15.9213C-186.16 15.7609 -179.929 10.4076 -178.419 3.32537C-176.909 10.4076 -170.677 15.7609 -163.19 15.9213C-163.029 23.4084 -157.676 29.6402 -150.594 31.151C-157.676 32.6618 -163.029 38.892 -163.19 46.3808C-170.677 46.5412 -176.909 51.8945 -178.419 58.9751C-179.929 51.8945 -186.16 46.5412 -193.648 46.3808C-193.808 38.892 -199.163 32.6618 -206.243 31.151C-199.163 29.6402 -193.808 23.4084 -193.648 15.9213ZM-194.348 15.9291C-194.535 24.0439 -201.1 30.6105 -209.215 30.7959C-209.028 22.6811 -202.463 16.116 -194.348 15.9291ZM-194.348 46.3714C-202.463 46.1861 -209.028 39.6194 -209.215 31.5046C-201.1 31.6915 -194.535 38.2566 -194.348 46.3714ZM-194.341 47.0723C-194.18 54.5595 -188.827 60.7912 -181.745 62.302C-188.827 63.8129 -194.18 70.0431 -194.341 77.5318C-201.828 77.6922 -208.06 83.0455 -209.57 90.1261C-211.08 83.0455 -217.311 77.6922 -224.799 77.5318C-224.959 70.0431 -230.314 63.8129 -237.394 62.302C-230.314 60.7912 -224.959 54.5595 -224.799 47.0723C-217.311 46.9119 -211.08 41.5586 -209.57 34.4764C-208.06 41.5586 -201.828 46.9119 -194.341 47.0723ZM-240.366 61.9469C-240.179 53.8321 -233.614 47.267 -225.499 47.0801C-225.686 55.1949 -232.251 61.7616 -240.366 61.9469ZM-224.791 46.3714C-224.604 38.2566 -218.039 31.6915 -209.924 31.5046C-210.111 39.6194 -216.676 46.1861 -224.791 46.3714ZM-209.924 30.7959C-218.039 30.6105 -224.604 24.0439 -224.791 15.9291C-216.676 16.116 -210.111 22.6811 -209.924 30.7959ZM-225.499 15.2204C-233.614 15.035 -240.179 8.4684 -240.366 0.353564C-232.251 0.54047 -225.686 7.10555 -225.499 15.2204ZM-241.075 0.353564C-241.262 8.4684 -247.827 15.035 -255.942 15.2204C-255.755 7.10555 -249.19 0.54047 -241.075 0.353564ZM-255.95 15.9213C-248.462 15.7609 -242.231 10.4076 -240.721 3.32537C-239.211 10.4076 -232.979 15.7609 -225.492 15.9213C-225.331 23.4084 -219.978 29.6402 -212.896 31.151C-219.978 32.6618 -225.331 38.892 -225.492 46.3808C-232.979 46.5412 -239.211 51.8945 -240.721 58.9751C-242.231 51.8945 -248.462 46.5412 -255.95 46.3808C-256.11 38.892 -261.465 32.6618 -268.545 31.151C-261.465 29.6402 -256.11 23.4084 -255.95 15.9213ZM-256.65 15.9291C-256.837 24.0439 -263.402 30.6105 -271.517 30.7959C-271.33 22.6811 -264.765 16.116 -256.65 15.9291ZM-256.65 46.3714C-264.765 46.1861 -271.33 39.6194 -271.517 31.5046C-263.402 31.6915 -256.837 38.2566 -256.65 46.3714ZM-287.093 15.9291C-278.978 16.116 -272.413 22.6811 -272.226 30.7959C-280.341 30.6105 -286.906 24.0439 -287.093 15.9291ZM-272.226 31.5046C-272.413 39.6194 -278.978 46.1861 -287.093 46.3714C-286.906 38.2566 -280.341 31.6915 -272.226 31.5046ZM-287.801 47.0801C-287.988 55.1949 -294.553 61.7616 -302.668 61.9469C-302.481 53.8321 -295.916 47.267 -287.801 47.0801ZM-302.668 62.6556C-294.553 62.8425 -287.988 69.4076 -287.801 77.5224C-295.916 77.3371 -302.481 70.7704 -302.668 62.6556ZM-299.697 62.302C-292.616 60.7912 -287.261 54.5595 -287.101 47.0723C-279.613 46.9119 -273.382 41.5586 -271.872 34.4764C-270.362 41.5586 -264.13 46.9119 -256.643 47.0723C-256.482 54.5595 -251.129 60.7912 -244.047 62.302C-251.129 63.8129 -256.482 70.0431 -256.643 77.5318C-264.13 77.6922 -270.362 83.0455 -271.872 90.1261C-273.382 83.0455 -279.613 77.6922 -287.101 77.5318C-287.261 70.0431 -292.616 63.8129 -299.697 62.302ZM-287.093 78.2311C-278.978 78.418 -272.413 84.9831 -272.226 93.0979C-280.341 92.9126 -286.906 86.346 -287.093 78.2311ZM-272.226 93.8066C-272.413 101.921 -278.978 108.488 -287.093 108.673C-286.906 100.559 -280.341 93.9935 -272.226 93.8066ZM-287.801 109.382C-287.988 117.497 -294.553 124.064 -302.668 124.249C-302.481 116.134 -295.916 109.569 -287.801 109.382ZM-302.668 124.958C-294.553 125.145 -287.988 131.71 -287.801 139.824C-295.916 139.639 -302.481 133.072 -302.668 124.958ZM-299.697 124.604C-292.616 123.093 -287.261 116.861 -287.101 109.374C-279.613 109.214 -273.382 103.861 -271.872 96.7784C-270.362 103.861 -264.13 109.214 -256.643 109.374C-256.482 116.861 -251.129 123.093 -244.047 124.604C-251.129 126.115 -256.482 132.345 -256.643 139.834C-264.13 139.994 -270.362 145.348 -271.872 152.428C-273.382 145.348 -279.613 139.994 -287.101 139.834C-287.261 132.345 -292.616 126.115 -299.697 124.604ZM-287.093 140.533C-278.978 140.72 -272.413 147.285 -272.226 155.4C-280.341 155.215 -286.906 148.648 -287.093 140.533ZM-272.226 156.109C-272.413 164.224 -278.978 170.79 -287.093 170.975C-286.906 162.861 -280.341 156.296 -272.226 156.109ZM-287.801 171.684C-287.988 179.799 -294.553 186.366 -302.668 186.551C-302.481 178.436 -295.916 171.871 -287.801 171.684ZM-302.668 187.26C-294.553 187.447 -287.988 194.012 -287.801 202.127C-295.916 201.941 -302.481 195.375 -302.668 187.26ZM-299.697 186.906C-292.616 185.395 -287.261 179.164 -287.101 171.676C-279.613 171.516 -273.382 166.163 -271.872 159.08C-270.362 166.163 -264.13 171.516 -256.643 171.676C-256.482 179.164 -251.129 185.395 -244.047 186.906C-251.129 188.417 -256.482 194.647 -256.643 202.136C-264.13 202.296 -270.362 207.65 -271.872 214.73C-273.382 207.65 -279.613 202.296 -287.101 202.136C-287.261 194.647 -292.616 188.417 -299.697 186.906ZM-287.093 202.835C-278.978 203.022 -272.413 209.587 -272.226 217.702C-280.341 217.517 -286.906 210.95 -287.093 202.835ZM-272.226 218.411C-272.413 226.526 -278.978 233.092 -287.093 233.278C-286.906 225.163 -280.341 218.598 -272.226 218.411ZM-287.801 233.986C-287.988 242.101 -294.553 248.668 -302.668 248.853C-302.481 240.738 -295.916 234.173 -287.801 233.986ZM-302.668 249.562C-294.553 249.749 -287.988 256.314 -287.801 264.429C-295.916 264.243 -302.481 257.677 -302.668 249.562ZM-287.093 295.58C-286.906 287.465 -280.341 280.9 -272.226 280.713C-272.413 288.828 -278.978 295.394 -287.093 295.58ZM-287.093 265.137C-278.978 265.324 -272.413 271.889 -272.226 280.004C-280.341 279.819 -286.906 273.252 -287.093 265.137ZM-287.101 264.438C-287.261 256.949 -292.616 250.719 -299.697 249.208C-292.616 247.697 -287.261 241.466 -287.101 233.978C-279.613 233.818 -273.382 228.465 -271.872 221.383C-270.362 228.465 -264.13 233.818 -256.643 233.978C-256.482 241.466 -251.129 247.697 -244.047 249.208C-251.129 250.719 -256.482 256.949 -256.643 264.438C-264.13 264.598 -270.362 269.952 -271.872 277.032C-273.382 269.952 -279.613 264.598 -287.101 264.438ZM-241.075 249.562C-241.262 257.677 -247.827 264.243 -255.942 264.429C-255.755 256.314 -249.19 249.749 -241.075 249.562ZM-256.65 265.137C-256.837 273.252 -263.402 279.819 -271.517 280.004C-271.33 271.889 -264.765 265.324 -256.65 265.137ZM-271.517 280.713C-263.402 280.9 -256.837 287.465 -256.65 295.58C-264.765 295.394 -271.33 288.828 -271.517 280.713ZM-255.942 296.288C-247.827 296.475 -241.262 303.04 -241.075 311.155C-249.19 310.97 -255.755 304.403 -255.942 296.288ZM-240.366 311.155C-240.179 303.04 -233.614 296.475 -225.499 296.288C-225.686 304.403 -232.251 310.97 -240.366 311.155ZM-225.492 295.589C-232.979 295.749 -239.211 301.103 -240.721 308.183C-242.231 301.103 -248.462 295.749 -255.95 295.589C-256.11 288.1 -261.465 281.87 -268.545 280.359C-261.465 278.848 -256.11 272.617 -255.95 265.129C-248.462 264.969 -242.231 259.616 -240.721 252.534C-239.211 259.616 -232.979 264.969 -225.492 265.129C-225.331 272.617 -219.978 278.848 -212.896 280.359C-219.978 281.87 -225.331 288.1 -225.492 295.589ZM-224.791 295.58C-224.604 287.465 -218.039 280.9 -209.924 280.713C-210.111 288.828 -216.676 295.394 -224.791 295.58ZM-224.791 265.137C-216.676 265.324 -210.111 271.889 -209.924 280.004C-218.039 279.819 -224.604 273.252 -224.791 265.137ZM-224.799 264.438C-224.959 256.949 -230.314 250.719 -237.394 249.208C-230.314 247.697 -224.959 241.466 -224.799 233.978C-217.311 233.818 -211.08 228.465 -209.57 221.383C-208.06 228.465 -201.828 233.818 -194.341 233.978C-194.18 241.466 -188.827 247.697 -181.745 249.208C-188.827 250.719 -194.18 256.949 -194.341 264.438C-201.828 264.598 -208.06 269.952 -209.57 277.032C-211.08 269.952 -217.311 264.598 -224.799 264.438ZM-178.773 249.562C-178.96 257.677 -185.525 264.243 -193.64 264.429C-193.453 256.314 -186.888 249.749 -178.773 249.562ZM-194.348 265.137C-194.535 273.252 -201.1 279.819 -209.215 280.004C-209.028 271.889 -202.463 265.324 -194.348 265.137ZM-209.215 280.713C-201.1 280.9 -194.535 287.465 -194.348 295.58C-202.463 295.394 -209.028 288.828 -209.215 280.713ZM-193.64 296.288C-185.525 296.475 -178.96 303.04 -178.773 311.155C-186.888 310.97 -193.453 304.403 -193.64 296.288ZM-178.064 311.155C-177.877 303.04 -171.312 296.475 -163.197 296.288C-163.384 304.403 -169.949 310.97 -178.064 311.155ZM-163.19 295.589C-170.677 295.749 -176.909 301.103 -178.419 308.183C-179.929 301.103 -186.16 295.749 -193.648 295.589C-193.808 288.1 -199.163 281.87 -206.243 280.359C-199.163 278.848 -193.808 272.617 -193.648 265.129C-186.16 264.969 -179.929 259.616 -178.419 252.534C-176.909 259.616 -170.677 264.969 -163.19 265.129C-163.029 272.617 -157.676 278.848 -150.594 280.359C-157.676 281.87 -163.029 288.1 -163.19 295.589ZM-162.489 295.58C-162.302 287.465 -155.737 280.9 -147.622 280.713C-147.809 288.828 -154.374 295.394 -162.489 295.58ZM-162.489 265.137C-154.374 265.324 -147.809 271.889 -147.622 280.004C-155.737 279.819 -162.302 273.252 -162.489 265.137ZM-162.497 264.438C-162.657 256.949 -168.012 250.719 -175.092 249.208C-168.012 247.697 -162.657 241.466 -162.497 233.978C-155.009 233.818 -148.778 228.465 -147.268 221.383C-145.758 228.465 -139.526 233.818 -132.039 233.978C-131.878 241.466 -126.525 247.697 -119.443 249.208C-126.525 250.719 -131.878 256.949 -132.039 264.438C-139.526 264.598 -145.758 269.952 -147.268 277.032C-148.778 269.952 -155.009 264.598 -162.497 264.438ZM-116.471 249.562C-116.658 257.677 -123.223 264.243 -131.338 264.429C-131.151 256.314 -124.586 249.749 -116.471 249.562ZM-132.046 265.137C-132.233 273.252 -138.798 279.819 -146.913 280.004C-146.726 271.889 -140.161 265.324 -132.046 265.137ZM-146.913 280.713C-138.798 280.9 -132.233 287.465 -132.046 295.58C-140.161 295.394 -146.726 288.828 -146.913 280.713ZM-131.338 296.288C-123.223 296.475 -116.658 303.04 -116.471 311.155C-124.586 310.97 -131.151 304.403 -131.338 296.288ZM-115.762 311.155C-115.575 303.04 -109.01 296.475 -100.895 296.288C-101.082 304.403 -107.647 310.97 -115.762 311.155ZM-100.888 295.589C-108.375 295.749 -114.606 301.103 -116.117 308.183C-117.627 301.103 -123.858 295.749 -131.345 295.589C-131.506 288.1 -136.861 281.87 -143.941 280.359C-136.861 278.848 -131.506 272.617 -131.345 265.129C-123.858 264.969 -117.627 259.616 -116.117 252.534C-114.606 259.616 -108.375 264.969 -100.888 265.129C-100.727 272.617 -95.3738 278.848 -88.2917 280.359C-95.3738 281.87 -100.727 288.1 -100.888 295.589ZM-100.187 295.58C-99.9998 287.465 -93.4347 280.9 -85.3199 280.713C-85.5068 288.828 -92.0718 295.394 -100.187 295.58ZM-100.187 265.137C-92.0718 265.324 -85.5068 271.889 -85.3199 280.004C-93.4347 279.819 -99.9998 273.252 -100.187 265.137ZM-100.194 264.438C-100.355 256.949 -105.71 250.719 -112.79 249.208C-105.71 247.697 -100.355 241.466 -100.194 233.978C-92.7073 233.818 -86.4756 228.465 -84.9663 221.383C-83.4555 228.465 -77.2237 233.818 -69.7366 233.978C-69.5761 241.466 -64.2228 247.697 -57.1406 249.208C-64.2228 250.719 -69.5761 256.949 -69.7366 264.438C-77.2237 264.598 -83.4555 269.952 -84.9663 277.032C-86.4756 269.952 -92.7073 264.598 -100.194 264.438ZM-54.1688 249.562C-54.3557 257.677 -60.9208 264.243 -69.0357 264.429C-68.8488 256.314 -62.2837 249.749 -54.1688 249.562ZM-69.7444 265.137C-69.9313 273.252 -76.4963 279.819 -84.6112 280.004C-84.4243 271.889 -77.8592 265.324 -69.7444 265.137ZM-84.6112 280.713C-76.4963 280.9 -69.9313 287.465 -69.7444 295.58C-77.8592 295.394 -84.4243 288.828 -84.6112 280.713ZM-69.0357 296.288C-60.9208 296.475 -54.3557 303.04 -54.1688 311.155C-62.2837 310.97 -68.8488 304.403 -69.0357 296.288ZM-53.4601 311.155C-53.2732 303.04 -46.7082 296.475 -38.5933 296.288C-38.7802 304.403 -45.3453 310.97 -53.4601 311.155ZM-38.5855 295.589C-46.0727 295.749 -52.3044 301.103 -53.8153 308.183C-55.3245 301.103 -61.5563 295.749 -69.0435 295.589C-69.2039 288.1 -74.5587 281.87 -81.6394 280.359C-74.5587 278.848 -69.2039 272.617 -69.0435 265.129C-61.5563 264.969 -55.3245 259.616 -53.8153 252.534C-52.3044 259.616 -46.0727 264.969 -38.5855 265.129C-38.4251 272.617 -33.0718 278.848 -25.9896 280.359C-33.0718 281.87 -38.4251 288.1 -38.5855 295.589ZM-37.8846 295.58C-37.6977 287.465 -31.1327 280.9 -23.0178 280.713C-23.2047 288.828 -29.7698 295.394 -37.8846 295.58ZM-37.8846 265.137C-29.7698 265.324 -23.2047 271.889 -23.0178 280.004C-31.1327 279.819 -37.6977 273.252 -37.8846 265.137ZM-7.44232 295.58C-15.5572 295.394 -22.1222 288.828 -22.3091 280.713C-14.1943 280.9 -7.62921 287.465 -7.44232 295.58ZM-22.3091 280.004C-22.1222 271.889 -15.5572 265.324 -7.44232 265.137C-7.62921 273.252 -14.1943 279.819 -22.3091 280.004ZM-6.73361 264.429C-6.54672 256.314 0.0183716 249.749 8.13321 249.562C7.94629 257.677 1.38123 264.243 -6.73361 264.429ZM8.13321 248.853C0.0183716 248.668 -6.54672 242.101 -6.73361 233.986C1.38123 234.173 7.94629 240.738 8.13321 248.853ZM5.16141 249.208C-1.92078 250.719 -7.27408 256.949 -7.43451 264.438C-14.9217 264.598 -21.1534 269.952 -22.6642 277.032C-24.1735 269.952 -30.4053 264.598 -37.8924 264.438C-38.0529 256.949 -43.4077 250.719 -50.4883 249.208C-43.4077 247.697 -38.0529 241.466 -37.8924 233.978C-30.4053 233.818 -24.1735 228.465 -22.6642 221.383C-21.1534 228.465 -14.9217 233.818 -7.43451 233.978C-7.27408 241.466 -1.92078 247.697 5.16141 249.208ZM-7.44232 233.278C-15.5572 233.092 -22.1222 226.526 -22.3091 218.411C-14.1943 218.598 -7.62921 225.163 -7.44232 233.278ZM-22.3091 217.702C-22.1222 209.587 -15.5572 203.022 -7.44232 202.835C-7.62921 210.95 -14.1943 217.517 -22.3091 217.702ZM-6.73361 202.127C-6.54672 194.012 0.0183716 187.447 8.13321 187.26C7.94629 195.375 1.38123 201.941 -6.73361 202.127ZM8.13321 186.551C0.0183716 186.366 -6.54672 179.799 -6.73361 171.684C1.38123 171.871 7.94629 178.436 8.13321 186.551ZM5.16141 186.906C-1.92078 188.417 -7.27408 194.647 -7.43451 202.136C-14.9217 202.296 -21.1534 207.65 -22.6642 214.73C-24.1735 207.65 -30.4053 202.296 -37.8924 202.136C-38.0529 194.647 -43.4077 188.417 -50.4883 186.906C-43.4077 185.395 -38.0529 179.164 -37.8924 171.676C-30.4053 171.516 -24.1735 166.163 -22.6642 159.08C-21.1534 166.163 -14.9217 171.516 -7.43451 171.676C-7.27408 179.164 -1.92078 185.395 5.16141 186.906ZM-7.44232 170.975C-15.5572 170.79 -22.1222 164.224 -22.3091 156.109C-14.1943 156.296 -7.62921 162.861 -7.44232 170.975ZM-22.3091 155.4C-22.1222 147.285 -15.5572 140.72 -7.44232 140.533C-7.62921 148.648 -14.1943 155.215 -22.3091 155.4ZM-6.73361 139.824C-6.54672 131.71 0.0183716 125.145 8.13321 124.958C7.94629 133.072 1.38123 139.639 -6.73361 139.824ZM8.13321 124.249C0.0183716 124.064 -6.54672 117.497 -6.73361 109.382C1.38123 109.569 7.94629 116.134 8.13321 124.249ZM5.16141 124.604C-1.92078 126.115 -7.27408 132.345 -7.43451 139.834C-14.9217 139.994 -21.1534 145.348 -22.6642 152.428C-24.1735 145.348 -30.4053 139.994 -37.8924 139.834C-38.0529 132.345 -43.4077 126.115 -50.4883 124.604C-43.4077 123.093 -38.0529 116.861 -37.8924 109.374C-30.4053 109.214 -24.1735 103.861 -22.6642 96.7784C-21.1534 103.861 -14.9217 109.214 -7.43451 109.374C-7.27408 116.861 -1.92078 123.093 5.16141 124.604ZM-7.44232 108.673C-15.5572 108.488 -22.1222 101.921 -22.3091 93.8066C-14.1943 93.9935 -7.62921 100.559 -7.44232 108.673ZM-22.3091 93.0979C-22.1222 84.9831 -15.5572 78.418 -7.44232 78.2311C-7.62921 86.346 -14.1943 92.9126 -22.3091 93.0979ZM-6.73361 77.5224C-6.54672 69.4076 0.0183716 62.8425 8.13321 62.6556C7.94629 70.7704 1.38123 77.3371 -6.73361 77.5224ZM8.13321 61.9469C0.0183716 61.7616 -6.54672 55.1949 -6.73361 47.0801C1.38123 47.267 7.94629 53.8321 8.13321 61.9469ZM5.16141 62.302C-1.92078 63.8129 -7.27408 70.0431 -7.43451 77.5318C-14.9217 77.6922 -21.1534 83.0455 -22.6642 90.1261C-24.1735 83.0455 -30.4053 77.6922 -37.8924 77.5318C-38.0529 70.0431 -43.4077 63.8129 -50.4883 62.302C-43.4077 60.7912 -38.0529 54.5595 -37.8924 47.0723C-30.4053 46.9119 -24.1735 41.5586 -22.6642 34.4764C-21.1534 41.5586 -14.9217 46.9119 -7.43451 47.0723C-7.27408 54.5595 -1.92078 60.7912 5.16141 62.302ZM-7.44232 46.3714C-15.5572 46.1861 -22.1222 39.6194 -22.3091 31.5046C-14.1943 31.6915 -7.62921 38.2566 -7.44232 46.3714ZM-22.3091 30.7959C-22.1222 22.6811 -15.5572 16.116 -7.44232 15.9291C-7.62921 24.0439 -14.1943 30.6105 -22.3091 30.7959Z" fill="#172D2D"/>
<path d="M8.48567 140.18V171.331H8.42804C8.42804 162.774 1.46734 155.813 -7.08984 155.813V155.696C1.46734 155.696 8.42804 148.736 8.42804 140.18H8.48567Z" fill="#172D2D"/>
<path d="M8.48567 15.5752V46.7262H8.42804C8.42804 38.169 1.46734 31.2083 -7.08984 31.2083V31.0915C1.46734 31.0915 8.42804 24.1308 8.42804 15.5752H8.48567Z" fill="#172D2D"/>
<path d="M8.48567 77.8774V109.028H8.42804C8.42804 100.471 1.46734 93.5106 -7.08984 93.5106V93.3938C1.46734 93.3938 8.42804 86.4331 8.42804 77.8774H8.48567Z" fill="#172D2D"/>
<path d="M304.77 15.9213C312.257 15.7609 318.489 10.4076 319.998 3.32537V0H316.673C309.591 1.51082 304.238 7.74103 304.077 15.2297C296.59 15.3902 290.358 20.7435 288.847 27.8241C287.338 20.7435 281.106 15.3902 273.619 15.2297C273.459 7.74103 268.104 1.51082 261.023 0H254.371C247.289 1.51082 241.936 7.74103 241.775 15.2297C234.288 15.3902 228.056 20.7435 226.545 27.8241C225.036 20.7435 218.804 15.3902 211.317 15.2297C211.157 7.74103 205.802 1.51082 198.721 0H192.069C184.987 1.51082 179.634 7.74103 179.473 15.2297C171.986 15.3902 165.754 20.7435 164.243 27.8241C162.734 20.7435 156.502 15.3902 149.015 15.2297C148.855 7.74103 143.5 1.51082 136.419 0H129.767C122.685 1.51082 117.332 7.74103 117.171 15.2297C109.684 15.3902 103.452 20.7435 101.941 27.8241C100.432 20.7435 94.2003 15.3902 86.7132 15.2297C86.5527 7.74103 81.1979 1.51082 74.1173 0H67.4649C60.3828 1.51082 55.0295 7.74103 54.869 15.2297C47.3819 15.3902 41.1501 20.7435 39.6393 27.8241C38.13 20.7435 31.8983 15.3902 24.4111 15.2297C24.2507 7.74103 18.8958 1.51082 11.8152 0H8.48828V3.32537C9.99911 10.4076 16.2309 15.7609 23.718 15.9213C23.8784 23.4084 29.2317 29.6402 36.3139 31.151C29.2317 32.6618 23.8784 38.892 23.718 46.3808C16.2309 46.5412 9.99911 51.8945 8.48828 58.9751V65.6274C9.99911 72.7096 16.2309 78.0629 23.718 78.2233C23.8784 85.7105 29.2317 91.9422 36.3139 93.4531C29.2317 94.9639 23.8784 101.194 23.718 108.683C16.2309 108.843 9.99911 114.197 8.48828 121.277V127.929C9.99911 135.012 16.2309 140.365 23.718 140.525C23.8784 148.013 29.2317 154.244 36.3139 155.755C29.2317 157.266 23.8784 163.496 23.718 170.985C16.2309 171.145 9.99911 176.499 8.48828 183.579V190.231C9.99911 197.314 16.2309 202.667 23.718 202.827C23.8784 210.315 29.2317 216.546 36.3139 218.057C29.2317 219.568 23.8784 225.798 23.718 233.287C16.2309 233.447 9.99911 238.801 8.48828 245.881V252.534C9.99911 259.616 16.2309 264.969 23.718 265.129C23.8784 272.617 29.2317 278.848 36.3139 280.359C29.2317 281.87 23.8784 288.1 23.718 295.589C16.2309 295.749 9.99911 301.103 8.48828 308.183V311.51H11.8152C18.8958 309.999 24.2507 303.768 24.4111 296.28C31.8983 296.12 38.13 290.767 39.6393 283.685C41.1501 290.767 47.3819 296.12 54.869 296.28C55.0295 303.768 60.3828 309.999 67.4649 311.51H74.1173C81.1979 309.999 86.5527 303.768 86.7132 296.28C94.2003 296.12 100.432 290.767 101.941 283.685C103.452 290.767 109.684 296.12 117.171 296.28C117.332 303.768 122.685 309.999 129.767 311.51H136.419C143.5 309.999 148.855 303.768 149.015 296.28C156.502 296.12 162.734 290.767 164.243 283.685C165.754 290.767 171.986 296.12 179.473 296.28C179.634 303.768 184.987 309.999 192.069 311.51H198.721C205.802 309.999 211.157 303.768 211.317 296.28C218.804 296.12 225.036 290.767 226.545 283.685C228.056 290.767 234.288 296.12 241.775 296.28C241.936 303.768 247.289 309.999 254.371 311.51H261.023C268.104 309.999 273.459 303.768 273.619 296.28C281.106 296.12 287.338 290.767 288.847 283.685C290.358 290.767 296.59 296.12 304.077 296.28C304.238 303.768 309.591 309.999 316.673 311.51H319.998V308.183C318.489 301.103 312.257 295.749 304.77 295.589C304.61 288.1 299.255 281.87 292.174 280.359C299.255 278.848 304.61 272.617 304.77 265.129C312.257 264.969 318.489 259.616 319.998 252.534V245.881C318.489 238.801 312.257 233.447 304.77 233.287C304.61 225.798 299.255 219.568 292.174 218.057C299.255 216.546 304.61 210.315 304.77 202.827C312.257 202.667 318.489 197.314 319.998 190.231V183.579C318.489 176.499 312.257 171.145 304.77 170.985C304.61 163.496 299.255 157.266 292.174 155.755C299.255 154.244 304.61 148.013 304.77 140.525C312.257 140.365 318.489 135.012 319.998 127.929V121.277C318.489 114.197 312.257 108.843 304.77 108.683C304.61 101.194 299.255 94.9639 292.174 93.4531C299.255 91.9422 304.61 85.7105 304.77 78.2233C312.257 78.0629 318.489 72.7096 319.998 65.6274V58.9751C318.489 51.8945 312.257 46.5412 304.77 46.3808C304.61 38.892 299.255 32.6618 292.174 31.151C299.255 29.6402 304.61 23.4084 304.77 15.9213ZM319.645 0.353564C319.458 8.4684 312.893 15.035 304.778 15.2204C304.965 7.10555 311.53 0.54047 319.645 0.353564ZM8.84341 0.353564C16.9582 0.54047 23.5233 7.10555 23.7102 15.2204C15.5954 15.035 9.03031 8.4684 8.84341 0.353564ZM8.84341 311.155C9.03031 303.04 15.5954 296.475 23.7102 296.288C23.5233 304.403 16.9582 310.97 8.84341 311.155ZM319.645 311.155C311.53 310.97 304.965 304.403 304.778 296.288C312.893 296.475 319.458 303.04 319.645 311.155ZM288.494 30.7959C280.379 30.6105 273.814 24.0439 273.627 15.9291C281.742 16.116 288.307 22.6811 288.494 30.7959ZM272.918 15.2204C264.804 15.035 258.238 8.4684 258.052 0.353564C266.166 0.54047 272.731 7.10555 272.918 15.2204ZM257.343 0.353564C257.156 8.4684 250.591 15.035 242.476 15.2204C242.663 7.10555 249.228 0.54047 257.343 0.353564ZM242.468 15.9213C249.955 15.7609 256.187 10.4076 257.696 3.32537C259.207 10.4076 265.439 15.7609 272.926 15.9213C273.087 23.4084 278.44 29.6402 285.522 31.151C278.44 32.6618 273.087 38.892 272.926 46.3808C265.439 46.5412 259.207 51.8945 257.696 58.9751C256.187 51.8945 249.955 46.5412 242.468 46.3808C242.308 38.892 236.953 32.6618 229.872 31.151C236.953 29.6402 242.308 23.4084 242.468 15.9213ZM288.494 31.5046C288.307 39.6194 281.742 46.1861 273.627 46.3714C273.814 38.2566 280.379 31.6915 288.494 31.5046ZM285.522 93.4531C278.44 94.9639 273.087 101.194 272.926 108.683C265.439 108.843 259.207 114.197 257.696 121.277C256.187 114.197 249.955 108.843 242.468 108.683C242.308 101.194 236.953 94.9639 229.872 93.4531C236.953 91.9422 242.308 85.7105 242.468 78.2233C249.955 78.0629 256.187 72.7096 257.696 65.6274C259.207 72.7096 265.439 78.0629 272.926 78.2233C273.087 85.7105 278.44 91.9422 285.522 93.4531ZM273.627 78.2311C281.742 78.418 288.307 84.9831 288.494 93.0979C280.379 92.9126 273.814 86.346 273.627 78.2311ZM288.494 93.8066C288.307 101.921 281.742 108.488 273.627 108.673C273.814 100.559 280.379 93.9935 288.494 93.8066ZM285.522 155.755C278.44 157.266 273.087 163.496 272.926 170.985C265.439 171.145 259.207 176.499 257.696 183.579C256.187 176.499 249.955 171.145 242.468 170.985C242.308 163.496 236.953 157.266 229.872 155.755C236.953 154.244 242.308 148.013 242.468 140.525C249.955 140.365 256.187 135.012 257.696 127.929C259.207 135.012 265.439 140.365 272.926 140.525C273.087 148.013 278.44 154.244 285.522 155.755ZM273.627 140.533C281.742 140.72 288.307 147.285 288.494 155.4C280.379 155.215 273.814 148.648 273.627 140.533ZM288.494 156.109C288.307 164.224 281.742 170.79 273.627 170.975C273.814 162.861 280.379 156.296 288.494 156.109ZM285.522 218.057C278.44 219.568 273.087 225.798 272.926 233.287C265.439 233.447 259.207 238.801 257.696 245.881C256.187 238.801 249.955 233.447 242.468 233.287C242.308 225.798 236.953 219.568 229.872 218.057C236.953 216.546 242.308 210.315 242.468 202.827C249.955 202.667 256.187 197.314 257.696 190.231C259.207 197.314 265.439 202.667 272.926 202.827C273.087 210.315 278.44 216.546 285.522 218.057ZM273.627 202.835C281.742 203.022 288.307 209.587 288.494 217.702C280.379 217.517 273.814 210.95 273.627 202.835ZM288.494 218.411C288.307 226.526 281.742 233.092 273.627 233.278C273.814 225.163 280.379 218.598 288.494 218.411ZM272.918 233.986C272.731 242.101 266.166 248.668 258.052 248.853C258.238 240.738 264.804 234.173 272.918 233.986ZM272.918 264.429C264.804 264.243 258.238 257.677 258.052 249.562C266.166 249.749 272.731 256.314 272.918 264.429ZM257.343 248.853C249.228 248.668 242.663 242.101 242.476 233.986C250.591 234.173 257.156 240.738 257.343 248.853ZM195.394 245.881C193.885 238.801 187.653 233.447 180.166 233.287C180.006 225.798 174.651 219.568 167.57 218.057C174.651 216.546 180.006 210.315 180.166 202.827C187.653 202.667 193.885 197.314 195.394 190.231C196.905 197.314 203.137 202.667 210.624 202.827C210.785 210.315 216.138 216.546 223.22 218.057C216.138 219.568 210.785 225.798 210.624 233.287C203.137 233.447 196.905 238.801 195.394 245.881ZM210.616 233.986C210.429 242.101 203.864 248.668 195.75 248.853C195.936 240.738 202.502 234.173 210.616 233.986ZM210.616 264.429C202.502 264.243 195.936 257.677 195.75 249.562C203.864 249.749 210.429 256.314 210.616 264.429ZM195.041 248.853C186.926 248.668 180.361 242.101 180.174 233.986C188.289 234.173 194.854 240.738 195.041 248.853ZM133.092 245.881C131.583 238.801 125.351 233.447 117.864 233.287C117.704 225.798 112.349 219.568 105.268 218.057C112.349 216.546 117.704 210.315 117.864 202.827C125.351 202.667 131.583 197.314 133.092 190.231C134.603 197.314 140.835 202.667 148.322 202.827C148.483 210.315 153.836 216.546 160.918 218.057C153.836 219.568 148.483 225.798 148.322 233.287C140.835 233.447 134.603 238.801 133.092 245.881ZM148.314 233.986C148.127 242.101 141.562 248.668 133.447 248.853C133.634 240.738 140.199 234.173 148.314 233.986ZM148.314 264.429C140.199 264.243 133.634 257.677 133.447 249.562C141.562 249.749 148.127 256.314 148.314 264.429ZM132.739 248.853C124.624 248.668 118.059 242.101 117.872 233.986C125.987 234.173 132.552 240.738 132.739 248.853ZM70.7903 245.881C69.2811 238.801 63.0493 233.447 55.5621 233.287C55.4017 225.798 50.0469 219.568 42.9662 218.057C50.0469 216.546 55.4017 210.315 55.5621 202.827C63.0493 202.667 69.2811 197.314 70.7903 190.231C72.3011 197.314 78.5329 202.667 86.0201 202.827C86.1805 210.315 91.5338 216.546 98.616 218.057C91.5338 219.568 86.1805 225.798 86.0201 233.287C78.5329 233.447 72.3011 238.801 70.7903 245.881ZM86.0123 233.986C85.8254 242.101 79.2603 248.668 71.1454 248.853C71.3324 240.738 77.8974 234.173 86.0123 233.986ZM86.0123 264.429C77.8974 264.243 71.3324 257.677 71.1454 249.562C79.2603 249.749 85.8254 256.314 86.0123 264.429ZM70.4368 248.853C62.3219 248.668 55.7568 242.101 55.5699 233.986C63.6848 234.173 70.2498 240.738 70.4368 248.853ZM54.8612 233.278C46.7464 233.092 40.1813 226.526 39.9944 218.411C48.1093 218.598 54.6743 225.163 54.8612 233.278ZM39.9944 217.702C40.1813 209.587 46.7464 203.022 54.8612 202.835C54.6743 210.95 48.1093 217.517 39.9944 217.702ZM42.9662 155.755C50.0469 154.244 55.4017 148.013 55.5621 140.525C63.0493 140.365 69.2811 135.012 70.7903 127.929C72.3011 135.012 78.5329 140.365 86.0201 140.525C86.1805 148.013 91.5338 154.244 98.616 155.755C91.5338 157.266 86.1805 163.496 86.0201 170.985C78.5329 171.145 72.3011 176.499 70.7903 183.579C69.2811 176.499 63.0493 171.145 55.5621 170.985C55.4017 163.496 50.0469 157.266 42.9662 155.755ZM54.8612 170.975C46.7464 170.79 40.1813 164.224 39.9944 156.109C48.1093 156.296 54.6743 162.861 54.8612 170.975ZM39.9944 155.4C40.1813 147.285 46.7464 140.72 54.8612 140.533C54.6743 148.648 48.1093 155.215 39.9944 155.4ZM42.9662 93.4531C50.0469 91.9422 55.4017 85.7105 55.5621 78.2233C63.0493 78.0629 69.2811 72.7096 70.7903 65.6274C72.3011 72.7096 78.5329 78.0629 86.0201 78.2233C86.1805 85.7105 91.5338 91.9422 98.616 93.4531C91.5338 94.9639 86.1805 101.194 86.0201 108.683C78.5329 108.843 72.3011 114.197 70.7903 121.277C69.2811 114.197 63.0493 108.843 55.5621 108.683C55.4017 101.194 50.0469 94.9639 42.9662 93.4531ZM54.8612 108.673C46.7464 108.488 40.1813 101.921 39.9944 93.8066C48.1093 93.9935 54.6743 100.559 54.8612 108.673ZM39.9944 93.0979C40.1813 84.9831 46.7464 78.418 54.8612 78.2311C54.6743 86.346 48.1093 92.9126 39.9944 93.0979ZM55.5699 77.5224C55.7568 69.4076 62.3219 62.8425 70.4368 62.6556C70.2498 70.7704 63.6848 77.3371 55.5699 77.5224ZM55.5699 47.0801C63.6848 47.267 70.2498 53.8321 70.4368 61.9469C62.3219 61.7616 55.7568 55.1949 55.5699 47.0801ZM71.1454 62.6556C79.2603 62.8425 85.8254 69.4076 86.0123 77.5224C77.8974 77.3371 71.3324 70.7704 71.1454 62.6556ZM133.092 65.6274C134.603 72.7096 140.835 78.0629 148.322 78.2233C148.483 85.7105 153.836 91.9422 160.918 93.4531C153.836 94.9639 148.483 101.194 148.322 108.683C140.835 108.843 134.603 114.197 133.092 121.277C131.583 114.197 125.351 108.843 117.864 108.683C117.704 101.194 112.349 94.9639 105.268 93.4531C112.349 91.9422 117.704 85.7105 117.864 78.2233C125.351 78.0629 131.583 72.7096 133.092 65.6274ZM117.872 77.5224C118.059 69.4076 124.624 62.8425 132.739 62.6556C132.552 70.7704 125.987 77.3371 117.872 77.5224ZM117.872 47.0801C125.987 47.267 132.552 53.8321 132.739 61.9469C124.624 61.7616 118.059 55.1949 117.872 47.0801ZM133.447 62.6556C141.562 62.8425 148.127 69.4076 148.314 77.5224C140.199 77.3371 133.634 70.7704 133.447 62.6556ZM195.394 65.6274C196.905 72.7096 203.137 78.0629 210.624 78.2233C210.785 85.7105 216.138 91.9422 223.22 93.4531C216.138 94.9639 210.785 101.194 210.624 108.683C203.137 108.843 196.905 114.197 195.394 121.277C193.885 114.197 187.653 108.843 180.166 108.683C180.006 101.194 174.651 94.9639 167.57 93.4531C174.651 91.9422 180.006 85.7105 180.166 78.2233C187.653 78.0629 193.885 72.7096 195.394 65.6274ZM180.174 77.5224C180.361 69.4076 186.926 62.8425 195.041 62.6556C194.854 70.7704 188.289 77.3371 180.174 77.5224ZM180.174 47.0801C188.289 47.267 194.854 53.8321 195.041 61.9469C186.926 61.7616 180.361 55.1949 180.174 47.0801ZM195.75 62.6556C203.864 62.8425 210.429 69.4076 210.616 77.5224C202.502 77.3371 195.936 70.7704 195.75 62.6556ZM241.775 109.374C241.936 116.861 247.289 123.093 254.371 124.604C247.289 126.115 241.936 132.345 241.775 139.834C234.288 139.994 228.056 145.348 226.545 152.428C225.036 145.348 218.804 139.994 211.317 139.834C211.157 132.345 205.802 126.115 198.721 124.604C205.802 123.093 211.157 116.861 211.317 109.374C218.804 109.214 225.036 103.861 226.545 96.7784C228.056 103.861 234.288 109.214 241.775 109.374ZM226.901 93.8066C235.015 93.9935 241.58 100.559 241.767 108.673C233.653 108.488 227.087 101.921 226.901 93.8066ZM242.476 109.382C250.591 109.569 257.156 116.134 257.343 124.249C249.228 124.064 242.663 117.497 242.476 109.382ZM257.343 124.958C257.156 133.072 250.591 139.639 242.476 139.824C242.663 131.71 249.228 125.145 257.343 124.958ZM241.767 140.533C241.58 148.648 235.015 155.215 226.901 155.4C227.087 147.285 233.653 140.72 241.767 140.533ZM241.767 170.975C233.653 170.79 227.087 164.224 226.901 156.109C235.015 156.296 241.58 162.861 241.767 170.975ZM195.394 183.579C193.885 176.499 187.653 171.145 180.166 170.985C180.006 163.496 174.651 157.266 167.57 155.755C174.651 154.244 180.006 148.013 180.166 140.525C187.653 140.365 193.885 135.012 195.394 127.929C196.905 135.012 203.137 140.365 210.624 140.525C210.785 148.013 216.138 154.244 223.22 155.755C216.138 157.266 210.785 163.496 210.624 170.985C203.137 171.145 196.905 176.499 195.394 183.579ZM210.616 171.684C210.429 179.799 203.864 186.366 195.75 186.551C195.936 178.436 202.502 171.871 210.616 171.684ZM210.616 202.127C202.502 201.941 195.936 195.375 195.75 187.26C203.864 187.447 210.429 194.012 210.616 202.127ZM195.041 186.551C186.926 186.366 180.361 179.799 180.174 171.684C188.289 171.871 194.854 178.436 195.041 186.551ZM179.465 170.975C171.35 170.79 164.785 164.224 164.599 156.109C172.713 156.296 179.278 162.861 179.465 170.975ZM164.599 155.4C164.785 147.285 171.35 140.72 179.465 140.533C179.278 148.648 172.713 155.215 164.599 155.4ZM180.174 139.824C180.361 131.71 186.926 125.145 195.041 124.958C194.854 133.072 188.289 139.639 180.174 139.824ZM180.174 109.382C188.289 109.569 194.854 116.134 195.041 124.249C186.926 124.064 180.361 117.497 180.174 109.382ZM195.75 124.958C203.864 125.145 210.429 131.71 210.616 139.824C202.502 139.639 195.936 133.072 195.75 124.958ZM226.192 156.109C226.005 164.224 219.44 170.79 211.325 170.975C211.512 162.861 218.077 156.296 226.192 156.109ZM211.325 140.533C219.44 140.72 226.005 147.285 226.192 155.4C218.077 155.215 211.512 148.648 211.325 140.533ZM195.75 124.249C195.936 116.134 202.502 109.569 210.616 109.382C210.429 117.497 203.864 124.064 195.75 124.249ZM211.325 108.673C211.512 100.559 218.077 93.9935 226.192 93.8066C226.005 101.921 219.44 108.488 211.325 108.673ZM211.325 78.2311C219.44 78.418 226.005 84.9831 226.192 93.0979C218.077 92.9126 211.512 86.346 211.325 78.2311ZM164.599 93.0979C164.785 84.9831 171.35 78.418 179.465 78.2311C179.278 86.346 172.713 92.9126 164.599 93.0979ZM179.465 108.673C171.35 108.488 164.785 101.921 164.599 93.8066C172.713 93.9935 179.278 100.559 179.465 108.673ZM179.473 109.374C179.634 116.861 184.987 123.093 192.069 124.604C184.987 126.115 179.634 132.345 179.473 139.834C171.986 139.994 165.754 145.348 164.243 152.428C162.734 145.348 156.502 139.994 149.015 139.834C148.855 132.345 143.5 126.115 136.419 124.604C143.5 123.093 148.855 116.861 149.015 109.374C156.502 109.214 162.734 103.861 164.243 96.7784C165.754 103.861 171.986 109.214 179.473 109.374ZM133.092 183.579C131.583 176.499 125.351 171.145 117.864 170.985C117.704 163.496 112.349 157.266 105.268 155.755C112.349 154.244 117.704 148.013 117.864 140.525C125.351 140.365 131.583 135.012 133.092 127.929C134.603 135.012 140.835 140.365 148.322 140.525C148.483 148.013 153.836 154.244 160.918 155.755C153.836 157.266 148.483 163.496 148.322 170.985C140.835 171.145 134.603 176.499 133.092 183.579ZM148.314 171.684C148.127 179.799 141.562 186.366 133.447 186.551C133.634 178.436 140.199 171.871 148.314 171.684ZM148.314 202.127C140.199 201.941 133.634 195.375 133.447 187.26C141.562 187.447 148.127 194.012 148.314 202.127ZM132.739 186.551C124.624 186.366 118.059 179.799 117.872 171.684C125.987 171.871 132.552 178.436 132.739 186.551ZM117.163 170.975C109.048 170.79 102.483 164.224 102.296 156.109C110.411 156.296 116.976 162.861 117.163 170.975ZM102.296 155.4C102.483 147.285 109.048 140.72 117.163 140.533C116.976 148.648 110.411 155.215 102.296 155.4ZM117.872 139.824C118.059 131.71 124.624 125.145 132.739 124.958C132.552 133.072 125.987 139.639 117.872 139.824ZM117.872 109.382C125.987 109.569 132.552 116.134 132.739 124.249C124.624 124.064 118.059 117.497 117.872 109.382ZM133.447 124.958C141.562 125.145 148.127 131.71 148.314 139.824C140.199 139.639 133.634 133.072 133.447 124.958ZM163.89 156.109C163.703 164.224 157.138 170.79 149.023 170.975C149.21 162.861 155.775 156.296 163.89 156.109ZM149.023 140.533C157.138 140.72 163.703 147.285 163.89 155.4C155.775 155.215 149.21 148.648 149.023 140.533ZM133.447 124.249C133.634 116.134 140.199 109.569 148.314 109.382C148.127 117.497 141.562 124.064 133.447 124.249ZM149.023 108.673C149.21 100.559 155.775 93.9935 163.89 93.8066C163.703 101.921 157.138 108.488 149.023 108.673ZM149.023 78.2311C157.138 78.418 163.703 84.9831 163.89 93.0979C155.775 92.9126 149.21 86.346 149.023 78.2311ZM102.296 93.0979C102.483 84.9831 109.048 78.418 117.163 78.2311C116.976 86.346 110.411 92.9126 102.296 93.0979ZM117.163 108.673C109.048 108.488 102.483 101.921 102.296 93.8066C110.411 93.9935 116.976 100.559 117.163 108.673ZM117.171 109.374C117.332 116.861 122.685 123.093 129.767 124.604C122.685 126.115 117.332 132.345 117.171 139.834C109.684 139.994 103.452 145.348 101.941 152.428C100.432 145.348 94.2003 139.994 86.7132 139.834C86.5527 132.345 81.1979 126.115 74.1173 124.604C81.1979 123.093 86.5527 116.861 86.7132 109.374C94.2003 109.214 100.432 103.861 101.941 96.7784C103.452 103.861 109.684 109.214 117.171 109.374ZM101.588 155.4C93.4729 155.215 86.9079 148.648 86.721 140.533C94.8358 140.72 101.401 147.285 101.588 155.4ZM86.0123 139.824C77.8974 139.639 71.3324 133.072 71.1454 124.958C79.2603 125.145 85.8254 131.71 86.0123 139.824ZM71.1454 124.249C71.3324 116.134 77.8974 109.569 86.0123 109.382C85.8254 117.497 79.2603 124.064 71.1454 124.249ZM86.721 108.673C86.9079 100.559 93.4729 93.9935 101.588 93.8066C101.401 101.921 94.8358 108.488 86.721 108.673ZM86.721 78.2311C94.8358 78.418 101.401 84.9831 101.588 93.0979C93.4729 92.9126 86.9079 86.346 86.721 78.2311ZM70.4368 124.249C62.3219 124.064 55.7568 117.497 55.5699 109.382C63.6848 109.569 70.2498 116.134 70.4368 124.249ZM55.5699 139.824C55.7568 131.71 62.3219 125.145 70.4368 124.958C70.2498 133.072 63.6848 139.639 55.5699 139.824ZM101.588 156.109C101.401 164.224 94.8358 170.79 86.721 170.975C86.9079 162.861 93.4729 156.296 101.588 156.109ZM86.0123 171.684C85.8254 179.799 79.2603 186.366 71.1454 186.551C71.3324 178.436 77.8974 171.871 86.0123 171.684ZM86.0123 202.127C77.8974 201.941 71.3324 195.375 71.1454 187.26C79.2603 187.447 85.8254 194.012 86.0123 202.127ZM70.4368 186.551C62.3219 186.366 55.7568 179.799 55.5699 171.684C63.6848 171.871 70.2498 178.436 70.4368 186.551ZM55.5699 202.127C55.7568 194.012 62.3219 187.447 70.4368 187.26C70.2498 195.375 63.6848 201.941 55.5699 202.127ZM101.588 218.411C101.401 226.526 94.8358 233.092 86.721 233.278C86.9079 225.163 93.4729 218.598 101.588 218.411ZM86.721 202.835C94.8358 203.022 101.401 209.587 101.588 217.702C93.4729 217.517 86.9079 210.95 86.721 202.835ZM86.7132 202.136C86.5527 194.647 81.1979 188.417 74.1173 186.906C81.1979 185.395 86.5527 179.164 86.7132 171.676C94.2003 171.516 100.432 166.163 101.941 159.08C103.452 166.163 109.684 171.516 117.171 171.676C117.332 179.164 122.685 185.395 129.767 186.906C122.685 188.417 117.332 194.647 117.171 202.136C109.684 202.296 103.452 207.65 101.941 214.73C100.432 207.65 94.2003 202.296 86.7132 202.136ZM132.739 187.26C132.552 195.375 125.987 201.941 117.872 202.127C118.059 194.012 124.624 187.447 132.739 187.26ZM117.163 202.835C116.976 210.95 110.411 217.517 102.296 217.702C102.483 209.587 109.048 203.022 117.163 202.835ZM117.163 233.278C109.048 233.092 102.483 226.526 102.296 218.411C110.411 218.598 116.976 225.163 117.163 233.278ZM163.89 218.411C163.703 226.526 157.138 233.092 149.023 233.278C149.21 225.163 155.775 218.598 163.89 218.411ZM149.023 202.835C157.138 203.022 163.703 209.587 163.89 217.702C155.775 217.517 149.21 210.95 149.023 202.835ZM149.015 202.136C148.855 194.647 143.5 188.417 136.419 186.906C143.5 185.395 148.855 179.164 149.015 171.676C156.502 171.516 162.734 166.163 164.243 159.08C165.754 166.163 171.986 171.516 179.473 171.676C179.634 179.164 184.987 185.395 192.069 186.906C184.987 188.417 179.634 194.647 179.473 202.136C171.986 202.296 165.754 207.65 164.243 214.73C162.734 207.65 156.502 202.296 149.015 202.136ZM195.041 187.26C194.854 195.375 188.289 201.941 180.174 202.127C180.361 194.012 186.926 187.447 195.041 187.26ZM179.465 202.835C179.278 210.95 172.713 217.517 164.599 217.702C164.785 209.587 171.35 203.022 179.465 202.835ZM179.465 233.278C171.35 233.092 164.785 226.526 164.599 218.411C172.713 218.598 179.278 225.163 179.465 233.278ZM226.192 218.411C226.005 226.526 219.44 233.092 211.325 233.278C211.512 225.163 218.077 218.598 226.192 218.411ZM211.325 202.835C219.44 203.022 226.005 209.587 226.192 217.702C218.077 217.517 211.512 210.95 211.325 202.835ZM211.317 202.136C211.157 194.647 205.802 188.417 198.721 186.906C205.802 185.395 211.157 179.164 211.317 171.676C218.804 171.516 225.036 166.163 226.545 159.08C228.056 166.163 234.288 171.516 241.775 171.676C241.936 179.164 247.289 185.395 254.371 186.906C247.289 188.417 241.936 194.647 241.775 202.136C234.288 202.296 228.056 207.65 226.545 214.73C225.036 207.65 218.804 202.296 211.317 202.136ZM242.476 171.684C250.591 171.871 257.156 178.436 257.343 186.551C249.228 186.366 242.663 179.799 242.476 171.684ZM257.343 187.26C257.156 195.375 250.591 201.941 242.476 202.127C242.663 194.012 249.228 187.447 257.343 187.26ZM241.767 202.835C241.58 210.95 235.015 217.517 226.901 217.702C227.087 209.587 233.653 203.022 241.767 202.835ZM241.767 233.278C233.653 233.092 227.087 226.526 226.901 218.411C235.015 218.598 241.58 225.163 241.767 233.278ZM258.052 187.26C266.166 187.447 272.731 194.012 272.918 202.127C264.804 201.941 258.238 195.375 258.052 187.26ZM272.918 171.684C272.731 179.799 266.166 186.366 258.052 186.551C258.238 178.436 264.804 171.871 272.918 171.684ZM258.052 124.958C266.166 125.145 272.731 131.71 272.918 139.824C264.804 139.639 258.238 133.072 258.052 124.958ZM272.918 109.382C272.731 117.497 266.166 124.064 258.052 124.249C258.238 116.134 264.804 109.569 272.918 109.382ZM226.901 93.0979C227.087 84.9831 233.653 78.418 241.767 78.2311C241.58 86.346 235.015 92.9126 226.901 93.0979ZM242.476 77.5224C242.663 69.4076 249.228 62.8425 257.343 62.6556C257.156 70.7704 250.591 77.3371 242.476 77.5224ZM242.476 47.0801C250.591 47.267 257.156 53.8321 257.343 61.9469C249.228 61.7616 242.663 55.1949 242.476 47.0801ZM258.052 62.6556C266.166 62.8425 272.731 69.4076 272.918 77.5224C264.804 77.3371 258.238 70.7704 258.052 62.6556ZM272.918 47.0801C272.731 55.1949 266.166 61.7616 258.052 61.9469C258.238 53.8321 264.804 47.267 272.918 47.0801ZM241.767 15.9291C241.58 24.0439 235.015 30.6105 226.901 30.7959C227.087 22.6811 233.653 16.116 241.767 15.9291ZM241.767 46.3714C233.653 46.1861 227.087 39.6194 226.901 31.5046C235.015 31.6915 241.58 38.2566 241.767 46.3714ZM241.775 47.0723C241.936 54.5595 247.289 60.7912 254.371 62.302C247.289 63.8129 241.936 70.0431 241.775 77.5318C234.288 77.6922 228.056 83.0455 226.545 90.1261C225.036 83.0455 218.804 77.6922 211.317 77.5318C211.157 70.0431 205.802 63.8129 198.721 62.302C205.802 60.7912 211.157 54.5595 211.317 47.0723C218.804 46.9119 225.036 41.5586 226.545 34.4764C228.056 41.5586 234.288 46.9119 241.775 47.0723ZM195.75 61.9469C195.936 53.8321 202.502 47.267 210.616 47.0801C210.429 55.1949 203.864 61.7616 195.75 61.9469ZM211.325 46.3714C211.512 38.2566 218.077 31.6915 226.192 31.5046C226.005 39.6194 219.44 46.1861 211.325 46.3714ZM226.192 30.7959C218.077 30.6105 211.512 24.0439 211.325 15.9291C219.44 16.116 226.005 22.6811 226.192 30.7959ZM210.616 15.2204C202.502 15.035 195.936 8.4684 195.75 0.353564C203.864 0.54047 210.429 7.10555 210.616 15.2204ZM195.041 0.353564C194.854 8.4684 188.289 15.035 180.174 15.2204C180.361 7.10555 186.926 0.54047 195.041 0.353564ZM180.166 15.9213C187.653 15.7609 193.885 10.4076 195.394 3.32537C196.905 10.4076 203.137 15.7609 210.624 15.9213C210.785 23.4084 216.138 29.6402 223.22 31.151C216.138 32.6618 210.785 38.892 210.624 46.3808C203.137 46.5412 196.905 51.8945 195.394 58.9751C193.885 51.8945 187.653 46.5412 180.166 46.3808C180.006 38.892 174.651 32.6618 167.57 31.151C174.651 29.6402 180.006 23.4084 180.166 15.9213ZM179.465 15.9291C179.278 24.0439 172.713 30.6105 164.599 30.7959C164.785 22.6811 171.35 16.116 179.465 15.9291ZM179.465 46.3714C171.35 46.1861 164.785 39.6194 164.599 31.5046C172.713 31.6915 179.278 38.2566 179.465 46.3714ZM179.473 47.0723C179.634 54.5595 184.987 60.7912 192.069 62.302C184.987 63.8129 179.634 70.0431 179.473 77.5318C171.986 77.6922 165.754 83.0455 164.243 90.1261C162.734 83.0455 156.502 77.6922 149.015 77.5318C148.855 70.0431 143.5 63.8129 136.419 62.302C143.5 60.7912 148.855 54.5595 149.015 47.0723C156.502 46.9119 162.734 41.5586 164.243 34.4764C165.754 41.5586 171.986 46.9119 179.473 47.0723ZM133.447 61.9469C133.634 53.8321 140.199 47.267 148.314 47.0801C148.127 55.1949 141.562 61.7616 133.447 61.9469ZM149.023 46.3714C149.21 38.2566 155.775 31.6915 163.89 31.5046C163.703 39.6194 157.138 46.1861 149.023 46.3714ZM163.89 30.7959C155.775 30.6105 149.21 24.0439 149.023 15.9291C157.138 16.116 163.703 22.6811 163.89 30.7959ZM148.314 15.2204C140.199 15.035 133.634 8.4684 133.447 0.353564C141.562 0.54047 148.127 7.10555 148.314 15.2204ZM132.739 0.353564C132.552 8.4684 125.987 15.035 117.872 15.2204C118.059 7.10555 124.624 0.54047 132.739 0.353564ZM117.864 15.9213C125.351 15.7609 131.583 10.4076 133.092 3.32537C134.603 10.4076 140.835 15.7609 148.322 15.9213C148.483 23.4084 153.836 29.6402 160.918 31.151C153.836 32.6618 148.483 38.892 148.322 46.3808C140.835 46.5412 134.603 51.8945 133.092 58.9751C131.583 51.8945 125.351 46.5412 117.864 46.3808C117.704 38.892 112.349 32.6618 105.268 31.151C112.349 29.6402 117.704 23.4084 117.864 15.9213ZM117.163 15.9291C116.976 24.0439 110.411 30.6105 102.296 30.7959C102.483 22.6811 109.048 16.116 117.163 15.9291ZM117.163 46.3714C109.048 46.1861 102.483 39.6194 102.296 31.5046C110.411 31.6915 116.976 38.2566 117.163 46.3714ZM117.171 47.0723C117.332 54.5595 122.685 60.7912 129.767 62.302C122.685 63.8129 117.332 70.0431 117.171 77.5318C109.684 77.6922 103.452 83.0455 101.941 90.1261C100.432 83.0455 94.2003 77.6922 86.7132 77.5318C86.5527 70.0431 81.1979 63.8129 74.1173 62.302C81.1979 60.7912 86.5527 54.5595 86.7132 47.0723C94.2003 46.9119 100.432 41.5586 101.941 34.4764C103.452 41.5586 109.684 46.9119 117.171 47.0723ZM71.1454 61.9469C71.3324 53.8321 77.8974 47.267 86.0123 47.0801C85.8254 55.1949 79.2603 61.7616 71.1454 61.9469ZM86.721 46.3714C86.9079 38.2566 93.4729 31.6915 101.588 31.5046C101.401 39.6194 94.8358 46.1861 86.721 46.3714ZM101.588 30.7959C93.4729 30.6105 86.9079 24.0439 86.721 15.9291C94.8358 16.116 101.401 22.6811 101.588 30.7959ZM86.0123 15.2204C77.8974 15.035 71.3324 8.4684 71.1454 0.353564C79.2603 0.54047 85.8254 7.10555 86.0123 15.2204ZM70.4368 0.353564C70.2498 8.4684 63.6848 15.035 55.5699 15.2204C55.7568 7.10555 62.3219 0.54047 70.4368 0.353564ZM55.5621 15.9213C63.0493 15.7609 69.2811 10.4076 70.7903 3.32537C72.3011 10.4076 78.5329 15.7609 86.0201 15.9213C86.1805 23.4084 91.5338 29.6402 98.616 31.151C91.5338 32.6618 86.1805 38.892 86.0201 46.3808C78.5329 46.5412 72.3011 51.8945 70.7903 58.9751C69.2811 51.8945 63.0493 46.5412 55.5621 46.3808C55.4017 38.892 50.0469 32.6618 42.9662 31.151C50.0469 29.6402 55.4017 23.4084 55.5621 15.9213ZM54.8612 15.9291C54.6743 24.0439 48.1093 30.6105 39.9944 30.7959C40.1813 22.6811 46.7464 16.116 54.8612 15.9291ZM54.8612 46.3714C46.7464 46.1861 40.1813 39.6194 39.9944 31.5046C48.1093 31.6915 54.6743 38.2566 54.8612 46.3714ZM24.4189 15.9291C32.5338 16.116 39.0988 22.6811 39.2857 30.7959C31.1709 30.6105 24.6058 24.0439 24.4189 15.9291ZM39.2857 31.5046C39.0988 39.6194 32.5338 46.1861 24.4189 46.3714C24.6058 38.2566 31.1709 31.6915 39.2857 31.5046ZM23.7102 47.0801C23.5233 55.1949 16.9582 61.7616 8.84341 61.9469C9.03031 53.8321 15.5954 47.267 23.7102 47.0801ZM8.84341 62.6556C16.9582 62.8425 23.5233 69.4076 23.7102 77.5224C15.5954 77.3371 9.03031 70.7704 8.84341 62.6556ZM11.8152 62.302C18.8958 60.7912 24.2507 54.5595 24.4111 47.0723C31.8983 46.9119 38.13 41.5586 39.6393 34.4764C41.1501 41.5586 47.3819 46.9119 54.869 47.0723C55.0295 54.5595 60.3828 60.7912 67.4649 62.302C60.3828 63.8129 55.0295 70.0431 54.869 77.5318C47.3819 77.6922 41.1501 83.0455 39.6393 90.1261C38.13 83.0455 31.8983 77.6922 24.4111 77.5318C24.2507 70.0431 18.8958 63.8129 11.8152 62.302ZM24.4189 78.2311C32.5338 78.418 39.0988 84.9831 39.2857 93.0979C31.1709 92.9126 24.6058 86.346 24.4189 78.2311ZM39.2857 93.8066C39.0988 101.921 32.5338 108.488 24.4189 108.673C24.6058 100.559 31.1709 93.9935 39.2857 93.8066ZM23.7102 109.382C23.5233 117.497 16.9582 124.064 8.84341 124.249C9.03031 116.134 15.5954 109.569 23.7102 109.382ZM8.84341 124.958C16.9582 125.145 23.5233 131.71 23.7102 139.824C15.5954 139.639 9.03031 133.072 8.84341 124.958ZM11.8152 124.604C18.8958 123.093 24.2507 116.861 24.4111 109.374C31.8983 109.214 38.13 103.861 39.6393 96.7784C41.1501 103.861 47.3819 109.214 54.869 109.374C55.0295 116.861 60.3828 123.093 67.4649 124.604C60.3828 126.115 55.0295 132.345 54.869 139.834C47.3819 139.994 41.1501 145.348 39.6393 152.428C38.13 145.348 31.8983 139.994 24.4111 139.834C24.2507 132.345 18.8958 126.115 11.8152 124.604ZM24.4189 140.533C32.5338 140.72 39.0988 147.285 39.2857 155.4C31.1709 155.215 24.6058 148.648 24.4189 140.533ZM39.2857 156.109C39.0988 164.224 32.5338 170.79 24.4189 170.975C24.6058 162.861 31.1709 156.296 39.2857 156.109ZM23.7102 171.684C23.5233 179.799 16.9582 186.366 8.84341 186.551C9.03031 178.436 15.5954 171.871 23.7102 171.684ZM8.84341 187.26C16.9582 187.447 23.5233 194.012 23.7102 202.127C15.5954 201.941 9.03031 195.375 8.84341 187.26ZM11.8152 186.906C18.8958 185.395 24.2507 179.164 24.4111 171.676C31.8983 171.516 38.13 166.163 39.6393 159.08C41.1501 166.163 47.3819 171.516 54.869 171.676C55.0295 179.164 60.3828 185.395 67.4649 186.906C60.3828 188.417 55.0295 194.647 54.869 202.136C47.3819 202.296 41.1501 207.65 39.6393 214.73C38.13 207.65 31.8983 202.296 24.4111 202.136C24.2507 194.647 18.8958 188.417 11.8152 186.906ZM24.4189 202.835C32.5338 203.022 39.0988 209.587 39.2857 217.702C31.1709 217.517 24.6058 210.95 24.4189 202.835ZM39.2857 218.411C39.0988 226.526 32.5338 233.092 24.4189 233.278C24.6058 225.163 31.1709 218.598 39.2857 218.411ZM23.7102 233.986C23.5233 242.101 16.9582 248.668 8.84341 248.853C9.03031 240.738 15.5954 234.173 23.7102 233.986ZM8.84341 249.562C16.9582 249.749 23.5233 256.314 23.7102 264.429C15.5954 264.243 9.03031 257.677 8.84341 249.562ZM24.4189 295.58C24.6058 287.465 31.1709 280.9 39.2857 280.713C39.0988 288.828 32.5338 295.394 24.4189 295.58ZM24.4189 265.137C32.5338 265.324 39.0988 271.889 39.2857 280.004C31.1709 279.819 24.6058 273.252 24.4189 265.137ZM24.4111 264.438C24.2507 256.949 18.8958 250.719 11.8152 249.208C18.8958 247.697 24.2507 241.466 24.4111 233.978C31.8983 233.818 38.13 228.465 39.6393 221.383C41.1501 228.465 47.3819 233.818 54.869 233.978C55.0295 241.466 60.3828 247.697 67.4649 249.208C60.3828 250.719 55.0295 256.949 54.869 264.438C47.3819 264.598 41.1501 269.952 39.6393 277.032C38.13 269.952 31.8983 264.598 24.4111 264.438ZM70.4368 249.562C70.2498 257.677 63.6848 264.243 55.5699 264.429C55.7568 256.314 62.3219 249.749 70.4368 249.562ZM54.8612 265.137C54.6743 273.252 48.1093 279.819 39.9944 280.004C40.1813 271.889 46.7464 265.324 54.8612 265.137ZM39.9944 280.713C48.1093 280.9 54.6743 287.465 54.8612 295.58C46.7464 295.394 40.1813 288.828 39.9944 280.713ZM55.5699 296.288C63.6848 296.475 70.2498 303.04 70.4368 311.155C62.3219 310.97 55.7568 304.403 55.5699 296.288ZM71.1454 311.155C71.3324 303.04 77.8974 296.475 86.0123 296.288C85.8254 304.403 79.2603 310.97 71.1454 311.155ZM86.0201 295.589C78.5329 295.749 72.3011 301.103 70.7903 308.183C69.2811 301.103 63.0493 295.749 55.5621 295.589C55.4017 288.1 50.0469 281.87 42.9662 280.359C50.0469 278.848 55.4017 272.617 55.5621 265.129C63.0493 264.969 69.2811 259.616 70.7903 252.534C72.3011 259.616 78.5329 264.969 86.0201 265.129C86.1805 272.617 91.5338 278.848 98.616 280.359C91.5338 281.87 86.1805 288.1 86.0201 295.589ZM86.721 295.58C86.9079 287.465 93.4729 280.9 101.588 280.713C101.401 288.828 94.8358 295.394 86.721 295.58ZM86.721 265.137C94.8358 265.324 101.401 271.889 101.588 280.004C93.4729 279.819 86.9079 273.252 86.721 265.137ZM86.7132 264.438C86.5527 256.949 81.1979 250.719 74.1173 249.208C81.1979 247.697 86.5527 241.466 86.7132 233.978C94.2003 233.818 100.432 228.465 101.941 221.383C103.452 228.465 109.684 233.818 117.171 233.978C117.332 241.466 122.685 247.697 129.767 249.208C122.685 250.719 117.332 256.949 117.171 264.438C109.684 264.598 103.452 269.952 101.941 277.032C100.432 269.952 94.2003 264.598 86.7132 264.438ZM132.739 249.562C132.552 257.677 125.987 264.243 117.872 264.429C118.059 256.314 124.624 249.749 132.739 249.562ZM117.163 265.137C116.976 273.252 110.411 279.819 102.296 280.004C102.483 271.889 109.048 265.324 117.163 265.137ZM102.296 280.713C110.411 280.9 116.976 287.465 117.163 295.58C109.048 295.394 102.483 288.828 102.296 280.713ZM117.872 296.288C125.987 296.475 132.552 303.04 132.739 311.155C124.624 310.97 118.059 304.403 117.872 296.288ZM133.447 311.155C133.634 303.04 140.199 296.475 148.314 296.288C148.127 304.403 141.562 310.97 133.447 311.155ZM148.322 295.589C140.835 295.749 134.603 301.103 133.092 308.183C131.583 301.103 125.351 295.749 117.864 295.589C117.704 288.1 112.349 281.87 105.268 280.359C112.349 278.848 117.704 272.617 117.864 265.129C125.351 264.969 131.583 259.616 133.092 252.534C134.603 259.616 140.835 264.969 148.322 265.129C148.483 272.617 153.836 278.848 160.918 280.359C153.836 281.87 148.483 288.1 148.322 295.589ZM149.023 295.58C149.21 287.465 155.775 280.9 163.89 280.713C163.703 288.828 157.138 295.394 149.023 295.58ZM149.023 265.137C157.138 265.324 163.703 271.889 163.89 280.004C155.775 279.819 149.21 273.252 149.023 265.137ZM149.015 264.438C148.855 256.949 143.5 250.719 136.419 249.208C143.5 247.697 148.855 241.466 149.015 233.978C156.502 233.818 162.734 228.465 164.243 221.383C165.754 228.465 171.986 233.818 179.473 233.978C179.634 241.466 184.987 247.697 192.069 249.208C184.987 250.719 179.634 256.949 179.473 264.438C171.986 264.598 165.754 269.952 164.243 277.032C162.734 269.952 156.502 264.598 149.015 264.438ZM195.041 249.562C194.854 257.677 188.289 264.243 180.174 264.429C180.361 256.314 186.926 249.749 195.041 249.562ZM179.465 265.137C179.278 273.252 172.713 279.819 164.599 280.004C164.785 271.889 171.35 265.324 179.465 265.137ZM164.599 280.713C172.713 280.9 179.278 287.465 179.465 295.58C171.35 295.394 164.785 288.828 164.599 280.713ZM180.174 296.288C188.289 296.475 194.854 303.04 195.041 311.155C186.926 310.97 180.361 304.403 180.174 296.288ZM195.75 311.155C195.936 303.04 202.502 296.475 210.616 296.288C210.429 304.403 203.864 310.97 195.75 311.155ZM210.624 295.589C203.137 295.749 196.905 301.103 195.394 308.183C193.885 301.103 187.653 295.749 180.166 295.589C180.006 288.1 174.651 281.87 167.57 280.359C174.651 278.848 180.006 272.617 180.166 265.129C187.653 264.969 193.885 259.616 195.394 252.534C196.905 259.616 203.137 264.969 210.624 265.129C210.785 272.617 216.138 278.848 223.22 280.359C216.138 281.87 210.785 288.1 210.624 295.589ZM211.325 295.58C211.512 287.465 218.077 280.9 226.192 280.713C226.005 288.828 219.44 295.394 211.325 295.58ZM211.325 265.137C219.44 265.324 226.005 271.889 226.192 280.004C218.077 279.819 211.512 273.252 211.325 265.137ZM211.317 264.438C211.157 256.949 205.802 250.719 198.721 249.208C205.802 247.697 211.157 241.466 211.317 233.978C218.804 233.818 225.036 228.465 226.545 221.383C228.056 228.465 234.288 233.818 241.775 233.978C241.936 241.466 247.289 247.697 254.371 249.208C247.289 250.719 241.936 256.949 241.775 264.438C234.288 264.598 228.056 269.952 226.545 277.032C225.036 269.952 218.804 264.598 211.317 264.438ZM257.343 249.562C257.156 257.677 250.591 264.243 242.476 264.429C242.663 256.314 249.228 249.749 257.343 249.562ZM241.767 265.137C241.58 273.252 235.015 279.819 226.901 280.004C227.087 271.889 233.653 265.324 241.767 265.137ZM226.901 280.713C235.015 280.9 241.58 287.465 241.767 295.58C233.653 295.394 227.087 288.828 226.901 280.713ZM242.476 296.288C250.591 296.475 257.156 303.04 257.343 311.155C249.228 310.97 242.663 304.403 242.476 296.288ZM258.052 311.155C258.238 303.04 264.804 296.475 272.918 296.288C272.731 304.403 266.166 310.97 258.052 311.155ZM272.926 295.589C265.439 295.749 259.207 301.103 257.696 308.183C256.187 301.103 249.955 295.749 242.468 295.589C242.308 288.1 236.953 281.87 229.872 280.359C236.953 278.848 242.308 272.617 242.468 265.129C249.955 264.969 256.187 259.616 257.696 252.534C259.207 259.616 265.439 264.969 272.926 265.129C273.087 272.617 278.44 278.848 285.522 280.359C278.44 281.87 273.087 288.1 272.926 295.589ZM273.627 295.58C273.814 287.465 280.379 280.9 288.494 280.713C288.307 288.828 281.742 295.394 273.627 295.58ZM273.627 265.137C281.742 265.324 288.307 271.889 288.494 280.004C280.379 279.819 273.814 273.252 273.627 265.137ZM304.069 295.58C295.955 295.394 289.389 288.828 289.203 280.713C297.317 280.9 303.883 287.465 304.069 295.58ZM289.203 280.004C289.389 271.889 295.955 265.324 304.069 265.137C303.883 273.252 297.317 279.819 289.203 280.004ZM304.778 264.429C304.965 256.314 311.53 249.749 319.645 249.562C319.458 257.677 312.893 264.243 304.778 264.429ZM319.645 248.853C311.53 248.668 304.965 242.101 304.778 233.986C312.893 234.173 319.458 240.738 319.645 248.853ZM316.673 249.208C309.591 250.719 304.238 256.949 304.077 264.438C296.59 264.598 290.358 269.952 288.847 277.032C287.338 269.952 281.106 264.598 273.619 264.438C273.459 256.949 268.104 250.719 261.023 249.208C268.104 247.697 273.459 241.466 273.619 233.978C281.106 233.818 287.338 228.465 288.847 221.383C290.358 228.465 296.59 233.818 304.077 233.978C304.238 241.466 309.591 247.697 316.673 249.208ZM304.069 233.278C295.955 233.092 289.389 226.526 289.203 218.411C297.317 218.598 303.883 225.163 304.069 233.278ZM289.203 217.702C289.389 209.587 295.955 203.022 304.069 202.835C303.883 210.95 297.317 217.517 289.203 217.702ZM304.778 202.127C304.965 194.012 311.53 187.447 319.645 187.26C319.458 195.375 312.893 201.941 304.778 202.127ZM319.645 186.551C311.53 186.366 304.965 179.799 304.778 171.684C312.893 171.871 319.458 178.436 319.645 186.551ZM316.673 186.906C309.591 188.417 304.238 194.647 304.077 202.136C296.59 202.296 290.358 207.65 288.847 214.73C287.338 207.65 281.106 202.296 273.619 202.136C273.459 194.647 268.104 188.417 261.023 186.906C268.104 185.395 273.459 179.164 273.619 171.676C281.106 171.516 287.338 166.163 288.847 159.08C290.358 166.163 296.59 171.516 304.077 171.676C304.238 179.164 309.591 185.395 316.673 186.906ZM304.069 170.975C295.955 170.79 289.389 164.224 289.203 156.109C297.317 156.296 303.883 162.861 304.069 170.975ZM289.203 155.4C289.389 147.285 295.955 140.72 304.069 140.533C303.883 148.648 297.317 155.215 289.203 155.4ZM304.778 139.824C304.965 131.71 311.53 125.145 319.645 124.958C319.458 133.072 312.893 139.639 304.778 139.824ZM319.645 124.249C311.53 124.064 304.965 117.497 304.778 109.382C312.893 109.569 319.458 116.134 319.645 124.249ZM316.673 124.604C309.591 126.115 304.238 132.345 304.077 139.834C296.59 139.994 290.358 145.348 288.847 152.428C287.338 145.348 281.106 139.994 273.619 139.834C273.459 132.345 268.104 126.115 261.023 124.604C268.104 123.093 273.459 116.861 273.619 109.374C281.106 109.214 287.338 103.861 288.847 96.7784C290.358 103.861 296.59 109.214 304.077 109.374C304.238 116.861 309.591 123.093 316.673 124.604ZM304.069 108.673C295.955 108.488 289.389 101.921 289.203 93.8066C297.317 93.9935 303.883 100.559 304.069 108.673ZM289.203 93.0979C289.389 84.9831 295.955 78.418 304.069 78.2311C303.883 86.346 297.317 92.9126 289.203 93.0979ZM304.778 77.5224C304.965 69.4076 311.53 62.8425 319.645 62.6556C319.458 70.7704 312.893 77.3371 304.778 77.5224ZM319.645 61.9469C311.53 61.7616 304.965 55.1949 304.778 47.0801C312.893 47.267 319.458 53.8321 319.645 61.9469ZM316.673 62.302C309.591 63.8129 304.238 70.0431 304.077 77.5318C296.59 77.6922 290.358 83.0455 288.847 90.1261C287.338 83.0455 281.106 77.6922 273.619 77.5318C273.459 70.0431 268.104 63.8129 261.023 62.302C268.104 60.7912 273.459 54.5595 273.619 47.0723C281.106 46.9119 287.338 41.5586 288.847 34.4764C290.358 41.5586 296.59 46.9119 304.077 47.0723C304.238 54.5595 309.591 60.7912 316.673 62.302ZM304.069 46.3714C295.955 46.1861 289.389 39.6194 289.203 31.5046C297.317 31.6915 303.883 38.2566 304.069 46.3714ZM289.203 30.7959C289.389 22.6811 295.955 16.116 304.069 15.9291C303.883 24.0439 297.317 30.6105 289.203 30.7959Z" fill="#172D2D"/>
<path d="M24.0638 93.3938V93.5106C15.5082 93.5106 8.54747 100.471 8.54747 109.028H8.48828V77.8774H8.54747C8.54747 86.4331 15.5082 93.3938 24.0638 93.3938Z" fill="#172D2D"/>
<path d="M39.6419 77.8777H39.7011C39.7011 69.3221 46.6618 62.3598 55.219 62.3598V62.243C46.6634 62.243 39.7011 55.2823 39.7011 46.7251H39.5843C39.5843 55.2807 32.6236 62.243 24.0664 62.243V62.3598C32.622 62.3598 39.5843 69.3205 39.5843 77.8777H39.6435H39.6419Z" fill="#172D2D"/>
<path d="M24.0638 31.0915V31.2083C15.5082 31.2083 8.54747 38.169 8.54747 46.7262H8.48828V15.5752H8.54747C8.54747 24.1308 15.5082 31.0915 24.0638 31.0915Z" fill="#172D2D"/>
<path d="M24.0638 155.696V155.813C15.5082 155.813 8.54747 162.774 8.54747 171.331H8.48828V140.18H8.54747C8.54747 148.736 15.5082 155.696 24.0638 155.696Z" fill="#172D2D"/>
<path d="M39.6419 140.179H39.7011C39.7011 131.624 46.6618 124.662 55.219 124.662V124.545C46.6634 124.545 39.7011 117.584 39.7011 109.027H39.5843C39.5843 117.582 32.6236 124.545 24.0664 124.545V124.662C32.622 124.662 39.5843 131.622 39.5843 140.179H39.6435H39.6419Z" fill="#172D2D"/>
<path d="M70.7864 109.029H70.8456C70.8456 100.473 77.8063 93.5109 86.3635 93.5109V93.3941C77.8079 93.3941 70.8456 86.4334 70.8456 77.8762H70.7288C70.7288 86.4318 63.7681 93.3941 55.2109 93.3941V93.5109C63.7666 93.5109 70.7288 100.472 70.7288 109.029H70.788H70.7864Z" fill="#172D2D"/>
<path d="M39.6419 202.482H39.7011C39.7011 193.926 46.6618 186.964 55.219 186.964V186.847C46.6634 186.847 39.7011 179.886 39.7011 171.329H39.5843C39.5843 179.885 32.6236 186.847 24.0664 186.847V186.964C32.622 186.964 39.5843 193.924 39.5843 202.482H39.6435H39.6419Z" fill="#172D2D"/>
<path d="M70.7904 171.331H70.8495C70.8495 162.775 77.8102 155.813 86.3674 155.813V155.696C77.8118 155.696 70.8495 148.736 70.8495 140.178H70.7327C70.7327 148.734 63.772 155.696 55.2148 155.696V155.813C63.7705 155.813 70.7327 162.774 70.7327 171.331H70.7919H70.7904Z" fill="#172D2D"/>
<path d="M101.943 140.179H102.002C102.002 131.624 108.963 124.662 117.52 124.662V124.545C108.964 124.545 102.002 117.584 102.002 109.027H101.885C101.885 117.582 94.9244 124.545 86.3672 124.545V124.662C94.9228 124.662 101.885 131.622 101.885 140.179H101.944H101.943Z" fill="#172D2D"/>
<path d="M101.943 202.482H102.002C102.002 193.926 108.963 186.964 117.52 186.964V186.847C108.964 186.847 102.002 179.886 102.002 171.329H101.885C101.885 179.885 94.9244 186.847 86.3672 186.847V186.964C94.9228 186.964 101.885 193.924 101.885 202.482H101.944H101.943Z" fill="#172D2D"/>
<path d="M133.091 171.331H133.15C133.15 162.775 140.111 155.813 148.668 155.813V155.696C140.113 155.696 133.15 148.736 133.15 140.178H133.033C133.033 148.734 126.073 155.696 117.516 155.696V155.813C126.071 155.813 133.033 162.774 133.033 171.331H133.093H133.091Z" fill="#172D2D"/>
<path d="M55.2174 0V0.0576294C46.6618 0.0576294 39.7011 7.01832 39.7011 15.5755H39.5843C39.5843 7.01832 32.6236 0.0576294 24.0664 0.0576294V0L55.2174 0Z" fill="#172D2D"/>
<path d="M70.7311 46.7266H70.7904H70.8495C70.8495 38.1709 77.8102 31.2087 86.3674 31.2087V31.0919C77.8118 31.0919 70.8495 24.1312 70.8495 15.574H70.7327C70.7327 24.1296 63.772 31.0919 55.2148 31.0919V31.2087C63.7705 31.2087 70.7327 38.1694 70.7327 46.7266H70.7311Z" fill="#172D2D"/>
<path d="M117.518 0V0.0576294C108.963 0.0576294 102.002 7.01832 102.002 15.5755H101.885C101.885 7.01832 94.9244 0.0576294 86.3672 0.0576294V0L117.518 0Z" fill="#172D2D"/>
<path d="M101.883 77.8777H101.943H102.002C102.002 69.3221 108.963 62.3598 117.52 62.3598V62.243C108.964 62.243 102.002 55.2823 102.002 46.7251H101.885C101.885 55.2807 94.9244 62.243 86.3672 62.243V62.3598C94.9228 62.3598 101.885 69.3205 101.885 77.8777H101.883Z" fill="#172D2D"/>
<path d="M133.036 46.7266H133.095H133.154C133.154 38.1709 140.115 31.2087 148.672 31.2087V31.0919C140.116 31.0919 133.154 24.1312 133.154 15.574H133.037C133.037 24.1296 126.077 31.0919 117.52 31.0919V31.2087C126.075 31.2087 133.037 38.1694 133.037 46.7266H133.036Z" fill="#172D2D"/>
<path d="M179.819 0V0.0576294C171.263 0.0576294 164.303 7.01832 164.303 15.5755H164.186C164.186 7.01832 157.225 0.0576294 148.668 0.0576294V0L179.819 0Z" fill="#172D2D"/>
<path d="M164.184 140.179H164.243H164.303C164.303 131.624 171.263 124.662 179.821 124.662V124.545C171.265 124.545 164.303 117.584 164.303 109.027H164.186C164.186 117.582 157.225 124.545 148.668 124.545V124.662C157.224 124.662 164.186 131.622 164.186 140.179H164.184Z" fill="#172D2D"/>
<path d="M133.036 109.029H133.095H133.154C133.154 100.473 140.115 93.5109 148.672 93.5109V93.3941C140.116 93.3941 133.154 86.4334 133.154 77.8762H133.037C133.037 86.4318 126.077 93.3941 117.52 93.3941V93.5109C126.075 93.5109 133.037 100.472 133.037 109.029H133.036Z" fill="#172D2D"/>
<path d="M164.184 77.8777H164.243H164.303C164.303 69.3221 171.263 62.3598 179.821 62.3598V62.243C171.265 62.243 164.303 55.2823 164.303 46.7251H164.186C164.186 55.2807 157.225 62.243 148.668 62.243V62.3598C157.224 62.3598 164.186 69.3205 164.186 77.8777H164.184Z" fill="#172D2D"/>
<path d="M195.337 46.7266H195.396H195.455C195.455 38.1709 202.416 31.2087 210.973 31.2087V31.0919C202.417 31.0919 195.455 24.1312 195.455 15.574H195.338C195.338 24.1296 188.377 31.0919 179.82 31.0919V31.2087C188.376 31.2087 195.338 38.1694 195.338 46.7266H195.337Z" fill="#172D2D"/>
<path d="M195.337 109.029H195.396H195.455C195.455 100.473 202.416 93.5109 210.973 93.5109V93.3941C202.417 93.3941 195.455 86.4334 195.455 77.8762H195.338C195.338 86.4318 188.377 93.3941 179.82 93.3941V93.5109C188.376 93.5109 195.338 100.472 195.338 109.029H195.337Z" fill="#172D2D"/>
<path d="M226.489 77.8777H226.548H226.607C226.607 69.3221 233.568 62.3598 242.125 62.3598V62.243C233.57 62.243 226.607 55.2823 226.607 46.7251H226.491C226.491 55.2807 219.53 62.243 210.973 62.243V62.3598C219.528 62.3598 226.491 69.3205 226.491 77.8777H226.489Z" fill="#172D2D"/>
<path d="M257.641 46.7266H257.701H257.76C257.76 38.1709 264.72 31.2087 273.278 31.2087V31.0919C264.722 31.0919 257.76 24.1312 257.76 15.574H257.643C257.643 24.1296 250.682 31.0919 242.125 31.0919V31.2087C250.681 31.2087 257.643 38.1694 257.643 46.7266H257.641Z" fill="#172D2D"/>
<path d="M242.12 0V0.0576294C233.564 0.0576294 226.603 7.01832 226.603 15.5755H226.487C226.487 7.01832 219.526 0.0576294 210.969 0.0576294V0L242.12 0Z" fill="#172D2D"/>
<path d="M304.421 0V0.0576294C295.865 0.0576294 288.904 7.01832 288.904 15.5755H288.787C288.787 7.01832 281.827 0.0576294 273.27 0.0576294V0L304.421 0Z" fill="#172D2D"/>
<path d="M164.303 171.331H164.186C164.186 179.886 157.225 186.848 148.668 186.848V186.965C157.224 186.965 164.186 193.926 164.186 202.483H164.245H164.304C164.304 193.928 171.265 186.965 179.822 186.965V186.848C171.266 186.848 164.304 179.888 164.304 171.331H164.303Z" fill="#172D2D"/>
<path d="M195.338 140.18C195.338 148.736 188.377 155.698 179.82 155.698V155.815C188.376 155.815 195.338 162.775 195.338 171.333H195.397H195.457C195.457 162.777 202.417 155.815 210.974 155.815V155.698C202.419 155.698 195.457 148.737 195.457 140.18H195.34H195.338Z" fill="#172D2D"/>
<path d="M226.487 109.028C226.487 117.584 219.526 124.546 210.969 124.546V124.663C219.524 124.663 226.487 131.623 226.487 140.181H226.546H226.605C226.605 131.625 233.566 124.663 242.123 124.663V124.546C233.567 124.546 226.605 117.585 226.605 109.028H226.488H226.487Z" fill="#172D2D"/>
<path d="M257.639 77.8774C257.639 86.4331 250.678 93.3953 242.121 93.3953V93.5121C250.677 93.5121 257.639 100.473 257.639 109.03H257.698H257.757C257.757 100.474 264.718 93.5121 273.275 93.5121V93.3953C264.72 93.3953 257.757 86.4346 257.757 77.8774H257.641H257.639Z" fill="#172D2D"/>
<path d="M226.487 171.331C226.487 179.886 219.526 186.848 210.969 186.848V186.965C219.524 186.965 226.487 193.926 226.487 202.483H226.546H226.605C226.605 193.928 233.566 186.965 242.123 186.965V186.848C233.567 186.848 226.605 179.888 226.605 171.331H226.488H226.487Z" fill="#172D2D"/>
<path d="M257.639 140.18C257.639 148.736 250.678 155.698 242.121 155.698V155.815C250.677 155.815 257.639 162.775 257.639 171.333H257.698H257.757C257.757 162.777 264.718 155.815 273.275 155.815V155.698C264.72 155.698 257.757 148.737 257.757 140.18H257.641H257.639Z" fill="#172D2D"/>
<path d="M288.787 109.028C288.787 117.584 281.827 124.546 273.27 124.546V124.663C281.825 124.663 288.787 131.623 288.787 140.181H288.847H288.906C288.906 131.625 295.866 124.663 304.424 124.663V124.546C295.868 124.546 288.906 117.585 288.906 109.028H288.789H288.787Z" fill="#172D2D"/>
<path d="M288.787 171.33C288.787 179.886 281.827 186.848 273.27 186.848V186.965C281.825 186.965 288.787 193.926 288.787 202.483H288.847H288.906C288.906 193.927 295.866 186.965 304.424 186.965V186.848C295.868 186.848 288.906 179.888 288.906 171.33H288.789H288.787Z" fill="#172D2D"/>
<path d="M319.997 140.18V171.331H319.94C319.94 162.774 312.979 155.813 304.422 155.813V155.696C312.979 155.696 319.94 148.736 319.94 140.18H319.997Z" fill="#172D2D"/>
<path d="M288.787 46.7263C288.787 55.2819 281.827 62.2442 273.27 62.2442V62.361C281.825 62.361 288.787 69.3217 288.787 77.8789H288.847H288.906C288.906 69.3233 295.866 62.361 304.424 62.361V62.2442C295.868 62.2442 288.906 55.2835 288.906 46.7263H288.789H288.787Z" fill="#172D2D"/>
<path d="M319.997 15.5752V46.7262H319.94C319.94 38.169 312.979 31.2083 304.422 31.2083V31.0915C312.979 31.0915 319.94 24.1308 319.94 15.5752H319.997Z" fill="#172D2D"/>
<path d="M319.997 77.8774V109.028H319.94C319.94 100.471 312.979 93.5106 304.422 93.5106V93.3938C312.979 93.3938 319.94 86.4331 319.94 77.8774H319.997Z" fill="#172D2D"/>
</g>
<defs>
<radialGradient id="paint0_radial_554_27111" cx="0" cy="0" r="1" gradientUnits="userSpaceOnUse" gradientTransform="translate(552.816 -1190.76) rotate(107.39) scale(1402.82 784.417)">
<stop stop-color="#D9D9D9"/>
<stop offset="1" stop-color="#D9D9D9" stop-opacity="0"/>
</radialGradient>
</defs>
</svg>
