<svg width="490" height="301" viewBox="0 0 490 301" fill="none" xmlns="http://www.w3.org/2000/svg">
<mask id="mask0_526_11790" style="mask-type:alpha" maskUnits="userSpaceOnUse" x="0" y="0" width="490" height="301">
<rect width="490" height="301" rx="20" fill="url(#paint0_radial_526_11790)"/>
</mask>
<g mask="url(#mask0_526_11790)">
<path d="M-10.3181 24.3795C1.14655 24.1338 10.6889 15.9366 13 5.09198V0H7.90802C-2.93655 2.31345 -11.1338 11.8534 -11.3795 23.3205C-22.8441 23.5662 -32.3866 31.7634 -34.7 42.6056C-37.0111 31.7634 -46.5535 23.5662 -58.0182 23.3205C-58.2638 11.8534 -66.4634 2.31345 -77.3056 0H-87.492C-98.3366 2.31345 -106.534 11.8534 -106.779 23.3205C-118.244 23.5662 -127.787 31.7634 -130.1 42.6056C-132.411 31.7634 -141.953 23.5662 -153.418 23.3205C-153.664 11.8534 -161.863 2.31345 -172.706 0H-182.892C-193.737 2.31345 -201.934 11.8534 -202.179 23.3205C-213.644 23.5662 -223.187 31.7634 -225.5 42.6056C-227.811 31.7634 -237.353 23.5662 -248.818 23.3205C-249.064 11.8534 -257.263 2.31345 -268.106 0H-278.292C-289.137 2.31345 -297.334 11.8534 -297.579 23.3205C-309.044 23.5662 -318.587 31.7634 -320.9 42.6056C-323.211 31.7634 -332.753 23.5662 -344.218 23.3205C-344.464 11.8534 -352.663 2.31345 -363.506 0H-373.692C-384.537 2.31345 -392.734 11.8534 -392.979 23.3205C-404.444 23.5662 -413.987 31.7634 -416.3 42.6056C-418.611 31.7634 -428.153 23.5662 -439.618 23.3205C-439.864 11.8534 -448.063 2.31345 -458.906 0H-464V5.09198C-461.687 15.9366 -452.144 24.1338 -440.679 24.3795C-440.434 35.8442 -432.237 45.3866 -421.392 47.7C-432.237 50.0135 -440.434 59.5534 -440.679 71.0205C-452.144 71.2662 -461.687 79.4634 -464 90.3056V100.492C-461.687 111.337 -452.144 119.534 -440.679 119.779C-440.434 131.244 -432.237 140.787 -421.392 143.1C-432.237 145.413 -440.434 154.953 -440.679 166.421C-452.144 166.666 -461.687 174.863 -464 185.706V195.892C-461.687 206.737 -452.144 214.934 -440.679 215.179C-440.434 226.644 -432.237 236.187 -421.392 238.5C-432.237 240.813 -440.434 250.353 -440.679 261.821C-452.144 262.066 -461.687 270.263 -464 281.106V291.292C-461.687 302.137 -452.144 310.334 -440.679 310.579C-440.434 322.044 -432.237 331.587 -421.392 333.9C-432.237 336.213 -440.434 345.753 -440.679 357.221C-452.144 357.466 -461.687 365.663 -464 376.506V386.692C-461.687 397.537 -452.144 405.734 -440.679 405.979C-440.434 417.444 -432.237 426.987 -421.392 429.3C-432.237 431.613 -440.434 441.153 -440.679 452.621C-452.144 452.866 -461.687 461.063 -464 471.906V477H-458.906C-448.063 474.687 -439.864 465.144 -439.618 453.679C-428.153 453.434 -418.611 445.237 -416.3 434.392C-413.987 445.237 -404.444 453.434 -392.979 453.679C-392.734 465.144 -384.537 474.687 -373.692 477H-363.506C-352.663 474.687 -344.464 465.144 -344.218 453.679C-332.753 453.434 -323.211 445.237 -320.9 434.392C-318.587 445.237 -309.044 453.434 -297.579 453.679C-297.334 465.144 -289.137 474.687 -278.292 477H-268.106C-257.263 474.687 -249.064 465.144 -248.818 453.679C-237.353 453.434 -227.811 445.237 -225.5 434.392C-223.187 445.237 -213.644 453.434 -202.179 453.679C-201.934 465.144 -193.737 474.687 -182.892 477H-172.706C-161.863 474.687 -153.664 465.144 -153.418 453.679C-141.953 453.434 -132.411 445.237 -130.1 434.392C-127.787 445.237 -118.244 453.434 -106.779 453.679C-106.534 465.144 -98.3366 474.687 -87.492 477H-77.3056C-66.4634 474.687 -58.2638 465.144 -58.0182 453.679C-46.5535 453.434 -37.0111 445.237 -34.7 434.392C-32.3866 445.237 -22.8441 453.434 -11.3795 453.679C-11.1338 465.144 -2.93655 474.687 7.90802 477H13V471.906C10.6889 461.063 1.14655 452.866 -10.3181 452.621C-10.5638 441.153 -18.7634 431.613 -29.6057 429.3C-18.7634 426.987 -10.5638 417.444 -10.3181 405.979C1.14655 405.734 10.6889 397.537 13 386.692V376.506C10.6889 365.663 1.14655 357.466 -10.3181 357.221C-10.5638 345.753 -18.7634 336.213 -29.6057 333.9C-18.7634 331.587 -10.5638 322.044 -10.3181 310.579C1.14655 310.334 10.6889 302.137 13 291.292V281.106C10.6889 270.263 1.14655 262.066 -10.3181 261.821C-10.5638 250.353 -18.7634 240.813 -29.6057 238.5C-18.7634 236.187 -10.5638 226.644 -10.3181 215.179C1.14655 214.934 10.6889 206.737 13 195.892V185.706C10.6889 174.863 1.14655 166.666 -10.3181 166.421C-10.5638 154.953 -18.7634 145.413 -29.6057 143.1C-18.7634 140.787 -10.5638 131.244 -10.3181 119.779C1.14655 119.534 10.6889 111.337 13 100.492V90.3056C10.6889 79.4634 1.14655 71.2662 -10.3181 71.0205C-10.5638 59.5534 -18.7634 50.0135 -29.6057 47.7C-18.7634 45.3866 -10.5638 35.8442 -10.3181 24.3795ZM12.4586 0.541395C12.1724 12.9672 2.11963 23.0224 -10.3062 23.3062C-10.02 10.8804 0.0327454 0.827595 12.4586 0.541395ZM-463.456 0.541395C-451.03 0.827595 -440.978 10.8804 -440.691 23.3062C-453.117 23.0224 -463.17 12.9672 -463.456 0.541395ZM-463.456 476.456C-463.17 464.03 -453.117 453.978 -440.691 453.691C-440.978 466.117 -451.03 476.172 -463.456 476.456ZM12.4586 476.456C0.0327454 476.172 -10.02 466.117 -10.3062 453.691C2.11963 453.978 12.1724 464.03 12.4586 476.456ZM-35.2414 47.1562C-47.6672 46.8724 -57.72 36.8172 -58.0062 24.3914C-45.5804 24.6776 -35.5276 34.7304 -35.2414 47.1562ZM-59.0914 23.3062C-71.5172 23.0224 -81.57 12.9672 -81.8562 0.541395C-69.4304 0.827595 -59.3776 10.8804 -59.0914 23.3062ZM-82.9414 0.541395C-83.2276 12.9672 -93.2804 23.0224 -105.706 23.3062C-105.42 10.8804 -95.3672 0.827595 -82.9414 0.541395ZM-105.718 24.3795C-94.2534 24.1338 -84.7111 15.9366 -82.4 5.09198C-80.0865 15.9366 -70.5442 24.1338 -59.0795 24.3795C-58.8338 35.8442 -50.6366 45.3866 -39.792 47.7C-50.6366 50.0135 -58.8338 59.5534 -59.0795 71.0205C-70.5442 71.2662 -80.0865 79.4634 -82.4 90.3056C-84.7111 79.4634 -94.2534 71.2662 -105.718 71.0205C-105.964 59.5534 -114.163 50.0135 -125.006 47.7C-114.163 45.3866 -105.964 35.8442 -105.718 24.3795ZM-35.2414 48.2414C-35.5276 60.6672 -45.5804 70.7224 -58.0062 71.0062C-57.72 58.5804 -47.6672 48.5276 -35.2414 48.2414ZM-39.792 143.1C-50.6366 145.413 -58.8338 154.953 -59.0795 166.421C-70.5442 166.666 -80.0865 174.863 -82.4 185.706C-84.7111 174.863 -94.2534 166.666 -105.718 166.421C-105.964 154.953 -114.163 145.413 -125.006 143.1C-114.163 140.787 -105.964 131.244 -105.718 119.779C-94.2534 119.534 -84.7111 111.337 -82.4 100.492C-80.0865 111.337 -70.5442 119.534 -59.0795 119.779C-58.8338 131.244 -50.6366 140.787 -39.792 143.1ZM-58.0062 119.791C-45.5804 120.078 -35.5276 130.13 -35.2414 142.556C-47.6672 142.272 -57.72 132.217 -58.0062 119.791ZM-35.2414 143.641C-35.5276 156.067 -45.5804 166.122 -58.0062 166.406C-57.72 153.98 -47.6672 143.928 -35.2414 143.641ZM-39.792 238.5C-50.6366 240.813 -58.8338 250.353 -59.0795 261.821C-70.5442 262.066 -80.0865 270.263 -82.4 281.106C-84.7111 270.263 -94.2534 262.066 -105.718 261.821C-105.964 250.353 -114.163 240.813 -125.006 238.5C-114.163 236.187 -105.964 226.644 -105.718 215.179C-94.2534 214.934 -84.7111 206.737 -82.4 195.892C-80.0865 206.737 -70.5442 214.934 -59.0795 215.179C-58.8338 226.644 -50.6366 236.187 -39.792 238.5ZM-58.0062 215.191C-45.5804 215.478 -35.5276 225.53 -35.2414 237.956C-47.6672 237.672 -57.72 227.617 -58.0062 215.191ZM-35.2414 239.041C-35.5276 251.467 -45.5804 261.522 -58.0062 261.806C-57.72 249.38 -47.6672 239.328 -35.2414 239.041ZM-39.792 333.9C-50.6366 336.213 -58.8338 345.753 -59.0795 357.221C-70.5442 357.466 -80.0865 365.663 -82.4 376.506C-84.7111 365.663 -94.2534 357.466 -105.718 357.221C-105.964 345.753 -114.163 336.213 -125.006 333.9C-114.163 331.587 -105.964 322.044 -105.718 310.579C-94.2534 310.334 -84.7111 302.137 -82.4 291.292C-80.0865 302.137 -70.5442 310.334 -59.0795 310.579C-58.8338 322.044 -50.6366 331.587 -39.792 333.9ZM-58.0062 310.591C-45.5804 310.878 -35.5276 320.93 -35.2414 333.356C-47.6672 333.072 -57.72 323.017 -58.0062 310.591ZM-35.2414 334.441C-35.5276 346.867 -45.5804 356.922 -58.0062 357.206C-57.72 344.78 -47.6672 334.728 -35.2414 334.441ZM-59.0914 358.291C-59.3776 370.717 -69.4304 380.772 -81.8562 381.056C-81.57 368.63 -71.5172 358.578 -59.0914 358.291ZM-59.0914 404.906C-71.5172 404.622 -81.57 394.567 -81.8562 382.141C-69.4304 382.428 -59.3776 392.48 -59.0914 404.906ZM-82.9414 381.056C-95.3672 380.772 -105.42 370.717 -105.706 358.291C-93.2804 358.578 -83.2276 368.63 -82.9414 381.056ZM-177.8 376.506C-180.111 365.663 -189.653 357.466 -201.118 357.221C-201.364 345.753 -209.563 336.213 -220.406 333.9C-209.563 331.587 -201.364 322.044 -201.118 310.579C-189.653 310.334 -180.111 302.137 -177.8 291.292C-175.487 302.137 -165.944 310.334 -154.479 310.579C-154.234 322.044 -146.037 331.587 -135.192 333.9C-146.037 336.213 -154.234 345.753 -154.479 357.221C-165.944 357.466 -175.487 365.663 -177.8 376.506ZM-154.491 358.291C-154.778 370.717 -164.83 380.772 -177.256 381.056C-176.97 368.63 -166.917 358.578 -154.491 358.291ZM-154.491 404.906C-166.917 404.622 -176.97 394.567 -177.256 382.141C-164.83 382.428 -154.778 392.48 -154.491 404.906ZM-178.341 381.056C-190.767 380.772 -200.82 370.717 -201.106 358.291C-188.68 358.578 -178.628 368.63 -178.341 381.056ZM-273.2 376.506C-275.511 365.663 -285.053 357.466 -296.518 357.221C-296.764 345.753 -304.963 336.213 -315.806 333.9C-304.963 331.587 -296.764 322.044 -296.518 310.579C-285.053 310.334 -275.511 302.137 -273.2 291.292C-270.887 302.137 -261.344 310.334 -249.879 310.579C-249.634 322.044 -241.437 331.587 -230.592 333.9C-241.437 336.213 -249.634 345.753 -249.879 357.221C-261.344 357.466 -270.887 365.663 -273.2 376.506ZM-249.891 358.291C-250.178 370.717 -260.23 380.772 -272.656 381.056C-272.37 368.63 -262.317 358.578 -249.891 358.291ZM-249.891 404.906C-262.317 404.622 -272.37 394.567 -272.656 382.141C-260.23 382.428 -250.178 392.48 -249.891 404.906ZM-273.741 381.056C-286.167 380.772 -296.22 370.717 -296.506 358.291C-284.08 358.578 -274.028 368.63 -273.741 381.056ZM-368.6 376.506C-370.911 365.663 -380.453 357.466 -391.918 357.221C-392.164 345.753 -400.363 336.213 -411.206 333.9C-400.363 331.587 -392.164 322.044 -391.918 310.579C-380.453 310.334 -370.911 302.137 -368.6 291.292C-366.287 302.137 -356.744 310.334 -345.279 310.579C-345.034 322.044 -336.837 331.587 -325.992 333.9C-336.837 336.213 -345.034 345.753 -345.279 357.221C-356.744 357.466 -366.287 365.663 -368.6 376.506ZM-345.291 358.291C-345.578 370.717 -355.63 380.772 -368.056 381.056C-367.77 368.63 -357.717 358.578 -345.291 358.291ZM-345.291 404.906C-357.717 404.622 -367.77 394.567 -368.056 382.141C-355.63 382.428 -345.578 392.48 -345.291 404.906ZM-369.141 381.056C-381.567 380.772 -391.62 370.717 -391.906 358.291C-379.48 358.578 -369.428 368.63 -369.141 381.056ZM-392.991 357.206C-405.417 356.922 -415.47 346.867 -415.756 334.441C-403.33 334.728 -393.278 344.78 -392.991 357.206ZM-415.756 333.356C-415.47 320.93 -405.417 310.878 -392.991 310.591C-393.278 323.017 -403.33 333.072 -415.756 333.356ZM-411.206 238.5C-400.363 236.187 -392.164 226.644 -391.918 215.179C-380.453 214.934 -370.911 206.737 -368.6 195.892C-366.287 206.737 -356.744 214.934 -345.279 215.179C-345.034 226.644 -336.837 236.187 -325.992 238.5C-336.837 240.813 -345.034 250.353 -345.279 261.821C-356.744 262.066 -366.287 270.263 -368.6 281.106C-370.911 270.263 -380.453 262.066 -391.918 261.821C-392.164 250.353 -400.363 240.813 -411.206 238.5ZM-392.991 261.806C-405.417 261.522 -415.47 251.467 -415.756 239.041C-403.33 239.328 -393.278 249.38 -392.991 261.806ZM-415.756 237.956C-415.47 225.53 -405.417 215.478 -392.991 215.191C-393.278 227.617 -403.33 237.672 -415.756 237.956ZM-411.206 143.1C-400.363 140.787 -392.164 131.244 -391.918 119.779C-380.453 119.534 -370.911 111.337 -368.6 100.492C-366.287 111.337 -356.744 119.534 -345.279 119.779C-345.034 131.244 -336.837 140.787 -325.992 143.1C-336.837 145.413 -345.034 154.953 -345.279 166.421C-356.744 166.666 -366.287 174.863 -368.6 185.706C-370.911 174.863 -380.453 166.666 -391.918 166.421C-392.164 154.953 -400.363 145.413 -411.206 143.1ZM-392.991 166.406C-405.417 166.122 -415.47 156.067 -415.756 143.641C-403.33 143.928 -393.278 153.98 -392.991 166.406ZM-415.756 142.556C-415.47 130.13 -405.417 120.078 -392.991 119.791C-393.278 132.217 -403.33 142.272 -415.756 142.556ZM-391.906 118.706C-391.62 106.28 -381.567 96.2276 -369.141 95.9414C-369.428 108.367 -379.48 118.422 -391.906 118.706ZM-391.906 72.0914C-379.48 72.3776 -369.428 82.4304 -369.141 94.8562C-381.567 94.5724 -391.62 84.5172 -391.906 72.0914ZM-368.056 95.9414C-355.63 96.2276 -345.578 106.28 -345.291 118.706C-357.717 118.422 -367.77 108.367 -368.056 95.9414ZM-273.2 100.492C-270.887 111.337 -261.344 119.534 -249.879 119.779C-249.634 131.244 -241.437 140.787 -230.592 143.1C-241.437 145.413 -249.634 154.953 -249.879 166.421C-261.344 166.666 -270.887 174.863 -273.2 185.706C-275.511 174.863 -285.053 166.666 -296.518 166.421C-296.764 154.953 -304.963 145.413 -315.806 143.1C-304.963 140.787 -296.764 131.244 -296.518 119.779C-285.053 119.534 -275.511 111.337 -273.2 100.492ZM-296.506 118.706C-296.22 106.28 -286.167 96.2276 -273.741 95.9414C-274.028 108.367 -284.08 118.422 -296.506 118.706ZM-296.506 72.0914C-284.08 72.3776 -274.028 82.4304 -273.741 94.8562C-286.167 94.5724 -296.22 84.5172 -296.506 72.0914ZM-272.656 95.9414C-260.23 96.2276 -250.178 106.28 -249.891 118.706C-262.317 118.422 -272.37 108.367 -272.656 95.9414ZM-177.8 100.492C-175.487 111.337 -165.944 119.534 -154.479 119.779C-154.234 131.244 -146.037 140.787 -135.192 143.1C-146.037 145.413 -154.234 154.953 -154.479 166.421C-165.944 166.666 -175.487 174.863 -177.8 185.706C-180.111 174.863 -189.653 166.666 -201.118 166.421C-201.364 154.953 -209.563 145.413 -220.406 143.1C-209.563 140.787 -201.364 131.244 -201.118 119.779C-189.653 119.534 -180.111 111.337 -177.8 100.492ZM-201.106 118.706C-200.82 106.28 -190.767 96.2276 -178.341 95.9414C-178.628 108.367 -188.68 118.422 -201.106 118.706ZM-201.106 72.0914C-188.68 72.3776 -178.628 82.4304 -178.341 94.8562C-190.767 94.5724 -200.82 84.5172 -201.106 72.0914ZM-177.256 95.9414C-164.83 96.2276 -154.778 106.28 -154.491 118.706C-166.917 118.422 -176.97 108.367 -177.256 95.9414ZM-106.779 167.479C-106.534 178.944 -98.3366 188.487 -87.492 190.8C-98.3366 193.113 -106.534 202.653 -106.779 214.121C-118.244 214.366 -127.787 222.563 -130.1 233.406C-132.411 222.563 -141.953 214.366 -153.418 214.121C-153.664 202.653 -161.863 193.113 -172.706 190.8C-161.863 188.487 -153.664 178.944 -153.418 167.479C-141.953 167.234 -132.411 159.037 -130.1 148.192C-127.787 159.037 -118.244 167.234 -106.779 167.479ZM-129.556 143.641C-117.13 143.928 -107.078 153.98 -106.791 166.406C-119.217 166.122 -129.27 156.067 -129.556 143.641ZM-105.706 167.491C-93.2804 167.778 -83.2276 177.83 -82.9414 190.256C-95.3672 189.972 -105.42 179.917 -105.706 167.491ZM-82.9414 191.341C-83.2276 203.767 -93.2804 213.822 -105.706 214.106C-105.42 201.68 -95.3672 191.628 -82.9414 191.341ZM-106.791 215.191C-107.078 227.617 -117.13 237.672 -129.556 237.956C-129.27 225.53 -119.217 215.478 -106.791 215.191ZM-106.791 261.806C-119.217 261.522 -129.27 251.467 -129.556 239.041C-117.13 239.328 -107.078 249.38 -106.791 261.806ZM-177.8 281.106C-180.111 270.263 -189.653 262.066 -201.118 261.821C-201.364 250.353 -209.563 240.813 -220.406 238.5C-209.563 236.187 -201.364 226.644 -201.118 215.179C-189.653 214.934 -180.111 206.737 -177.8 195.892C-175.487 206.737 -165.944 214.934 -154.479 215.179C-154.234 226.644 -146.037 236.187 -135.192 238.5C-146.037 240.813 -154.234 250.353 -154.479 261.821C-165.944 262.066 -175.487 270.263 -177.8 281.106ZM-154.491 262.891C-154.778 275.317 -164.83 285.372 -177.256 285.656C-176.97 273.23 -166.917 263.178 -154.491 262.891ZM-154.491 309.506C-166.917 309.222 -176.97 299.167 -177.256 286.741C-164.83 287.028 -154.778 297.08 -154.491 309.506ZM-178.341 285.656C-190.767 285.372 -200.82 275.317 -201.106 262.891C-188.68 263.178 -178.628 273.23 -178.341 285.656ZM-202.191 261.806C-214.617 261.522 -224.67 251.467 -224.956 239.041C-212.53 239.328 -202.478 249.38 -202.191 261.806ZM-224.956 237.956C-224.67 225.53 -214.617 215.478 -202.191 215.191C-202.478 227.617 -212.53 237.672 -224.956 237.956ZM-201.106 214.106C-200.82 201.68 -190.767 191.628 -178.341 191.341C-178.628 203.767 -188.68 213.822 -201.106 214.106ZM-201.106 167.491C-188.68 167.778 -178.628 177.83 -178.341 190.256C-190.767 189.972 -200.82 179.917 -201.106 167.491ZM-177.256 191.341C-164.83 191.628 -154.778 201.68 -154.491 214.106C-166.917 213.822 -176.97 203.767 -177.256 191.341ZM-130.641 239.041C-130.928 251.467 -140.98 261.522 -153.406 261.806C-153.12 249.38 -143.067 239.328 -130.641 239.041ZM-153.406 215.191C-140.98 215.478 -130.928 225.53 -130.641 237.956C-143.067 237.672 -153.12 227.617 -153.406 215.191ZM-177.256 190.256C-176.97 177.83 -166.917 167.778 -154.491 167.491C-154.778 179.917 -164.83 189.972 -177.256 190.256ZM-153.406 166.406C-153.12 153.98 -143.067 143.928 -130.641 143.641C-130.928 156.067 -140.98 166.122 -153.406 166.406ZM-153.406 119.791C-140.98 120.078 -130.928 130.13 -130.641 142.556C-143.067 142.272 -153.12 132.217 -153.406 119.791ZM-224.956 142.556C-224.67 130.13 -214.617 120.078 -202.191 119.791C-202.478 132.217 -212.53 142.272 -224.956 142.556ZM-202.191 166.406C-214.617 166.122 -224.67 156.067 -224.956 143.641C-212.53 143.928 -202.478 153.98 -202.191 166.406ZM-202.179 167.479C-201.934 178.944 -193.737 188.487 -182.892 190.8C-193.737 193.113 -201.934 202.653 -202.179 214.121C-213.644 214.366 -223.187 222.563 -225.5 233.406C-227.811 222.563 -237.353 214.366 -248.818 214.121C-249.064 202.653 -257.263 193.113 -268.106 190.8C-257.263 188.487 -249.064 178.944 -248.818 167.479C-237.353 167.234 -227.811 159.037 -225.5 148.192C-223.187 159.037 -213.644 167.234 -202.179 167.479ZM-273.2 281.106C-275.511 270.263 -285.053 262.066 -296.518 261.821C-296.764 250.353 -304.963 240.813 -315.806 238.5C-304.963 236.187 -296.764 226.644 -296.518 215.179C-285.053 214.934 -275.511 206.737 -273.2 195.892C-270.887 206.737 -261.344 214.934 -249.879 215.179C-249.634 226.644 -241.437 236.187 -230.592 238.5C-241.437 240.813 -249.634 250.353 -249.879 261.821C-261.344 262.066 -270.887 270.263 -273.2 281.106ZM-249.891 262.891C-250.178 275.317 -260.23 285.372 -272.656 285.656C-272.37 273.23 -262.317 263.178 -249.891 262.891ZM-249.891 309.506C-262.317 309.222 -272.37 299.167 -272.656 286.741C-260.23 287.028 -250.178 297.08 -249.891 309.506ZM-273.741 285.656C-286.167 285.372 -296.22 275.317 -296.506 262.891C-284.08 263.178 -274.028 273.23 -273.741 285.656ZM-297.591 261.806C-310.017 261.522 -320.07 251.467 -320.356 239.041C-307.93 239.328 -297.878 249.38 -297.591 261.806ZM-320.356 237.956C-320.07 225.53 -310.017 215.478 -297.591 215.191C-297.878 227.617 -307.93 237.672 -320.356 237.956ZM-296.506 214.106C-296.22 201.68 -286.167 191.628 -273.741 191.341C-274.028 203.767 -284.08 213.822 -296.506 214.106ZM-296.506 167.491C-284.08 167.778 -274.028 177.83 -273.741 190.256C-286.167 189.972 -296.22 179.917 -296.506 167.491ZM-272.656 191.341C-260.23 191.628 -250.178 201.68 -249.891 214.106C-262.317 213.822 -272.37 203.767 -272.656 191.341ZM-226.041 239.041C-226.328 251.467 -236.38 261.522 -248.806 261.806C-248.52 249.38 -238.467 239.328 -226.041 239.041ZM-248.806 215.191C-236.38 215.478 -226.328 225.53 -226.041 237.956C-238.467 237.672 -248.52 227.617 -248.806 215.191ZM-272.656 190.256C-272.37 177.83 -262.317 167.778 -249.891 167.491C-250.178 179.917 -260.23 189.972 -272.656 190.256ZM-248.806 166.406C-248.52 153.98 -238.467 143.928 -226.041 143.641C-226.328 156.067 -236.38 166.122 -248.806 166.406ZM-248.806 119.791C-236.38 120.078 -226.328 130.13 -226.041 142.556C-238.467 142.272 -248.52 132.217 -248.806 119.791ZM-320.356 142.556C-320.07 130.13 -310.017 120.078 -297.591 119.791C-297.878 132.217 -307.93 142.272 -320.356 142.556ZM-297.591 166.406C-310.017 166.122 -320.07 156.067 -320.356 143.641C-307.93 143.928 -297.878 153.98 -297.591 166.406ZM-297.579 167.479C-297.334 178.944 -289.137 188.487 -278.292 190.8C-289.137 193.113 -297.334 202.653 -297.579 214.121C-309.044 214.366 -318.587 222.563 -320.9 233.406C-323.211 222.563 -332.753 214.366 -344.218 214.121C-344.464 202.653 -352.663 193.113 -363.506 190.8C-352.663 188.487 -344.464 178.944 -344.218 167.479C-332.753 167.234 -323.211 159.037 -320.9 148.192C-318.587 159.037 -309.044 167.234 -297.579 167.479ZM-321.441 237.956C-333.867 237.672 -343.92 227.617 -344.206 215.191C-331.78 215.478 -321.728 225.53 -321.441 237.956ZM-345.291 214.106C-357.717 213.822 -367.77 203.767 -368.056 191.341C-355.63 191.628 -345.578 201.68 -345.291 214.106ZM-368.056 190.256C-367.77 177.83 -357.717 167.778 -345.291 167.491C-345.578 179.917 -355.63 189.972 -368.056 190.256ZM-344.206 166.406C-343.92 153.98 -333.867 143.928 -321.441 143.641C-321.728 156.067 -331.78 166.122 -344.206 166.406ZM-344.206 119.791C-331.78 120.078 -321.728 130.13 -321.441 142.556C-333.867 142.272 -343.92 132.217 -344.206 119.791ZM-369.141 190.256C-381.567 189.972 -391.62 179.917 -391.906 167.491C-379.48 167.778 -369.428 177.83 -369.141 190.256ZM-391.906 214.106C-391.62 201.68 -381.567 191.628 -369.141 191.341C-369.428 203.767 -379.48 213.822 -391.906 214.106ZM-321.441 239.041C-321.728 251.467 -331.78 261.522 -344.206 261.806C-343.92 249.38 -333.867 239.328 -321.441 239.041ZM-345.291 262.891C-345.578 275.317 -355.63 285.372 -368.056 285.656C-367.77 273.23 -357.717 263.178 -345.291 262.891ZM-345.291 309.506C-357.717 309.222 -367.77 299.167 -368.056 286.741C-355.63 287.028 -345.578 297.08 -345.291 309.506ZM-369.141 285.656C-381.567 285.372 -391.62 275.317 -391.906 262.891C-379.48 263.178 -369.428 273.23 -369.141 285.656ZM-391.906 309.506C-391.62 297.08 -381.567 287.028 -369.141 286.741C-369.428 299.167 -379.48 309.222 -391.906 309.506ZM-321.441 334.441C-321.728 346.867 -331.78 356.922 -344.206 357.206C-343.92 344.78 -333.867 334.728 -321.441 334.441ZM-344.206 310.591C-331.78 310.878 -321.728 320.93 -321.441 333.356C-333.867 333.072 -343.92 323.017 -344.206 310.591ZM-344.218 309.521C-344.464 298.053 -352.663 288.513 -363.506 286.2C-352.663 283.887 -344.464 274.344 -344.218 262.879C-332.753 262.634 -323.211 254.437 -320.9 243.592C-318.587 254.437 -309.044 262.634 -297.579 262.879C-297.334 274.344 -289.137 283.887 -278.292 286.2C-289.137 288.513 -297.334 298.053 -297.579 309.521C-309.044 309.766 -318.587 317.963 -320.9 328.806C-323.211 317.963 -332.753 309.766 -344.218 309.521ZM-273.741 286.741C-274.028 299.167 -284.08 309.222 -296.506 309.506C-296.22 297.08 -286.167 287.028 -273.741 286.741ZM-297.591 310.591C-297.878 323.017 -307.93 333.072 -320.356 333.356C-320.07 320.93 -310.017 310.878 -297.591 310.591ZM-297.591 357.206C-310.017 356.922 -320.07 346.867 -320.356 334.441C-307.93 334.728 -297.878 344.78 -297.591 357.206ZM-226.041 334.441C-226.328 346.867 -236.38 356.922 -248.806 357.206C-248.52 344.78 -238.467 334.728 -226.041 334.441ZM-248.806 310.591C-236.38 310.878 -226.328 320.93 -226.041 333.356C-238.467 333.072 -248.52 323.017 -248.806 310.591ZM-248.818 309.521C-249.064 298.053 -257.263 288.513 -268.106 286.2C-257.263 283.887 -249.064 274.344 -248.818 262.879C-237.353 262.634 -227.811 254.437 -225.5 243.592C-223.187 254.437 -213.644 262.634 -202.179 262.879C-201.934 274.344 -193.737 283.887 -182.892 286.2C-193.737 288.513 -201.934 298.053 -202.179 309.521C-213.644 309.766 -223.187 317.963 -225.5 328.806C-227.811 317.963 -237.353 309.766 -248.818 309.521ZM-178.341 286.741C-178.628 299.167 -188.68 309.222 -201.106 309.506C-200.82 297.08 -190.767 287.028 -178.341 286.741ZM-202.191 310.591C-202.478 323.017 -212.53 333.072 -224.956 333.356C-224.67 320.93 -214.617 310.878 -202.191 310.591ZM-202.191 357.206C-214.617 356.922 -224.67 346.867 -224.956 334.441C-212.53 334.728 -202.478 344.78 -202.191 357.206ZM-130.641 334.441C-130.928 346.867 -140.98 356.922 -153.406 357.206C-153.12 344.78 -143.067 334.728 -130.641 334.441ZM-153.406 310.591C-140.98 310.878 -130.928 320.93 -130.641 333.356C-143.067 333.072 -153.12 323.017 -153.406 310.591ZM-153.418 309.521C-153.664 298.053 -161.863 288.513 -172.706 286.2C-161.863 283.887 -153.664 274.344 -153.418 262.879C-141.953 262.634 -132.411 254.437 -130.1 243.592C-127.787 254.437 -118.244 262.634 -106.779 262.879C-106.534 274.344 -98.3366 283.887 -87.492 286.2C-98.3366 288.513 -106.534 298.053 -106.779 309.521C-118.244 309.766 -127.787 317.963 -130.1 328.806C-132.411 317.963 -141.953 309.766 -153.418 309.521ZM-105.706 262.891C-93.2804 263.178 -83.2276 273.23 -82.9414 285.656C-95.3672 285.372 -105.42 275.317 -105.706 262.891ZM-82.9414 286.741C-83.2276 299.167 -93.2804 309.222 -105.706 309.506C-105.42 297.08 -95.3672 287.028 -82.9414 286.741ZM-106.791 310.591C-107.078 323.017 -117.13 333.072 -129.556 333.356C-129.27 320.93 -119.217 310.878 -106.791 310.591ZM-106.791 357.206C-119.217 356.922 -129.27 346.867 -129.556 334.441C-117.13 334.728 -107.078 344.78 -106.791 357.206ZM-81.8562 286.741C-69.4304 287.028 -59.3776 297.08 -59.0914 309.506C-71.5172 309.222 -81.57 299.167 -81.8562 286.741ZM-59.0914 262.891C-59.3776 275.317 -69.4304 285.372 -81.8562 285.656C-81.57 273.23 -71.5172 263.178 -59.0914 262.891ZM-81.8562 191.341C-69.4304 191.628 -59.3776 201.68 -59.0914 214.106C-71.5172 213.822 -81.57 203.767 -81.8562 191.341ZM-59.0914 167.491C-59.3776 179.917 -69.4304 189.972 -81.8562 190.256C-81.57 177.83 -71.5172 167.778 -59.0914 167.491ZM-129.556 142.556C-129.27 130.13 -119.217 120.078 -106.791 119.791C-107.078 132.217 -117.13 142.272 -129.556 142.556ZM-105.706 118.706C-105.42 106.28 -95.3672 96.2276 -82.9414 95.9414C-83.2276 108.367 -93.2804 118.422 -105.706 118.706ZM-105.706 72.0914C-93.2804 72.3776 -83.2276 82.4304 -82.9414 94.8562C-95.3672 94.5724 -105.42 84.5172 -105.706 72.0914ZM-81.8562 95.9414C-69.4304 96.2276 -59.3776 106.28 -59.0914 118.706C-71.5172 118.422 -81.57 108.367 -81.8562 95.9414ZM-59.0914 72.0914C-59.3776 84.5172 -69.4304 94.5724 -81.8562 94.8562C-81.57 82.4304 -71.5172 72.3776 -59.0914 72.0914ZM-106.791 24.3914C-107.078 36.8172 -117.13 46.8724 -129.556 47.1562C-129.27 34.7304 -119.217 24.6776 -106.791 24.3914ZM-106.791 71.0062C-119.217 70.7224 -129.27 60.6672 -129.556 48.2414C-117.13 48.5276 -107.078 58.5804 -106.791 71.0062ZM-106.779 72.0795C-106.534 83.5442 -98.3366 93.0865 -87.492 95.4C-98.3366 97.7134 -106.534 107.253 -106.779 118.721C-118.244 118.966 -127.787 127.163 -130.1 138.006C-132.411 127.163 -141.953 118.966 -153.418 118.721C-153.664 107.253 -161.863 97.7134 -172.706 95.4C-161.863 93.0865 -153.664 83.5442 -153.418 72.0795C-141.953 71.8338 -132.411 63.6366 -130.1 52.792C-127.787 63.6366 -118.244 71.8338 -106.779 72.0795ZM-177.256 94.8562C-176.97 82.4304 -166.917 72.3776 -154.491 72.0914C-154.778 84.5172 -164.83 94.5724 -177.256 94.8562ZM-153.406 71.0062C-153.12 58.5804 -143.067 48.5276 -130.641 48.2414C-130.928 60.6672 -140.98 70.7224 -153.406 71.0062ZM-130.641 47.1562C-143.067 46.8724 -153.12 36.8172 -153.406 24.3914C-140.98 24.6776 -130.928 34.7304 -130.641 47.1562ZM-154.491 23.3062C-166.917 23.0224 -176.97 12.9672 -177.256 0.541395C-164.83 0.827595 -154.778 10.8804 -154.491 23.3062ZM-178.341 0.541395C-178.628 12.9672 -188.68 23.0224 -201.106 23.3062C-200.82 10.8804 -190.767 0.827595 -178.341 0.541395ZM-201.118 24.3795C-189.653 24.1338 -180.111 15.9366 -177.8 5.09198C-175.487 15.9366 -165.944 24.1338 -154.479 24.3795C-154.234 35.8442 -146.037 45.3866 -135.192 47.7C-146.037 50.0135 -154.234 59.5534 -154.479 71.0205C-165.944 71.2662 -175.487 79.4634 -177.8 90.3056C-180.111 79.4634 -189.653 71.2662 -201.118 71.0205C-201.364 59.5534 -209.563 50.0135 -220.406 47.7C-209.563 45.3866 -201.364 35.8442 -201.118 24.3795ZM-202.191 24.3914C-202.478 36.8172 -212.53 46.8724 -224.956 47.1562C-224.67 34.7304 -214.617 24.6776 -202.191 24.3914ZM-202.191 71.0062C-214.617 70.7224 -224.67 60.6672 -224.956 48.2414C-212.53 48.5276 -202.478 58.5804 -202.191 71.0062ZM-202.179 72.0795C-201.934 83.5442 -193.737 93.0865 -182.892 95.4C-193.737 97.7134 -201.934 107.253 -202.179 118.721C-213.644 118.966 -223.187 127.163 -225.5 138.006C-227.811 127.163 -237.353 118.966 -248.818 118.721C-249.064 107.253 -257.263 97.7134 -268.106 95.4C-257.263 93.0865 -249.064 83.5442 -248.818 72.0795C-237.353 71.8338 -227.811 63.6366 -225.5 52.792C-223.187 63.6366 -213.644 71.8338 -202.179 72.0795ZM-272.656 94.8562C-272.37 82.4304 -262.317 72.3776 -249.891 72.0914C-250.178 84.5172 -260.23 94.5724 -272.656 94.8562ZM-248.806 71.0062C-248.52 58.5804 -238.467 48.5276 -226.041 48.2414C-226.328 60.6672 -236.38 70.7224 -248.806 71.0062ZM-226.041 47.1562C-238.467 46.8724 -248.52 36.8172 -248.806 24.3914C-236.38 24.6776 -226.328 34.7304 -226.041 47.1562ZM-249.891 23.3062C-262.317 23.0224 -272.37 12.9672 -272.656 0.541395C-260.23 0.827595 -250.178 10.8804 -249.891 23.3062ZM-273.741 0.541395C-274.028 12.9672 -284.08 23.0224 -296.506 23.3062C-296.22 10.8804 -286.167 0.827595 -273.741 0.541395ZM-296.518 24.3795C-285.053 24.1338 -275.511 15.9366 -273.2 5.09198C-270.887 15.9366 -261.344 24.1338 -249.879 24.3795C-249.634 35.8442 -241.437 45.3866 -230.592 47.7C-241.437 50.0135 -249.634 59.5534 -249.879 71.0205C-261.344 71.2662 -270.887 79.4634 -273.2 90.3056C-275.511 79.4634 -285.053 71.2662 -296.518 71.0205C-296.764 59.5534 -304.963 50.0135 -315.806 47.7C-304.963 45.3866 -296.764 35.8442 -296.518 24.3795ZM-297.591 24.3914C-297.878 36.8172 -307.93 46.8724 -320.356 47.1562C-320.07 34.7304 -310.017 24.6776 -297.591 24.3914ZM-297.591 71.0062C-310.017 70.7224 -320.07 60.6672 -320.356 48.2414C-307.93 48.5276 -297.878 58.5804 -297.591 71.0062ZM-297.579 72.0795C-297.334 83.5442 -289.137 93.0865 -278.292 95.4C-289.137 97.7134 -297.334 107.253 -297.579 118.721C-309.044 118.966 -318.587 127.163 -320.9 138.006C-323.211 127.163 -332.753 118.966 -344.218 118.721C-344.464 107.253 -352.663 97.7134 -363.506 95.4C-352.663 93.0865 -344.464 83.5442 -344.218 72.0795C-332.753 71.8338 -323.211 63.6366 -320.9 52.792C-318.587 63.6366 -309.044 71.8338 -297.579 72.0795ZM-368.056 94.8562C-367.77 82.4304 -357.717 72.3776 -345.291 72.0914C-345.578 84.5172 -355.63 94.5724 -368.056 94.8562ZM-344.206 71.0062C-343.92 58.5804 -333.867 48.5276 -321.441 48.2414C-321.728 60.6672 -331.78 70.7224 -344.206 71.0062ZM-321.441 47.1562C-333.867 46.8724 -343.92 36.8172 -344.206 24.3914C-331.78 24.6776 -321.728 34.7304 -321.441 47.1562ZM-345.291 23.3062C-357.717 23.0224 -367.77 12.9672 -368.056 0.541395C-355.63 0.827595 -345.578 10.8804 -345.291 23.3062ZM-369.141 0.541395C-369.428 12.9672 -379.48 23.0224 -391.906 23.3062C-391.62 10.8804 -381.567 0.827595 -369.141 0.541395ZM-391.918 24.3795C-380.453 24.1338 -370.911 15.9366 -368.6 5.09198C-366.287 15.9366 -356.744 24.1338 -345.279 24.3795C-345.034 35.8442 -336.837 45.3866 -325.992 47.7C-336.837 50.0135 -345.034 59.5534 -345.279 71.0205C-356.744 71.2662 -366.287 79.4634 -368.6 90.3056C-370.911 79.4634 -380.453 71.2662 -391.918 71.0205C-392.164 59.5534 -400.363 50.0135 -411.206 47.7C-400.363 45.3866 -392.164 35.8442 -391.918 24.3795ZM-392.991 24.3914C-393.278 36.8172 -403.33 46.8724 -415.756 47.1562C-415.47 34.7304 -405.417 24.6776 -392.991 24.3914ZM-392.991 71.0062C-405.417 70.7224 -415.47 60.6672 -415.756 48.2414C-403.33 48.5276 -393.278 58.5804 -392.991 71.0062ZM-439.606 24.3914C-427.18 24.6776 -417.128 34.7304 -416.841 47.1562C-429.267 46.8724 -439.32 36.8172 -439.606 24.3914ZM-416.841 48.2414C-417.128 60.6672 -427.18 70.7224 -439.606 71.0062C-439.32 58.5804 -429.267 48.5276 -416.841 48.2414ZM-440.691 72.0914C-440.978 84.5172 -451.03 94.5724 -463.456 94.8562C-463.17 82.4304 -453.117 72.3776 -440.691 72.0914ZM-463.456 95.9414C-451.03 96.2276 -440.978 106.28 -440.691 118.706C-453.117 118.422 -463.17 108.367 -463.456 95.9414ZM-458.906 95.4C-448.063 93.0865 -439.864 83.5442 -439.618 72.0795C-428.153 71.8338 -418.611 63.6366 -416.3 52.792C-413.987 63.6366 -404.444 71.8338 -392.979 72.0795C-392.734 83.5442 -384.537 93.0865 -373.692 95.4C-384.537 97.7134 -392.734 107.253 -392.979 118.721C-404.444 118.966 -413.987 127.163 -416.3 138.006C-418.611 127.163 -428.153 118.966 -439.618 118.721C-439.864 107.253 -448.063 97.7134 -458.906 95.4ZM-439.606 119.791C-427.18 120.078 -417.128 130.13 -416.841 142.556C-429.267 142.272 -439.32 132.217 -439.606 119.791ZM-416.841 143.641C-417.128 156.067 -427.18 166.122 -439.606 166.406C-439.32 153.98 -429.267 143.928 -416.841 143.641ZM-440.691 167.491C-440.978 179.917 -451.03 189.972 -463.456 190.256C-463.17 177.83 -453.117 167.778 -440.691 167.491ZM-463.456 191.341C-451.03 191.628 -440.978 201.68 -440.691 214.106C-453.117 213.822 -463.17 203.767 -463.456 191.341ZM-458.906 190.8C-448.063 188.487 -439.864 178.944 -439.618 167.479C-428.153 167.234 -418.611 159.037 -416.3 148.192C-413.987 159.037 -404.444 167.234 -392.979 167.479C-392.734 178.944 -384.537 188.487 -373.692 190.8C-384.537 193.113 -392.734 202.653 -392.979 214.121C-404.444 214.366 -413.987 222.563 -416.3 233.406C-418.611 222.563 -428.153 214.366 -439.618 214.121C-439.864 202.653 -448.063 193.113 -458.906 190.8ZM-439.606 215.191C-427.18 215.478 -417.128 225.53 -416.841 237.956C-429.267 237.672 -439.32 227.617 -439.606 215.191ZM-416.841 239.041C-417.128 251.467 -427.18 261.522 -439.606 261.806C-439.32 249.38 -429.267 239.328 -416.841 239.041ZM-440.691 262.891C-440.978 275.317 -451.03 285.372 -463.456 285.656C-463.17 273.23 -453.117 263.178 -440.691 262.891ZM-463.456 286.741C-451.03 287.028 -440.978 297.08 -440.691 309.506C-453.117 309.222 -463.17 299.167 -463.456 286.741ZM-458.906 286.2C-448.063 283.887 -439.864 274.344 -439.618 262.879C-428.153 262.634 -418.611 254.437 -416.3 243.592C-413.987 254.437 -404.444 262.634 -392.979 262.879C-392.734 274.344 -384.537 283.887 -373.692 286.2C-384.537 288.513 -392.734 298.053 -392.979 309.521C-404.444 309.766 -413.987 317.963 -416.3 328.806C-418.611 317.963 -428.153 309.766 -439.618 309.521C-439.864 298.053 -448.063 288.513 -458.906 286.2ZM-439.606 310.591C-427.18 310.878 -417.128 320.93 -416.841 333.356C-429.267 333.072 -439.32 323.017 -439.606 310.591ZM-416.841 334.441C-417.128 346.867 -427.18 356.922 -439.606 357.206C-439.32 344.78 -429.267 334.728 -416.841 334.441ZM-440.691 358.291C-440.978 370.717 -451.03 380.772 -463.456 381.056C-463.17 368.63 -453.117 358.578 -440.691 358.291ZM-463.456 382.141C-451.03 382.428 -440.978 392.48 -440.691 404.906C-453.117 404.622 -463.17 394.567 -463.456 382.141ZM-439.606 452.606C-439.32 440.18 -429.267 430.128 -416.841 429.841C-417.128 442.267 -427.18 452.322 -439.606 452.606ZM-439.606 405.991C-427.18 406.278 -417.128 416.33 -416.841 428.756C-429.267 428.472 -439.32 418.417 -439.606 405.991ZM-439.618 404.921C-439.864 393.453 -448.063 383.913 -458.906 381.6C-448.063 379.287 -439.864 369.744 -439.618 358.279C-428.153 358.034 -418.611 349.837 -416.3 338.992C-413.987 349.837 -404.444 358.034 -392.979 358.279C-392.734 369.744 -384.537 379.287 -373.692 381.6C-384.537 383.913 -392.734 393.453 -392.979 404.921C-404.444 405.166 -413.987 413.363 -416.3 424.206C-418.611 413.363 -428.153 405.166 -439.618 404.921ZM-369.141 382.141C-369.428 394.567 -379.48 404.622 -391.906 404.906C-391.62 392.48 -381.567 382.428 -369.141 382.141ZM-392.991 405.991C-393.278 418.417 -403.33 428.472 -415.756 428.756C-415.47 416.33 -405.417 406.278 -392.991 405.991ZM-415.756 429.841C-403.33 430.128 -393.278 440.18 -392.991 452.606C-405.417 452.322 -415.47 442.267 -415.756 429.841ZM-391.906 453.691C-379.48 453.978 -369.428 464.03 -369.141 476.456C-381.567 476.172 -391.62 466.117 -391.906 453.691ZM-368.056 476.456C-367.77 464.03 -357.717 453.978 -345.291 453.691C-345.578 466.117 -355.63 476.172 -368.056 476.456ZM-345.279 452.621C-356.744 452.866 -366.287 461.063 -368.6 471.906C-370.911 461.063 -380.453 452.866 -391.918 452.621C-392.164 441.153 -400.363 431.613 -411.206 429.3C-400.363 426.987 -392.164 417.444 -391.918 405.979C-380.453 405.734 -370.911 397.537 -368.6 386.692C-366.287 397.537 -356.744 405.734 -345.279 405.979C-345.034 417.444 -336.837 426.987 -325.992 429.3C-336.837 431.613 -345.034 441.153 -345.279 452.621ZM-344.206 452.606C-343.92 440.18 -333.867 430.128 -321.441 429.841C-321.728 442.267 -331.78 452.322 -344.206 452.606ZM-344.206 405.991C-331.78 406.278 -321.728 416.33 -321.441 428.756C-333.867 428.472 -343.92 418.417 -344.206 405.991ZM-344.218 404.921C-344.464 393.453 -352.663 383.913 -363.506 381.6C-352.663 379.287 -344.464 369.744 -344.218 358.279C-332.753 358.034 -323.211 349.837 -320.9 338.992C-318.587 349.837 -309.044 358.034 -297.579 358.279C-297.334 369.744 -289.137 379.287 -278.292 381.6C-289.137 383.913 -297.334 393.453 -297.579 404.921C-309.044 405.166 -318.587 413.363 -320.9 424.206C-323.211 413.363 -332.753 405.166 -344.218 404.921ZM-273.741 382.141C-274.028 394.567 -284.08 404.622 -296.506 404.906C-296.22 392.48 -286.167 382.428 -273.741 382.141ZM-297.591 405.991C-297.878 418.417 -307.93 428.472 -320.356 428.756C-320.07 416.33 -310.017 406.278 -297.591 405.991ZM-320.356 429.841C-307.93 430.128 -297.878 440.18 -297.591 452.606C-310.017 452.322 -320.07 442.267 -320.356 429.841ZM-296.506 453.691C-284.08 453.978 -274.028 464.03 -273.741 476.456C-286.167 476.172 -296.22 466.117 -296.506 453.691ZM-272.656 476.456C-272.37 464.03 -262.317 453.978 -249.891 453.691C-250.178 466.117 -260.23 476.172 -272.656 476.456ZM-249.879 452.621C-261.344 452.866 -270.887 461.063 -273.2 471.906C-275.511 461.063 -285.053 452.866 -296.518 452.621C-296.764 441.153 -304.963 431.613 -315.806 429.3C-304.963 426.987 -296.764 417.444 -296.518 405.979C-285.053 405.734 -275.511 397.537 -273.2 386.692C-270.887 397.537 -261.344 405.734 -249.879 405.979C-249.634 417.444 -241.437 426.987 -230.592 429.3C-241.437 431.613 -249.634 441.153 -249.879 452.621ZM-248.806 452.606C-248.52 440.18 -238.467 430.128 -226.041 429.841C-226.328 442.267 -236.38 452.322 -248.806 452.606ZM-248.806 405.991C-236.38 406.278 -226.328 416.33 -226.041 428.756C-238.467 428.472 -248.52 418.417 -248.806 405.991ZM-248.818 404.921C-249.064 393.453 -257.263 383.913 -268.106 381.6C-257.263 379.287 -249.064 369.744 -248.818 358.279C-237.353 358.034 -227.811 349.837 -225.5 338.992C-223.187 349.837 -213.644 358.034 -202.179 358.279C-201.934 369.744 -193.737 379.287 -182.892 381.6C-193.737 383.913 -201.934 393.453 -202.179 404.921C-213.644 405.166 -223.187 413.363 -225.5 424.206C-227.811 413.363 -237.353 405.166 -248.818 404.921ZM-178.341 382.141C-178.628 394.567 -188.68 404.622 -201.106 404.906C-200.82 392.48 -190.767 382.428 -178.341 382.141ZM-202.191 405.991C-202.478 418.417 -212.53 428.472 -224.956 428.756C-224.67 416.33 -214.617 406.278 -202.191 405.991ZM-224.956 429.841C-212.53 430.128 -202.478 440.18 -202.191 452.606C-214.617 452.322 -224.67 442.267 -224.956 429.841ZM-201.106 453.691C-188.68 453.978 -178.628 464.03 -178.341 476.456C-190.767 476.172 -200.82 466.117 -201.106 453.691ZM-177.256 476.456C-176.97 464.03 -166.917 453.978 -154.491 453.691C-154.778 466.117 -164.83 476.172 -177.256 476.456ZM-154.479 452.621C-165.944 452.866 -175.487 461.063 -177.8 471.906C-180.111 461.063 -189.653 452.866 -201.118 452.621C-201.364 441.153 -209.563 431.613 -220.406 429.3C-209.563 426.987 -201.364 417.444 -201.118 405.979C-189.653 405.734 -180.111 397.537 -177.8 386.692C-175.487 397.537 -165.944 405.734 -154.479 405.979C-154.234 417.444 -146.037 426.987 -135.192 429.3C-146.037 431.613 -154.234 441.153 -154.479 452.621ZM-153.406 452.606C-153.12 440.18 -143.067 430.128 -130.641 429.841C-130.928 442.267 -140.98 452.322 -153.406 452.606ZM-153.406 405.991C-140.98 406.278 -130.928 416.33 -130.641 428.756C-143.067 428.472 -153.12 418.417 -153.406 405.991ZM-153.418 404.921C-153.664 393.453 -161.863 383.913 -172.706 381.6C-161.863 379.287 -153.664 369.744 -153.418 358.279C-141.953 358.034 -132.411 349.837 -130.1 338.992C-127.787 349.837 -118.244 358.034 -106.779 358.279C-106.534 369.744 -98.3366 379.287 -87.492 381.6C-98.3366 383.913 -106.534 393.453 -106.779 404.921C-118.244 405.166 -127.787 413.363 -130.1 424.206C-132.411 413.363 -141.953 405.166 -153.418 404.921ZM-82.9414 382.141C-83.2276 394.567 -93.2804 404.622 -105.706 404.906C-105.42 392.48 -95.3672 382.428 -82.9414 382.141ZM-106.791 405.991C-107.078 418.417 -117.13 428.472 -129.556 428.756C-129.27 416.33 -119.217 406.278 -106.791 405.991ZM-129.556 429.841C-117.13 430.128 -107.078 440.18 -106.791 452.606C-119.217 452.322 -129.27 442.267 -129.556 429.841ZM-105.706 453.691C-93.2804 453.978 -83.2276 464.03 -82.9414 476.456C-95.3672 476.172 -105.42 466.117 -105.706 453.691ZM-81.8562 476.456C-81.57 464.03 -71.5172 453.978 -59.0914 453.691C-59.3776 466.117 -69.4304 476.172 -81.8562 476.456ZM-59.0795 452.621C-70.5442 452.866 -80.0865 461.063 -82.4 471.906C-84.7111 461.063 -94.2534 452.866 -105.718 452.621C-105.964 441.153 -114.163 431.613 -125.006 429.3C-114.163 426.987 -105.964 417.444 -105.718 405.979C-94.2534 405.734 -84.7111 397.537 -82.4 386.692C-80.0865 397.537 -70.5442 405.734 -59.0795 405.979C-58.8338 417.444 -50.6366 426.987 -39.792 429.3C-50.6366 431.613 -58.8338 441.153 -59.0795 452.621ZM-58.0062 452.606C-57.72 440.18 -47.6672 430.128 -35.2414 429.841C-35.5276 442.267 -45.5804 452.322 -58.0062 452.606ZM-58.0062 405.991C-45.5804 406.278 -35.5276 416.33 -35.2414 428.756C-47.6672 428.472 -57.72 418.417 -58.0062 405.991ZM-11.3914 452.606C-23.8173 452.322 -33.87 442.267 -34.1562 429.841C-21.7304 430.128 -11.6776 440.18 -11.3914 452.606ZM-34.1562 428.756C-33.87 416.33 -23.8173 406.278 -11.3914 405.991C-11.6776 418.417 -21.7304 428.472 -34.1562 428.756ZM-10.3062 404.906C-10.02 392.48 0.0327454 382.428 12.4586 382.141C12.1724 394.567 2.11963 404.622 -10.3062 404.906ZM12.4586 381.056C0.0327454 380.772 -10.02 370.717 -10.3062 358.291C2.11963 358.578 12.1724 368.63 12.4586 381.056ZM7.90802 381.6C-2.93655 383.913 -11.1338 393.453 -11.3795 404.921C-22.8441 405.166 -32.3866 413.363 -34.7 424.206C-37.0111 413.363 -46.5535 405.166 -58.0182 404.921C-58.2638 393.453 -66.4634 383.913 -77.3056 381.6C-66.4634 379.287 -58.2638 369.744 -58.0182 358.279C-46.5535 358.034 -37.0111 349.837 -34.7 338.992C-32.3866 349.837 -22.8441 358.034 -11.3795 358.279C-11.1338 369.744 -2.93655 379.287 7.90802 381.6ZM-11.3914 357.206C-23.8173 356.922 -33.87 346.867 -34.1562 334.441C-21.7304 334.728 -11.6776 344.78 -11.3914 357.206ZM-34.1562 333.356C-33.87 320.93 -23.8173 310.878 -11.3914 310.591C-11.6776 323.017 -21.7304 333.072 -34.1562 333.356ZM-10.3062 309.506C-10.02 297.08 0.0327454 287.028 12.4586 286.741C12.1724 299.167 2.11963 309.222 -10.3062 309.506ZM12.4586 285.656C0.0327454 285.372 -10.02 275.317 -10.3062 262.891C2.11963 263.178 12.1724 273.23 12.4586 285.656ZM7.90802 286.2C-2.93655 288.513 -11.1338 298.053 -11.3795 309.521C-22.8441 309.766 -32.3866 317.963 -34.7 328.806C-37.0111 317.963 -46.5535 309.766 -58.0182 309.521C-58.2638 298.053 -66.4634 288.513 -77.3056 286.2C-66.4634 283.887 -58.2638 274.344 -58.0182 262.879C-46.5535 262.634 -37.0111 254.437 -34.7 243.592C-32.3866 254.437 -22.8441 262.634 -11.3795 262.879C-11.1338 274.344 -2.93655 283.887 7.90802 286.2ZM-11.3914 261.806C-23.8173 261.522 -33.87 251.467 -34.1562 239.041C-21.7304 239.328 -11.6776 249.38 -11.3914 261.806ZM-34.1562 237.956C-33.87 225.53 -23.8173 215.478 -11.3914 215.191C-11.6776 227.617 -21.7304 237.672 -34.1562 237.956ZM-10.3062 214.106C-10.02 201.68 0.0327454 191.628 12.4586 191.341C12.1724 203.767 2.11963 213.822 -10.3062 214.106ZM12.4586 190.256C0.0327454 189.972 -10.02 179.917 -10.3062 167.491C2.11963 167.778 12.1724 177.83 12.4586 190.256ZM7.90802 190.8C-2.93655 193.113 -11.1338 202.653 -11.3795 214.121C-22.8441 214.366 -32.3866 222.563 -34.7 233.406C-37.0111 222.563 -46.5535 214.366 -58.0182 214.121C-58.2638 202.653 -66.4634 193.113 -77.3056 190.8C-66.4634 188.487 -58.2638 178.944 -58.0182 167.479C-46.5535 167.234 -37.0111 159.037 -34.7 148.192C-32.3866 159.037 -22.8441 167.234 -11.3795 167.479C-11.1338 178.944 -2.93655 188.487 7.90802 190.8ZM-11.3914 166.406C-23.8173 166.122 -33.87 156.067 -34.1562 143.641C-21.7304 143.928 -11.6776 153.98 -11.3914 166.406ZM-34.1562 142.556C-33.87 130.13 -23.8173 120.078 -11.3914 119.791C-11.6776 132.217 -21.7304 142.272 -34.1562 142.556ZM-10.3062 118.706C-10.02 106.28 0.0327454 96.2276 12.4586 95.9414C12.1724 108.367 2.11963 118.422 -10.3062 118.706ZM12.4586 94.8562C0.0327454 94.5724 -10.02 84.5172 -10.3062 72.0914C2.11963 72.3776 12.1724 82.4304 12.4586 94.8562ZM7.90802 95.4C-2.93655 97.7134 -11.1338 107.253 -11.3795 118.721C-22.8441 118.966 -32.3866 127.163 -34.7 138.006C-37.0111 127.163 -46.5535 118.966 -58.0182 118.721C-58.2638 107.253 -66.4634 97.7134 -77.3056 95.4C-66.4634 93.0865 -58.2638 83.5442 -58.0182 72.0795C-46.5535 71.8338 -37.0111 63.6366 -34.7 52.792C-32.3866 63.6366 -22.8441 71.8338 -11.3795 72.0795C-11.1338 83.5442 -2.93655 93.0865 7.90802 95.4ZM-11.3914 71.0062C-23.8173 70.7224 -33.87 60.6672 -34.1562 48.2414C-21.7304 48.5276 -11.6776 58.5804 -11.3914 71.0062ZM-34.1562 47.1562C-33.87 34.7304 -23.8173 24.6776 -11.3914 24.3914C-11.6776 36.8172 -21.7304 46.8724 -34.1562 47.1562Z" fill="#172D2D"/>
<path d="M12.9984 214.65V262.35H12.9102C12.9102 249.247 2.25163 238.589 -10.8516 238.589V238.41C2.25163 238.41 12.9102 227.751 12.9102 214.65H12.9984Z" fill="#172D2D"/>
<path d="M12.9984 23.8496V71.5496H12.9102C12.9102 58.4464 2.25163 47.7879 -10.8516 47.7879V47.609C2.25163 47.609 12.9102 36.9504 12.9102 23.8496H12.9984Z" fill="#172D2D"/>
<path d="M12.9984 119.25V166.95H12.9102C12.9102 153.847 2.25163 143.188 -10.8516 143.188V143.009C2.25163 143.009 12.9102 132.351 12.9102 119.25H12.9984Z" fill="#172D2D"/>
<path d="M466.682 24.3795C478.147 24.1338 487.689 15.9366 490 5.09198V0H484.908C474.063 2.31345 465.866 11.8534 465.621 23.3205C454.156 23.5662 444.613 31.7634 442.3 42.6056C439.989 31.7634 430.447 23.5662 418.982 23.3205C418.736 11.8534 410.537 2.31345 399.694 0H389.508C378.663 2.31345 370.466 11.8534 370.221 23.3205C358.756 23.5662 349.213 31.7634 346.9 42.6056C344.589 31.7634 335.047 23.5662 323.582 23.3205C323.336 11.8534 315.137 2.31345 304.294 0H294.108C283.263 2.31345 275.066 11.8534 274.821 23.3205C263.356 23.5662 253.813 31.7634 251.5 42.6056C249.189 31.7634 239.647 23.5662 228.182 23.3205C227.936 11.8534 219.737 2.31345 208.894 0H198.708C187.863 2.31345 179.666 11.8534 179.421 23.3205C167.956 23.5662 158.413 31.7634 156.1 42.6056C153.789 31.7634 144.247 23.5662 132.782 23.3205C132.536 11.8534 124.337 2.31345 113.494 0H103.308C92.4634 2.31345 84.2662 11.8534 84.0205 23.3205C72.5558 23.5662 63.0135 31.7634 60.7 42.6056C58.3889 31.7634 48.8465 23.5662 37.3819 23.3205C37.1362 11.8534 28.9366 2.31345 18.0944 0H13V5.09198C15.3134 15.9366 24.8558 24.1338 36.3205 24.3795C36.5662 35.8442 44.7634 45.3866 55.608 47.7C44.7634 50.0135 36.5662 59.5534 36.3205 71.0205C24.8558 71.2662 15.3134 79.4634 13 90.3056V100.492C15.3134 111.337 24.8558 119.534 36.3205 119.779C36.5662 131.244 44.7634 140.787 55.608 143.1C44.7634 145.413 36.5662 154.953 36.3205 166.421C24.8558 166.666 15.3134 174.863 13 185.706V195.892C15.3134 206.737 24.8558 214.934 36.3205 215.179C36.5662 226.644 44.7634 236.187 55.608 238.5C44.7634 240.813 36.5662 250.353 36.3205 261.821C24.8558 262.066 15.3134 270.263 13 281.106V291.292C15.3134 302.137 24.8558 310.334 36.3205 310.579C36.5662 322.044 44.7634 331.587 55.608 333.9C44.7634 336.213 36.5662 345.753 36.3205 357.221C24.8558 357.466 15.3134 365.663 13 376.506V386.692C15.3134 397.537 24.8558 405.734 36.3205 405.979C36.5662 417.444 44.7634 426.987 55.608 429.3C44.7634 431.613 36.5662 441.153 36.3205 452.621C24.8558 452.866 15.3134 461.063 13 471.906V477H18.0944C28.9366 474.687 37.1362 465.144 37.3819 453.679C48.8465 453.434 58.3889 445.237 60.7 434.392C63.0135 445.237 72.5558 453.434 84.0205 453.679C84.2662 465.144 92.4634 474.687 103.308 477H113.494C124.337 474.687 132.536 465.144 132.782 453.679C144.247 453.434 153.789 445.237 156.1 434.392C158.413 445.237 167.956 453.434 179.421 453.679C179.666 465.144 187.863 474.687 198.708 477H208.894C219.737 474.687 227.936 465.144 228.182 453.679C239.647 453.434 249.189 445.237 251.5 434.392C253.813 445.237 263.356 453.434 274.821 453.679C275.066 465.144 283.263 474.687 294.108 477H304.294C315.137 474.687 323.336 465.144 323.582 453.679C335.047 453.434 344.589 445.237 346.9 434.392C349.213 445.237 358.756 453.434 370.221 453.679C370.466 465.144 378.663 474.687 389.508 477H399.694C410.537 474.687 418.736 465.144 418.982 453.679C430.447 453.434 439.989 445.237 442.3 434.392C444.613 445.237 454.156 453.434 465.621 453.679C465.866 465.144 474.063 474.687 484.908 477H490V471.906C487.689 461.063 478.147 452.866 466.682 452.621C466.436 441.153 458.237 431.613 447.394 429.3C458.237 426.987 466.436 417.444 466.682 405.979C478.147 405.734 487.689 397.537 490 386.692V376.506C487.689 365.663 478.147 357.466 466.682 357.221C466.436 345.753 458.237 336.213 447.394 333.9C458.237 331.587 466.436 322.044 466.682 310.579C478.147 310.334 487.689 302.137 490 291.292V281.106C487.689 270.263 478.147 262.066 466.682 261.821C466.436 250.353 458.237 240.813 447.394 238.5C458.237 236.187 466.436 226.644 466.682 215.179C478.147 214.934 487.689 206.737 490 195.892V185.706C487.689 174.863 478.147 166.666 466.682 166.421C466.436 154.953 458.237 145.413 447.394 143.1C458.237 140.787 466.436 131.244 466.682 119.779C478.147 119.534 487.689 111.337 490 100.492V90.3056C487.689 79.4634 478.147 71.2662 466.682 71.0205C466.436 59.5534 458.237 50.0135 447.394 47.7C458.237 45.3866 466.436 35.8442 466.682 24.3795ZM489.459 0.541395C489.172 12.9672 479.12 23.0224 466.694 23.3062C466.98 10.8804 477.033 0.827595 489.459 0.541395ZM13.5438 0.541395C25.9696 0.827595 36.0224 10.8804 36.3086 23.3062C23.8828 23.0224 13.83 12.9672 13.5438 0.541395ZM13.5438 476.456C13.83 464.03 23.8828 453.978 36.3086 453.691C36.0224 466.117 25.9696 476.172 13.5438 476.456ZM489.459 476.456C477.033 476.172 466.98 466.117 466.694 453.691C479.12 453.978 489.172 464.03 489.459 476.456ZM441.759 47.1562C429.333 46.8724 419.28 36.8172 418.994 24.3914C431.42 24.6776 441.472 34.7304 441.759 47.1562ZM417.909 23.3062C405.483 23.0224 395.43 12.9672 395.144 0.541395C407.57 0.827595 417.622 10.8804 417.909 23.3062ZM394.059 0.541395C393.772 12.9672 383.72 23.0224 371.294 23.3062C371.58 10.8804 381.633 0.827595 394.059 0.541395ZM371.282 24.3795C382.747 24.1338 392.289 15.9366 394.6 5.09198C396.913 15.9366 406.456 24.1338 417.921 24.3795C418.166 35.8442 426.363 45.3866 437.208 47.7C426.363 50.0135 418.166 59.5534 417.921 71.0205C406.456 71.2662 396.913 79.4634 394.6 90.3056C392.289 79.4634 382.747 71.2662 371.282 71.0205C371.036 59.5534 362.837 50.0135 351.994 47.7C362.837 45.3866 371.036 35.8442 371.282 24.3795ZM441.759 48.2414C441.472 60.6672 431.42 70.7224 418.994 71.0062C419.28 58.5804 429.333 48.5276 441.759 48.2414ZM437.208 143.1C426.363 145.413 418.166 154.953 417.921 166.421C406.456 166.666 396.913 174.863 394.6 185.706C392.289 174.863 382.747 166.666 371.282 166.421C371.036 154.953 362.837 145.413 351.994 143.1C362.837 140.787 371.036 131.244 371.282 119.779C382.747 119.534 392.289 111.337 394.6 100.492C396.913 111.337 406.456 119.534 417.921 119.779C418.166 131.244 426.363 140.787 437.208 143.1ZM418.994 119.791C431.42 120.078 441.472 130.13 441.759 142.556C429.333 142.272 419.28 132.217 418.994 119.791ZM441.759 143.641C441.472 156.067 431.42 166.122 418.994 166.406C419.28 153.98 429.333 143.928 441.759 143.641ZM437.208 238.5C426.363 240.813 418.166 250.353 417.921 261.821C406.456 262.066 396.913 270.263 394.6 281.106C392.289 270.263 382.747 262.066 371.282 261.821C371.036 250.353 362.837 240.813 351.994 238.5C362.837 236.187 371.036 226.644 371.282 215.179C382.747 214.934 392.289 206.737 394.6 195.892C396.913 206.737 406.456 214.934 417.921 215.179C418.166 226.644 426.363 236.187 437.208 238.5ZM418.994 215.191C431.42 215.478 441.472 225.53 441.759 237.956C429.333 237.672 419.28 227.617 418.994 215.191ZM441.759 239.041C441.472 251.467 431.42 261.522 418.994 261.806C419.28 249.38 429.333 239.328 441.759 239.041ZM437.208 333.9C426.363 336.213 418.166 345.753 417.921 357.221C406.456 357.466 396.913 365.663 394.6 376.506C392.289 365.663 382.747 357.466 371.282 357.221C371.036 345.753 362.837 336.213 351.994 333.9C362.837 331.587 371.036 322.044 371.282 310.579C382.747 310.334 392.289 302.137 394.6 291.292C396.913 302.137 406.456 310.334 417.921 310.579C418.166 322.044 426.363 331.587 437.208 333.9ZM418.994 310.591C431.42 310.878 441.472 320.93 441.759 333.356C429.333 333.072 419.28 323.017 418.994 310.591ZM441.759 334.441C441.472 346.867 431.42 356.922 418.994 357.206C419.28 344.78 429.333 334.728 441.759 334.441ZM417.909 358.291C417.622 370.717 407.57 380.772 395.144 381.056C395.43 368.63 405.483 358.578 417.909 358.291ZM417.909 404.906C405.483 404.622 395.43 394.567 395.144 382.141C407.57 382.428 417.622 392.48 417.909 404.906ZM394.059 381.056C381.633 380.772 371.58 370.717 371.294 358.291C383.72 358.578 393.772 368.63 394.059 381.056ZM299.2 376.506C296.889 365.663 287.347 357.466 275.882 357.221C275.636 345.753 267.437 336.213 256.594 333.9C267.437 331.587 275.636 322.044 275.882 310.579C287.347 310.334 296.889 302.137 299.2 291.292C301.513 302.137 311.056 310.334 322.521 310.579C322.766 322.044 330.963 331.587 341.808 333.9C330.963 336.213 322.766 345.753 322.521 357.221C311.056 357.466 301.513 365.663 299.2 376.506ZM322.509 358.291C322.222 370.717 312.17 380.772 299.744 381.056C300.03 368.63 310.083 358.578 322.509 358.291ZM322.509 404.906C310.083 404.622 300.03 394.567 299.744 382.141C312.17 382.428 322.222 392.48 322.509 404.906ZM298.659 381.056C286.233 380.772 276.18 370.717 275.894 358.291C288.32 358.578 298.372 368.63 298.659 381.056ZM203.8 376.506C201.489 365.663 191.947 357.466 180.482 357.221C180.236 345.753 172.037 336.213 161.194 333.9C172.037 331.587 180.236 322.044 180.482 310.579C191.947 310.334 201.489 302.137 203.8 291.292C206.113 302.137 215.656 310.334 227.121 310.579C227.366 322.044 235.563 331.587 246.408 333.9C235.563 336.213 227.366 345.753 227.121 357.221C215.656 357.466 206.113 365.663 203.8 376.506ZM227.109 358.291C226.822 370.717 216.77 380.772 204.344 381.056C204.63 368.63 214.683 358.578 227.109 358.291ZM227.109 404.906C214.683 404.622 204.63 394.567 204.344 382.141C216.77 382.428 226.822 392.48 227.109 404.906ZM203.259 381.056C190.833 380.772 180.78 370.717 180.494 358.291C192.92 358.578 202.972 368.63 203.259 381.056ZM108.4 376.506C106.089 365.663 96.5465 357.466 85.0818 357.221C84.8362 345.753 76.6366 336.213 65.7944 333.9C76.6366 331.587 84.8362 322.044 85.0818 310.579C96.5465 310.334 106.089 302.137 108.4 291.292C110.713 302.137 120.256 310.334 131.721 310.579C131.966 322.044 140.163 331.587 151.008 333.9C140.163 336.213 131.966 345.753 131.721 357.221C120.256 357.466 110.713 365.663 108.4 376.506ZM131.709 358.291C131.422 370.717 121.37 380.772 108.944 381.056C109.23 368.63 119.283 358.578 131.709 358.291ZM131.709 404.906C119.283 404.622 109.23 394.567 108.944 382.141C121.37 382.428 131.422 392.48 131.709 404.906ZM107.859 381.056C95.4327 380.772 85.38 370.717 85.0938 358.291C97.5196 358.578 107.572 368.63 107.859 381.056ZM84.0086 357.206C71.5828 356.922 61.53 346.867 61.2438 334.441C73.6696 334.728 83.7224 344.78 84.0086 357.206ZM61.2438 333.356C61.53 320.93 71.5828 310.878 84.0086 310.591C83.7224 323.017 73.6696 333.072 61.2438 333.356ZM65.7944 238.5C76.6366 236.187 84.8362 226.644 85.0818 215.179C96.5465 214.934 106.089 206.737 108.4 195.892C110.713 206.737 120.256 214.934 131.721 215.179C131.966 226.644 140.163 236.187 151.008 238.5C140.163 240.813 131.966 250.353 131.721 261.821C120.256 262.066 110.713 270.263 108.4 281.106C106.089 270.263 96.5465 262.066 85.0818 261.821C84.8362 250.353 76.6366 240.813 65.7944 238.5ZM84.0086 261.806C71.5828 261.522 61.53 251.467 61.2438 239.041C73.6696 239.328 83.7224 249.38 84.0086 261.806ZM61.2438 237.956C61.53 225.53 71.5828 215.478 84.0086 215.191C83.7224 227.617 73.6696 237.672 61.2438 237.956ZM65.7944 143.1C76.6366 140.787 84.8362 131.244 85.0818 119.779C96.5465 119.534 106.089 111.337 108.4 100.492C110.713 111.337 120.256 119.534 131.721 119.779C131.966 131.244 140.163 140.787 151.008 143.1C140.163 145.413 131.966 154.953 131.721 166.421C120.256 166.666 110.713 174.863 108.4 185.706C106.089 174.863 96.5465 166.666 85.0818 166.421C84.8362 154.953 76.6366 145.413 65.7944 143.1ZM84.0086 166.406C71.5828 166.122 61.53 156.067 61.2438 143.641C73.6696 143.928 83.7224 153.98 84.0086 166.406ZM61.2438 142.556C61.53 130.13 71.5828 120.078 84.0086 119.791C83.7224 132.217 73.6696 142.272 61.2438 142.556ZM85.0938 118.706C85.38 106.28 95.4327 96.2276 107.859 95.9414C107.572 108.367 97.5196 118.422 85.0938 118.706ZM85.0938 72.0914C97.5196 72.3776 107.572 82.4304 107.859 94.8562C95.4327 94.5724 85.38 84.5172 85.0938 72.0914ZM108.944 95.9414C121.37 96.2276 131.422 106.28 131.709 118.706C119.283 118.422 109.23 108.367 108.944 95.9414ZM203.8 100.492C206.113 111.337 215.656 119.534 227.121 119.779C227.366 131.244 235.563 140.787 246.408 143.1C235.563 145.413 227.366 154.953 227.121 166.421C215.656 166.666 206.113 174.863 203.8 185.706C201.489 174.863 191.947 166.666 180.482 166.421C180.236 154.953 172.037 145.413 161.194 143.1C172.037 140.787 180.236 131.244 180.482 119.779C191.947 119.534 201.489 111.337 203.8 100.492ZM180.494 118.706C180.78 106.28 190.833 96.2276 203.259 95.9414C202.972 108.367 192.92 118.422 180.494 118.706ZM180.494 72.0914C192.92 72.3776 202.972 82.4304 203.259 94.8562C190.833 94.5724 180.78 84.5172 180.494 72.0914ZM204.344 95.9414C216.77 96.2276 226.822 106.28 227.109 118.706C214.683 118.422 204.63 108.367 204.344 95.9414ZM299.2 100.492C301.513 111.337 311.056 119.534 322.521 119.779C322.766 131.244 330.963 140.787 341.808 143.1C330.963 145.413 322.766 154.953 322.521 166.421C311.056 166.666 301.513 174.863 299.2 185.706C296.889 174.863 287.347 166.666 275.882 166.421C275.636 154.953 267.437 145.413 256.594 143.1C267.437 140.787 275.636 131.244 275.882 119.779C287.347 119.534 296.889 111.337 299.2 100.492ZM275.894 118.706C276.18 106.28 286.233 96.2276 298.659 95.9414C298.372 108.367 288.32 118.422 275.894 118.706ZM275.894 72.0914C288.32 72.3776 298.372 82.4304 298.659 94.8562C286.233 94.5724 276.18 84.5172 275.894 72.0914ZM299.744 95.9414C312.17 96.2276 322.222 106.28 322.509 118.706C310.083 118.422 300.03 108.367 299.744 95.9414ZM370.221 167.479C370.466 178.944 378.663 188.487 389.508 190.8C378.663 193.113 370.466 202.653 370.221 214.121C358.756 214.366 349.213 222.563 346.9 233.406C344.589 222.563 335.047 214.366 323.582 214.121C323.336 202.653 315.137 193.113 304.294 190.8C315.137 188.487 323.336 178.944 323.582 167.479C335.047 167.234 344.589 159.037 346.9 148.192C349.213 159.037 358.756 167.234 370.221 167.479ZM347.444 143.641C359.87 143.928 369.922 153.98 370.209 166.406C357.783 166.122 347.73 156.067 347.444 143.641ZM371.294 167.491C383.72 167.778 393.772 177.83 394.059 190.256C381.633 189.972 371.58 179.917 371.294 167.491ZM394.059 191.341C393.772 203.767 383.72 213.822 371.294 214.106C371.58 201.68 381.633 191.628 394.059 191.341ZM370.209 215.191C369.922 227.617 359.87 237.672 347.444 237.956C347.73 225.53 357.783 215.478 370.209 215.191ZM370.209 261.806C357.783 261.522 347.73 251.467 347.444 239.041C359.87 239.328 369.922 249.38 370.209 261.806ZM299.2 281.106C296.889 270.263 287.347 262.066 275.882 261.821C275.636 250.353 267.437 240.813 256.594 238.5C267.437 236.187 275.636 226.644 275.882 215.179C287.347 214.934 296.889 206.737 299.2 195.892C301.513 206.737 311.056 214.934 322.521 215.179C322.766 226.644 330.963 236.187 341.808 238.5C330.963 240.813 322.766 250.353 322.521 261.821C311.056 262.066 301.513 270.263 299.2 281.106ZM322.509 262.891C322.222 275.317 312.17 285.372 299.744 285.656C300.03 273.23 310.083 263.178 322.509 262.891ZM322.509 309.506C310.083 309.222 300.03 299.167 299.744 286.741C312.17 287.028 322.222 297.08 322.509 309.506ZM298.659 285.656C286.233 285.372 276.18 275.317 275.894 262.891C288.32 263.178 298.372 273.23 298.659 285.656ZM274.809 261.806C262.383 261.522 252.33 251.467 252.044 239.041C264.47 239.328 274.522 249.38 274.809 261.806ZM252.044 237.956C252.33 225.53 262.383 215.478 274.809 215.191C274.522 227.617 264.47 237.672 252.044 237.956ZM275.894 214.106C276.18 201.68 286.233 191.628 298.659 191.341C298.372 203.767 288.32 213.822 275.894 214.106ZM275.894 167.491C288.32 167.778 298.372 177.83 298.659 190.256C286.233 189.972 276.18 179.917 275.894 167.491ZM299.744 191.341C312.17 191.628 322.222 201.68 322.509 214.106C310.083 213.822 300.03 203.767 299.744 191.341ZM346.359 239.041C346.072 251.467 336.02 261.522 323.594 261.806C323.88 249.38 333.933 239.328 346.359 239.041ZM323.594 215.191C336.02 215.478 346.072 225.53 346.359 237.956C333.933 237.672 323.88 227.617 323.594 215.191ZM299.744 190.256C300.03 177.83 310.083 167.778 322.509 167.491C322.222 179.917 312.17 189.972 299.744 190.256ZM323.594 166.406C323.88 153.98 333.933 143.928 346.359 143.641C346.072 156.067 336.02 166.122 323.594 166.406ZM323.594 119.791C336.02 120.078 346.072 130.13 346.359 142.556C333.933 142.272 323.88 132.217 323.594 119.791ZM252.044 142.556C252.33 130.13 262.383 120.078 274.809 119.791C274.522 132.217 264.47 142.272 252.044 142.556ZM274.809 166.406C262.383 166.122 252.33 156.067 252.044 143.641C264.47 143.928 274.522 153.98 274.809 166.406ZM274.821 167.479C275.066 178.944 283.263 188.487 294.108 190.8C283.263 193.113 275.066 202.653 274.821 214.121C263.356 214.366 253.813 222.563 251.5 233.406C249.189 222.563 239.647 214.366 228.182 214.121C227.936 202.653 219.737 193.113 208.894 190.8C219.737 188.487 227.936 178.944 228.182 167.479C239.647 167.234 249.189 159.037 251.5 148.192C253.813 159.037 263.356 167.234 274.821 167.479ZM203.8 281.106C201.489 270.263 191.947 262.066 180.482 261.821C180.236 250.353 172.037 240.813 161.194 238.5C172.037 236.187 180.236 226.644 180.482 215.179C191.947 214.934 201.489 206.737 203.8 195.892C206.113 206.737 215.656 214.934 227.121 215.179C227.366 226.644 235.563 236.187 246.408 238.5C235.563 240.813 227.366 250.353 227.121 261.821C215.656 262.066 206.113 270.263 203.8 281.106ZM227.109 262.891C226.822 275.317 216.77 285.372 204.344 285.656C204.63 273.23 214.683 263.178 227.109 262.891ZM227.109 309.506C214.683 309.222 204.63 299.167 204.344 286.741C216.77 287.028 226.822 297.08 227.109 309.506ZM203.259 285.656C190.833 285.372 180.78 275.317 180.494 262.891C192.92 263.178 202.972 273.23 203.259 285.656ZM179.409 261.806C166.983 261.522 156.93 251.467 156.644 239.041C169.07 239.328 179.122 249.38 179.409 261.806ZM156.644 237.956C156.93 225.53 166.983 215.478 179.409 215.191C179.122 227.617 169.07 237.672 156.644 237.956ZM180.494 214.106C180.78 201.68 190.833 191.628 203.259 191.341C202.972 203.767 192.92 213.822 180.494 214.106ZM180.494 167.491C192.92 167.778 202.972 177.83 203.259 190.256C190.833 189.972 180.78 179.917 180.494 167.491ZM204.344 191.341C216.77 191.628 226.822 201.68 227.109 214.106C214.683 213.822 204.63 203.767 204.344 191.341ZM250.959 239.041C250.672 251.467 240.62 261.522 228.194 261.806C228.48 249.38 238.533 239.328 250.959 239.041ZM228.194 215.191C240.62 215.478 250.672 225.53 250.959 237.956C238.533 237.672 228.48 227.617 228.194 215.191ZM204.344 190.256C204.63 177.83 214.683 167.778 227.109 167.491C226.822 179.917 216.77 189.972 204.344 190.256ZM228.194 166.406C228.48 153.98 238.533 143.928 250.959 143.641C250.672 156.067 240.62 166.122 228.194 166.406ZM228.194 119.791C240.62 120.078 250.672 130.13 250.959 142.556C238.533 142.272 228.48 132.217 228.194 119.791ZM156.644 142.556C156.93 130.13 166.983 120.078 179.409 119.791C179.122 132.217 169.07 142.272 156.644 142.556ZM179.409 166.406C166.983 166.122 156.93 156.067 156.644 143.641C169.07 143.928 179.122 153.98 179.409 166.406ZM179.421 167.479C179.666 178.944 187.863 188.487 198.708 190.8C187.863 193.113 179.666 202.653 179.421 214.121C167.956 214.366 158.413 222.563 156.1 233.406C153.789 222.563 144.247 214.366 132.782 214.121C132.536 202.653 124.337 193.113 113.494 190.8C124.337 188.487 132.536 178.944 132.782 167.479C144.247 167.234 153.789 159.037 156.1 148.192C158.413 159.037 167.956 167.234 179.421 167.479ZM155.559 237.956C143.133 237.672 133.08 227.617 132.794 215.191C145.22 215.478 155.272 225.53 155.559 237.956ZM131.709 214.106C119.283 213.822 109.23 203.767 108.944 191.341C121.37 191.628 131.422 201.68 131.709 214.106ZM108.944 190.256C109.23 177.83 119.283 167.778 131.709 167.491C131.422 179.917 121.37 189.972 108.944 190.256ZM132.794 166.406C133.08 153.98 143.133 143.928 155.559 143.641C155.272 156.067 145.22 166.122 132.794 166.406ZM132.794 119.791C145.22 120.078 155.272 130.13 155.559 142.556C143.133 142.272 133.08 132.217 132.794 119.791ZM107.859 190.256C95.4327 189.972 85.38 179.917 85.0938 167.491C97.5196 167.778 107.572 177.83 107.859 190.256ZM85.0938 214.106C85.38 201.68 95.4327 191.628 107.859 191.341C107.572 203.767 97.5196 213.822 85.0938 214.106ZM155.559 239.041C155.272 251.467 145.22 261.522 132.794 261.806C133.08 249.38 143.133 239.328 155.559 239.041ZM131.709 262.891C131.422 275.317 121.37 285.372 108.944 285.656C109.23 273.23 119.283 263.178 131.709 262.891ZM131.709 309.506C119.283 309.222 109.23 299.167 108.944 286.741C121.37 287.028 131.422 297.08 131.709 309.506ZM107.859 285.656C95.4327 285.372 85.38 275.317 85.0938 262.891C97.5196 263.178 107.572 273.23 107.859 285.656ZM85.0938 309.506C85.38 297.08 95.4327 287.028 107.859 286.741C107.572 299.167 97.5196 309.222 85.0938 309.506ZM155.559 334.441C155.272 346.867 145.22 356.922 132.794 357.206C133.08 344.78 143.133 334.728 155.559 334.441ZM132.794 310.591C145.22 310.878 155.272 320.93 155.559 333.356C143.133 333.072 133.08 323.017 132.794 310.591ZM132.782 309.521C132.536 298.053 124.337 288.513 113.494 286.2C124.337 283.887 132.536 274.344 132.782 262.879C144.247 262.634 153.789 254.437 156.1 243.592C158.413 254.437 167.956 262.634 179.421 262.879C179.666 274.344 187.863 283.887 198.708 286.2C187.863 288.513 179.666 298.053 179.421 309.521C167.956 309.766 158.413 317.963 156.1 328.806C153.789 317.963 144.247 309.766 132.782 309.521ZM203.259 286.741C202.972 299.167 192.92 309.222 180.494 309.506C180.78 297.08 190.833 287.028 203.259 286.741ZM179.409 310.591C179.122 323.017 169.07 333.072 156.644 333.356C156.93 320.93 166.983 310.878 179.409 310.591ZM179.409 357.206C166.983 356.922 156.93 346.867 156.644 334.441C169.07 334.728 179.122 344.78 179.409 357.206ZM250.959 334.441C250.672 346.867 240.62 356.922 228.194 357.206C228.48 344.78 238.533 334.728 250.959 334.441ZM228.194 310.591C240.62 310.878 250.672 320.93 250.959 333.356C238.533 333.072 228.48 323.017 228.194 310.591ZM228.182 309.521C227.936 298.053 219.737 288.513 208.894 286.2C219.737 283.887 227.936 274.344 228.182 262.879C239.647 262.634 249.189 254.437 251.5 243.592C253.813 254.437 263.356 262.634 274.821 262.879C275.066 274.344 283.263 283.887 294.108 286.2C283.263 288.513 275.066 298.053 274.821 309.521C263.356 309.766 253.813 317.963 251.5 328.806C249.189 317.963 239.647 309.766 228.182 309.521ZM298.659 286.741C298.372 299.167 288.32 309.222 275.894 309.506C276.18 297.08 286.233 287.028 298.659 286.741ZM274.809 310.591C274.522 323.017 264.47 333.072 252.044 333.356C252.33 320.93 262.383 310.878 274.809 310.591ZM274.809 357.206C262.383 356.922 252.33 346.867 252.044 334.441C264.47 334.728 274.522 344.78 274.809 357.206ZM346.359 334.441C346.072 346.867 336.02 356.922 323.594 357.206C323.88 344.78 333.933 334.728 346.359 334.441ZM323.594 310.591C336.02 310.878 346.072 320.93 346.359 333.356C333.933 333.072 323.88 323.017 323.594 310.591ZM323.582 309.521C323.336 298.053 315.137 288.513 304.294 286.2C315.137 283.887 323.336 274.344 323.582 262.879C335.047 262.634 344.589 254.437 346.9 243.592C349.213 254.437 358.756 262.634 370.221 262.879C370.466 274.344 378.663 283.887 389.508 286.2C378.663 288.513 370.466 298.053 370.221 309.521C358.756 309.766 349.213 317.963 346.9 328.806C344.589 317.963 335.047 309.766 323.582 309.521ZM371.294 262.891C383.72 263.178 393.772 273.23 394.059 285.656C381.633 285.372 371.58 275.317 371.294 262.891ZM394.059 286.741C393.772 299.167 383.72 309.222 371.294 309.506C371.58 297.08 381.633 287.028 394.059 286.741ZM370.209 310.591C369.922 323.017 359.87 333.072 347.444 333.356C347.73 320.93 357.783 310.878 370.209 310.591ZM370.209 357.206C357.783 356.922 347.73 346.867 347.444 334.441C359.87 334.728 369.922 344.78 370.209 357.206ZM395.144 286.741C407.57 287.028 417.622 297.08 417.909 309.506C405.483 309.222 395.43 299.167 395.144 286.741ZM417.909 262.891C417.622 275.317 407.57 285.372 395.144 285.656C395.43 273.23 405.483 263.178 417.909 262.891ZM395.144 191.341C407.57 191.628 417.622 201.68 417.909 214.106C405.483 213.822 395.43 203.767 395.144 191.341ZM417.909 167.491C417.622 179.917 407.57 189.972 395.144 190.256C395.43 177.83 405.483 167.778 417.909 167.491ZM347.444 142.556C347.73 130.13 357.783 120.078 370.209 119.791C369.922 132.217 359.87 142.272 347.444 142.556ZM371.294 118.706C371.58 106.28 381.633 96.2276 394.059 95.9414C393.772 108.367 383.72 118.422 371.294 118.706ZM371.294 72.0914C383.72 72.3776 393.772 82.4304 394.059 94.8562C381.633 94.5724 371.58 84.5172 371.294 72.0914ZM395.144 95.9414C407.57 96.2276 417.622 106.28 417.909 118.706C405.483 118.422 395.43 108.367 395.144 95.9414ZM417.909 72.0914C417.622 84.5172 407.57 94.5724 395.144 94.8562C395.43 82.4304 405.483 72.3776 417.909 72.0914ZM370.209 24.3914C369.922 36.8172 359.87 46.8724 347.444 47.1562C347.73 34.7304 357.783 24.6776 370.209 24.3914ZM370.209 71.0062C357.783 70.7224 347.73 60.6672 347.444 48.2414C359.87 48.5276 369.922 58.5804 370.209 71.0062ZM370.221 72.0795C370.466 83.5442 378.663 93.0865 389.508 95.4C378.663 97.7134 370.466 107.253 370.221 118.721C358.756 118.966 349.213 127.163 346.9 138.006C344.589 127.163 335.047 118.966 323.582 118.721C323.336 107.253 315.137 97.7134 304.294 95.4C315.137 93.0865 323.336 83.5442 323.582 72.0795C335.047 71.8338 344.589 63.6366 346.9 52.792C349.213 63.6366 358.756 71.8338 370.221 72.0795ZM299.744 94.8562C300.03 82.4304 310.083 72.3776 322.509 72.0914C322.222 84.5172 312.17 94.5724 299.744 94.8562ZM323.594 71.0062C323.88 58.5804 333.933 48.5276 346.359 48.2414C346.072 60.6672 336.02 70.7224 323.594 71.0062ZM346.359 47.1562C333.933 46.8724 323.88 36.8172 323.594 24.3914C336.02 24.6776 346.072 34.7304 346.359 47.1562ZM322.509 23.3062C310.083 23.0224 300.03 12.9672 299.744 0.541395C312.17 0.827595 322.222 10.8804 322.509 23.3062ZM298.659 0.541395C298.372 12.9672 288.32 23.0224 275.894 23.3062C276.18 10.8804 286.233 0.827595 298.659 0.541395ZM275.882 24.3795C287.347 24.1338 296.889 15.9366 299.2 5.09198C301.513 15.9366 311.056 24.1338 322.521 24.3795C322.766 35.8442 330.963 45.3866 341.808 47.7C330.963 50.0135 322.766 59.5534 322.521 71.0205C311.056 71.2662 301.513 79.4634 299.2 90.3056C296.889 79.4634 287.347 71.2662 275.882 71.0205C275.636 59.5534 267.437 50.0135 256.594 47.7C267.437 45.3866 275.636 35.8442 275.882 24.3795ZM274.809 24.3914C274.522 36.8172 264.47 46.8724 252.044 47.1562C252.33 34.7304 262.383 24.6776 274.809 24.3914ZM274.809 71.0062C262.383 70.7224 252.33 60.6672 252.044 48.2414C264.47 48.5276 274.522 58.5804 274.809 71.0062ZM274.821 72.0795C275.066 83.5442 283.263 93.0865 294.108 95.4C283.263 97.7134 275.066 107.253 274.821 118.721C263.356 118.966 253.813 127.163 251.5 138.006C249.189 127.163 239.647 118.966 228.182 118.721C227.936 107.253 219.737 97.7134 208.894 95.4C219.737 93.0865 227.936 83.5442 228.182 72.0795C239.647 71.8338 249.189 63.6366 251.5 52.792C253.813 63.6366 263.356 71.8338 274.821 72.0795ZM204.344 94.8562C204.63 82.4304 214.683 72.3776 227.109 72.0914C226.822 84.5172 216.77 94.5724 204.344 94.8562ZM228.194 71.0062C228.48 58.5804 238.533 48.5276 250.959 48.2414C250.672 60.6672 240.62 70.7224 228.194 71.0062ZM250.959 47.1562C238.533 46.8724 228.48 36.8172 228.194 24.3914C240.62 24.6776 250.672 34.7304 250.959 47.1562ZM227.109 23.3062C214.683 23.0224 204.63 12.9672 204.344 0.541395C216.77 0.827595 226.822 10.8804 227.109 23.3062ZM203.259 0.541395C202.972 12.9672 192.92 23.0224 180.494 23.3062C180.78 10.8804 190.833 0.827595 203.259 0.541395ZM180.482 24.3795C191.947 24.1338 201.489 15.9366 203.8 5.09198C206.113 15.9366 215.656 24.1338 227.121 24.3795C227.366 35.8442 235.563 45.3866 246.408 47.7C235.563 50.0135 227.366 59.5534 227.121 71.0205C215.656 71.2662 206.113 79.4634 203.8 90.3056C201.489 79.4634 191.947 71.2662 180.482 71.0205C180.236 59.5534 172.037 50.0135 161.194 47.7C172.037 45.3866 180.236 35.8442 180.482 24.3795ZM179.409 24.3914C179.122 36.8172 169.07 46.8724 156.644 47.1562C156.93 34.7304 166.983 24.6776 179.409 24.3914ZM179.409 71.0062C166.983 70.7224 156.93 60.6672 156.644 48.2414C169.07 48.5276 179.122 58.5804 179.409 71.0062ZM179.421 72.0795C179.666 83.5442 187.863 93.0865 198.708 95.4C187.863 97.7134 179.666 107.253 179.421 118.721C167.956 118.966 158.413 127.163 156.1 138.006C153.789 127.163 144.247 118.966 132.782 118.721C132.536 107.253 124.337 97.7134 113.494 95.4C124.337 93.0865 132.536 83.5442 132.782 72.0795C144.247 71.8338 153.789 63.6366 156.1 52.792C158.413 63.6366 167.956 71.8338 179.421 72.0795ZM108.944 94.8562C109.23 82.4304 119.283 72.3776 131.709 72.0914C131.422 84.5172 121.37 94.5724 108.944 94.8562ZM132.794 71.0062C133.08 58.5804 143.133 48.5276 155.559 48.2414C155.272 60.6672 145.22 70.7224 132.794 71.0062ZM155.559 47.1562C143.133 46.8724 133.08 36.8172 132.794 24.3914C145.22 24.6776 155.272 34.7304 155.559 47.1562ZM131.709 23.3062C119.283 23.0224 109.23 12.9672 108.944 0.541395C121.37 0.827595 131.422 10.8804 131.709 23.3062ZM107.859 0.541395C107.572 12.9672 97.5196 23.0224 85.0938 23.3062C85.38 10.8804 95.4327 0.827595 107.859 0.541395ZM85.0818 24.3795C96.5465 24.1338 106.089 15.9366 108.4 5.09198C110.713 15.9366 120.256 24.1338 131.721 24.3795C131.966 35.8442 140.163 45.3866 151.008 47.7C140.163 50.0135 131.966 59.5534 131.721 71.0205C120.256 71.2662 110.713 79.4634 108.4 90.3056C106.089 79.4634 96.5465 71.2662 85.0818 71.0205C84.8362 59.5534 76.6366 50.0135 65.7944 47.7C76.6366 45.3866 84.8362 35.8442 85.0818 24.3795ZM84.0086 24.3914C83.7224 36.8172 73.6696 46.8724 61.2438 47.1562C61.53 34.7304 71.5828 24.6776 84.0086 24.3914ZM84.0086 71.0062C71.5828 70.7224 61.53 60.6672 61.2438 48.2414C73.6696 48.5276 83.7224 58.5804 84.0086 71.0062ZM37.3938 24.3914C49.8196 24.6776 59.8724 34.7304 60.1586 47.1562C47.7327 46.8724 37.68 36.8172 37.3938 24.3914ZM60.1586 48.2414C59.8724 60.6672 49.8196 70.7224 37.3938 71.0062C37.68 58.5804 47.7327 48.5276 60.1586 48.2414ZM36.3086 72.0914C36.0224 84.5172 25.9696 94.5724 13.5438 94.8562C13.83 82.4304 23.8828 72.3776 36.3086 72.0914ZM13.5438 95.9414C25.9696 96.2276 36.0224 106.28 36.3086 118.706C23.8828 118.422 13.83 108.367 13.5438 95.9414ZM18.0944 95.4C28.9366 93.0865 37.1362 83.5442 37.3819 72.0795C48.8465 71.8338 58.3889 63.6366 60.7 52.792C63.0135 63.6366 72.5558 71.8338 84.0205 72.0795C84.2662 83.5442 92.4634 93.0865 103.308 95.4C92.4634 97.7134 84.2662 107.253 84.0205 118.721C72.5558 118.966 63.0135 127.163 60.7 138.006C58.3889 127.163 48.8465 118.966 37.3819 118.721C37.1362 107.253 28.9366 97.7134 18.0944 95.4ZM37.3938 119.791C49.8196 120.078 59.8724 130.13 60.1586 142.556C47.7327 142.272 37.68 132.217 37.3938 119.791ZM60.1586 143.641C59.8724 156.067 49.8196 166.122 37.3938 166.406C37.68 153.98 47.7327 143.928 60.1586 143.641ZM36.3086 167.491C36.0224 179.917 25.9696 189.972 13.5438 190.256C13.83 177.83 23.8828 167.778 36.3086 167.491ZM13.5438 191.341C25.9696 191.628 36.0224 201.68 36.3086 214.106C23.8828 213.822 13.83 203.767 13.5438 191.341ZM18.0944 190.8C28.9366 188.487 37.1362 178.944 37.3819 167.479C48.8465 167.234 58.3889 159.037 60.7 148.192C63.0135 159.037 72.5558 167.234 84.0205 167.479C84.2662 178.944 92.4634 188.487 103.308 190.8C92.4634 193.113 84.2662 202.653 84.0205 214.121C72.5558 214.366 63.0135 222.563 60.7 233.406C58.3889 222.563 48.8465 214.366 37.3819 214.121C37.1362 202.653 28.9366 193.113 18.0944 190.8ZM37.3938 215.191C49.8196 215.478 59.8724 225.53 60.1586 237.956C47.7327 237.672 37.68 227.617 37.3938 215.191ZM60.1586 239.041C59.8724 251.467 49.8196 261.522 37.3938 261.806C37.68 249.38 47.7327 239.328 60.1586 239.041ZM36.3086 262.891C36.0224 275.317 25.9696 285.372 13.5438 285.656C13.83 273.23 23.8828 263.178 36.3086 262.891ZM13.5438 286.741C25.9696 287.028 36.0224 297.08 36.3086 309.506C23.8828 309.222 13.83 299.167 13.5438 286.741ZM18.0944 286.2C28.9366 283.887 37.1362 274.344 37.3819 262.879C48.8465 262.634 58.3889 254.437 60.7 243.592C63.0135 254.437 72.5558 262.634 84.0205 262.879C84.2662 274.344 92.4634 283.887 103.308 286.2C92.4634 288.513 84.2662 298.053 84.0205 309.521C72.5558 309.766 63.0135 317.963 60.7 328.806C58.3889 317.963 48.8465 309.766 37.3819 309.521C37.1362 298.053 28.9366 288.513 18.0944 286.2ZM37.3938 310.591C49.8196 310.878 59.8724 320.93 60.1586 333.356C47.7327 333.072 37.68 323.017 37.3938 310.591ZM60.1586 334.441C59.8724 346.867 49.8196 356.922 37.3938 357.206C37.68 344.78 47.7327 334.728 60.1586 334.441ZM36.3086 358.291C36.0224 370.717 25.9696 380.772 13.5438 381.056C13.83 368.63 23.8828 358.578 36.3086 358.291ZM13.5438 382.141C25.9696 382.428 36.0224 392.48 36.3086 404.906C23.8828 404.622 13.83 394.567 13.5438 382.141ZM37.3938 452.606C37.68 440.18 47.7327 430.128 60.1586 429.841C59.8724 442.267 49.8196 452.322 37.3938 452.606ZM37.3938 405.991C49.8196 406.278 59.8724 416.33 60.1586 428.756C47.7327 428.472 37.68 418.417 37.3938 405.991ZM37.3819 404.921C37.1362 393.453 28.9366 383.913 18.0944 381.6C28.9366 379.287 37.1362 369.744 37.3819 358.279C48.8465 358.034 58.3889 349.837 60.7 338.992C63.0135 349.837 72.5558 358.034 84.0205 358.279C84.2662 369.744 92.4634 379.287 103.308 381.6C92.4634 383.913 84.2662 393.453 84.0205 404.921C72.5558 405.166 63.0135 413.363 60.7 424.206C58.3889 413.363 48.8465 405.166 37.3819 404.921ZM107.859 382.141C107.572 394.567 97.5196 404.622 85.0938 404.906C85.38 392.48 95.4327 382.428 107.859 382.141ZM84.0086 405.991C83.7224 418.417 73.6696 428.472 61.2438 428.756C61.53 416.33 71.5828 406.278 84.0086 405.991ZM61.2438 429.841C73.6696 430.128 83.7224 440.18 84.0086 452.606C71.5828 452.322 61.53 442.267 61.2438 429.841ZM85.0938 453.691C97.5196 453.978 107.572 464.03 107.859 476.456C95.4327 476.172 85.38 466.117 85.0938 453.691ZM108.944 476.456C109.23 464.03 119.283 453.978 131.709 453.691C131.422 466.117 121.37 476.172 108.944 476.456ZM131.721 452.621C120.256 452.866 110.713 461.063 108.4 471.906C106.089 461.063 96.5465 452.866 85.0818 452.621C84.8362 441.153 76.6366 431.613 65.7944 429.3C76.6366 426.987 84.8362 417.444 85.0818 405.979C96.5465 405.734 106.089 397.537 108.4 386.692C110.713 397.537 120.256 405.734 131.721 405.979C131.966 417.444 140.163 426.987 151.008 429.3C140.163 431.613 131.966 441.153 131.721 452.621ZM132.794 452.606C133.08 440.18 143.133 430.128 155.559 429.841C155.272 442.267 145.22 452.322 132.794 452.606ZM132.794 405.991C145.22 406.278 155.272 416.33 155.559 428.756C143.133 428.472 133.08 418.417 132.794 405.991ZM132.782 404.921C132.536 393.453 124.337 383.913 113.494 381.6C124.337 379.287 132.536 369.744 132.782 358.279C144.247 358.034 153.789 349.837 156.1 338.992C158.413 349.837 167.956 358.034 179.421 358.279C179.666 369.744 187.863 379.287 198.708 381.6C187.863 383.913 179.666 393.453 179.421 404.921C167.956 405.166 158.413 413.363 156.1 424.206C153.789 413.363 144.247 405.166 132.782 404.921ZM203.259 382.141C202.972 394.567 192.92 404.622 180.494 404.906C180.78 392.48 190.833 382.428 203.259 382.141ZM179.409 405.991C179.122 418.417 169.07 428.472 156.644 428.756C156.93 416.33 166.983 406.278 179.409 405.991ZM156.644 429.841C169.07 430.128 179.122 440.18 179.409 452.606C166.983 452.322 156.93 442.267 156.644 429.841ZM180.494 453.691C192.92 453.978 202.972 464.03 203.259 476.456C190.833 476.172 180.78 466.117 180.494 453.691ZM204.344 476.456C204.63 464.03 214.683 453.978 227.109 453.691C226.822 466.117 216.77 476.172 204.344 476.456ZM227.121 452.621C215.656 452.866 206.113 461.063 203.8 471.906C201.489 461.063 191.947 452.866 180.482 452.621C180.236 441.153 172.037 431.613 161.194 429.3C172.037 426.987 180.236 417.444 180.482 405.979C191.947 405.734 201.489 397.537 203.8 386.692C206.113 397.537 215.656 405.734 227.121 405.979C227.366 417.444 235.563 426.987 246.408 429.3C235.563 431.613 227.366 441.153 227.121 452.621ZM228.194 452.606C228.48 440.18 238.533 430.128 250.959 429.841C250.672 442.267 240.62 452.322 228.194 452.606ZM228.194 405.991C240.62 406.278 250.672 416.33 250.959 428.756C238.533 428.472 228.48 418.417 228.194 405.991ZM228.182 404.921C227.936 393.453 219.737 383.913 208.894 381.6C219.737 379.287 227.936 369.744 228.182 358.279C239.647 358.034 249.189 349.837 251.5 338.992C253.813 349.837 263.356 358.034 274.821 358.279C275.066 369.744 283.263 379.287 294.108 381.6C283.263 383.913 275.066 393.453 274.821 404.921C263.356 405.166 253.813 413.363 251.5 424.206C249.189 413.363 239.647 405.166 228.182 404.921ZM298.659 382.141C298.372 394.567 288.32 404.622 275.894 404.906C276.18 392.48 286.233 382.428 298.659 382.141ZM274.809 405.991C274.522 418.417 264.47 428.472 252.044 428.756C252.33 416.33 262.383 406.278 274.809 405.991ZM252.044 429.841C264.47 430.128 274.522 440.18 274.809 452.606C262.383 452.322 252.33 442.267 252.044 429.841ZM275.894 453.691C288.32 453.978 298.372 464.03 298.659 476.456C286.233 476.172 276.18 466.117 275.894 453.691ZM299.744 476.456C300.03 464.03 310.083 453.978 322.509 453.691C322.222 466.117 312.17 476.172 299.744 476.456ZM322.521 452.621C311.056 452.866 301.513 461.063 299.2 471.906C296.889 461.063 287.347 452.866 275.882 452.621C275.636 441.153 267.437 431.613 256.594 429.3C267.437 426.987 275.636 417.444 275.882 405.979C287.347 405.734 296.889 397.537 299.2 386.692C301.513 397.537 311.056 405.734 322.521 405.979C322.766 417.444 330.963 426.987 341.808 429.3C330.963 431.613 322.766 441.153 322.521 452.621ZM323.594 452.606C323.88 440.18 333.933 430.128 346.359 429.841C346.072 442.267 336.02 452.322 323.594 452.606ZM323.594 405.991C336.02 406.278 346.072 416.33 346.359 428.756C333.933 428.472 323.88 418.417 323.594 405.991ZM323.582 404.921C323.336 393.453 315.137 383.913 304.294 381.6C315.137 379.287 323.336 369.744 323.582 358.279C335.047 358.034 344.589 349.837 346.9 338.992C349.213 349.837 358.756 358.034 370.221 358.279C370.466 369.744 378.663 379.287 389.508 381.6C378.663 383.913 370.466 393.453 370.221 404.921C358.756 405.166 349.213 413.363 346.9 424.206C344.589 413.363 335.047 405.166 323.582 404.921ZM394.059 382.141C393.772 394.567 383.72 404.622 371.294 404.906C371.58 392.48 381.633 382.428 394.059 382.141ZM370.209 405.991C369.922 418.417 359.87 428.472 347.444 428.756C347.73 416.33 357.783 406.278 370.209 405.991ZM347.444 429.841C359.87 430.128 369.922 440.18 370.209 452.606C357.783 452.322 347.73 442.267 347.444 429.841ZM371.294 453.691C383.72 453.978 393.772 464.03 394.059 476.456C381.633 476.172 371.58 466.117 371.294 453.691ZM395.144 476.456C395.43 464.03 405.483 453.978 417.909 453.691C417.622 466.117 407.57 476.172 395.144 476.456ZM417.921 452.621C406.456 452.866 396.913 461.063 394.6 471.906C392.289 461.063 382.747 452.866 371.282 452.621C371.036 441.153 362.837 431.613 351.994 429.3C362.837 426.987 371.036 417.444 371.282 405.979C382.747 405.734 392.289 397.537 394.6 386.692C396.913 397.537 406.456 405.734 417.921 405.979C418.166 417.444 426.363 426.987 437.208 429.3C426.363 431.613 418.166 441.153 417.921 452.621ZM418.994 452.606C419.28 440.18 429.333 430.128 441.759 429.841C441.472 442.267 431.42 452.322 418.994 452.606ZM418.994 405.991C431.42 406.278 441.472 416.33 441.759 428.756C429.333 428.472 419.28 418.417 418.994 405.991ZM465.609 452.606C453.183 452.322 443.13 442.267 442.844 429.841C455.27 430.128 465.322 440.18 465.609 452.606ZM442.844 428.756C443.13 416.33 453.183 406.278 465.609 405.991C465.322 418.417 455.27 428.472 442.844 428.756ZM466.694 404.906C466.98 392.48 477.033 382.428 489.459 382.141C489.172 394.567 479.12 404.622 466.694 404.906ZM489.459 381.056C477.033 380.772 466.98 370.717 466.694 358.291C479.12 358.578 489.172 368.63 489.459 381.056ZM484.908 381.6C474.063 383.913 465.866 393.453 465.621 404.921C454.156 405.166 444.613 413.363 442.3 424.206C439.989 413.363 430.447 405.166 418.982 404.921C418.736 393.453 410.537 383.913 399.694 381.6C410.537 379.287 418.736 369.744 418.982 358.279C430.447 358.034 439.989 349.837 442.3 338.992C444.613 349.837 454.156 358.034 465.621 358.279C465.866 369.744 474.063 379.287 484.908 381.6ZM465.609 357.206C453.183 356.922 443.13 346.867 442.844 334.441C455.27 334.728 465.322 344.78 465.609 357.206ZM442.844 333.356C443.13 320.93 453.183 310.878 465.609 310.591C465.322 323.017 455.27 333.072 442.844 333.356ZM466.694 309.506C466.98 297.08 477.033 287.028 489.459 286.741C489.172 299.167 479.12 309.222 466.694 309.506ZM489.459 285.656C477.033 285.372 466.98 275.317 466.694 262.891C479.12 263.178 489.172 273.23 489.459 285.656ZM484.908 286.2C474.063 288.513 465.866 298.053 465.621 309.521C454.156 309.766 444.613 317.963 442.3 328.806C439.989 317.963 430.447 309.766 418.982 309.521C418.736 298.053 410.537 288.513 399.694 286.2C410.537 283.887 418.736 274.344 418.982 262.879C430.447 262.634 439.989 254.437 442.3 243.592C444.613 254.437 454.156 262.634 465.621 262.879C465.866 274.344 474.063 283.887 484.908 286.2ZM465.609 261.806C453.183 261.522 443.13 251.467 442.844 239.041C455.27 239.328 465.322 249.38 465.609 261.806ZM442.844 237.956C443.13 225.53 453.183 215.478 465.609 215.191C465.322 227.617 455.27 237.672 442.844 237.956ZM466.694 214.106C466.98 201.68 477.033 191.628 489.459 191.341C489.172 203.767 479.12 213.822 466.694 214.106ZM489.459 190.256C477.033 189.972 466.98 179.917 466.694 167.491C479.12 167.778 489.172 177.83 489.459 190.256ZM484.908 190.8C474.063 193.113 465.866 202.653 465.621 214.121C454.156 214.366 444.613 222.563 442.3 233.406C439.989 222.563 430.447 214.366 418.982 214.121C418.736 202.653 410.537 193.113 399.694 190.8C410.537 188.487 418.736 178.944 418.982 167.479C430.447 167.234 439.989 159.037 442.3 148.192C444.613 159.037 454.156 167.234 465.621 167.479C465.866 178.944 474.063 188.487 484.908 190.8ZM465.609 166.406C453.183 166.122 443.13 156.067 442.844 143.641C455.27 143.928 465.322 153.98 465.609 166.406ZM442.844 142.556C443.13 130.13 453.183 120.078 465.609 119.791C465.322 132.217 455.27 142.272 442.844 142.556ZM466.694 118.706C466.98 106.28 477.033 96.2276 489.459 95.9414C489.172 108.367 479.12 118.422 466.694 118.706ZM489.459 94.8562C477.033 94.5724 466.98 84.5172 466.694 72.0914C479.12 72.3776 489.172 82.4304 489.459 94.8562ZM484.908 95.4C474.063 97.7134 465.866 107.253 465.621 118.721C454.156 118.966 444.613 127.163 442.3 138.006C439.989 127.163 430.447 118.966 418.982 118.721C418.736 107.253 410.537 97.7134 399.694 95.4C410.537 93.0865 418.736 83.5442 418.982 72.0795C430.447 71.8338 439.989 63.6366 442.3 52.792C444.613 63.6366 454.156 71.8338 465.621 72.0795C465.866 83.5442 474.063 93.0865 484.908 95.4ZM465.609 71.0062C453.183 70.7224 443.13 60.6672 442.844 48.2414C455.27 48.5276 465.322 58.5804 465.609 71.0062ZM442.844 47.1562C443.13 34.7304 453.183 24.6776 465.609 24.3914C465.322 36.8172 455.27 46.8724 442.844 47.1562Z" fill="#172D2D"/>
<path d="M36.85 143.009V143.188C23.7492 143.188 13.0906 153.847 13.0906 166.95H13V119.25H13.0906C13.0906 132.351 23.7492 143.009 36.85 143.009Z" fill="#172D2D"/>
<path d="M60.7016 119.25H60.7922C60.7922 106.149 71.4508 95.4885 84.5539 95.4885V95.3096C71.4531 95.3096 60.7922 84.651 60.7922 71.5479H60.6133C60.6133 84.6487 49.9548 95.3096 36.8516 95.3096V95.4885C49.9524 95.4885 60.6133 106.147 60.6133 119.25H60.7039H60.7016Z" fill="#172D2D"/>
<path d="M36.85 47.609V47.7879C23.7492 47.7879 13.0906 58.4464 13.0906 71.5496H13V23.8496H13.0906C13.0906 36.9504 23.7492 47.609 36.85 47.609Z" fill="#172D2D"/>
<path d="M36.85 238.41V238.589C23.7492 238.589 13.0906 249.247 13.0906 262.35H13V214.65H13.0906C13.0906 227.751 23.7492 238.41 36.85 238.41Z" fill="#172D2D"/>
<path d="M60.7016 214.65H60.7922C60.7922 201.549 71.4508 190.888 84.5539 190.888V190.709C71.4531 190.709 60.7922 180.05 60.7922 166.947H60.6133C60.6133 180.048 49.9548 190.709 36.8516 190.709V190.888C49.9524 190.888 60.6133 201.546 60.6133 214.65H60.7039H60.7016Z" fill="#172D2D"/>
<path d="M108.397 166.95H108.487C108.487 153.85 119.146 143.189 132.249 143.189V143.01C119.148 143.01 108.487 132.351 108.487 119.248H108.309C108.309 132.349 97.6501 143.01 84.5469 143.01V143.189C97.6477 143.189 108.309 153.847 108.309 166.95H108.399H108.397Z" fill="#172D2D"/>
<path d="M60.7016 310.05H60.7922C60.7922 296.949 71.4508 286.288 84.5539 286.288V286.109C71.4531 286.109 60.7922 275.451 60.7922 262.348H60.6133C60.6133 275.448 49.9548 286.109 36.8516 286.109V286.288C49.9524 286.288 60.6133 296.947 60.6133 310.05H60.7039H60.7016Z" fill="#172D2D"/>
<path d="M108.401 262.351H108.491C108.491 249.25 119.15 238.589 132.253 238.589V238.41C119.152 238.41 108.491 227.752 108.491 214.648H108.313C108.313 227.749 97.654 238.41 84.5508 238.41V238.589C97.6516 238.589 108.313 249.248 108.313 262.351H108.403H108.401Z" fill="#172D2D"/>
<path d="M156.1 214.65H156.191C156.191 201.549 166.849 190.888 179.952 190.888V190.709C166.852 190.709 156.191 180.05 156.191 166.947H156.012C156.012 180.048 145.353 190.709 132.25 190.709V190.888C145.351 190.888 156.012 201.546 156.012 214.65H156.102H156.1Z" fill="#172D2D"/>
<path d="M156.1 310.05H156.191C156.191 296.949 166.849 286.288 179.952 286.288V286.109C166.852 286.109 156.191 275.451 156.191 262.348H156.012C156.012 275.448 145.353 286.109 132.25 286.109V286.288C145.351 286.288 156.012 296.947 156.012 310.05H156.102H156.1Z" fill="#172D2D"/>
<path d="M203.799 262.351H203.89C203.89 249.25 214.548 238.589 227.652 238.589V238.41C214.551 238.41 203.89 227.752 203.89 214.648H203.711C203.711 227.749 193.052 238.41 179.949 238.41V238.589C193.05 238.589 203.711 249.248 203.711 262.351H203.802H203.799Z" fill="#172D2D"/>
<path d="M84.5516 0V0.088245C71.4508 0.088245 60.7922 10.7468 60.7922 23.85H60.6133C60.6133 10.7468 49.9548 0.088245 36.8516 0.088245V0L84.5516 0Z" fill="#172D2D"/>
<path d="M108.31 71.55H108.401H108.491C108.491 58.4492 119.15 47.7883 132.253 47.7883V47.6094C119.152 47.6094 108.491 36.9508 108.491 23.8477H108.313C108.313 36.9485 97.654 47.6094 84.5508 47.6094V47.7883C97.6516 47.7883 108.313 58.4468 108.313 71.55H108.31Z" fill="#172D2D"/>
<path d="M179.95 0V0.088245C166.849 0.088245 156.191 10.7468 156.191 23.85H156.012C156.012 10.7468 145.353 0.088245 132.25 0.088245V0L179.95 0Z" fill="#172D2D"/>
<path d="M156.009 119.25H156.1H156.191C156.191 106.149 166.849 95.4885 179.952 95.4885V95.3096C166.852 95.3096 156.191 84.651 156.191 71.5479H156.012C156.012 84.6487 145.353 95.3096 132.25 95.3096V95.4885C145.351 95.4885 156.012 106.147 156.012 119.25H156.009Z" fill="#172D2D"/>
<path d="M203.712 71.55H203.803H203.894C203.894 58.4492 214.552 47.7883 227.656 47.7883V47.6094C214.555 47.6094 203.894 36.9508 203.894 23.8477H203.715C203.715 36.9485 193.056 47.6094 179.953 47.6094V47.7883C193.054 47.7883 203.715 58.4468 203.715 71.55H203.712Z" fill="#172D2D"/>
<path d="M275.348 0V0.088245C262.248 0.088245 251.589 10.7468 251.589 23.85H251.41C251.41 10.7468 240.752 0.088245 227.648 0.088245V0L275.348 0Z" fill="#172D2D"/>
<path d="M251.412 214.65H251.502H251.593C251.593 201.549 262.252 190.888 275.355 190.888V190.709C262.254 190.709 251.593 180.05 251.593 166.947H251.414C251.414 180.048 240.756 190.709 227.652 190.709V190.888C240.753 190.888 251.414 201.546 251.414 214.65H251.412Z" fill="#172D2D"/>
<path d="M203.712 166.95H203.803H203.894C203.894 153.85 214.552 143.189 227.656 143.189V143.01C214.555 143.01 203.894 132.351 203.894 119.248H203.715C203.715 132.349 193.056 143.01 179.953 143.01V143.189C193.054 143.189 203.715 153.847 203.715 166.95H203.712Z" fill="#172D2D"/>
<path d="M251.412 119.25H251.502H251.593C251.593 106.149 262.252 95.4885 275.355 95.4885V95.3096C262.254 95.3096 251.593 84.651 251.593 71.5479H251.414C251.414 84.6487 240.756 95.3096 227.652 95.3096V95.4885C240.753 95.4885 251.414 106.147 251.414 119.25H251.412Z" fill="#172D2D"/>
<path d="M299.111 71.55H299.202H299.292C299.292 58.4492 309.951 47.7883 323.054 47.7883V47.6094C309.953 47.6094 299.292 36.9508 299.292 23.8477H299.113C299.113 36.9485 288.455 47.6094 275.352 47.6094V47.7883C288.452 47.7883 299.113 58.4468 299.113 71.55H299.111Z" fill="#172D2D"/>
<path d="M299.111 166.95H299.202H299.292C299.292 153.85 309.951 143.189 323.054 143.189V143.01C309.953 143.01 299.292 132.351 299.292 119.248H299.113C299.113 132.349 288.455 143.01 275.352 143.01V143.189C288.452 143.189 299.113 153.847 299.113 166.95H299.111Z" fill="#172D2D"/>
<path d="M346.814 119.25H346.905H346.995C346.995 106.149 357.654 95.4885 370.757 95.4885V95.3096C357.656 95.3096 346.995 84.651 346.995 71.5479H346.816C346.816 84.6487 336.158 95.3096 323.055 95.3096V95.4885C336.155 95.4885 346.816 106.147 346.816 119.25H346.814Z" fill="#172D2D"/>
<path d="M394.513 71.55H394.604H394.695C394.695 58.4492 405.353 47.7883 418.456 47.7883V47.6094C405.355 47.6094 394.695 36.9508 394.695 23.8477H394.516C394.516 36.9485 383.857 47.6094 370.754 47.6094V47.7883C383.855 47.7883 394.516 58.4468 394.516 71.55H394.513Z" fill="#172D2D"/>
<path d="M370.747 0V0.088245C357.646 0.088245 346.987 10.7468 346.987 23.85H346.809C346.809 10.7468 336.15 0.088245 323.047 0.088245V0L370.747 0Z" fill="#172D2D"/>
<path d="M466.149 0V0.088245C453.048 0.088245 442.39 10.7468 442.39 23.85H442.211C442.211 10.7468 431.552 0.088245 418.449 0.088245V0L466.149 0Z" fill="#172D2D"/>
<path d="M251.589 262.35H251.41C251.41 275.45 240.752 286.111 227.648 286.111V286.29C240.749 286.29 251.41 296.949 251.41 310.052H251.501H251.591C251.591 296.951 262.25 286.29 275.353 286.29V286.111C262.252 286.111 251.591 275.453 251.591 262.35H251.589Z" fill="#172D2D"/>
<path d="M299.113 214.65C299.113 227.751 288.455 238.412 275.352 238.412V238.591C288.452 238.591 299.113 249.25 299.113 262.353H299.204H299.295C299.295 249.252 309.953 238.591 323.056 238.591V238.412C309.956 238.412 299.295 227.754 299.295 214.65H299.116H299.113Z" fill="#172D2D"/>
<path d="M346.813 166.949C346.813 180.05 336.154 190.711 323.051 190.711V190.89C336.152 190.89 346.813 201.548 346.813 214.652H346.903H346.994C346.994 201.551 357.652 190.89 370.756 190.89V190.711C357.655 190.711 346.994 180.052 346.994 166.949H346.815H346.813Z" fill="#172D2D"/>
<path d="M394.512 119.25C394.512 132.351 383.853 143.012 370.75 143.012V143.191C383.851 143.191 394.512 153.849 394.512 166.952H394.602H394.693C394.693 153.852 405.352 143.191 418.455 143.191V143.012C405.354 143.012 394.693 132.353 394.693 119.25H394.514H394.512Z" fill="#172D2D"/>
<path d="M346.809 262.35C346.809 275.45 336.15 286.111 323.047 286.111V286.29C336.148 286.29 346.809 296.949 346.809 310.052H346.899H346.99C346.99 296.951 357.648 286.29 370.752 286.29V286.111C357.651 286.111 346.99 275.453 346.99 262.35H346.811H346.809Z" fill="#172D2D"/>
<path d="M394.512 214.65C394.512 227.751 383.853 238.412 370.75 238.412V238.591C383.851 238.591 394.512 249.25 394.512 262.353H394.602H394.693C394.693 249.252 405.352 238.591 418.455 238.591V238.412C405.354 238.412 394.693 227.754 394.693 214.65H394.514H394.512Z" fill="#172D2D"/>
<path d="M442.211 166.949C442.211 180.05 431.552 190.711 418.449 190.711V190.89C431.55 190.89 442.211 201.548 442.211 214.652H442.302H442.392C442.392 201.551 453.051 190.89 466.154 190.89V190.711C453.053 190.711 442.392 180.052 442.392 166.949H442.213H442.211Z" fill="#172D2D"/>
<path d="M442.211 262.35C442.211 275.45 431.552 286.111 418.449 286.111V286.29C431.55 286.29 442.211 296.949 442.211 310.052H442.302H442.392C442.392 296.951 453.051 286.29 466.154 286.29V286.111C453.053 286.111 442.392 275.453 442.392 262.35H442.213H442.211Z" fill="#172D2D"/>
<path d="M489.998 214.65V262.35H489.91C489.91 249.247 479.252 238.589 466.148 238.589V238.41C479.252 238.41 489.91 227.751 489.91 214.65H489.998Z" fill="#172D2D"/>
<path d="M442.211 71.5498C442.211 84.6506 431.552 95.3116 418.449 95.3116V95.4904C431.55 95.4904 442.211 106.149 442.211 119.252H442.302H442.392C442.392 106.151 453.051 95.4904 466.154 95.4904V95.3116C453.053 95.3116 442.392 84.653 442.392 71.5498H442.213H442.211Z" fill="#172D2D"/>
<path d="M489.998 23.8496V71.5496H489.91C489.91 58.4464 479.252 47.7879 466.148 47.7879V47.609C479.252 47.609 489.91 36.9504 489.91 23.8496H489.998Z" fill="#172D2D"/>
<path d="M489.998 119.25V166.95H489.91C489.91 153.847 479.252 143.188 466.148 143.188V143.009C479.252 143.009 489.91 132.351 489.91 119.25H489.998Z" fill="#172D2D"/>
</g>
<defs>
<radialGradient id="paint0_radial_526_11790" cx="0" cy="0" r="1" gradientUnits="userSpaceOnUse" gradientTransform="translate(846.5 -1823.35) rotate(107.39) scale(2148.07 1201.14)">
<stop stop-color="#D9D9D9"/>
<stop offset="1" stop-color="#D9D9D9" stop-opacity="0"/>
</radialGradient>
</defs>
</svg>
