<svg width="64" height="64" viewBox="0 0 64 64" fill="none" xmlns="http://www.w3.org/2000/svg">
<circle cx="32" cy="32" r="32" fill="#FDFADF"/>
<path d="M32.0018 12.6155C34.4249 12.6155 36.3876 15.2728 38.536 16.1855C40.6845 17.0982 44.0445 16.5974 45.676 18.3259C47.3076 20.0543 46.8957 23.2286 47.8164 25.4659C48.7372 27.7032 51.3864 29.577 51.3864 32.0001C51.3864 34.4232 48.7291 36.3859 47.8164 38.5343C46.9037 40.6828 47.4045 44.0428 45.676 45.6743C43.9476 47.3059 40.7733 46.9101 38.536 47.8147C36.2987 48.7193 34.4249 51.3847 32.0018 51.3847C29.5787 51.3847 27.616 48.7274 25.4676 47.8147C23.3191 46.902 19.9591 47.4028 18.3276 45.6743C16.696 43.9459 17.0918 40.7716 16.1872 38.5343C15.2826 36.297 12.6172 34.4232 12.6172 32.0001C12.6172 29.577 15.2745 27.6143 16.1872 25.4659C17.0999 23.3174 16.5991 19.9574 18.3276 18.3259C20.056 16.6943 23.2303 17.0901 25.4676 16.1855C27.7049 15.2809 29.5787 12.6155 32.0018 12.6155ZM32.0018 18.7378C29.3788 18.7378 26.8146 19.5156 24.6337 20.9729C22.4527 22.4302 20.7528 24.5015 19.749 26.9248C18.7452 29.3482 18.4826 32.0148 18.9943 34.5874C19.5061 37.1601 20.7692 39.5232 22.6239 41.378C24.4787 43.2327 26.8418 44.4958 29.4145 45.0076C31.9871 45.5193 34.6537 45.2567 37.0771 44.2529C39.5004 43.2491 41.5717 41.5492 43.029 39.3682C44.4863 37.1873 45.2641 34.6231 45.2641 32.0001C45.2535 28.486 43.8528 25.1189 41.3679 22.634C38.883 20.1491 35.5159 18.7484 32.0018 18.7378ZM38.1564 26.1282L39.4568 27.3559C39.5898 27.5313 39.6618 27.7455 39.6618 27.9657C39.6618 28.1859 39.5898 28.4 39.4568 28.5755L31.2587 37.7105C31.0966 37.8943 30.8962 38.0402 30.6714 38.1379C30.4467 38.2356 30.2033 38.2827 29.9583 38.2759C29.7146 38.2745 29.4737 38.2237 29.2502 38.1265C29.0267 38.0293 28.8252 37.8878 28.658 37.7105L24.2237 33.2924C24.1425 33.2228 24.0759 33.1378 24.0278 33.0422C23.9797 32.9467 23.9511 32.8425 23.9436 32.7358C23.9361 32.6291 23.9498 32.522 23.9841 32.4207C24.0183 32.3193 24.0723 32.2258 24.143 32.1455L24.2237 32.0566L25.5403 30.837C25.6988 30.6665 25.918 30.565 26.1506 30.5544C26.3833 30.5438 26.6107 30.625 26.7841 30.7805L26.8407 30.837L29.9826 34.0678L36.9207 26.1524C37.0832 25.9887 37.303 25.8947 37.5336 25.8902C37.7642 25.8857 37.9876 25.971 38.1564 26.1282Z" fill="#172D2D"/>
</svg>
