<svg width="584" height="359" viewBox="0 0 584 359" fill="none" xmlns="http://www.w3.org/2000/svg">
<mask id="mask0_580_16249" style="mask-type:alpha" maskUnits="userSpaceOnUse" x="0" y="0" width="584" height="359">
<rect width="584" height="358.743" rx="20" fill="url(#paint0_radial_580_16249)"/>
</mask>
<g mask="url(#mask0_580_16249)">
<path d="M-12.297 29.0563C1.367 28.7636 12.74 18.9938 15.4944 6.0688V0H9.4256C-3.49939 2.75725 -13.2692 14.1274 -13.562 27.7943C-27.226 28.087 -38.5989 37.8568 -41.3562 50.779C-44.1106 37.8568 -55.4836 28.087 -69.1476 27.7943C-69.4404 14.1274 -79.213 2.75725 -92.1352 0H-104.276C-117.201 2.75725 -126.97 14.1274 -127.263 27.7943C-140.927 28.087 -152.3 37.8568 -155.057 50.779C-157.812 37.8568 -169.185 28.087 -182.849 27.7943C-183.142 14.1274 -192.914 2.75725 -205.836 0H-217.977C-230.902 2.75725 -240.672 14.1274 -240.964 27.7943C-254.628 28.087 -266.001 37.8568 -268.759 50.779C-271.513 37.8568 -282.886 28.087 -296.55 27.7943C-296.843 14.1274 -306.615 2.75725 -319.538 0H-331.678C-344.603 2.75725 -354.373 14.1274 -354.666 27.7943C-368.33 28.087 -379.703 37.8568 -382.46 50.779C-385.214 37.8568 -396.587 28.087 -410.251 27.7943C-410.544 14.1274 -420.317 2.75725 -433.239 0H-445.379C-458.304 2.75725 -468.074 14.1274 -468.367 27.7943C-482.031 28.087 -493.404 37.8568 -496.161 50.779C-498.916 37.8568 -510.288 28.087 -523.953 27.7943C-524.245 14.1274 -534.018 2.75725 -546.94 0H-553.012V6.0688C-550.254 18.9938 -538.881 28.7636 -525.217 29.0563C-524.925 42.7204 -515.155 54.0934 -502.23 56.8506C-515.155 59.6079 -524.925 70.978 -525.217 84.6449C-538.881 84.9377 -550.254 94.7074 -553.012 107.63V119.77C-550.254 132.695 -538.881 142.465 -525.217 142.758C-524.925 156.422 -515.155 167.795 -502.23 170.552C-515.155 173.309 -524.925 184.679 -525.217 198.346C-538.881 198.639 -550.254 208.409 -553.012 221.331V233.471C-550.254 246.396 -538.881 256.166 -525.217 256.459C-524.925 270.123 -515.155 281.496 -502.23 284.253C-515.155 287.01 -524.925 298.38 -525.217 312.047C-538.881 312.34 -550.254 322.11 -553.012 335.032V347.172C-550.254 360.097 -538.881 369.867 -525.217 370.16C-524.925 383.824 -515.155 395.197 -502.23 397.954C-515.155 400.712 -524.925 412.082 -525.217 425.749C-538.881 426.041 -550.254 435.811 -553.012 448.733V460.874C-550.254 473.799 -538.881 483.568 -525.217 483.861C-524.925 497.525 -515.155 508.898 -502.23 511.656C-515.155 514.413 -524.925 525.783 -525.217 539.45C-538.881 539.743 -550.254 549.512 -553.012 562.435V568.506H-546.94C-534.018 565.749 -524.245 554.376 -523.953 540.712C-510.288 540.419 -498.916 530.649 -496.161 517.724C-493.404 530.649 -482.031 540.419 -468.367 540.712C-468.074 554.376 -458.304 565.749 -445.379 568.506H-433.239C-420.317 565.749 -410.544 554.376 -410.251 540.712C-396.587 540.419 -385.214 530.649 -382.46 517.724C-379.703 530.649 -368.33 540.419 -354.666 540.712C-354.373 554.376 -344.603 565.749 -331.678 568.506H-319.538C-306.615 565.749 -296.843 554.376 -296.55 540.712C-282.886 540.419 -271.513 530.649 -268.759 517.724C-266.001 530.649 -254.628 540.419 -240.964 540.712C-240.672 554.376 -230.902 565.749 -217.977 568.506H-205.836C-192.914 565.749 -183.142 554.376 -182.849 540.712C-169.185 540.419 -157.812 530.649 -155.057 517.724C-152.3 530.649 -140.927 540.419 -127.263 540.712C-126.97 554.376 -117.201 565.749 -104.276 568.506H-92.1352C-79.213 565.749 -69.4404 554.376 -69.1476 540.712C-55.4836 540.419 -44.1106 530.649 -41.3562 517.724C-38.5989 530.649 -27.226 540.419 -13.562 540.712C-13.2692 554.376 -3.49939 565.749 9.4256 568.506H15.4944V562.435C12.74 549.512 1.367 539.743 -12.297 539.45C-12.5898 525.783 -22.3624 514.413 -35.2845 511.656C-22.3624 508.898 -12.5898 497.525 -12.297 483.861C1.367 483.568 12.74 473.799 15.4944 460.874V448.733C12.74 435.811 1.367 426.041 -12.297 425.749C-12.5898 412.082 -22.3624 400.712 -35.2845 397.954C-22.3624 395.197 -12.5898 383.824 -12.297 370.16C1.367 369.867 12.74 360.097 15.4944 347.172V335.032C12.74 322.11 1.367 312.34 -12.297 312.047C-12.5898 298.38 -22.3624 287.01 -35.2845 284.253C-22.3624 281.496 -12.5898 270.123 -12.297 256.459C1.367 256.166 12.74 246.396 15.4944 233.471V221.331C12.74 208.409 1.367 198.639 -12.297 198.346C-12.5898 184.679 -22.3624 173.309 -35.2845 170.552C-22.3624 167.795 -12.5898 156.422 -12.297 142.758C1.367 142.465 12.74 132.695 15.4944 119.77V107.63C12.74 94.7074 1.367 84.9377 -12.297 84.6449C-12.5898 70.978 -22.3624 59.6079 -35.2845 56.8506C-22.3624 54.0934 -12.5898 42.7204 -12.297 29.0563ZM14.8491 0.645254C14.5081 15.4548 2.52679 27.4389 -12.2828 27.7772C-11.9417 12.9676 0.0395508 0.986358 14.8491 0.645254ZM-552.364 0.645254C-537.554 0.986358 -525.573 12.9676 -525.232 27.7772C-540.041 27.4389 -552.023 15.4548 -552.364 0.645254ZM-552.364 567.858C-552.023 553.048 -540.041 541.067 -525.232 540.726C-525.573 555.536 -537.554 567.52 -552.364 567.858ZM14.8491 567.858C0.0395508 567.52 -11.9417 555.536 -12.2828 540.726C2.52679 541.067 14.5081 553.048 14.8491 567.858ZM-42.0015 56.2025C-56.8111 55.8643 -68.7923 43.8801 -69.1334 29.0706C-54.3238 29.4117 -42.3426 41.3929 -42.0015 56.2025ZM-70.4268 27.7772C-85.2364 27.4389 -97.2176 15.4548 -97.5587 0.645254C-82.7491 0.986358 -70.7679 12.9676 -70.4268 27.7772ZM-98.8521 0.645254C-99.1932 15.4548 -111.174 27.4389 -125.984 27.7772C-125.643 12.9676 -113.662 0.986358 -98.8521 0.645254ZM-125.998 29.0563C-112.334 28.7636 -100.961 18.9938 -98.2068 6.0688C-95.4496 18.9938 -84.0766 28.7636 -70.4125 29.0563C-70.1198 42.7204 -60.35 54.0934 -47.425 56.8506C-60.35 59.6079 -70.1198 70.978 -70.4125 84.6449C-84.0766 84.9377 -95.4496 94.7074 -98.2068 107.63C-100.961 94.7074 -112.334 84.9377 -125.998 84.6449C-126.291 70.978 -136.064 59.6079 -148.986 56.8506C-136.064 54.0934 -126.291 42.7204 -125.998 29.0563ZM-42.0015 57.4959C-42.3426 72.3055 -54.3238 84.2896 -69.1334 84.6278C-68.7923 69.8182 -56.8111 57.837 -42.0015 57.4959ZM-47.425 170.552C-60.35 173.309 -70.1198 184.679 -70.4125 198.346C-84.0766 198.639 -95.4496 208.409 -98.2068 221.331C-100.961 208.409 -112.334 198.639 -125.998 198.346C-126.291 184.679 -136.064 173.309 -148.986 170.552C-136.064 167.795 -126.291 156.422 -125.998 142.758C-112.334 142.465 -100.961 132.695 -98.2068 119.77C-95.4496 132.695 -84.0766 142.465 -70.4125 142.758C-70.1198 156.422 -60.35 167.795 -47.425 170.552ZM-69.1334 142.772C-54.3238 143.113 -42.3426 155.094 -42.0015 169.904C-56.8111 169.565 -68.7923 157.581 -69.1334 142.772ZM-42.0015 171.197C-42.3426 186.007 -54.3238 197.991 -69.1334 198.329C-68.7923 183.519 -56.8111 171.538 -42.0015 171.197ZM-47.425 284.253C-60.35 287.01 -70.1198 298.38 -70.4125 312.047C-84.0766 312.34 -95.4496 322.11 -98.2068 335.032C-100.961 322.11 -112.334 312.34 -125.998 312.047C-126.291 298.38 -136.064 287.01 -148.986 284.253C-136.064 281.496 -126.291 270.123 -125.998 256.459C-112.334 256.166 -100.961 246.396 -98.2068 233.471C-95.4496 246.396 -84.0766 256.166 -70.4125 256.459C-70.1198 270.123 -60.35 281.496 -47.425 284.253ZM-69.1334 256.473C-54.3238 256.814 -42.3426 268.795 -42.0015 283.605C-56.8111 283.267 -68.7923 271.283 -69.1334 256.473ZM-42.0015 284.898C-42.3426 299.708 -54.3238 311.692 -69.1334 312.03C-68.7923 297.221 -56.8111 285.239 -42.0015 284.898ZM-47.425 397.954C-60.35 400.712 -70.1198 412.082 -70.4125 425.749C-84.0766 426.041 -95.4496 435.811 -98.2068 448.733C-100.961 435.811 -112.334 426.041 -125.998 425.749C-126.291 412.082 -136.064 400.712 -148.986 397.954C-136.064 395.197 -126.291 383.824 -125.998 370.16C-112.334 369.867 -100.961 360.097 -98.2068 347.172C-95.4496 360.097 -84.0766 369.867 -70.4125 370.16C-70.1198 383.824 -60.35 395.197 -47.425 397.954ZM-69.1334 370.174C-54.3238 370.515 -42.3426 382.497 -42.0015 397.306C-56.8111 396.968 -68.7923 384.984 -69.1334 370.174ZM-42.0015 398.6C-42.3426 413.409 -54.3238 425.393 -69.1334 425.731C-68.7923 410.922 -56.8111 398.941 -42.0015 398.6ZM-70.4268 427.025C-70.7679 441.834 -82.7491 453.819 -97.5587 454.157C-97.2176 439.347 -85.2364 427.366 -70.4268 427.025ZM-70.4268 482.582C-85.2364 482.244 -97.2176 470.26 -97.5587 455.45C-82.7491 455.791 -70.7679 467.773 -70.4268 482.582ZM-98.8521 454.157C-113.662 453.819 -125.643 441.834 -125.984 427.025C-111.174 427.366 -99.1932 439.347 -98.8521 454.157ZM-211.908 448.733C-214.662 435.811 -226.035 426.041 -239.699 425.749C-239.992 412.082 -249.765 400.712 -262.687 397.954C-249.765 395.197 -239.992 383.824 -239.699 370.16C-226.035 369.867 -214.662 360.097 -211.908 347.172C-209.151 360.097 -197.778 369.867 -184.114 370.16C-183.821 383.824 -174.051 395.197 -161.126 397.954C-174.051 400.712 -183.821 412.082 -184.114 425.749C-197.778 426.041 -209.151 435.811 -211.908 448.733ZM-184.128 427.025C-184.469 441.834 -196.45 453.819 -211.26 454.157C-210.919 439.347 -198.938 427.366 -184.128 427.025ZM-184.128 482.582C-198.938 482.244 -210.919 470.26 -211.26 455.45C-196.45 455.791 -184.469 467.773 -184.128 482.582ZM-212.553 454.157C-227.363 453.819 -239.344 441.834 -239.685 427.025C-224.876 427.366 -212.894 439.347 -212.553 454.157ZM-325.609 448.733C-328.364 435.811 -339.737 426.041 -353.401 425.749C-353.693 412.082 -363.466 400.712 -376.388 397.954C-363.466 395.197 -353.693 383.824 -353.401 370.16C-339.737 369.867 -328.364 360.097 -325.609 347.172C-322.852 360.097 -311.479 369.867 -297.815 370.16C-297.522 383.824 -287.752 395.197 -274.827 397.954C-287.752 400.712 -297.522 412.082 -297.815 425.749C-311.479 426.041 -322.852 435.811 -325.609 448.733ZM-297.829 427.025C-298.17 441.834 -310.152 453.819 -324.961 454.157C-324.62 439.347 -312.639 427.366 -297.829 427.025ZM-297.829 482.582C-312.639 482.244 -324.62 470.26 -324.961 455.45C-310.152 455.791 -298.17 467.773 -297.829 482.582ZM-326.255 454.157C-341.064 453.819 -353.045 441.834 -353.386 427.025C-338.577 427.366 -326.596 439.347 -326.255 454.157ZM-439.31 448.733C-442.065 435.811 -453.438 426.041 -467.102 425.749C-467.395 412.082 -477.167 400.712 -490.089 397.954C-477.167 395.197 -467.395 383.824 -467.102 370.16C-453.438 369.867 -442.065 360.097 -439.31 347.172C-436.553 360.097 -425.18 369.867 -411.516 370.16C-411.223 383.824 -401.454 395.197 -388.529 397.954C-401.454 400.712 -411.223 412.082 -411.516 425.749C-425.18 426.041 -436.553 435.811 -439.31 448.733ZM-411.53 427.025C-411.872 441.834 -423.853 453.819 -438.662 454.157C-438.321 439.347 -426.34 427.366 -411.53 427.025ZM-411.53 482.582C-426.34 482.244 -438.321 470.26 -438.662 455.45C-423.853 455.791 -411.872 467.773 -411.53 482.582ZM-439.956 454.157C-454.765 453.819 -466.747 441.834 -467.088 427.025C-452.278 427.366 -440.297 439.347 -439.956 454.157ZM-468.381 425.731C-483.191 425.393 -495.172 413.409 -495.513 398.6C-480.703 398.941 -468.722 410.922 -468.381 425.731ZM-495.513 397.306C-495.172 382.497 -483.191 370.515 -468.381 370.174C-468.722 384.984 -480.703 396.968 -495.513 397.306ZM-490.089 284.253C-477.167 281.496 -467.395 270.123 -467.102 256.459C-453.438 256.166 -442.065 246.396 -439.31 233.471C-436.553 246.396 -425.18 256.166 -411.516 256.459C-411.223 270.123 -401.454 281.496 -388.529 284.253C-401.454 287.01 -411.223 298.38 -411.516 312.047C-425.18 312.34 -436.553 322.11 -439.31 335.032C-442.065 322.11 -453.438 312.34 -467.102 312.047C-467.395 298.38 -477.167 287.01 -490.089 284.253ZM-468.381 312.03C-483.191 311.692 -495.172 299.708 -495.513 284.898C-480.703 285.239 -468.722 297.221 -468.381 312.03ZM-495.513 283.605C-495.172 268.795 -483.191 256.814 -468.381 256.473C-468.722 271.283 -480.703 283.267 -495.513 283.605ZM-490.089 170.552C-477.167 167.795 -467.395 156.422 -467.102 142.758C-453.438 142.465 -442.065 132.695 -439.31 119.77C-436.553 132.695 -425.18 142.465 -411.516 142.758C-411.223 156.422 -401.454 167.795 -388.529 170.552C-401.454 173.309 -411.223 184.679 -411.516 198.346C-425.18 198.639 -436.553 208.409 -439.31 221.331C-442.065 208.409 -453.438 198.639 -467.102 198.346C-467.395 184.679 -477.167 173.309 -490.089 170.552ZM-468.381 198.329C-483.191 197.991 -495.172 186.007 -495.513 171.197C-480.703 171.538 -468.722 183.519 -468.381 198.329ZM-495.513 169.904C-495.172 155.094 -483.191 143.113 -468.381 142.772C-468.722 157.581 -480.703 169.565 -495.513 169.904ZM-467.088 141.478C-466.747 126.669 -454.765 114.688 -439.956 114.346C-440.297 129.156 -452.278 141.14 -467.088 141.478ZM-467.088 85.9212C-452.278 86.2623 -440.297 98.2435 -439.956 113.053C-454.765 112.715 -466.747 100.731 -467.088 85.9212ZM-438.662 114.346C-423.853 114.688 -411.872 126.669 -411.53 141.478C-426.34 141.14 -438.321 129.156 -438.662 114.346ZM-325.609 119.77C-322.852 132.695 -311.479 142.465 -297.815 142.758C-297.522 156.422 -287.752 167.795 -274.827 170.552C-287.752 173.309 -297.522 184.679 -297.815 198.346C-311.479 198.639 -322.852 208.409 -325.609 221.331C-328.364 208.409 -339.737 198.639 -353.401 198.346C-353.693 184.679 -363.466 173.309 -376.388 170.552C-363.466 167.795 -353.693 156.422 -353.401 142.758C-339.737 142.465 -328.364 132.695 -325.609 119.77ZM-353.386 141.478C-353.045 126.669 -341.064 114.688 -326.255 114.346C-326.596 129.156 -338.577 141.14 -353.386 141.478ZM-353.386 85.9212C-338.577 86.2623 -326.596 98.2435 -326.255 113.053C-341.064 112.715 -353.045 100.731 -353.386 85.9212ZM-324.961 114.346C-310.152 114.688 -298.17 126.669 -297.829 141.478C-312.639 141.14 -324.62 129.156 -324.961 114.346ZM-211.908 119.77C-209.151 132.695 -197.778 142.465 -184.114 142.758C-183.821 156.422 -174.051 167.795 -161.126 170.552C-174.051 173.309 -183.821 184.679 -184.114 198.346C-197.778 198.639 -209.151 208.409 -211.908 221.331C-214.662 208.409 -226.035 198.639 -239.699 198.346C-239.992 184.679 -249.765 173.309 -262.687 170.552C-249.765 167.795 -239.992 156.422 -239.699 142.758C-226.035 142.465 -214.662 132.695 -211.908 119.77ZM-239.685 141.478C-239.344 126.669 -227.363 114.688 -212.553 114.346C-212.894 129.156 -224.876 141.14 -239.685 141.478ZM-239.685 85.9212C-224.876 86.2623 -212.894 98.2435 -212.553 113.053C-227.363 112.715 -239.344 100.731 -239.685 85.9212ZM-211.26 114.346C-196.45 114.688 -184.469 126.669 -184.128 141.478C-198.938 141.14 -210.919 129.156 -211.26 114.346ZM-127.263 199.608C-126.97 213.272 -117.201 224.645 -104.276 227.402C-117.201 230.16 -126.97 241.53 -127.263 255.197C-140.927 255.49 -152.3 265.259 -155.057 278.181C-157.812 265.259 -169.185 255.49 -182.849 255.197C-183.142 241.53 -192.914 230.16 -205.836 227.402C-192.914 224.645 -183.142 213.272 -182.849 199.608C-169.185 199.315 -157.812 189.546 -155.057 176.621C-152.3 189.546 -140.927 199.315 -127.263 199.608ZM-154.409 171.197C-139.6 171.538 -127.618 183.519 -127.277 198.329C-142.087 197.991 -154.068 186.007 -154.409 171.197ZM-125.984 199.622C-111.174 199.964 -99.1932 211.945 -98.8521 226.754C-113.662 226.416 -125.643 214.432 -125.984 199.622ZM-98.8521 228.048C-99.1932 242.857 -111.174 254.841 -125.984 255.18C-125.643 240.37 -113.662 228.389 -98.8521 228.048ZM-127.277 256.473C-127.618 271.283 -139.6 283.267 -154.409 283.605C-154.068 268.795 -142.087 256.814 -127.277 256.473ZM-127.277 312.03C-142.087 311.692 -154.068 299.708 -154.409 284.898C-139.6 285.239 -127.618 297.221 -127.277 312.03ZM-211.908 335.032C-214.662 322.11 -226.035 312.34 -239.699 312.047C-239.992 298.38 -249.765 287.01 -262.687 284.253C-249.765 281.496 -239.992 270.123 -239.699 256.459C-226.035 256.166 -214.662 246.396 -211.908 233.471C-209.151 246.396 -197.778 256.166 -184.114 256.459C-183.821 270.123 -174.051 281.496 -161.126 284.253C-174.051 287.01 -183.821 298.38 -184.114 312.047C-197.778 312.34 -209.151 322.11 -211.908 335.032ZM-184.128 313.324C-184.469 328.133 -196.45 340.117 -211.26 340.456C-210.919 325.646 -198.938 313.665 -184.128 313.324ZM-184.128 368.881C-198.938 368.543 -210.919 356.559 -211.26 341.749C-196.45 342.09 -184.469 354.071 -184.128 368.881ZM-212.553 340.456C-227.363 340.117 -239.344 328.133 -239.685 313.324C-224.876 313.665 -212.894 325.646 -212.553 340.456ZM-240.979 312.03C-255.788 311.692 -267.769 299.708 -268.111 284.898C-253.301 285.239 -241.32 297.221 -240.979 312.03ZM-268.111 283.605C-267.769 268.795 -255.788 256.814 -240.979 256.473C-241.32 271.283 -253.301 283.267 -268.111 283.605ZM-239.685 255.18C-239.344 240.37 -227.363 228.389 -212.553 228.048C-212.894 242.857 -224.876 254.841 -239.685 255.18ZM-239.685 199.622C-224.876 199.964 -212.894 211.945 -212.553 226.754C-227.363 226.416 -239.344 214.432 -239.685 199.622ZM-211.26 228.048C-196.45 228.389 -184.469 240.37 -184.128 255.18C-198.938 254.841 -210.919 242.857 -211.26 228.048ZM-155.703 284.898C-156.044 299.708 -168.025 311.692 -182.835 312.03C-182.494 297.221 -170.512 285.239 -155.703 284.898ZM-182.835 256.473C-168.025 256.814 -156.044 268.795 -155.703 283.605C-170.512 283.267 -182.494 271.283 -182.835 256.473ZM-211.26 226.754C-210.919 211.945 -198.938 199.964 -184.128 199.622C-184.469 214.432 -196.45 226.416 -211.26 226.754ZM-182.835 198.329C-182.494 183.519 -170.512 171.538 -155.703 171.197C-156.044 186.007 -168.025 197.991 -182.835 198.329ZM-182.835 142.772C-168.025 143.113 -156.044 155.094 -155.703 169.904C-170.512 169.565 -182.494 157.581 -182.835 142.772ZM-268.111 169.904C-267.769 155.094 -255.788 143.113 -240.979 142.772C-241.32 157.581 -253.301 169.565 -268.111 169.904ZM-240.979 198.329C-255.788 197.991 -267.769 186.007 -268.111 171.197C-253.301 171.538 -241.32 183.519 -240.979 198.329ZM-240.964 199.608C-240.672 213.272 -230.902 224.645 -217.977 227.402C-230.902 230.16 -240.672 241.53 -240.964 255.197C-254.628 255.49 -266.001 265.259 -268.759 278.181C-271.513 265.259 -282.886 255.49 -296.55 255.197C-296.843 241.53 -306.615 230.16 -319.538 227.402C-306.615 224.645 -296.843 213.272 -296.55 199.608C-282.886 199.315 -271.513 189.546 -268.759 176.621C-266.001 189.546 -254.628 199.315 -240.964 199.608ZM-325.609 335.032C-328.364 322.11 -339.737 312.34 -353.401 312.047C-353.693 298.38 -363.466 287.01 -376.388 284.253C-363.466 281.496 -353.693 270.123 -353.401 256.459C-339.737 256.166 -328.364 246.396 -325.609 233.471C-322.852 246.396 -311.479 256.166 -297.815 256.459C-297.522 270.123 -287.752 281.496 -274.827 284.253C-287.752 287.01 -297.522 298.38 -297.815 312.047C-311.479 312.34 -322.852 322.11 -325.609 335.032ZM-297.829 313.324C-298.17 328.133 -310.152 340.117 -324.961 340.456C-324.62 325.646 -312.639 313.665 -297.829 313.324ZM-297.829 368.881C-312.639 368.543 -324.62 356.559 -324.961 341.749C-310.152 342.09 -298.17 354.071 -297.829 368.881ZM-326.255 340.456C-341.064 340.117 -353.045 328.133 -353.386 313.324C-338.577 313.665 -326.596 325.646 -326.255 340.456ZM-354.68 312.03C-369.489 311.692 -381.471 299.708 -381.812 284.898C-367.002 285.239 -355.021 297.221 -354.68 312.03ZM-381.812 283.605C-381.471 268.795 -369.489 256.814 -354.68 256.473C-355.021 271.283 -367.002 283.267 -381.812 283.605ZM-353.386 255.18C-353.045 240.37 -341.064 228.389 -326.255 228.048C-326.596 242.857 -338.577 254.841 -353.386 255.18ZM-353.386 199.622C-338.577 199.964 -326.596 211.945 -326.255 226.754C-341.064 226.416 -353.045 214.432 -353.386 199.622ZM-324.961 228.048C-310.152 228.389 -298.17 240.37 -297.829 255.18C-312.639 254.841 -324.62 242.857 -324.961 228.048ZM-269.404 284.898C-269.745 299.708 -281.726 311.692 -296.536 312.03C-296.195 297.221 -284.214 285.239 -269.404 284.898ZM-296.536 256.473C-281.726 256.814 -269.745 268.795 -269.404 283.605C-284.214 283.267 -296.195 271.283 -296.536 256.473ZM-324.961 226.754C-324.62 211.945 -312.639 199.964 -297.829 199.622C-298.17 214.432 -310.152 226.416 -324.961 226.754ZM-296.536 198.329C-296.195 183.519 -284.214 171.538 -269.404 171.197C-269.745 186.007 -281.726 197.991 -296.536 198.329ZM-296.536 142.772C-281.726 143.113 -269.745 155.094 -269.404 169.904C-284.214 169.565 -296.195 157.581 -296.536 142.772ZM-381.812 169.904C-381.471 155.094 -369.489 143.113 -354.68 142.772C-355.021 157.581 -367.002 169.565 -381.812 169.904ZM-354.68 198.329C-369.489 197.991 -381.471 186.007 -381.812 171.197C-367.002 171.538 -355.021 183.519 -354.68 198.329ZM-354.666 199.608C-354.373 213.272 -344.603 224.645 -331.678 227.402C-344.603 230.16 -354.373 241.53 -354.666 255.197C-368.33 255.49 -379.703 265.259 -382.46 278.181C-385.214 265.259 -396.587 255.49 -410.251 255.197C-410.544 241.53 -420.317 230.16 -433.239 227.402C-420.317 224.645 -410.544 213.272 -410.251 199.608C-396.587 199.315 -385.214 189.546 -382.46 176.621C-379.703 189.546 -368.33 199.315 -354.666 199.608ZM-383.105 283.605C-397.915 283.267 -409.896 271.283 -410.237 256.473C-395.428 256.814 -383.446 268.795 -383.105 283.605ZM-411.53 255.18C-426.34 254.841 -438.321 242.857 -438.662 228.048C-423.853 228.389 -411.872 240.37 -411.53 255.18ZM-438.662 226.754C-438.321 211.945 -426.34 199.964 -411.53 199.622C-411.872 214.432 -423.853 226.416 -438.662 226.754ZM-410.237 198.329C-409.896 183.519 -397.915 171.538 -383.105 171.197C-383.446 186.007 -395.428 197.991 -410.237 198.329ZM-410.237 142.772C-395.428 143.113 -383.446 155.094 -383.105 169.904C-397.915 169.565 -409.896 157.581 -410.237 142.772ZM-439.956 226.754C-454.765 226.416 -466.747 214.432 -467.088 199.622C-452.278 199.964 -440.297 211.945 -439.956 226.754ZM-467.088 255.18C-466.747 240.37 -454.765 228.389 -439.956 228.048C-440.297 242.857 -452.278 254.841 -467.088 255.18ZM-383.105 284.898C-383.446 299.708 -395.428 311.692 -410.237 312.03C-409.896 297.221 -397.915 285.239 -383.105 284.898ZM-411.53 313.324C-411.872 328.133 -423.853 340.117 -438.662 340.456C-438.321 325.646 -426.34 313.665 -411.53 313.324ZM-411.53 368.881C-426.34 368.543 -438.321 356.559 -438.662 341.749C-423.853 342.09 -411.872 354.071 -411.53 368.881ZM-439.956 340.456C-454.765 340.117 -466.747 328.133 -467.088 313.324C-452.278 313.665 -440.297 325.646 -439.956 340.456ZM-467.088 368.881C-466.747 354.071 -454.765 342.09 -439.956 341.749C-440.297 356.559 -452.278 368.543 -467.088 368.881ZM-383.105 398.6C-383.446 413.409 -395.428 425.393 -410.237 425.731C-409.896 410.922 -397.915 398.941 -383.105 398.6ZM-410.237 370.174C-395.428 370.515 -383.446 382.497 -383.105 397.306C-397.915 396.968 -409.896 384.984 -410.237 370.174ZM-410.251 368.898C-410.544 355.231 -420.317 343.861 -433.239 341.104C-420.317 338.346 -410.544 326.973 -410.251 313.309C-396.587 313.017 -385.214 303.247 -382.46 290.322C-379.703 303.247 -368.33 313.017 -354.666 313.309C-354.373 326.973 -344.603 338.346 -331.678 341.104C-344.603 343.861 -354.373 355.231 -354.666 368.898C-368.33 369.191 -379.703 378.961 -382.46 391.883C-385.214 378.961 -396.587 369.191 -410.251 368.898ZM-326.255 341.749C-326.596 356.559 -338.577 368.543 -353.386 368.881C-353.045 354.071 -341.064 342.09 -326.255 341.749ZM-354.68 370.174C-355.021 384.984 -367.002 396.968 -381.812 397.306C-381.471 382.497 -369.489 370.515 -354.68 370.174ZM-354.68 425.731C-369.489 425.393 -381.471 413.409 -381.812 398.6C-367.002 398.941 -355.021 410.922 -354.68 425.731ZM-269.404 398.6C-269.745 413.409 -281.726 425.393 -296.536 425.731C-296.195 410.922 -284.214 398.941 -269.404 398.6ZM-296.536 370.174C-281.726 370.515 -269.745 382.497 -269.404 397.306C-284.214 396.968 -296.195 384.984 -296.536 370.174ZM-296.55 368.898C-296.843 355.231 -306.615 343.861 -319.538 341.104C-306.615 338.346 -296.843 326.973 -296.55 313.309C-282.886 313.017 -271.513 303.247 -268.759 290.322C-266.001 303.247 -254.628 313.017 -240.964 313.309C-240.672 326.973 -230.902 338.346 -217.977 341.104C-230.902 343.861 -240.672 355.231 -240.964 368.898C-254.628 369.191 -266.001 378.961 -268.759 391.883C-271.513 378.961 -282.886 369.191 -296.55 368.898ZM-212.553 341.749C-212.894 356.559 -224.876 368.543 -239.685 368.881C-239.344 354.071 -227.363 342.09 -212.553 341.749ZM-240.979 370.174C-241.32 384.984 -253.301 396.968 -268.111 397.306C-267.769 382.497 -255.788 370.515 -240.979 370.174ZM-240.979 425.731C-255.788 425.393 -267.769 413.409 -268.111 398.6C-253.301 398.941 -241.32 410.922 -240.979 425.731ZM-155.703 398.6C-156.044 413.409 -168.025 425.393 -182.835 425.731C-182.494 410.922 -170.512 398.941 -155.703 398.6ZM-182.835 370.174C-168.025 370.515 -156.044 382.497 -155.703 397.306C-170.512 396.968 -182.494 384.984 -182.835 370.174ZM-182.849 368.898C-183.142 355.231 -192.914 343.861 -205.836 341.104C-192.914 338.346 -183.142 326.973 -182.849 313.309C-169.185 313.017 -157.812 303.247 -155.057 290.322C-152.3 303.247 -140.927 313.017 -127.263 313.309C-126.97 326.973 -117.201 338.346 -104.276 341.104C-117.201 343.861 -126.97 355.231 -127.263 368.898C-140.927 369.191 -152.3 378.961 -155.057 391.883C-157.812 378.961 -169.185 369.191 -182.849 368.898ZM-125.984 313.324C-111.174 313.665 -99.1932 325.646 -98.8521 340.456C-113.662 340.117 -125.643 328.133 -125.984 313.324ZM-98.8521 341.749C-99.1932 356.559 -111.174 368.543 -125.984 368.881C-125.643 354.071 -113.662 342.09 -98.8521 341.749ZM-127.277 370.174C-127.618 384.984 -139.6 396.968 -154.409 397.306C-154.068 382.497 -142.087 370.515 -127.277 370.174ZM-127.277 425.731C-142.087 425.393 -154.068 413.409 -154.409 398.6C-139.6 398.941 -127.618 410.922 -127.277 425.731ZM-97.5587 341.749C-82.7491 342.09 -70.7679 354.071 -70.4268 368.881C-85.2364 368.543 -97.2176 356.559 -97.5587 341.749ZM-70.4268 313.324C-70.7679 328.133 -82.7491 340.117 -97.5587 340.456C-97.2176 325.646 -85.2364 313.665 -70.4268 313.324ZM-97.5587 228.048C-82.7491 228.389 -70.7679 240.37 -70.4268 255.18C-85.2364 254.841 -97.2176 242.857 -97.5587 228.048ZM-70.4268 199.622C-70.7679 214.432 -82.7491 226.416 -97.5587 226.754C-97.2176 211.945 -85.2364 199.964 -70.4268 199.622ZM-154.409 169.904C-154.068 155.094 -142.087 143.113 -127.277 142.772C-127.618 157.581 -139.6 169.565 -154.409 169.904ZM-125.984 141.478C-125.643 126.669 -113.662 114.688 -98.8521 114.346C-99.1932 129.156 -111.174 141.14 -125.984 141.478ZM-125.984 85.9212C-111.174 86.2623 -99.1932 98.2435 -98.8521 113.053C-113.662 112.715 -125.643 100.731 -125.984 85.9212ZM-97.5587 114.346C-82.7491 114.688 -70.7679 126.669 -70.4268 141.478C-85.2364 141.14 -97.2176 129.156 -97.5587 114.346ZM-70.4268 85.9212C-70.7679 100.731 -82.7491 112.715 -97.5587 113.053C-97.2176 98.2435 -85.2364 86.2623 -70.4268 85.9212ZM-127.277 29.0706C-127.618 43.8801 -139.6 55.8643 -154.409 56.2025C-154.068 41.3929 -142.087 29.4117 -127.277 29.0706ZM-127.277 84.6278C-142.087 84.2896 -154.068 72.3055 -154.409 57.4959C-139.6 57.837 -127.618 69.8182 -127.277 84.6278ZM-127.263 85.907C-126.97 99.571 -117.201 110.944 -104.276 113.701C-117.201 116.458 -126.97 127.829 -127.263 141.495C-140.927 141.788 -152.3 151.558 -155.057 164.48C-157.812 151.558 -169.185 141.788 -182.849 141.495C-183.142 127.829 -192.914 116.458 -205.836 113.701C-192.914 110.944 -183.142 99.571 -182.849 85.907C-169.185 85.6142 -157.812 75.8444 -155.057 62.9194C-152.3 75.8444 -140.927 85.6142 -127.263 85.907ZM-211.26 113.053C-210.919 98.2435 -198.938 86.2623 -184.128 85.9212C-184.469 100.731 -196.45 112.715 -211.26 113.053ZM-182.835 84.6278C-182.494 69.8182 -170.512 57.837 -155.703 57.4959C-156.044 72.3055 -168.025 84.2896 -182.835 84.6278ZM-155.703 56.2025C-170.512 55.8643 -182.494 43.8801 -182.835 29.0706C-168.025 29.4117 -156.044 41.3929 -155.703 56.2025ZM-184.128 27.7772C-198.938 27.4389 -210.919 15.4548 -211.26 0.645254C-196.45 0.986358 -184.469 12.9676 -184.128 27.7772ZM-212.553 0.645254C-212.894 15.4548 -224.876 27.4389 -239.685 27.7772C-239.344 12.9676 -227.363 0.986358 -212.553 0.645254ZM-239.699 29.0563C-226.035 28.7636 -214.662 18.9938 -211.908 6.0688C-209.151 18.9938 -197.778 28.7636 -184.114 29.0563C-183.821 42.7204 -174.051 54.0934 -161.126 56.8506C-174.051 59.6079 -183.821 70.978 -184.114 84.6449C-197.778 84.9377 -209.151 94.7074 -211.908 107.63C-214.662 94.7074 -226.035 84.9377 -239.699 84.6449C-239.992 70.978 -249.765 59.6079 -262.687 56.8506C-249.765 54.0934 -239.992 42.7204 -239.699 29.0563ZM-240.979 29.0706C-241.32 43.8801 -253.301 55.8643 -268.111 56.2025C-267.769 41.3929 -255.788 29.4117 -240.979 29.0706ZM-240.979 84.6278C-255.788 84.2896 -267.769 72.3055 -268.111 57.4959C-253.301 57.837 -241.32 69.8182 -240.979 84.6278ZM-240.964 85.907C-240.672 99.571 -230.902 110.944 -217.977 113.701C-230.902 116.458 -240.672 127.829 -240.964 141.495C-254.628 141.788 -266.001 151.558 -268.759 164.48C-271.513 151.558 -282.886 141.788 -296.55 141.495C-296.843 127.829 -306.615 116.458 -319.538 113.701C-306.615 110.944 -296.843 99.571 -296.55 85.907C-282.886 85.6142 -271.513 75.8444 -268.759 62.9194C-266.001 75.8444 -254.628 85.6142 -240.964 85.907ZM-324.961 113.053C-324.62 98.2435 -312.639 86.2623 -297.829 85.9212C-298.17 100.731 -310.152 112.715 -324.961 113.053ZM-296.536 84.6278C-296.195 69.8182 -284.214 57.837 -269.404 57.4959C-269.745 72.3055 -281.726 84.2896 -296.536 84.6278ZM-269.404 56.2025C-284.214 55.8643 -296.195 43.8801 -296.536 29.0706C-281.726 29.4117 -269.745 41.3929 -269.404 56.2025ZM-297.829 27.7772C-312.639 27.4389 -324.62 15.4548 -324.961 0.645254C-310.152 0.986358 -298.17 12.9676 -297.829 27.7772ZM-326.255 0.645254C-326.596 15.4548 -338.577 27.4389 -353.386 27.7772C-353.045 12.9676 -341.064 0.986358 -326.255 0.645254ZM-353.401 29.0563C-339.737 28.7636 -328.364 18.9938 -325.609 6.0688C-322.852 18.9938 -311.479 28.7636 -297.815 29.0563C-297.522 42.7204 -287.752 54.0934 -274.827 56.8506C-287.752 59.6079 -297.522 70.978 -297.815 84.6449C-311.479 84.9377 -322.852 94.7074 -325.609 107.63C-328.364 94.7074 -339.737 84.9377 -353.401 84.6449C-353.693 70.978 -363.466 59.6079 -376.388 56.8506C-363.466 54.0934 -353.693 42.7204 -353.401 29.0563ZM-354.68 29.0706C-355.021 43.8801 -367.002 55.8643 -381.812 56.2025C-381.471 41.3929 -369.489 29.4117 -354.68 29.0706ZM-354.68 84.6278C-369.489 84.2896 -381.471 72.3055 -381.812 57.4959C-367.002 57.837 -355.021 69.8182 -354.68 84.6278ZM-354.666 85.907C-354.373 99.571 -344.603 110.944 -331.678 113.701C-344.603 116.458 -354.373 127.829 -354.666 141.495C-368.33 141.788 -379.703 151.558 -382.46 164.48C-385.214 151.558 -396.587 141.788 -410.251 141.495C-410.544 127.829 -420.317 116.458 -433.239 113.701C-420.317 110.944 -410.544 99.571 -410.251 85.907C-396.587 85.6142 -385.214 75.8444 -382.46 62.9194C-379.703 75.8444 -368.33 85.6142 -354.666 85.907ZM-438.662 113.053C-438.321 98.2435 -426.34 86.2623 -411.53 85.9212C-411.872 100.731 -423.853 112.715 -438.662 113.053ZM-410.237 84.6278C-409.896 69.8182 -397.915 57.837 -383.105 57.4959C-383.446 72.3055 -395.428 84.2896 -410.237 84.6278ZM-383.105 56.2025C-397.915 55.8643 -409.896 43.8801 -410.237 29.0706C-395.428 29.4117 -383.446 41.3929 -383.105 56.2025ZM-411.53 27.7772C-426.34 27.4389 -438.321 15.4548 -438.662 0.645254C-423.853 0.986358 -411.872 12.9676 -411.53 27.7772ZM-439.956 0.645254C-440.297 15.4548 -452.278 27.4389 -467.088 27.7772C-466.747 12.9676 -454.765 0.986358 -439.956 0.645254ZM-467.102 29.0563C-453.438 28.7636 -442.065 18.9938 -439.31 6.0688C-436.553 18.9938 -425.18 28.7636 -411.516 29.0563C-411.223 42.7204 -401.454 54.0934 -388.529 56.8506C-401.454 59.6079 -411.223 70.978 -411.516 84.6449C-425.18 84.9377 -436.553 94.7074 -439.31 107.63C-442.065 94.7074 -453.438 84.9377 -467.102 84.6449C-467.395 70.978 -477.167 59.6079 -490.089 56.8506C-477.167 54.0934 -467.395 42.7204 -467.102 29.0563ZM-468.381 29.0706C-468.722 43.8801 -480.703 55.8643 -495.513 56.2025C-495.172 41.3929 -483.191 29.4117 -468.381 29.0706ZM-468.381 84.6278C-483.191 84.2896 -495.172 72.3055 -495.513 57.4959C-480.703 57.837 -468.722 69.8182 -468.381 84.6278ZM-523.938 29.0706C-509.129 29.4117 -497.147 41.3929 -496.806 56.2025C-511.616 55.8643 -523.597 43.8801 -523.938 29.0706ZM-496.806 57.4959C-497.147 72.3055 -509.129 84.2896 -523.938 84.6278C-523.597 69.8182 -511.616 57.837 -496.806 57.4959ZM-525.232 85.9212C-525.573 100.731 -537.554 112.715 -552.364 113.053C-552.023 98.2435 -540.041 86.2623 -525.232 85.9212ZM-552.364 114.346C-537.554 114.688 -525.573 126.669 -525.232 141.478C-540.041 141.14 -552.023 129.156 -552.364 114.346ZM-546.94 113.701C-534.018 110.944 -524.245 99.571 -523.953 85.907C-510.288 85.6142 -498.916 75.8444 -496.161 62.9194C-493.404 75.8444 -482.031 85.6142 -468.367 85.907C-468.074 99.571 -458.304 110.944 -445.379 113.701C-458.304 116.458 -468.074 127.829 -468.367 141.495C-482.031 141.788 -493.404 151.558 -496.161 164.48C-498.916 151.558 -510.288 141.788 -523.953 141.495C-524.245 127.829 -534.018 116.458 -546.94 113.701ZM-523.938 142.772C-509.129 143.113 -497.147 155.094 -496.806 169.904C-511.616 169.565 -523.597 157.581 -523.938 142.772ZM-496.806 171.197C-497.147 186.007 -509.129 197.991 -523.938 198.329C-523.597 183.519 -511.616 171.538 -496.806 171.197ZM-525.232 199.622C-525.573 214.432 -537.554 226.416 -552.364 226.754C-552.023 211.945 -540.041 199.964 -525.232 199.622ZM-552.364 228.048C-537.554 228.389 -525.573 240.37 -525.232 255.18C-540.041 254.841 -552.023 242.857 -552.364 228.048ZM-546.94 227.402C-534.018 224.645 -524.245 213.272 -523.953 199.608C-510.288 199.315 -498.916 189.546 -496.161 176.621C-493.404 189.546 -482.031 199.315 -468.367 199.608C-468.074 213.272 -458.304 224.645 -445.379 227.402C-458.304 230.16 -468.074 241.53 -468.367 255.197C-482.031 255.49 -493.404 265.259 -496.161 278.181C-498.916 265.259 -510.288 255.49 -523.953 255.197C-524.245 241.53 -534.018 230.16 -546.94 227.402ZM-523.938 256.473C-509.129 256.814 -497.147 268.795 -496.806 283.605C-511.616 283.267 -523.597 271.283 -523.938 256.473ZM-496.806 284.898C-497.147 299.708 -509.129 311.692 -523.938 312.03C-523.597 297.221 -511.616 285.239 -496.806 284.898ZM-525.232 313.324C-525.573 328.133 -537.554 340.117 -552.364 340.456C-552.023 325.646 -540.041 313.665 -525.232 313.324ZM-552.364 341.749C-537.554 342.09 -525.573 354.071 -525.232 368.881C-540.041 368.543 -552.023 356.559 -552.364 341.749ZM-546.94 341.104C-534.018 338.346 -524.245 326.973 -523.953 313.309C-510.288 313.017 -498.916 303.247 -496.161 290.322C-493.404 303.247 -482.031 313.017 -468.367 313.309C-468.074 326.973 -458.304 338.346 -445.379 341.104C-458.304 343.861 -468.074 355.231 -468.367 368.898C-482.031 369.191 -493.404 378.961 -496.161 391.883C-498.916 378.961 -510.288 369.191 -523.953 368.898C-524.245 355.231 -534.018 343.861 -546.94 341.104ZM-523.938 370.174C-509.129 370.515 -497.147 382.497 -496.806 397.306C-511.616 396.968 -523.597 384.984 -523.938 370.174ZM-496.806 398.6C-497.147 413.409 -509.129 425.393 -523.938 425.731C-523.597 410.922 -511.616 398.941 -496.806 398.6ZM-525.232 427.025C-525.573 441.834 -537.554 453.819 -552.364 454.157C-552.023 439.347 -540.041 427.366 -525.232 427.025ZM-552.364 455.45C-537.554 455.791 -525.573 467.773 -525.232 482.582C-540.041 482.244 -552.023 470.26 -552.364 455.45ZM-523.938 539.433C-523.597 524.623 -511.616 512.642 -496.806 512.301C-497.147 527.11 -509.129 539.094 -523.938 539.433ZM-523.938 483.875C-509.129 484.217 -497.147 496.198 -496.806 511.007C-511.616 510.669 -523.597 498.685 -523.938 483.875ZM-523.953 482.599C-524.245 468.932 -534.018 457.562 -546.94 454.805C-534.018 452.048 -524.245 440.675 -523.953 427.011C-510.288 426.718 -498.916 416.948 -496.161 404.023C-493.404 416.948 -482.031 426.718 -468.367 427.011C-468.074 440.675 -458.304 452.048 -445.379 454.805C-458.304 457.562 -468.074 468.932 -468.367 482.599C-482.031 482.892 -493.404 492.662 -496.161 505.584C-498.916 492.662 -510.288 482.892 -523.953 482.599ZM-439.956 455.45C-440.297 470.26 -452.278 482.244 -467.088 482.582C-466.747 467.773 -454.765 455.791 -439.956 455.45ZM-468.381 483.875C-468.722 498.685 -480.703 510.669 -495.513 511.007C-495.172 496.198 -483.191 484.217 -468.381 483.875ZM-495.513 512.301C-480.703 512.642 -468.722 524.623 -468.381 539.433C-483.191 539.094 -495.172 527.11 -495.513 512.301ZM-467.088 540.726C-452.278 541.067 -440.297 553.048 -439.956 567.858C-454.765 567.52 -466.747 555.536 -467.088 540.726ZM-438.662 567.858C-438.321 553.048 -426.34 541.067 -411.53 540.726C-411.872 555.536 -423.853 567.52 -438.662 567.858ZM-411.516 539.45C-425.18 539.743 -436.553 549.512 -439.31 562.435C-442.065 549.512 -453.438 539.743 -467.102 539.45C-467.395 525.783 -477.167 514.413 -490.089 511.656C-477.167 508.898 -467.395 497.525 -467.102 483.861C-453.438 483.568 -442.065 473.799 -439.31 460.874C-436.553 473.799 -425.18 483.568 -411.516 483.861C-411.223 497.525 -401.454 508.898 -388.529 511.656C-401.454 514.413 -411.223 525.783 -411.516 539.45ZM-410.237 539.433C-409.896 524.623 -397.915 512.642 -383.105 512.301C-383.446 527.11 -395.428 539.094 -410.237 539.433ZM-410.237 483.875C-395.428 484.217 -383.446 496.198 -383.105 511.007C-397.915 510.669 -409.896 498.685 -410.237 483.875ZM-410.251 482.599C-410.544 468.932 -420.317 457.562 -433.239 454.805C-420.317 452.048 -410.544 440.675 -410.251 427.011C-396.587 426.718 -385.214 416.948 -382.46 404.023C-379.703 416.948 -368.33 426.718 -354.666 427.011C-354.373 440.675 -344.603 452.048 -331.678 454.805C-344.603 457.562 -354.373 468.932 -354.666 482.599C-368.33 482.892 -379.703 492.662 -382.46 505.584C-385.214 492.662 -396.587 482.892 -410.251 482.599ZM-326.255 455.45C-326.596 470.26 -338.577 482.244 -353.386 482.582C-353.045 467.773 -341.064 455.791 -326.255 455.45ZM-354.68 483.875C-355.021 498.685 -367.002 510.669 -381.812 511.007C-381.471 496.198 -369.489 484.217 -354.68 483.875ZM-381.812 512.301C-367.002 512.642 -355.021 524.623 -354.68 539.433C-369.489 539.094 -381.471 527.11 -381.812 512.301ZM-353.386 540.726C-338.577 541.067 -326.596 553.048 -326.255 567.858C-341.064 567.52 -353.045 555.536 -353.386 540.726ZM-324.961 567.858C-324.62 553.048 -312.639 541.067 -297.829 540.726C-298.17 555.536 -310.152 567.52 -324.961 567.858ZM-297.815 539.45C-311.479 539.743 -322.852 549.512 -325.609 562.435C-328.364 549.512 -339.737 539.743 -353.401 539.45C-353.693 525.783 -363.466 514.413 -376.388 511.656C-363.466 508.898 -353.693 497.525 -353.401 483.861C-339.737 483.568 -328.364 473.799 -325.609 460.874C-322.852 473.799 -311.479 483.568 -297.815 483.861C-297.522 497.525 -287.752 508.898 -274.827 511.656C-287.752 514.413 -297.522 525.783 -297.815 539.45ZM-296.536 539.433C-296.195 524.623 -284.214 512.642 -269.404 512.301C-269.745 527.11 -281.726 539.094 -296.536 539.433ZM-296.536 483.875C-281.726 484.217 -269.745 496.198 -269.404 511.007C-284.214 510.669 -296.195 498.685 -296.536 483.875ZM-296.55 482.599C-296.843 468.932 -306.615 457.562 -319.538 454.805C-306.615 452.048 -296.843 440.675 -296.55 427.011C-282.886 426.718 -271.513 416.948 -268.759 404.023C-266.001 416.948 -254.628 426.718 -240.964 427.011C-240.672 440.675 -230.902 452.048 -217.977 454.805C-230.902 457.562 -240.672 468.932 -240.964 482.599C-254.628 482.892 -266.001 492.662 -268.759 505.584C-271.513 492.662 -282.886 482.892 -296.55 482.599ZM-212.553 455.45C-212.894 470.26 -224.876 482.244 -239.685 482.582C-239.344 467.773 -227.363 455.791 -212.553 455.45ZM-240.979 483.875C-241.32 498.685 -253.301 510.669 -268.111 511.007C-267.769 496.198 -255.788 484.217 -240.979 483.875ZM-268.111 512.301C-253.301 512.642 -241.32 524.623 -240.979 539.433C-255.788 539.094 -267.769 527.11 -268.111 512.301ZM-239.685 540.726C-224.876 541.067 -212.894 553.048 -212.553 567.858C-227.363 567.52 -239.344 555.536 -239.685 540.726ZM-211.26 567.858C-210.919 553.048 -198.938 541.067 -184.128 540.726C-184.469 555.536 -196.45 567.52 -211.26 567.858ZM-184.114 539.45C-197.778 539.743 -209.151 549.512 -211.908 562.435C-214.662 549.512 -226.035 539.743 -239.699 539.45C-239.992 525.783 -249.765 514.413 -262.687 511.656C-249.765 508.898 -239.992 497.525 -239.699 483.861C-226.035 483.568 -214.662 473.799 -211.908 460.874C-209.151 473.799 -197.778 483.568 -184.114 483.861C-183.821 497.525 -174.051 508.898 -161.126 511.656C-174.051 514.413 -183.821 525.783 -184.114 539.45ZM-182.835 539.433C-182.494 524.623 -170.512 512.642 -155.703 512.301C-156.044 527.11 -168.025 539.094 -182.835 539.433ZM-182.835 483.875C-168.025 484.217 -156.044 496.198 -155.703 511.007C-170.512 510.669 -182.494 498.685 -182.835 483.875ZM-182.849 482.599C-183.142 468.932 -192.914 457.562 -205.836 454.805C-192.914 452.048 -183.142 440.675 -182.849 427.011C-169.185 426.718 -157.812 416.948 -155.057 404.023C-152.3 416.948 -140.927 426.718 -127.263 427.011C-126.97 440.675 -117.201 452.048 -104.276 454.805C-117.201 457.562 -126.97 468.932 -127.263 482.599C-140.927 482.892 -152.3 492.662 -155.057 505.584C-157.812 492.662 -169.185 482.892 -182.849 482.599ZM-98.8521 455.45C-99.1932 470.26 -111.174 482.244 -125.984 482.582C-125.643 467.773 -113.662 455.791 -98.8521 455.45ZM-127.277 483.875C-127.618 498.685 -139.6 510.669 -154.409 511.007C-154.068 496.198 -142.087 484.217 -127.277 483.875ZM-154.409 512.301C-139.6 512.642 -127.618 524.623 -127.277 539.433C-142.087 539.094 -154.068 527.11 -154.409 512.301ZM-125.984 540.726C-111.174 541.067 -99.1932 553.048 -98.8521 567.858C-113.662 567.52 -125.643 555.536 -125.984 540.726ZM-97.5587 567.858C-97.2176 553.048 -85.2364 541.067 -70.4268 540.726C-70.7679 555.536 -82.7491 567.52 -97.5587 567.858ZM-70.4125 539.45C-84.0766 539.743 -95.4496 549.512 -98.2068 562.435C-100.961 549.512 -112.334 539.743 -125.998 539.45C-126.291 525.783 -136.064 514.413 -148.986 511.656C-136.064 508.898 -126.291 497.525 -125.998 483.861C-112.334 483.568 -100.961 473.799 -98.2068 460.874C-95.4496 473.799 -84.0766 483.568 -70.4125 483.861C-70.1198 497.525 -60.35 508.898 -47.425 511.656C-60.35 514.413 -70.1198 525.783 -70.4125 539.45ZM-69.1334 539.433C-68.7923 524.623 -56.8111 512.642 -42.0015 512.301C-42.3426 527.11 -54.3238 539.094 -69.1334 539.433ZM-69.1334 483.875C-54.3238 484.217 -42.3426 496.198 -42.0015 511.007C-56.8111 510.669 -68.7923 498.685 -69.1334 483.875ZM-13.5762 539.433C-28.3857 539.094 -40.367 527.11 -40.7081 512.301C-25.8985 512.642 -13.9173 524.623 -13.5762 539.433ZM-40.7081 511.007C-40.367 496.198 -28.3857 484.217 -13.5762 483.875C-13.9173 498.685 -25.8985 510.669 -40.7081 511.007ZM-12.2828 482.582C-11.9417 467.773 0.0395508 455.791 14.8491 455.45C14.5081 470.26 2.52679 482.244 -12.2828 482.582ZM14.8491 454.157C0.0395508 453.819 -11.9417 441.834 -12.2828 427.025C2.52679 427.366 14.5081 439.347 14.8491 454.157ZM9.4256 454.805C-3.49939 457.562 -13.2692 468.932 -13.562 482.599C-27.226 482.892 -38.5989 492.662 -41.3562 505.584C-44.1106 492.662 -55.4836 482.892 -69.1476 482.599C-69.4404 468.932 -79.213 457.562 -92.1352 454.805C-79.213 452.048 -69.4404 440.675 -69.1476 427.011C-55.4836 426.718 -44.1106 416.948 -41.3562 404.023C-38.5989 416.948 -27.226 426.718 -13.562 427.011C-13.2692 440.675 -3.49939 452.048 9.4256 454.805ZM-13.5762 425.731C-28.3857 425.393 -40.367 413.409 -40.7081 398.6C-25.8985 398.941 -13.9173 410.922 -13.5762 425.731ZM-40.7081 397.306C-40.367 382.497 -28.3857 370.515 -13.5762 370.174C-13.9173 384.984 -25.8985 396.968 -40.7081 397.306ZM-12.2828 368.881C-11.9417 354.071 0.0395508 342.09 14.8491 341.749C14.5081 356.559 2.52679 368.543 -12.2828 368.881ZM14.8491 340.456C0.0395508 340.117 -11.9417 328.133 -12.2828 313.324C2.52679 313.665 14.5081 325.646 14.8491 340.456ZM9.4256 341.104C-3.49939 343.861 -13.2692 355.231 -13.562 368.898C-27.226 369.191 -38.5989 378.961 -41.3562 391.883C-44.1106 378.961 -55.4836 369.191 -69.1476 368.898C-69.4404 355.231 -79.213 343.861 -92.1352 341.104C-79.213 338.346 -69.4404 326.973 -69.1476 313.309C-55.4836 313.017 -44.1106 303.247 -41.3562 290.322C-38.5989 303.247 -27.226 313.017 -13.562 313.309C-13.2692 326.973 -3.49939 338.346 9.4256 341.104ZM-13.5762 312.03C-28.3857 311.692 -40.367 299.708 -40.7081 284.898C-25.8985 285.239 -13.9173 297.221 -13.5762 312.03ZM-40.7081 283.605C-40.367 268.795 -28.3857 256.814 -13.5762 256.473C-13.9173 271.283 -25.8985 283.267 -40.7081 283.605ZM-12.2828 255.18C-11.9417 240.37 0.0395508 228.389 14.8491 228.048C14.5081 242.857 2.52679 254.841 -12.2828 255.18ZM14.8491 226.754C0.0395508 226.416 -11.9417 214.432 -12.2828 199.622C2.52679 199.964 14.5081 211.945 14.8491 226.754ZM9.4256 227.402C-3.49939 230.16 -13.2692 241.53 -13.562 255.197C-27.226 255.49 -38.5989 265.259 -41.3562 278.181C-44.1106 265.259 -55.4836 255.49 -69.1476 255.197C-69.4404 241.53 -79.213 230.16 -92.1352 227.402C-79.213 224.645 -69.4404 213.272 -69.1476 199.608C-55.4836 199.315 -44.1106 189.546 -41.3562 176.621C-38.5989 189.546 -27.226 199.315 -13.562 199.608C-13.2692 213.272 -3.49939 224.645 9.4256 227.402ZM-13.5762 198.329C-28.3857 197.991 -40.367 186.007 -40.7081 171.197C-25.8985 171.538 -13.9173 183.519 -13.5762 198.329ZM-40.7081 169.904C-40.367 155.094 -28.3857 143.113 -13.5762 142.772C-13.9173 157.581 -25.8985 169.565 -40.7081 169.904ZM-12.2828 141.478C-11.9417 126.669 0.0395508 114.688 14.8491 114.346C14.5081 129.156 2.52679 141.14 -12.2828 141.478ZM14.8491 113.053C0.0395508 112.715 -11.9417 100.731 -12.2828 85.9212C2.52679 86.2623 14.5081 98.2435 14.8491 113.053ZM9.4256 113.701C-3.49939 116.458 -13.2692 127.829 -13.562 141.495C-27.226 141.788 -38.5989 151.558 -41.3562 164.48C-44.1106 151.558 -55.4836 141.788 -69.1476 141.495C-69.4404 127.829 -79.213 116.458 -92.1352 113.701C-79.213 110.944 -69.4404 99.571 -69.1476 85.907C-55.4836 85.6142 -44.1106 75.8444 -41.3562 62.9194C-38.5989 75.8444 -27.226 85.6142 -13.562 85.907C-13.2692 99.571 -3.49939 110.944 9.4256 113.701ZM-13.5762 84.6278C-28.3857 84.2896 -40.367 72.3055 -40.7081 57.4959C-25.8985 57.837 -13.9173 69.8182 -13.5762 84.6278ZM-40.7081 56.2025C-40.367 41.3929 -28.3857 29.4117 -13.5762 29.0706C-13.9173 43.8801 -25.8985 55.8643 -40.7081 56.2025Z" fill="#172D2D"/>
<path d="M15.4917 255.828V312.679H15.3865C15.3865 297.062 2.68327 284.359 -12.9336 284.359V284.145C2.68327 284.145 15.3865 271.442 15.3865 255.828H15.4917Z" fill="#172D2D"/>
<path d="M15.4917 28.4248V85.2754H15.3865C15.3865 69.6586 2.68327 56.9553 -12.9336 56.9553V56.7421C2.68327 56.7421 15.3865 44.0388 15.3865 28.4248H15.4917Z" fill="#172D2D"/>
<path d="M15.4917 142.126V198.977H15.3865C15.3865 183.36 2.68327 170.657 -12.9336 170.657V170.444C2.68327 170.444 15.3865 157.74 15.3865 142.126H15.4917Z" fill="#172D2D"/>
<path d="M556.211 29.0563C569.875 28.7636 581.248 18.9938 584.002 6.0688V0H577.933C565.008 2.75725 555.239 14.1274 554.946 27.7943C541.282 28.087 529.909 37.8568 527.152 50.779C524.397 37.8568 513.024 28.087 499.36 27.7943C499.067 14.1274 489.295 2.75725 476.373 0H464.232C451.307 2.75725 441.537 14.1274 441.245 27.7943C427.581 28.087 416.208 37.8568 413.45 50.779C410.696 37.8568 399.323 28.087 385.659 27.7943C385.366 14.1274 375.594 2.75725 362.671 0H350.531C337.606 2.75725 327.836 14.1274 327.543 27.7943C313.879 28.087 302.506 37.8568 299.749 50.779C296.995 37.8568 285.622 28.087 271.958 27.7943C271.665 14.1274 261.892 2.75725 248.97 0H236.83C223.905 2.75725 214.135 14.1274 213.842 27.7943C200.178 28.087 188.805 37.8568 186.048 50.779C183.294 37.8568 171.921 28.087 158.257 27.7943C157.964 14.1274 148.191 2.75725 135.269 0H123.128C110.203 2.75725 100.434 14.1274 100.141 27.7943C86.4769 28.087 75.104 37.8568 72.3467 50.779C69.5923 37.8568 58.2193 28.087 44.5553 27.7943C44.2625 14.1274 34.4899 2.75725 21.5677 0H15.4961V6.0688C18.2533 18.9938 29.6263 28.7636 43.2904 29.0563C43.5831 42.7204 53.3529 54.0934 66.2779 56.8506C53.3529 59.6079 43.5831 70.978 43.2904 84.6449C29.6263 84.9377 18.2533 94.7074 15.4961 107.63V119.77C18.2533 132.695 29.6263 142.465 43.2904 142.758C43.5831 156.422 53.3529 167.795 66.2779 170.552C53.3529 173.309 43.5831 184.679 43.2904 198.346C29.6263 198.639 18.2533 208.409 15.4961 221.331V233.471C18.2533 246.396 29.6263 256.166 43.2904 256.459C43.5831 270.123 53.3529 281.496 66.2779 284.253C53.3529 287.01 43.5831 298.38 43.2904 312.047C29.6263 312.34 18.2533 322.11 15.4961 335.032V347.172C18.2533 360.097 29.6263 369.867 43.2904 370.16C43.5831 383.824 53.3529 395.197 66.2779 397.954C53.3529 400.712 43.5831 412.082 43.2904 425.749C29.6263 426.041 18.2533 435.811 15.4961 448.733V460.874C18.2533 473.799 29.6263 483.568 43.2904 483.861C43.5831 497.525 53.3529 508.898 66.2779 511.656C53.3529 514.413 43.5831 525.783 43.2904 539.45C29.6263 539.743 18.2533 549.512 15.4961 562.435V568.506H21.5677C34.4899 565.749 44.2625 554.376 44.5553 540.712C58.2193 540.419 69.5923 530.649 72.3467 517.724C75.104 530.649 86.4769 540.419 100.141 540.712C100.434 554.376 110.203 565.749 123.128 568.506H135.269C148.191 565.749 157.964 554.376 158.257 540.712C171.921 540.419 183.294 530.649 186.048 517.724C188.805 530.649 200.178 540.419 213.842 540.712C214.135 554.376 223.905 565.749 236.83 568.506H248.97C261.892 565.749 271.665 554.376 271.958 540.712C285.622 540.419 296.995 530.649 299.749 517.724C302.506 530.649 313.879 540.419 327.543 540.712C327.836 554.376 337.606 565.749 350.531 568.506H362.671C375.594 565.749 385.366 554.376 385.659 540.712C399.323 540.419 410.696 530.649 413.45 517.724C416.208 530.649 427.581 540.419 441.245 540.712C441.537 554.376 451.307 565.749 464.232 568.506H476.373C489.295 565.749 499.067 554.376 499.36 540.712C513.024 540.419 524.397 530.649 527.152 517.724C529.909 530.649 541.282 540.419 554.946 540.712C555.239 554.376 565.008 565.749 577.933 568.506H584.002V562.435C581.248 549.512 569.875 539.743 556.211 539.45C555.918 525.783 546.145 514.413 533.223 511.656C546.145 508.898 555.918 497.525 556.211 483.861C569.875 483.568 581.248 473.799 584.002 460.874V448.733C581.248 435.811 569.875 426.041 556.211 425.749C555.918 412.082 546.145 400.712 533.223 397.954C546.145 395.197 555.918 383.824 556.211 370.16C569.875 369.867 581.248 360.097 584.002 347.172V335.032C581.248 322.11 569.875 312.34 556.211 312.047C555.918 298.38 546.145 287.01 533.223 284.253C546.145 281.496 555.918 270.123 556.211 256.459C569.875 256.166 581.248 246.396 584.002 233.471V221.331C581.248 208.409 569.875 198.639 556.211 198.346C555.918 184.679 546.145 173.309 533.223 170.552C546.145 167.795 555.918 156.422 556.211 142.758C569.875 142.465 581.248 132.695 584.002 119.77V107.63C581.248 94.7074 569.875 84.9377 556.211 84.6449C555.918 70.978 546.145 59.6079 533.223 56.8506C546.145 54.0934 555.918 42.7204 556.211 29.0563ZM583.357 0.645254C583.016 15.4548 571.035 27.4389 556.225 27.7772C556.566 12.9676 568.547 0.986358 583.357 0.645254ZM16.1442 0.645254C30.9538 0.986358 42.935 12.9676 43.2761 27.7772C28.4666 27.4389 16.4853 15.4548 16.1442 0.645254ZM16.1442 567.858C16.4853 553.048 28.4666 541.067 43.2761 540.726C42.935 555.536 30.9538 567.52 16.1442 567.858ZM583.357 567.858C568.547 567.52 556.566 555.536 556.225 540.726C571.035 541.067 583.016 553.048 583.357 567.858ZM526.506 56.2025C511.697 55.8643 499.716 43.8801 499.374 29.0706C514.184 29.4117 526.165 41.3929 526.506 56.2025ZM498.081 27.7772C483.271 27.4389 471.29 15.4548 470.949 0.645254C485.759 0.986358 497.74 12.9676 498.081 27.7772ZM469.656 0.645254C469.315 15.4548 457.333 27.4389 442.524 27.7772C442.865 12.9676 454.846 0.986358 469.656 0.645254ZM442.51 29.0563C456.174 28.7636 467.547 18.9938 470.301 6.0688C473.058 18.9938 484.431 28.7636 498.095 29.0563C498.388 42.7204 508.158 54.0934 521.083 56.8506C508.158 59.6079 498.388 70.978 498.095 84.6449C484.431 84.9377 473.058 94.7074 470.301 107.63C467.547 94.7074 456.174 84.9377 442.51 84.6449C442.217 70.978 432.444 59.6079 419.522 56.8506C432.444 54.0934 442.217 42.7204 442.51 29.0563ZM526.506 57.4959C526.165 72.3055 514.184 84.2896 499.374 84.6278C499.716 69.8182 511.697 57.837 526.506 57.4959ZM521.083 170.552C508.158 173.309 498.388 184.679 498.095 198.346C484.431 198.639 473.058 208.409 470.301 221.331C467.547 208.409 456.174 198.639 442.51 198.346C442.217 184.679 432.444 173.309 419.522 170.552C432.444 167.795 442.217 156.422 442.51 142.758C456.174 142.465 467.547 132.695 470.301 119.77C473.058 132.695 484.431 142.465 498.095 142.758C498.388 156.422 508.158 167.795 521.083 170.552ZM499.374 142.772C514.184 143.113 526.165 155.094 526.506 169.904C511.697 169.565 499.716 157.581 499.374 142.772ZM526.506 171.197C526.165 186.007 514.184 197.991 499.374 198.329C499.716 183.519 511.697 171.538 526.506 171.197ZM521.083 284.253C508.158 287.01 498.388 298.38 498.095 312.047C484.431 312.34 473.058 322.11 470.301 335.032C467.547 322.11 456.174 312.34 442.51 312.047C442.217 298.38 432.444 287.01 419.522 284.253C432.444 281.496 442.217 270.123 442.51 256.459C456.174 256.166 467.547 246.396 470.301 233.471C473.058 246.396 484.431 256.166 498.095 256.459C498.388 270.123 508.158 281.496 521.083 284.253ZM499.374 256.473C514.184 256.814 526.165 268.795 526.506 283.605C511.697 283.267 499.716 271.283 499.374 256.473ZM526.506 284.898C526.165 299.708 514.184 311.692 499.374 312.03C499.716 297.221 511.697 285.239 526.506 284.898ZM521.083 397.954C508.158 400.712 498.388 412.082 498.095 425.749C484.431 426.041 473.058 435.811 470.301 448.733C467.547 435.811 456.174 426.041 442.51 425.749C442.217 412.082 432.444 400.712 419.522 397.954C432.444 395.197 442.217 383.824 442.51 370.16C456.174 369.867 467.547 360.097 470.301 347.172C473.058 360.097 484.431 369.867 498.095 370.16C498.388 383.824 508.158 395.197 521.083 397.954ZM499.374 370.174C514.184 370.515 526.165 382.497 526.506 397.306C511.697 396.968 499.716 384.984 499.374 370.174ZM526.506 398.6C526.165 413.409 514.184 425.393 499.374 425.731C499.716 410.922 511.697 398.941 526.506 398.6ZM498.081 427.025C497.74 441.834 485.759 453.819 470.949 454.157C471.29 439.347 483.271 427.366 498.081 427.025ZM498.081 482.582C483.271 482.244 471.29 470.26 470.949 455.45C485.759 455.791 497.74 467.773 498.081 482.582ZM469.656 454.157C454.846 453.819 442.865 441.834 442.524 427.025C457.333 427.366 469.315 439.347 469.656 454.157ZM356.6 448.733C353.845 435.811 342.472 426.041 328.808 425.749C328.516 412.082 318.743 400.712 305.821 397.954C318.743 395.197 328.516 383.824 328.808 370.16C342.472 369.867 353.845 360.097 356.6 347.172C359.357 360.097 370.73 369.867 384.394 370.16C384.687 383.824 394.457 395.197 407.382 397.954C394.457 400.712 384.687 412.082 384.394 425.749C370.73 426.041 359.357 435.811 356.6 448.733ZM384.38 427.025C384.039 441.834 372.057 453.819 357.248 454.157C357.589 439.347 369.57 427.366 384.38 427.025ZM384.38 482.582C369.57 482.244 357.589 470.26 357.248 455.45C372.057 455.791 384.039 467.773 384.38 482.582ZM355.954 454.157C341.145 453.819 329.164 441.834 328.823 427.025C343.632 427.366 355.613 439.347 355.954 454.157ZM242.899 448.733C240.144 435.811 228.771 426.041 215.107 425.749C214.814 412.082 205.042 400.712 192.12 397.954C205.042 395.197 214.814 383.824 215.107 370.16C228.771 369.867 240.144 360.097 242.899 347.172C245.656 360.097 257.029 369.867 270.693 370.16C270.986 383.824 280.755 395.197 293.68 397.954C280.755 400.712 270.986 412.082 270.693 425.749C257.029 426.041 245.656 435.811 242.899 448.733ZM270.679 427.025C270.337 441.834 258.356 453.819 243.547 454.157C243.888 439.347 255.869 427.366 270.679 427.025ZM270.679 482.582C255.869 482.244 243.888 470.26 243.547 455.45C258.356 455.791 270.337 467.773 270.679 482.582ZM242.253 454.157C227.444 453.819 215.462 441.834 215.121 427.025C229.931 427.366 241.912 439.347 242.253 454.157ZM129.197 448.733C126.443 435.811 115.07 426.041 101.406 425.749C101.113 412.082 91.3405 400.712 78.4184 397.954C91.3405 395.197 101.113 383.824 101.406 370.16C115.07 369.867 126.443 360.097 129.197 347.172C131.955 360.097 143.328 369.867 156.992 370.16C157.284 383.824 167.054 395.197 179.979 397.954C167.054 400.712 157.284 412.082 156.992 425.749C143.328 426.041 131.955 435.811 129.197 448.733ZM156.977 427.025C156.636 441.834 144.655 453.819 129.845 454.157C130.187 439.347 142.168 427.366 156.977 427.025ZM156.977 482.582C142.168 482.244 130.187 470.26 129.845 455.45C144.655 455.791 156.636 467.773 156.977 482.582ZM128.552 454.157C113.742 453.819 101.761 441.834 101.42 427.025C116.23 427.366 128.211 439.347 128.552 454.157ZM100.127 425.731C85.3172 425.393 73.3359 413.409 72.9948 398.6C87.8044 398.941 99.7856 410.922 100.127 425.731ZM72.9948 397.306C73.3359 382.497 85.3172 370.515 100.127 370.174C99.7856 384.984 87.8044 396.968 72.9948 397.306ZM78.4184 284.253C91.3405 281.496 101.113 270.123 101.406 256.459C115.07 256.166 126.443 246.396 129.197 233.471C131.955 246.396 143.328 256.166 156.992 256.459C157.284 270.123 167.054 281.496 179.979 284.253C167.054 287.01 157.284 298.38 156.992 312.047C143.328 312.34 131.955 322.11 129.197 335.032C126.443 322.11 115.07 312.34 101.406 312.047C101.113 298.38 91.3405 287.01 78.4184 284.253ZM100.127 312.03C85.3172 311.692 73.3359 299.708 72.9948 284.898C87.8044 285.239 99.7856 297.221 100.127 312.03ZM72.9948 283.605C73.3359 268.795 85.3172 256.814 100.127 256.473C99.7856 271.283 87.8044 283.267 72.9948 283.605ZM78.4184 170.552C91.3405 167.795 101.113 156.422 101.406 142.758C115.07 142.465 126.443 132.695 129.197 119.77C131.955 132.695 143.328 142.465 156.992 142.758C157.284 156.422 167.054 167.795 179.979 170.552C167.054 173.309 157.284 184.679 156.992 198.346C143.328 198.639 131.955 208.409 129.197 221.331C126.443 208.409 115.07 198.639 101.406 198.346C101.113 184.679 91.3405 173.309 78.4184 170.552ZM100.127 198.329C85.3172 197.991 73.3359 186.007 72.9948 171.197C87.8044 171.538 99.7856 183.519 100.127 198.329ZM72.9948 169.904C73.3359 155.094 85.3172 143.113 100.127 142.772C99.7856 157.581 87.8044 169.565 72.9948 169.904ZM101.42 141.478C101.761 126.669 113.742 114.688 128.552 114.346C128.211 129.156 116.23 141.14 101.42 141.478ZM101.42 85.9212C116.23 86.2623 128.211 98.2435 128.552 113.053C113.742 112.715 101.761 100.731 101.42 85.9212ZM129.845 114.346C144.655 114.688 156.636 126.669 156.977 141.478C142.168 141.14 130.187 129.156 129.845 114.346ZM242.899 119.77C245.656 132.695 257.029 142.465 270.693 142.758C270.986 156.422 280.755 167.795 293.68 170.552C280.755 173.309 270.986 184.679 270.693 198.346C257.029 198.639 245.656 208.409 242.899 221.331C240.144 208.409 228.771 198.639 215.107 198.346C214.814 184.679 205.042 173.309 192.12 170.552C205.042 167.795 214.814 156.422 215.107 142.758C228.771 142.465 240.144 132.695 242.899 119.77ZM215.121 141.478C215.462 126.669 227.444 114.688 242.253 114.346C241.912 129.156 229.931 141.14 215.121 141.478ZM215.121 85.9212C229.931 86.2623 241.912 98.2435 242.253 113.053C227.444 112.715 215.462 100.731 215.121 85.9212ZM243.547 114.346C258.356 114.688 270.337 126.669 270.679 141.478C255.869 141.14 243.888 129.156 243.547 114.346ZM356.6 119.77C359.357 132.695 370.73 142.465 384.394 142.758C384.687 156.422 394.457 167.795 407.382 170.552C394.457 173.309 384.687 184.679 384.394 198.346C370.73 198.639 359.357 208.409 356.6 221.331C353.845 208.409 342.472 198.639 328.808 198.346C328.516 184.679 318.743 173.309 305.821 170.552C318.743 167.795 328.516 156.422 328.808 142.758C342.472 142.465 353.845 132.695 356.6 119.77ZM328.823 141.478C329.164 126.669 341.145 114.688 355.954 114.346C355.613 129.156 343.632 141.14 328.823 141.478ZM328.823 85.9212C343.632 86.2623 355.613 98.2435 355.954 113.053C341.145 112.715 329.164 100.731 328.823 85.9212ZM357.248 114.346C372.057 114.688 384.039 126.669 384.38 141.478C369.57 141.14 357.589 129.156 357.248 114.346ZM441.245 199.608C441.537 213.272 451.307 224.645 464.232 227.402C451.307 230.16 441.537 241.53 441.245 255.197C427.581 255.49 416.208 265.259 413.45 278.181C410.696 265.259 399.323 255.49 385.659 255.197C385.366 241.53 375.594 230.16 362.671 227.402C375.594 224.645 385.366 213.272 385.659 199.608C399.323 199.315 410.696 189.546 413.45 176.621C416.208 189.546 427.581 199.315 441.245 199.608ZM414.098 171.197C428.908 171.538 440.889 183.519 441.23 198.329C426.421 197.991 414.44 186.007 414.098 171.197ZM442.524 199.622C457.333 199.964 469.315 211.945 469.656 226.754C454.846 226.416 442.865 214.432 442.524 199.622ZM469.656 228.048C469.315 242.857 457.333 254.841 442.524 255.18C442.865 240.37 454.846 228.389 469.656 228.048ZM441.23 256.473C440.889 271.283 428.908 283.267 414.098 283.605C414.44 268.795 426.421 256.814 441.23 256.473ZM441.23 312.03C426.421 311.692 414.44 299.708 414.098 284.898C428.908 285.239 440.889 297.221 441.23 312.03ZM356.6 335.032C353.845 322.11 342.472 312.34 328.808 312.047C328.516 298.38 318.743 287.01 305.821 284.253C318.743 281.496 328.516 270.123 328.808 256.459C342.472 256.166 353.845 246.396 356.6 233.471C359.357 246.396 370.73 256.166 384.394 256.459C384.687 270.123 394.457 281.496 407.382 284.253C394.457 287.01 384.687 298.38 384.394 312.047C370.73 312.34 359.357 322.11 356.6 335.032ZM384.38 313.324C384.039 328.133 372.057 340.117 357.248 340.456C357.589 325.646 369.57 313.665 384.38 313.324ZM384.38 368.881C369.57 368.543 357.589 356.559 357.248 341.749C372.057 342.09 384.039 354.071 384.38 368.881ZM355.954 340.456C341.145 340.117 329.164 328.133 328.823 313.324C343.632 313.665 355.613 325.646 355.954 340.456ZM327.529 312.03C312.72 311.692 300.738 299.708 300.397 284.898C315.207 285.239 327.188 297.221 327.529 312.03ZM300.397 283.605C300.738 268.795 312.72 256.814 327.529 256.473C327.188 271.283 315.207 283.267 300.397 283.605ZM328.823 255.18C329.164 240.37 341.145 228.389 355.954 228.048C355.613 242.857 343.632 254.841 328.823 255.18ZM328.823 199.622C343.632 199.964 355.613 211.945 355.954 226.754C341.145 226.416 329.164 214.432 328.823 199.622ZM357.248 228.048C372.057 228.389 384.039 240.37 384.38 255.18C369.57 254.841 357.589 242.857 357.248 228.048ZM412.805 284.898C412.464 299.708 400.483 311.692 385.673 312.03C386.014 297.221 397.996 285.239 412.805 284.898ZM385.673 256.473C400.483 256.814 412.464 268.795 412.805 283.605C397.996 283.267 386.014 271.283 385.673 256.473ZM357.248 226.754C357.589 211.945 369.57 199.964 384.38 199.622C384.039 214.432 372.057 226.416 357.248 226.754ZM385.673 198.329C386.014 183.519 397.996 171.538 412.805 171.197C412.464 186.007 400.483 197.991 385.673 198.329ZM385.673 142.772C400.483 143.113 412.464 155.094 412.805 169.904C397.996 169.565 386.014 157.581 385.673 142.772ZM300.397 169.904C300.738 155.094 312.72 143.113 327.529 142.772C327.188 157.581 315.207 169.565 300.397 169.904ZM327.529 198.329C312.72 197.991 300.738 186.007 300.397 171.197C315.207 171.538 327.188 183.519 327.529 198.329ZM327.543 199.608C327.836 213.272 337.606 224.645 350.531 227.402C337.606 230.16 327.836 241.53 327.543 255.197C313.879 255.49 302.506 265.259 299.749 278.181C296.995 265.259 285.622 255.49 271.958 255.197C271.665 241.53 261.892 230.16 248.97 227.402C261.892 224.645 271.665 213.272 271.958 199.608C285.622 199.315 296.995 189.546 299.749 176.621C302.506 189.546 313.879 199.315 327.543 199.608ZM242.899 335.032C240.144 322.11 228.771 312.34 215.107 312.047C214.814 298.38 205.042 287.01 192.12 284.253C205.042 281.496 214.814 270.123 215.107 256.459C228.771 256.166 240.144 246.396 242.899 233.471C245.656 246.396 257.029 256.166 270.693 256.459C270.986 270.123 280.755 281.496 293.68 284.253C280.755 287.01 270.986 298.38 270.693 312.047C257.029 312.34 245.656 322.11 242.899 335.032ZM270.679 313.324C270.337 328.133 258.356 340.117 243.547 340.456C243.888 325.646 255.869 313.665 270.679 313.324ZM270.679 368.881C255.869 368.543 243.888 356.559 243.547 341.749C258.356 342.09 270.337 354.071 270.679 368.881ZM242.253 340.456C227.444 340.117 215.462 328.133 215.121 313.324C229.931 313.665 241.912 325.646 242.253 340.456ZM213.828 312.03C199.018 311.692 187.037 299.708 186.696 284.898C201.506 285.239 213.487 297.221 213.828 312.03ZM186.696 283.605C187.037 268.795 199.018 256.814 213.828 256.473C213.487 271.283 201.506 283.267 186.696 283.605ZM215.121 255.18C215.462 240.37 227.444 228.389 242.253 228.048C241.912 242.857 229.931 254.841 215.121 255.18ZM215.121 199.622C229.931 199.964 241.912 211.945 242.253 226.754C227.444 226.416 215.462 214.432 215.121 199.622ZM243.547 228.048C258.356 228.389 270.337 240.37 270.679 255.18C255.869 254.841 243.888 242.857 243.547 228.048ZM299.104 284.898C298.763 299.708 286.782 311.692 271.972 312.03C272.313 297.221 284.294 285.239 299.104 284.898ZM271.972 256.473C286.782 256.814 298.763 268.795 299.104 283.605C284.294 283.267 272.313 271.283 271.972 256.473ZM243.547 226.754C243.888 211.945 255.869 199.964 270.679 199.622C270.337 214.432 258.356 226.416 243.547 226.754ZM271.972 198.329C272.313 183.519 284.294 171.538 299.104 171.197C298.763 186.007 286.782 197.991 271.972 198.329ZM271.972 142.772C286.782 143.113 298.763 155.094 299.104 169.904C284.294 169.565 272.313 157.581 271.972 142.772ZM186.696 169.904C187.037 155.094 199.018 143.113 213.828 142.772C213.487 157.581 201.506 169.565 186.696 169.904ZM213.828 198.329C199.018 197.991 187.037 186.007 186.696 171.197C201.506 171.538 213.487 183.519 213.828 198.329ZM213.842 199.608C214.135 213.272 223.905 224.645 236.83 227.402C223.905 230.16 214.135 241.53 213.842 255.197C200.178 255.49 188.805 265.259 186.048 278.181C183.294 265.259 171.921 255.49 158.257 255.197C157.964 241.53 148.191 230.16 135.269 227.402C148.191 224.645 157.964 213.272 158.257 199.608C171.921 199.315 183.294 189.546 186.048 176.621C188.805 189.546 200.178 199.315 213.842 199.608ZM185.403 283.605C170.593 283.267 158.612 271.283 158.271 256.473C173.08 256.814 185.062 268.795 185.403 283.605ZM156.977 255.18C142.168 254.841 130.187 242.857 129.845 228.048C144.655 228.389 156.636 240.37 156.977 255.18ZM129.845 226.754C130.187 211.945 142.168 199.964 156.977 199.622C156.636 214.432 144.655 226.416 129.845 226.754ZM158.271 198.329C158.612 183.519 170.593 171.538 185.403 171.197C185.062 186.007 173.08 197.991 158.271 198.329ZM158.271 142.772C173.08 143.113 185.062 155.094 185.403 169.904C170.593 169.565 158.612 157.581 158.271 142.772ZM128.552 226.754C113.742 226.416 101.761 214.432 101.42 199.622C116.23 199.964 128.211 211.945 128.552 226.754ZM101.42 255.18C101.761 240.37 113.742 228.389 128.552 228.048C128.211 242.857 116.23 254.841 101.42 255.18ZM185.403 284.898C185.062 299.708 173.08 311.692 158.271 312.03C158.612 297.221 170.593 285.239 185.403 284.898ZM156.977 313.324C156.636 328.133 144.655 340.117 129.845 340.456C130.187 325.646 142.168 313.665 156.977 313.324ZM156.977 368.881C142.168 368.543 130.187 356.559 129.845 341.749C144.655 342.09 156.636 354.071 156.977 368.881ZM128.552 340.456C113.742 340.117 101.761 328.133 101.42 313.324C116.23 313.665 128.211 325.646 128.552 340.456ZM101.42 368.881C101.761 354.071 113.742 342.09 128.552 341.749C128.211 356.559 116.23 368.543 101.42 368.881ZM185.403 398.6C185.062 413.409 173.08 425.393 158.271 425.731C158.612 410.922 170.593 398.941 185.403 398.6ZM158.271 370.174C173.08 370.515 185.062 382.497 185.403 397.306C170.593 396.968 158.612 384.984 158.271 370.174ZM158.257 368.898C157.964 355.231 148.191 343.861 135.269 341.104C148.191 338.346 157.964 326.973 158.257 313.309C171.921 313.017 183.294 303.247 186.048 290.322C188.805 303.247 200.178 313.017 213.842 313.309C214.135 326.973 223.905 338.346 236.83 341.104C223.905 343.861 214.135 355.231 213.842 368.898C200.178 369.191 188.805 378.961 186.048 391.883C183.294 378.961 171.921 369.191 158.257 368.898ZM242.253 341.749C241.912 356.559 229.931 368.543 215.121 368.881C215.462 354.071 227.444 342.09 242.253 341.749ZM213.828 370.174C213.487 384.984 201.506 396.968 186.696 397.306C187.037 382.497 199.018 370.515 213.828 370.174ZM213.828 425.731C199.018 425.393 187.037 413.409 186.696 398.6C201.506 398.941 213.487 410.922 213.828 425.731ZM299.104 398.6C298.763 413.409 286.782 425.393 271.972 425.731C272.313 410.922 284.294 398.941 299.104 398.6ZM271.972 370.174C286.782 370.515 298.763 382.497 299.104 397.306C284.294 396.968 272.313 384.984 271.972 370.174ZM271.958 368.898C271.665 355.231 261.892 343.861 248.97 341.104C261.892 338.346 271.665 326.973 271.958 313.309C285.622 313.017 296.995 303.247 299.749 290.322C302.506 303.247 313.879 313.017 327.543 313.309C327.836 326.973 337.606 338.346 350.531 341.104C337.606 343.861 327.836 355.231 327.543 368.898C313.879 369.191 302.506 378.961 299.749 391.883C296.995 378.961 285.622 369.191 271.958 368.898ZM355.954 341.749C355.613 356.559 343.632 368.543 328.823 368.881C329.164 354.071 341.145 342.09 355.954 341.749ZM327.529 370.174C327.188 384.984 315.207 396.968 300.397 397.306C300.738 382.497 312.72 370.515 327.529 370.174ZM327.529 425.731C312.72 425.393 300.738 413.409 300.397 398.6C315.207 398.941 327.188 410.922 327.529 425.731ZM412.805 398.6C412.464 413.409 400.483 425.393 385.673 425.731C386.014 410.922 397.996 398.941 412.805 398.6ZM385.673 370.174C400.483 370.515 412.464 382.497 412.805 397.306C397.996 396.968 386.014 384.984 385.673 370.174ZM385.659 368.898C385.366 355.231 375.594 343.861 362.671 341.104C375.594 338.346 385.366 326.973 385.659 313.309C399.323 313.017 410.696 303.247 413.45 290.322C416.208 303.247 427.581 313.017 441.245 313.309C441.537 326.973 451.307 338.346 464.232 341.104C451.307 343.861 441.537 355.231 441.245 368.898C427.581 369.191 416.208 378.961 413.45 391.883C410.696 378.961 399.323 369.191 385.659 368.898ZM442.524 313.324C457.333 313.665 469.315 325.646 469.656 340.456C454.846 340.117 442.865 328.133 442.524 313.324ZM469.656 341.749C469.315 356.559 457.333 368.543 442.524 368.881C442.865 354.071 454.846 342.09 469.656 341.749ZM441.23 370.174C440.889 384.984 428.908 396.968 414.098 397.306C414.44 382.497 426.421 370.515 441.23 370.174ZM441.23 425.731C426.421 425.393 414.44 413.409 414.098 398.6C428.908 398.941 440.889 410.922 441.23 425.731ZM470.949 341.749C485.759 342.09 497.74 354.071 498.081 368.881C483.271 368.543 471.29 356.559 470.949 341.749ZM498.081 313.324C497.74 328.133 485.759 340.117 470.949 340.456C471.29 325.646 483.271 313.665 498.081 313.324ZM470.949 228.048C485.759 228.389 497.74 240.37 498.081 255.18C483.271 254.841 471.29 242.857 470.949 228.048ZM498.081 199.622C497.74 214.432 485.759 226.416 470.949 226.754C471.29 211.945 483.271 199.964 498.081 199.622ZM414.098 169.904C414.44 155.094 426.421 143.113 441.23 142.772C440.889 157.581 428.908 169.565 414.098 169.904ZM442.524 141.478C442.865 126.669 454.846 114.688 469.656 114.346C469.315 129.156 457.333 141.14 442.524 141.478ZM442.524 85.9212C457.333 86.2623 469.315 98.2435 469.656 113.053C454.846 112.715 442.865 100.731 442.524 85.9212ZM470.949 114.346C485.759 114.688 497.74 126.669 498.081 141.478C483.271 141.14 471.29 129.156 470.949 114.346ZM498.081 85.9212C497.74 100.731 485.759 112.715 470.949 113.053C471.29 98.2435 483.271 86.2623 498.081 85.9212ZM441.23 29.0706C440.889 43.8801 428.908 55.8643 414.098 56.2025C414.44 41.3929 426.421 29.4117 441.23 29.0706ZM441.23 84.6278C426.421 84.2896 414.44 72.3055 414.098 57.4959C428.908 57.837 440.889 69.8182 441.23 84.6278ZM441.245 85.907C441.537 99.571 451.307 110.944 464.232 113.701C451.307 116.458 441.537 127.829 441.245 141.495C427.581 141.788 416.208 151.558 413.45 164.48C410.696 151.558 399.323 141.788 385.659 141.495C385.366 127.829 375.594 116.458 362.671 113.701C375.594 110.944 385.366 99.571 385.659 85.907C399.323 85.6142 410.696 75.8444 413.45 62.9194C416.208 75.8444 427.581 85.6142 441.245 85.907ZM357.248 113.053C357.589 98.2435 369.57 86.2623 384.38 85.9212C384.039 100.731 372.057 112.715 357.248 113.053ZM385.673 84.6278C386.014 69.8182 397.996 57.837 412.805 57.4959C412.464 72.3055 400.483 84.2896 385.673 84.6278ZM412.805 56.2025C397.996 55.8643 386.014 43.8801 385.673 29.0706C400.483 29.4117 412.464 41.3929 412.805 56.2025ZM384.38 27.7772C369.57 27.4389 357.589 15.4548 357.248 0.645254C372.057 0.986358 384.039 12.9676 384.38 27.7772ZM355.954 0.645254C355.613 15.4548 343.632 27.4389 328.823 27.7772C329.164 12.9676 341.145 0.986358 355.954 0.645254ZM328.808 29.0563C342.472 28.7636 353.845 18.9938 356.6 6.0688C359.357 18.9938 370.73 28.7636 384.394 29.0563C384.687 42.7204 394.457 54.0934 407.382 56.8506C394.457 59.6079 384.687 70.978 384.394 84.6449C370.73 84.9377 359.357 94.7074 356.6 107.63C353.845 94.7074 342.472 84.9377 328.808 84.6449C328.516 70.978 318.743 59.6079 305.821 56.8506C318.743 54.0934 328.516 42.7204 328.808 29.0563ZM327.529 29.0706C327.188 43.8801 315.207 55.8643 300.397 56.2025C300.738 41.3929 312.72 29.4117 327.529 29.0706ZM327.529 84.6278C312.72 84.2896 300.738 72.3055 300.397 57.4959C315.207 57.837 327.188 69.8182 327.529 84.6278ZM327.543 85.907C327.836 99.571 337.606 110.944 350.531 113.701C337.606 116.458 327.836 127.829 327.543 141.495C313.879 141.788 302.506 151.558 299.749 164.48C296.995 151.558 285.622 141.788 271.958 141.495C271.665 127.829 261.892 116.458 248.97 113.701C261.892 110.944 271.665 99.571 271.958 85.907C285.622 85.6142 296.995 75.8444 299.749 62.9194C302.506 75.8444 313.879 85.6142 327.543 85.907ZM243.547 113.053C243.888 98.2435 255.869 86.2623 270.679 85.9212C270.337 100.731 258.356 112.715 243.547 113.053ZM271.972 84.6278C272.313 69.8182 284.294 57.837 299.104 57.4959C298.763 72.3055 286.782 84.2896 271.972 84.6278ZM299.104 56.2025C284.294 55.8643 272.313 43.8801 271.972 29.0706C286.782 29.4117 298.763 41.3929 299.104 56.2025ZM270.679 27.7772C255.869 27.4389 243.888 15.4548 243.547 0.645254C258.356 0.986358 270.337 12.9676 270.679 27.7772ZM242.253 0.645254C241.912 15.4548 229.931 27.4389 215.121 27.7772C215.462 12.9676 227.444 0.986358 242.253 0.645254ZM215.107 29.0563C228.771 28.7636 240.144 18.9938 242.899 6.0688C245.656 18.9938 257.029 28.7636 270.693 29.0563C270.986 42.7204 280.755 54.0934 293.68 56.8506C280.755 59.6079 270.986 70.978 270.693 84.6449C257.029 84.9377 245.656 94.7074 242.899 107.63C240.144 94.7074 228.771 84.9377 215.107 84.6449C214.814 70.978 205.042 59.6079 192.12 56.8506C205.042 54.0934 214.814 42.7204 215.107 29.0563ZM213.828 29.0706C213.487 43.8801 201.506 55.8643 186.696 56.2025C187.037 41.3929 199.018 29.4117 213.828 29.0706ZM213.828 84.6278C199.018 84.2896 187.037 72.3055 186.696 57.4959C201.506 57.837 213.487 69.8182 213.828 84.6278ZM213.842 85.907C214.135 99.571 223.905 110.944 236.83 113.701C223.905 116.458 214.135 127.829 213.842 141.495C200.178 141.788 188.805 151.558 186.048 164.48C183.294 151.558 171.921 141.788 158.257 141.495C157.964 127.829 148.191 116.458 135.269 113.701C148.191 110.944 157.964 99.571 158.257 85.907C171.921 85.6142 183.294 75.8444 186.048 62.9194C188.805 75.8444 200.178 85.6142 213.842 85.907ZM129.845 113.053C130.187 98.2435 142.168 86.2623 156.977 85.9212C156.636 100.731 144.655 112.715 129.845 113.053ZM158.271 84.6278C158.612 69.8182 170.593 57.837 185.403 57.4959C185.062 72.3055 173.08 84.2896 158.271 84.6278ZM185.403 56.2025C170.593 55.8643 158.612 43.8801 158.271 29.0706C173.08 29.4117 185.062 41.3929 185.403 56.2025ZM156.977 27.7772C142.168 27.4389 130.187 15.4548 129.845 0.645254C144.655 0.986358 156.636 12.9676 156.977 27.7772ZM128.552 0.645254C128.211 15.4548 116.23 27.4389 101.42 27.7772C101.761 12.9676 113.742 0.986358 128.552 0.645254ZM101.406 29.0563C115.07 28.7636 126.443 18.9938 129.197 6.0688C131.955 18.9938 143.328 28.7636 156.992 29.0563C157.284 42.7204 167.054 54.0934 179.979 56.8506C167.054 59.6079 157.284 70.978 156.992 84.6449C143.328 84.9377 131.955 94.7074 129.197 107.63C126.443 94.7074 115.07 84.9377 101.406 84.6449C101.113 70.978 91.3405 59.6079 78.4184 56.8506C91.3405 54.0934 101.113 42.7204 101.406 29.0563ZM100.127 29.0706C99.7856 43.8801 87.8044 55.8643 72.9948 56.2025C73.3359 41.3929 85.3172 29.4117 100.127 29.0706ZM100.127 84.6278C85.3172 84.2896 73.3359 72.3055 72.9948 57.4959C87.8044 57.837 99.7856 69.8182 100.127 84.6278ZM44.5695 29.0706C59.3791 29.4117 71.3603 41.3929 71.7014 56.2025C56.8919 55.8643 44.9106 43.8801 44.5695 29.0706ZM71.7014 57.4959C71.3603 72.3055 59.3791 84.2896 44.5695 84.6278C44.9106 69.8182 56.8919 57.837 71.7014 57.4959ZM43.2761 85.9212C42.935 100.731 30.9538 112.715 16.1442 113.053C16.4853 98.2435 28.4666 86.2623 43.2761 85.9212ZM16.1442 114.346C30.9538 114.688 42.935 126.669 43.2761 141.478C28.4666 141.14 16.4853 129.156 16.1442 114.346ZM21.5677 113.701C34.4899 110.944 44.2625 99.571 44.5553 85.907C58.2193 85.6142 69.5923 75.8444 72.3467 62.9194C75.104 75.8444 86.4769 85.6142 100.141 85.907C100.434 99.571 110.203 110.944 123.128 113.701C110.203 116.458 100.434 127.829 100.141 141.495C86.4769 141.788 75.104 151.558 72.3467 164.48C69.5923 151.558 58.2193 141.788 44.5553 141.495C44.2625 127.829 34.4899 116.458 21.5677 113.701ZM44.5695 142.772C59.3791 143.113 71.3603 155.094 71.7014 169.904C56.8919 169.565 44.9106 157.581 44.5695 142.772ZM71.7014 171.197C71.3603 186.007 59.3791 197.991 44.5695 198.329C44.9106 183.519 56.8919 171.538 71.7014 171.197ZM43.2761 199.622C42.935 214.432 30.9538 226.416 16.1442 226.754C16.4853 211.945 28.4666 199.964 43.2761 199.622ZM16.1442 228.048C30.9538 228.389 42.935 240.37 43.2761 255.18C28.4666 254.841 16.4853 242.857 16.1442 228.048ZM21.5677 227.402C34.4899 224.645 44.2625 213.272 44.5553 199.608C58.2193 199.315 69.5923 189.546 72.3467 176.621C75.104 189.546 86.4769 199.315 100.141 199.608C100.434 213.272 110.203 224.645 123.128 227.402C110.203 230.16 100.434 241.53 100.141 255.197C86.4769 255.49 75.104 265.259 72.3467 278.181C69.5923 265.259 58.2193 255.49 44.5553 255.197C44.2625 241.53 34.4899 230.16 21.5677 227.402ZM44.5695 256.473C59.3791 256.814 71.3603 268.795 71.7014 283.605C56.8919 283.267 44.9106 271.283 44.5695 256.473ZM71.7014 284.898C71.3603 299.708 59.3791 311.692 44.5695 312.03C44.9106 297.221 56.8919 285.239 71.7014 284.898ZM43.2761 313.324C42.935 328.133 30.9538 340.117 16.1442 340.456C16.4853 325.646 28.4666 313.665 43.2761 313.324ZM16.1442 341.749C30.9538 342.09 42.935 354.071 43.2761 368.881C28.4666 368.543 16.4853 356.559 16.1442 341.749ZM21.5677 341.104C34.4899 338.346 44.2625 326.973 44.5553 313.309C58.2193 313.017 69.5923 303.247 72.3467 290.322C75.104 303.247 86.4769 313.017 100.141 313.309C100.434 326.973 110.203 338.346 123.128 341.104C110.203 343.861 100.434 355.231 100.141 368.898C86.4769 369.191 75.104 378.961 72.3467 391.883C69.5923 378.961 58.2193 369.191 44.5553 368.898C44.2625 355.231 34.4899 343.861 21.5677 341.104ZM44.5695 370.174C59.3791 370.515 71.3603 382.497 71.7014 397.306C56.8919 396.968 44.9106 384.984 44.5695 370.174ZM71.7014 398.6C71.3603 413.409 59.3791 425.393 44.5695 425.731C44.9106 410.922 56.8919 398.941 71.7014 398.6ZM43.2761 427.025C42.935 441.834 30.9538 453.819 16.1442 454.157C16.4853 439.347 28.4666 427.366 43.2761 427.025ZM16.1442 455.45C30.9538 455.791 42.935 467.773 43.2761 482.582C28.4666 482.244 16.4853 470.26 16.1442 455.45ZM44.5695 539.433C44.9106 524.623 56.8919 512.642 71.7014 512.301C71.3603 527.11 59.3791 539.094 44.5695 539.433ZM44.5695 483.875C59.3791 484.217 71.3603 496.198 71.7014 511.007C56.8919 510.669 44.9106 498.685 44.5695 483.875ZM44.5553 482.599C44.2625 468.932 34.4899 457.562 21.5677 454.805C34.4899 452.048 44.2625 440.675 44.5553 427.011C58.2193 426.718 69.5923 416.948 72.3467 404.023C75.104 416.948 86.4769 426.718 100.141 427.011C100.434 440.675 110.203 452.048 123.128 454.805C110.203 457.562 100.434 468.932 100.141 482.599C86.4769 482.892 75.104 492.662 72.3467 505.584C69.5923 492.662 58.2193 482.892 44.5553 482.599ZM128.552 455.45C128.211 470.26 116.23 482.244 101.42 482.582C101.761 467.773 113.742 455.791 128.552 455.45ZM100.127 483.875C99.7856 498.685 87.8044 510.669 72.9948 511.007C73.3359 496.198 85.3172 484.217 100.127 483.875ZM72.9948 512.301C87.8044 512.642 99.7856 524.623 100.127 539.433C85.3172 539.094 73.3359 527.11 72.9948 512.301ZM101.42 540.726C116.23 541.067 128.211 553.048 128.552 567.858C113.742 567.52 101.761 555.536 101.42 540.726ZM129.845 567.858C130.187 553.048 142.168 541.067 156.977 540.726C156.636 555.536 144.655 567.52 129.845 567.858ZM156.992 539.45C143.328 539.743 131.955 549.512 129.197 562.435C126.443 549.512 115.07 539.743 101.406 539.45C101.113 525.783 91.3405 514.413 78.4184 511.656C91.3405 508.898 101.113 497.525 101.406 483.861C115.07 483.568 126.443 473.799 129.197 460.874C131.955 473.799 143.328 483.568 156.992 483.861C157.284 497.525 167.054 508.898 179.979 511.656C167.054 514.413 157.284 525.783 156.992 539.45ZM158.271 539.433C158.612 524.623 170.593 512.642 185.403 512.301C185.062 527.11 173.08 539.094 158.271 539.433ZM158.271 483.875C173.08 484.217 185.062 496.198 185.403 511.007C170.593 510.669 158.612 498.685 158.271 483.875ZM158.257 482.599C157.964 468.932 148.191 457.562 135.269 454.805C148.191 452.048 157.964 440.675 158.257 427.011C171.921 426.718 183.294 416.948 186.048 404.023C188.805 416.948 200.178 426.718 213.842 427.011C214.135 440.675 223.905 452.048 236.83 454.805C223.905 457.562 214.135 468.932 213.842 482.599C200.178 482.892 188.805 492.662 186.048 505.584C183.294 492.662 171.921 482.892 158.257 482.599ZM242.253 455.45C241.912 470.26 229.931 482.244 215.121 482.582C215.462 467.773 227.444 455.791 242.253 455.45ZM213.828 483.875C213.487 498.685 201.506 510.669 186.696 511.007C187.037 496.198 199.018 484.217 213.828 483.875ZM186.696 512.301C201.506 512.642 213.487 524.623 213.828 539.433C199.018 539.094 187.037 527.11 186.696 512.301ZM215.121 540.726C229.931 541.067 241.912 553.048 242.253 567.858C227.444 567.52 215.462 555.536 215.121 540.726ZM243.547 567.858C243.888 553.048 255.869 541.067 270.679 540.726C270.337 555.536 258.356 567.52 243.547 567.858ZM270.693 539.45C257.029 539.743 245.656 549.512 242.899 562.435C240.144 549.512 228.771 539.743 215.107 539.45C214.814 525.783 205.042 514.413 192.12 511.656C205.042 508.898 214.814 497.525 215.107 483.861C228.771 483.568 240.144 473.799 242.899 460.874C245.656 473.799 257.029 483.568 270.693 483.861C270.986 497.525 280.755 508.898 293.68 511.656C280.755 514.413 270.986 525.783 270.693 539.45ZM271.972 539.433C272.313 524.623 284.294 512.642 299.104 512.301C298.763 527.11 286.782 539.094 271.972 539.433ZM271.972 483.875C286.782 484.217 298.763 496.198 299.104 511.007C284.294 510.669 272.313 498.685 271.972 483.875ZM271.958 482.599C271.665 468.932 261.892 457.562 248.97 454.805C261.892 452.048 271.665 440.675 271.958 427.011C285.622 426.718 296.995 416.948 299.749 404.023C302.506 416.948 313.879 426.718 327.543 427.011C327.836 440.675 337.606 452.048 350.531 454.805C337.606 457.562 327.836 468.932 327.543 482.599C313.879 482.892 302.506 492.662 299.749 505.584C296.995 492.662 285.622 482.892 271.958 482.599ZM355.954 455.45C355.613 470.26 343.632 482.244 328.823 482.582C329.164 467.773 341.145 455.791 355.954 455.45ZM327.529 483.875C327.188 498.685 315.207 510.669 300.397 511.007C300.738 496.198 312.72 484.217 327.529 483.875ZM300.397 512.301C315.207 512.642 327.188 524.623 327.529 539.433C312.72 539.094 300.738 527.11 300.397 512.301ZM328.823 540.726C343.632 541.067 355.613 553.048 355.954 567.858C341.145 567.52 329.164 555.536 328.823 540.726ZM357.248 567.858C357.589 553.048 369.57 541.067 384.38 540.726C384.039 555.536 372.057 567.52 357.248 567.858ZM384.394 539.45C370.73 539.743 359.357 549.512 356.6 562.435C353.845 549.512 342.472 539.743 328.808 539.45C328.516 525.783 318.743 514.413 305.821 511.656C318.743 508.898 328.516 497.525 328.808 483.861C342.472 483.568 353.845 473.799 356.6 460.874C359.357 473.799 370.73 483.568 384.394 483.861C384.687 497.525 394.457 508.898 407.382 511.656C394.457 514.413 384.687 525.783 384.394 539.45ZM385.673 539.433C386.014 524.623 397.996 512.642 412.805 512.301C412.464 527.11 400.483 539.094 385.673 539.433ZM385.673 483.875C400.483 484.217 412.464 496.198 412.805 511.007C397.996 510.669 386.014 498.685 385.673 483.875ZM385.659 482.599C385.366 468.932 375.594 457.562 362.671 454.805C375.594 452.048 385.366 440.675 385.659 427.011C399.323 426.718 410.696 416.948 413.45 404.023C416.208 416.948 427.581 426.718 441.245 427.011C441.537 440.675 451.307 452.048 464.232 454.805C451.307 457.562 441.537 468.932 441.245 482.599C427.581 482.892 416.208 492.662 413.45 505.584C410.696 492.662 399.323 482.892 385.659 482.599ZM469.656 455.45C469.315 470.26 457.333 482.244 442.524 482.582C442.865 467.773 454.846 455.791 469.656 455.45ZM441.23 483.875C440.889 498.685 428.908 510.669 414.098 511.007C414.44 496.198 426.421 484.217 441.23 483.875ZM414.098 512.301C428.908 512.642 440.889 524.623 441.23 539.433C426.421 539.094 414.44 527.11 414.098 512.301ZM442.524 540.726C457.333 541.067 469.315 553.048 469.656 567.858C454.846 567.52 442.865 555.536 442.524 540.726ZM470.949 567.858C471.29 553.048 483.271 541.067 498.081 540.726C497.74 555.536 485.759 567.52 470.949 567.858ZM498.095 539.45C484.431 539.743 473.058 549.512 470.301 562.435C467.547 549.512 456.174 539.743 442.51 539.45C442.217 525.783 432.444 514.413 419.522 511.656C432.444 508.898 442.217 497.525 442.51 483.861C456.174 483.568 467.547 473.799 470.301 460.874C473.058 473.799 484.431 483.568 498.095 483.861C498.388 497.525 508.158 508.898 521.083 511.656C508.158 514.413 498.388 525.783 498.095 539.45ZM499.374 539.433C499.716 524.623 511.697 512.642 526.506 512.301C526.165 527.11 514.184 539.094 499.374 539.433ZM499.374 483.875C514.184 484.217 526.165 496.198 526.506 511.007C511.697 510.669 499.716 498.685 499.374 483.875ZM554.932 539.433C540.122 539.094 528.141 527.11 527.8 512.301C542.609 512.642 554.591 524.623 554.932 539.433ZM527.8 511.007C528.141 496.198 540.122 484.217 554.932 483.875C554.591 498.685 542.609 510.669 527.8 511.007ZM556.225 482.582C556.566 467.773 568.547 455.791 583.357 455.45C583.016 470.26 571.035 482.244 556.225 482.582ZM583.357 454.157C568.547 453.819 556.566 441.834 556.225 427.025C571.035 427.366 583.016 439.347 583.357 454.157ZM577.933 454.805C565.008 457.562 555.239 468.932 554.946 482.599C541.282 482.892 529.909 492.662 527.152 505.584C524.397 492.662 513.024 482.892 499.36 482.599C499.067 468.932 489.295 457.562 476.373 454.805C489.295 452.048 499.067 440.675 499.36 427.011C513.024 426.718 524.397 416.948 527.152 404.023C529.909 416.948 541.282 426.718 554.946 427.011C555.239 440.675 565.008 452.048 577.933 454.805ZM554.932 425.731C540.122 425.393 528.141 413.409 527.8 398.6C542.609 398.941 554.591 410.922 554.932 425.731ZM527.8 397.306C528.141 382.497 540.122 370.515 554.932 370.174C554.591 384.984 542.609 396.968 527.8 397.306ZM556.225 368.881C556.566 354.071 568.547 342.09 583.357 341.749C583.016 356.559 571.035 368.543 556.225 368.881ZM583.357 340.456C568.547 340.117 556.566 328.133 556.225 313.324C571.035 313.665 583.016 325.646 583.357 340.456ZM577.933 341.104C565.008 343.861 555.239 355.231 554.946 368.898C541.282 369.191 529.909 378.961 527.152 391.883C524.397 378.961 513.024 369.191 499.36 368.898C499.067 355.231 489.295 343.861 476.373 341.104C489.295 338.346 499.067 326.973 499.36 313.309C513.024 313.017 524.397 303.247 527.152 290.322C529.909 303.247 541.282 313.017 554.946 313.309C555.239 326.973 565.008 338.346 577.933 341.104ZM554.932 312.03C540.122 311.692 528.141 299.708 527.8 284.898C542.609 285.239 554.591 297.221 554.932 312.03ZM527.8 283.605C528.141 268.795 540.122 256.814 554.932 256.473C554.591 271.283 542.609 283.267 527.8 283.605ZM556.225 255.18C556.566 240.37 568.547 228.389 583.357 228.048C583.016 242.857 571.035 254.841 556.225 255.18ZM583.357 226.754C568.547 226.416 556.566 214.432 556.225 199.622C571.035 199.964 583.016 211.945 583.357 226.754ZM577.933 227.402C565.008 230.16 555.239 241.53 554.946 255.197C541.282 255.49 529.909 265.259 527.152 278.181C524.397 265.259 513.024 255.49 499.36 255.197C499.067 241.53 489.295 230.16 476.373 227.402C489.295 224.645 499.067 213.272 499.36 199.608C513.024 199.315 524.397 189.546 527.152 176.621C529.909 189.546 541.282 199.315 554.946 199.608C555.239 213.272 565.008 224.645 577.933 227.402ZM554.932 198.329C540.122 197.991 528.141 186.007 527.8 171.197C542.609 171.538 554.591 183.519 554.932 198.329ZM527.8 169.904C528.141 155.094 540.122 143.113 554.932 142.772C554.591 157.581 542.609 169.565 527.8 169.904ZM556.225 141.478C556.566 126.669 568.547 114.688 583.357 114.346C583.016 129.156 571.035 141.14 556.225 141.478ZM583.357 113.053C568.547 112.715 556.566 100.731 556.225 85.9212C571.035 86.2623 583.016 98.2435 583.357 113.053ZM577.933 113.701C565.008 116.458 555.239 127.829 554.946 141.495C541.282 141.788 529.909 151.558 527.152 164.48C524.397 151.558 513.024 141.788 499.36 141.495C499.067 127.829 489.295 116.458 476.373 113.701C489.295 110.944 499.067 99.571 499.36 85.907C513.024 85.6142 524.397 75.8444 527.152 62.9194C529.909 75.8444 541.282 85.6142 554.946 85.907C555.239 99.571 565.008 110.944 577.933 113.701ZM554.932 84.6278C540.122 84.2896 528.141 72.3055 527.8 57.4959C542.609 57.837 554.591 69.8182 554.932 84.6278ZM527.8 56.2025C528.141 41.3929 540.122 29.4117 554.932 29.0706C554.591 43.8801 542.609 55.8643 527.8 56.2025Z" fill="#172D2D"/>
<path d="M43.9214 170.444V170.657C28.3074 170.657 15.6041 183.36 15.6041 198.977H15.4961V142.126H15.6041C15.6041 157.74 28.3074 170.444 43.9214 170.444Z" fill="#172D2D"/>
<path d="M72.3472 142.127H72.4552C72.4552 126.513 85.1585 113.807 100.775 113.807V113.594C85.1613 113.594 72.4552 100.89 72.4552 85.2734H72.242C72.242 100.887 59.5387 113.594 43.9219 113.594V113.807C59.5359 113.807 72.242 126.51 72.242 142.127H72.35H72.3472Z" fill="#172D2D"/>
<path d="M43.9214 56.7421V56.9553C28.3074 56.9553 15.6041 69.6586 15.6041 85.2754H15.4961V28.4248H15.6041C15.6041 44.0388 28.3074 56.7421 43.9214 56.7421Z" fill="#172D2D"/>
<path d="M43.9214 284.145V284.359C28.3074 284.359 15.6041 297.062 15.6041 312.679H15.4961V255.828H15.6041C15.6041 271.442 28.3074 284.145 43.9214 284.145Z" fill="#172D2D"/>
<path d="M72.3472 255.827H72.4552C72.4552 240.213 85.1585 227.507 100.775 227.507V227.294C85.1613 227.294 72.4552 214.59 72.4552 198.974H72.242C72.242 214.588 59.5387 227.294 43.9219 227.294V227.507C59.5359 227.507 72.242 240.21 72.242 255.827H72.35H72.3472Z" fill="#172D2D"/>
<path d="M129.195 198.977H129.303C129.303 183.363 142.006 170.657 157.623 170.657V170.444C142.009 170.444 129.303 157.741 129.303 142.124H129.09C129.09 157.738 116.386 170.444 100.77 170.444V170.657C116.384 170.657 129.09 183.361 129.09 198.977H129.198H129.195Z" fill="#172D2D"/>
<path d="M72.3472 369.529H72.4552C72.4552 353.915 85.1585 341.209 100.775 341.209V340.996C85.1613 340.996 72.4552 328.293 72.4552 312.676H72.242C72.242 328.29 59.5387 340.996 43.9219 340.996V341.209C59.5359 341.209 72.242 353.912 72.242 369.529H72.35H72.3472Z" fill="#172D2D"/>
<path d="M129.199 312.679H129.307C129.307 297.065 142.01 284.359 157.627 284.359V284.146C142.013 284.146 129.307 271.443 129.307 255.826H129.094C129.094 271.44 116.39 284.146 100.773 284.146V284.359C116.387 284.359 129.094 297.062 129.094 312.679H129.202H129.199Z" fill="#172D2D"/>
<path d="M186.046 255.827H186.154C186.154 240.213 198.858 227.507 214.475 227.507V227.294C198.861 227.294 186.154 214.59 186.154 198.974H185.941C185.941 214.588 173.238 227.294 157.621 227.294V227.507C173.235 227.507 185.941 240.21 185.941 255.827H186.049H186.046Z" fill="#172D2D"/>
<path d="M186.046 369.529H186.154C186.154 353.915 198.858 341.209 214.475 341.209V340.996C198.861 340.996 186.154 328.293 186.154 312.676H185.941C185.941 328.29 173.238 340.996 157.621 340.996V341.209C173.235 341.209 185.941 353.912 185.941 369.529H186.049H186.046Z" fill="#172D2D"/>
<path d="M242.898 312.679H243.006C243.006 297.065 255.709 284.359 271.326 284.359V284.146C255.712 284.146 243.006 271.443 243.006 255.826H242.793C242.793 271.44 230.09 284.146 214.473 284.146V284.359C230.087 284.359 242.793 297.062 242.793 312.679H242.901H242.898Z" fill="#172D2D"/>
<path d="M100.772 0V0.105174C85.1585 0.105174 72.4552 12.8084 72.4552 28.4253H72.242C72.242 12.8084 59.5387 0.105174 43.9219 0.105174V0L100.772 0Z" fill="#172D2D"/>
<path d="M129.091 85.2758H129.199H129.307C129.307 69.6618 142.01 56.9557 157.627 56.9557V56.7425C142.013 56.7425 129.307 44.0392 129.307 28.4224H129.094C129.094 44.0364 116.39 56.7425 100.773 56.7425V56.9557C116.387 56.9557 129.094 69.659 129.094 85.2758H129.091Z" fill="#172D2D"/>
<path d="M214.472 0V0.105174C198.858 0.105174 186.154 12.8084 186.154 28.4253H185.941C185.941 12.8084 173.238 0.105174 157.621 0.105174V0L214.472 0Z" fill="#172D2D"/>
<path d="M185.938 142.127H186.046H186.154C186.154 126.513 198.858 113.807 214.475 113.807V113.594C198.861 113.594 186.154 100.89 186.154 85.2734H185.941C185.941 100.887 173.238 113.594 157.621 113.594V113.807C173.235 113.807 185.941 126.51 185.941 142.127H185.938Z" fill="#172D2D"/>
<path d="M242.794 85.2758H242.902H243.01C243.01 69.6618 255.713 56.9557 271.33 56.9557V56.7425C255.716 56.7425 243.01 44.0392 243.01 28.4224H242.797C242.797 44.0364 230.093 56.7425 214.477 56.7425V56.9557C230.091 56.9557 242.797 69.659 242.797 85.2758H242.794Z" fill="#172D2D"/>
<path d="M328.171 0V0.105174C312.557 0.105174 299.854 12.8084 299.854 28.4253H299.64C299.64 12.8084 286.937 0.105174 271.32 0.105174V0L328.171 0Z" fill="#172D2D"/>
<path d="M299.645 255.827H299.753H299.861C299.861 240.213 312.565 227.507 328.182 227.507V227.294C312.568 227.294 299.861 214.59 299.861 198.974H299.648C299.648 214.588 286.945 227.294 271.328 227.294V227.507C286.942 227.507 299.648 240.21 299.648 255.827H299.645Z" fill="#172D2D"/>
<path d="M242.794 198.977H242.902H243.01C243.01 183.363 255.713 170.657 271.33 170.657V170.444C255.716 170.444 243.01 157.741 243.01 142.124H242.797C242.797 157.738 230.093 170.444 214.477 170.444V170.657C230.091 170.657 242.797 183.361 242.797 198.977H242.794Z" fill="#172D2D"/>
<path d="M299.645 142.127H299.753H299.861C299.861 126.513 312.565 113.807 328.182 113.807V113.594C312.568 113.594 299.861 100.89 299.861 85.2734H299.648C299.648 100.887 286.945 113.594 271.328 113.594V113.807C286.942 113.807 299.648 126.51 299.648 142.127H299.645Z" fill="#172D2D"/>
<path d="M356.493 85.2758H356.601H356.709C356.709 69.6618 369.412 56.9557 385.029 56.9557V56.7425C369.415 56.7425 356.709 44.0392 356.709 28.4224H356.496C356.496 44.0364 343.793 56.7425 328.176 56.7425V56.9557C343.79 56.9557 356.496 69.659 356.496 85.2758H356.493Z" fill="#172D2D"/>
<path d="M356.493 198.977H356.601H356.709C356.709 183.363 369.412 170.657 385.029 170.657V170.444C369.415 170.444 356.709 157.741 356.709 142.124H356.496C356.496 157.738 343.793 170.444 328.176 170.444V170.657C343.79 170.657 356.496 183.361 356.496 198.977H356.493Z" fill="#172D2D"/>
<path d="M413.349 142.127H413.457H413.565C413.565 126.513 426.268 113.807 441.885 113.807V113.594C426.271 113.594 413.565 100.89 413.565 85.2734H413.351C413.351 100.887 400.648 113.594 385.031 113.594V113.807C400.645 113.807 413.351 126.51 413.351 142.127H413.349Z" fill="#172D2D"/>
<path d="M470.196 85.2758H470.304H470.412C470.412 69.6618 483.116 56.9557 498.732 56.9557V56.7425C483.118 56.7425 470.412 44.0392 470.412 28.4224H470.199C470.199 44.0364 457.496 56.7425 441.879 56.7425V56.9557C457.493 56.9557 470.199 69.659 470.199 85.2758H470.196Z" fill="#172D2D"/>
<path d="M441.87 0V0.105174C426.256 0.105174 413.553 12.8084 413.553 28.4253H413.34C413.34 12.8084 400.636 0.105174 385.02 0.105174V0L441.87 0Z" fill="#172D2D"/>
<path d="M555.577 0V0.105174C539.963 0.105174 527.26 12.8084 527.26 28.4253H527.047C527.047 12.8084 514.343 0.105174 498.727 0.105174V0L555.577 0Z" fill="#172D2D"/>
<path d="M299.854 312.678H299.64C299.64 328.292 286.937 340.998 271.32 340.998V341.211C286.934 341.211 299.64 353.914 299.64 369.531H299.748H299.856C299.856 353.917 312.56 341.211 328.177 341.211V340.998C312.563 340.998 299.856 328.295 299.856 312.678H299.854Z" fill="#172D2D"/>
<path d="M356.496 255.828C356.496 271.442 343.793 284.148 328.176 284.148V284.361C343.79 284.361 356.496 297.065 356.496 312.682H356.604H356.712C356.712 297.068 369.415 284.361 385.032 284.361V284.148C369.418 284.148 356.712 271.445 356.712 255.828H356.499H356.496Z" fill="#172D2D"/>
<path d="M413.347 198.976C413.347 214.59 400.644 227.296 385.027 227.296V227.509C400.641 227.509 413.347 240.213 413.347 255.83H413.455H413.563C413.563 240.216 426.267 227.509 441.884 227.509V227.296C426.27 227.296 413.563 214.593 413.563 198.976H413.35H413.347Z" fill="#172D2D"/>
<path d="M470.195 142.126C470.195 157.74 457.492 170.447 441.875 170.447V170.66C457.489 170.66 470.195 183.363 470.195 198.98H470.303H470.411C470.411 183.366 483.114 170.66 498.731 170.66V170.447C483.117 170.447 470.411 157.743 470.411 142.126H470.198H470.195Z" fill="#172D2D"/>
<path d="M413.34 312.678C413.34 328.292 400.636 340.998 385.02 340.998V341.211C400.634 341.211 413.34 353.914 413.34 369.531H413.448H413.556C413.556 353.917 426.259 341.211 441.876 341.211V340.998C426.262 340.998 413.556 328.295 413.556 312.678H413.342H413.34Z" fill="#172D2D"/>
<path d="M470.195 255.828C470.195 271.442 457.492 284.148 441.875 284.148V284.361C457.489 284.361 470.195 297.065 470.195 312.682H470.303H470.411C470.411 297.068 483.114 284.361 498.731 284.361V284.148C483.117 284.148 470.411 271.445 470.411 255.828H470.198H470.195Z" fill="#172D2D"/>
<path d="M527.047 198.976C527.047 214.59 514.343 227.296 498.727 227.296V227.509C514.341 227.509 527.047 240.213 527.047 255.83H527.155H527.263C527.263 240.216 539.966 227.509 555.583 227.509V227.296C539.969 227.296 527.263 214.593 527.263 198.976H527.05H527.047Z" fill="#172D2D"/>
<path d="M527.047 312.678C527.047 328.292 514.343 340.998 498.727 340.998V341.211C514.341 341.211 527.047 353.914 527.047 369.531H527.155H527.263C527.263 353.917 539.966 341.211 555.583 341.211V340.998C539.969 340.998 527.263 328.295 527.263 312.678H527.05H527.047Z" fill="#172D2D"/>
<path d="M584 255.828V312.679H583.894C583.894 297.062 571.191 284.359 555.574 284.359V284.145C571.191 284.145 583.894 271.442 583.894 255.828H584Z" fill="#172D2D"/>
<path d="M527.047 85.2759C527.047 100.89 514.343 113.596 498.727 113.596V113.809C514.341 113.809 527.047 126.512 527.047 142.129H527.155H527.263C527.263 126.515 539.966 113.809 555.583 113.809V113.596C539.969 113.596 527.263 100.893 527.263 85.2759H527.05H527.047Z" fill="#172D2D"/>
<path d="M584 28.4248V85.2754H583.894C583.894 69.6586 571.191 56.9553 555.574 56.9553V56.7421C571.191 56.7421 583.894 44.0388 583.894 28.4248H584Z" fill="#172D2D"/>
<path d="M584 142.126V198.977H583.894C583.894 183.36 571.191 170.657 555.574 170.657V170.444C571.191 170.444 583.894 157.74 583.894 142.126H584Z" fill="#172D2D"/>
</g>
<defs>
<radialGradient id="paint0_radial_580_16249" cx="0" cy="0" r="1" gradientUnits="userSpaceOnUse" gradientTransform="translate(2194 -3602) rotate(116.734) scale(4335.43 2424.24)">
<stop stop-color="#D9D9D9"/>
<stop offset="1" stop-color="#D9D9D9" stop-opacity="0"/>
</radialGradient>
</defs>
</svg>
