<svg width="395" height="366" viewBox="0 0 395 366" fill="none" xmlns="http://www.w3.org/2000/svg">
<mask id="mask0_395_13370" style="mask-type:alpha" maskUnits="userSpaceOnUse" x="0" y="0" width="395" height="366">
<rect width="395" height="366" fill="url(#paint0_linear_395_13370)"/>
</mask>
<g mask="url(#mask0_395_13370)">
<g opacity="0.4">
<path d="M152.954 44.4791C151.191 43.5412 149.419 42.6419 147.617 41.791C149.722 42.6709 151.113 43.4542 151.593 43.7056C152.053 43.957 152.503 44.218 152.964 44.4791H152.954Z" fill="#B9C0C0"/>
<path d="M269.573 231.998C269.573 241.377 272.353 301.966 234.924 361.482C228.992 370.919 222.699 379.235 216.307 386.555C214.8 388.266 213.283 389.939 211.766 391.544C208.017 395.538 204.249 399.183 200.49 402.538C198.767 404.076 197.045 405.545 195.342 406.957C169.091 428.714 145.042 435.782 139.11 436.797C131.985 438.016 127.59 437.667 123.812 437.078C120.817 436.613 112.379 434.709 107.143 428.162C107.045 428.046 106.967 427.95 106.928 427.892C105.841 426.47 102.024 421.113 102.582 414.229C102.758 412.111 103.14 407.673 106.751 404.936C107.025 404.753 111.822 401.252 116.441 403.728C118.976 405.081 121.443 408.185 120.699 411.695C119.955 415.118 116.353 417.69 112.242 417.333C112.634 418.261 113.515 420.021 115.179 421.684C122.833 429.265 137.838 425.3 141.254 424.391C143.691 423.753 145.825 422.989 147.498 422.264C147.528 422.254 147.567 422.235 147.606 422.225C149.71 421.345 151.1 420.562 151.58 420.311C152.04 420.059 152.49 419.798 152.95 419.537C153.195 419.402 153.44 419.257 153.694 419.121C163.179 413.648 171.772 407.421 179.417 401.02C179.456 400.991 179.495 400.952 179.534 400.914C181.218 399.444 182.852 397.916 184.477 396.34C186.092 394.803 187.658 393.198 189.224 391.563C193.149 387.454 196.908 383.093 200.5 378.471C201.919 376.634 203.319 374.777 204.689 372.863C230.813 336.564 246.914 286.843 246.914 232.017C246.914 177.192 230.813 127.471 204.689 91.172L216.317 77.4607C222.709 84.7805 229.002 93.0962 234.934 102.534C272.363 162.049 269.583 222.638 269.583 232.017L269.573 231.998Z" fill="#B9C0C0"/>
<path d="M195.346 57.0375C191.705 60.3058 188.054 63.8738 184.481 67.6642C182.857 66.0881 181.212 64.5603 179.538 63.0906C179.499 63.0519 179.46 63.0132 179.421 62.9842C171.777 56.583 163.193 50.3655 153.698 44.883C153.444 44.7476 153.199 44.6026 152.955 44.4672C152.495 44.1964 152.044 43.945 151.584 43.6936C151.114 43.4422 149.715 42.659 147.61 41.7791C147.571 41.7694 147.532 41.7501 147.503 41.7404C145.819 41.0152 143.695 40.2513 141.258 39.6131C137.842 38.7042 122.847 34.7397 115.183 42.3206C113.519 43.9837 112.638 45.7435 112.247 46.6718C116.348 46.314 119.96 48.8765 120.703 52.3091C121.447 55.8191 118.981 58.923 116.446 60.2767C111.826 62.7521 107.03 59.2615 106.756 59.0681C103.134 56.3413 102.762 51.8933 102.586 49.7757C102.028 42.8814 105.855 37.5245 106.932 36.1128C106.971 36.0547 107.049 35.9677 107.147 35.842C112.374 29.2958 120.821 27.3909 123.816 26.9268C127.594 26.3369 131.989 25.9888 139.114 27.2072C145.046 28.2225 169.105 35.2909 195.346 57.0471V57.0375Z" fill="#B9C0C0"/>
<path d="M298.397 49.7775C298.221 51.8951 297.839 56.3334 294.228 59.0698C293.954 59.2535 289.158 62.7539 284.538 60.2785C282.003 58.9248 279.536 55.8209 280.28 52.3109C281.024 48.8879 284.626 46.3158 288.737 46.6736C288.345 45.7453 287.464 43.9855 285.8 42.3223C278.146 34.7415 263.141 38.7059 259.725 39.6149C257.288 40.2531 255.154 41.0169 253.481 41.7421C253.451 41.7518 253.412 41.7712 253.373 41.7808C251.269 42.6607 249.879 43.444 249.399 43.6954C248.939 43.9468 248.489 44.2079 248.029 44.4689C247.784 44.6043 247.539 44.7493 247.285 44.8847C237.8 50.3576 229.207 56.5848 221.562 62.986C221.523 63.015 221.484 63.0536 221.445 63.0923C219.761 64.5814 218.127 66.0995 216.502 67.666C214.907 69.2228 213.321 70.8086 211.774 72.4427C207.83 76.5522 204.081 80.9131 200.499 85.5351C199.08 87.3723 197.68 89.2289 196.31 91.1434C170.176 127.443 154.075 177.163 154.075 231.989C154.075 286.815 170.176 336.535 196.31 372.834L195.115 374.362C191.797 378.655 188.274 382.755 184.682 386.545C178.27 379.226 171.996 370.91 166.045 361.473C128.636 301.957 131.396 241.368 131.396 231.989C131.396 222.609 128.636 162.021 166.045 102.505C171.996 93.0676 178.27 84.7519 184.682 77.4321C186.189 75.7206 187.706 74.0478 189.223 72.4427C192.972 68.4492 196.74 64.7845 200.499 61.4485C202.221 59.9111 203.944 58.4413 205.647 57.0296C231.898 35.2733 255.928 28.2049 261.869 27.1896C269.014 25.9713 273.399 26.3194 277.177 26.9092C280.163 27.3733 288.6 29.2782 293.826 35.8244C293.924 35.9405 294.003 36.0372 294.042 36.0952C295.138 37.5166 298.945 42.8735 298.388 49.7581L298.397 49.7775Z" fill="#B9C0C0"/>
<path d="M131.371 231.997C131.371 231.997 128.796 233.447 110.19 245.234C110.19 245.234 69.3056 274.378 48.0756 321.217C47.6645 322.097 45.8832 326.129 44.9044 331.757C44.3073 335.199 41.6841 350.322 50.0234 357.149C51.8538 358.647 53.7233 359.344 54.6825 359.653C53.9386 355.64 56.1996 351.859 59.5862 350.815C63.0413 349.761 66.3986 351.898 68.0038 354.267C70.9206 358.58 67.8374 363.627 67.6808 363.908C65.2534 367.727 60.8097 368.501 58.6955 368.858C51.247 370.135 45.1197 366.219 44.2388 365.648C41.8016 364.024 39.8342 361.964 38.2877 359.663C38.2877 359.663 38.0137 359.257 37.7592 358.85C36.6042 356.975 31.9354 347.141 32.1508 335.789C32.6108 312.688 53.4101 280.934 59.8505 271.255C63.4916 265.782 66.6629 261.392 68.8064 258.501C74.5813 251.191 82.6857 241.879 93.4817 232.006C82.6857 222.144 74.5813 212.822 68.8064 205.512C66.6629 202.621 63.4916 198.231 59.8505 192.758C53.4101 183.079 32.6108 151.324 32.1508 128.224C31.9354 116.872 36.6042 107.038 37.7592 105.162C38.0137 104.747 38.2877 104.35 38.2877 104.35C39.8342 102.049 41.8016 99.9893 44.2388 98.3648C45.1197 97.7847 51.247 93.8782 58.6955 95.1546C60.8097 95.5124 65.2534 96.2956 67.6808 100.105C67.8472 100.386 70.9206 105.433 68.0038 109.746C66.4084 112.115 63.0413 114.261 59.5862 113.198C56.1996 112.153 53.9386 108.382 54.6825 104.36C53.7233 104.669 51.8538 105.366 50.0234 106.864C41.6743 113.691 44.3073 128.814 44.9044 132.256C45.8832 137.874 47.6645 141.906 48.0756 142.786C69.3056 189.625 110.19 218.769 110.19 218.769C128.796 230.566 131.371 232.006 131.371 232.006V231.997Z" fill="#B9C0C0"/>
<path d="M341.13 271.247C347.57 280.926 368.37 312.681 368.83 335.781C369.045 347.133 364.376 356.967 363.221 358.843C362.967 359.259 362.693 359.655 362.693 359.655C361.146 361.956 359.179 364.016 356.742 365.64C355.861 366.221 349.734 370.127 342.285 368.851C340.171 368.493 335.727 367.71 333.3 363.9C333.133 363.619 330.06 358.572 332.977 354.259C334.572 351.89 337.939 349.744 341.394 350.807C344.781 351.852 347.042 355.623 346.298 359.645C347.257 359.336 349.127 358.64 350.957 357.141C359.306 350.314 356.673 335.191 356.076 331.749C355.097 326.131 353.316 322.099 352.905 321.209C331.675 274.37 290.791 245.227 290.791 245.227C272.184 233.43 269.61 231.989 269.61 231.989C269.61 231.989 272.184 230.539 290.791 218.752C290.791 218.752 331.675 189.608 352.905 142.769C353.316 141.889 355.097 137.857 356.076 132.239C356.673 128.797 359.296 113.674 350.957 106.847C349.127 105.348 347.257 104.652 346.298 104.343C347.042 108.355 344.781 112.136 341.394 113.18C337.939 114.234 334.582 112.097 332.977 109.728C330.06 105.416 333.143 100.368 333.3 100.088C335.727 96.2686 340.171 95.495 342.285 95.1373C349.734 93.8609 355.861 97.777 356.742 98.3475C359.179 99.972 361.146 102.032 362.693 104.333C362.693 104.333 362.967 104.739 363.221 105.145C364.376 107.021 369.045 116.855 368.83 128.207C368.37 151.307 347.57 183.062 341.13 192.741C337.489 198.214 334.318 202.604 332.174 205.495C326.399 212.805 318.295 222.117 307.499 231.989C318.295 241.852 326.399 251.173 332.174 258.483C334.318 261.375 337.489 265.765 341.13 271.237V271.247Z" fill="#B9C0C0"/>
</g>
</g>
<defs>
<linearGradient id="paint0_linear_395_13370" x1="366.5" y1="25.5" x2="144.613" y2="194.786" gradientUnits="userSpaceOnUse">
<stop stop-color="#D9D9D9"/>
<stop offset="1" stop-color="#D9D9D9" stop-opacity="0"/>
</linearGradient>
</defs>
</svg>
