<svg width="688" height="284" viewBox="0 0 688 284" fill="none" xmlns="http://www.w3.org/2000/svg">
<mask id="mask0_526_12220" style="mask-type:alpha" maskUnits="userSpaceOnUse" x="0" y="0" width="688" height="284">
<rect width="688" height="284" fill="url(#paint0_radial_526_12220)"/>
</mask>
<g mask="url(#mask0_526_12220)">
<path d="M-18.6901 34.4356C-2.49646 34.0886 10.982 22.5101 14.2463 7.19233V0H7.05402C-8.26379 3.26771 -19.8422 16.7428 -20.1892 32.9398C-36.3829 33.2868 -49.8614 44.8653 -53.1291 60.1797C-56.3934 44.8653 -69.8719 33.2868 -86.0656 32.9398C-86.4125 16.7428 -97.9944 3.26771 -113.309 0H-127.697C-143.015 3.26771 -154.593 16.7428 -154.94 32.9398C-171.134 33.2868 -184.612 44.8653 -187.88 60.1797C-191.144 44.8653 -204.623 33.2868 -220.816 32.9398C-221.163 16.7428 -232.745 3.26771 -248.06 0H-262.448C-277.765 3.26771 -289.344 16.7428 -289.691 32.9398C-305.885 33.2868 -319.363 44.8653 -322.631 60.1797C-325.895 44.8653 -339.374 33.2868 -355.567 32.9398C-355.914 16.7428 -367.496 3.26771 -382.81 0H-397.198C-412.516 3.26771 -424.095 16.7428 -424.442 32.9398C-440.635 33.2868 -454.114 44.8653 -457.382 60.1797C-460.646 44.8653 -474.124 33.2868 -490.318 32.9398C-490.665 16.7428 -502.247 3.26771 -517.561 0H-531.949C-547.267 3.26771 -558.846 16.7428 -559.193 32.9398C-575.386 33.2868 -588.865 44.8653 -592.132 60.1797C-595.397 44.8653 -608.875 33.2868 -625.069 32.9398C-625.416 16.7428 -636.998 3.26771 -652.312 0H-659.508V7.19233C-656.24 22.5101 -642.762 34.0886 -626.568 34.4356C-626.221 50.6293 -614.643 64.1077 -599.325 67.3754C-614.643 70.6431 -626.221 84.1182 -626.568 100.315C-642.762 100.662 -656.24 112.241 -659.508 127.555V141.943C-656.24 157.261 -642.762 168.839 -626.568 169.186C-626.221 185.38 -614.643 198.859 -599.325 202.126C-614.643 205.394 -626.221 218.869 -626.568 235.066C-642.762 235.413 -656.24 246.992 -659.508 262.306V276.694C-656.24 292.012 -642.762 303.59 -626.568 303.937C-626.221 320.131 -614.643 333.609 -599.325 336.877C-614.643 340.145 -626.221 353.62 -626.568 369.817C-642.762 370.164 -656.24 381.742 -659.508 397.057V411.445C-656.24 426.763 -642.762 438.341 -626.568 438.688C-626.221 454.882 -614.643 468.36 -599.325 471.628C-614.643 474.896 -626.221 488.371 -626.568 504.568C-642.762 504.915 -656.24 516.493 -659.508 531.808V546.196C-656.24 561.513 -642.762 573.092 -626.568 573.439C-626.221 589.633 -614.643 603.111 -599.325 606.379C-614.643 609.646 -626.221 623.122 -626.568 639.319C-642.762 639.666 -656.24 651.244 -659.508 666.558V673.754H-652.312C-636.998 670.486 -625.416 657.008 -625.069 640.814C-608.875 640.467 -595.397 628.889 -592.132 613.571C-588.865 628.889 -575.386 640.467 -559.193 640.814C-558.846 657.008 -547.267 670.486 -531.949 673.754H-517.561C-502.247 670.486 -490.665 657.008 -490.318 640.814C-474.124 640.467 -460.646 628.889 -457.382 613.571C-454.114 628.889 -440.635 640.467 -424.442 640.814C-424.095 657.008 -412.516 670.486 -397.198 673.754H-382.81C-367.496 670.486 -355.914 657.008 -355.567 640.814C-339.374 640.467 -325.895 628.889 -322.631 613.571C-319.363 628.889 -305.885 640.467 -289.691 640.814C-289.344 657.008 -277.765 670.486 -262.448 673.754H-248.06C-232.745 670.486 -221.163 657.008 -220.816 640.814C-204.623 640.467 -191.144 628.889 -187.88 613.571C-184.612 628.889 -171.134 640.467 -154.94 640.814C-154.593 657.008 -143.015 670.486 -127.697 673.754H-113.309C-97.9944 670.486 -86.4125 657.008 -86.0656 640.814C-69.8719 640.467 -56.3934 628.889 -53.1291 613.571C-49.8614 628.889 -36.3829 640.467 -20.1892 640.814C-19.8422 657.008 -8.26379 670.486 7.05402 673.754H14.2463V666.558C10.982 651.244 -2.49646 639.666 -18.6901 639.319C-19.0371 623.122 -30.619 609.646 -45.9334 606.379C-30.619 603.111 -19.0371 589.633 -18.6901 573.439C-2.49646 573.092 10.982 561.513 14.2463 546.196V531.808C10.982 516.493 -2.49646 504.915 -18.6901 504.568C-19.0371 488.371 -30.619 474.896 -45.9334 471.628C-30.619 468.36 -19.0371 454.882 -18.6901 438.688C-2.49646 438.341 10.982 426.763 14.2463 411.445V397.057C10.982 381.742 -2.49646 370.164 -18.6901 369.817C-19.0371 353.62 -30.619 340.145 -45.9334 336.877C-30.619 333.609 -19.0371 320.131 -18.6901 303.937C-2.49646 303.59 10.982 292.012 14.2463 276.694V262.306C10.982 246.992 -2.49646 235.413 -18.6901 235.066C-19.0371 218.869 -30.619 205.394 -45.9334 202.126C-30.619 198.859 -19.0371 185.38 -18.6901 169.186C-2.49646 168.839 10.982 157.261 14.2463 141.943V127.555C10.982 112.241 -2.49646 100.662 -18.6901 100.315C-19.0371 84.1182 -30.619 70.6431 -45.9334 67.3754C-30.619 64.1077 -19.0371 50.6293 -18.6901 34.4356ZM13.4816 0.764711C13.0774 18.316 -1.12201 32.5187 -18.6733 32.9196C-18.269 15.3683 -4.06964 1.16896 13.4816 0.764711ZM-658.74 0.764711C-641.188 1.16896 -626.989 15.3683 -626.585 32.9196C-644.136 32.5187 -658.335 18.316 -658.74 0.764711ZM-658.74 672.986C-658.335 655.435 -644.136 641.235 -626.585 640.831C-626.989 658.382 -641.188 672.585 -658.74 672.986ZM13.4816 672.986C-4.06964 672.585 -18.269 658.382 -18.6733 640.831C-1.12201 641.235 13.0774 655.435 13.4816 672.986ZM-53.8938 66.6073C-71.4451 66.2065 -85.6444 52.0037 -86.0487 34.4524C-68.4974 34.8567 -54.298 49.056 -53.8938 66.6073ZM-87.5815 32.9196C-105.133 32.5187 -119.332 18.316 -119.736 0.764711C-102.185 1.16896 -87.9858 15.3683 -87.5815 32.9196ZM-121.269 0.764711C-121.673 18.316 -135.873 32.5187 -153.424 32.9196C-153.02 15.3683 -138.82 1.16896 -121.269 0.764711ZM-153.441 34.4356C-137.247 34.0886 -123.769 22.5101 -120.505 7.19233C-117.237 22.5101 -103.758 34.0886 -87.5646 34.4356C-87.2177 50.6293 -75.6392 64.1077 -60.3214 67.3754C-75.6392 70.6431 -87.2177 84.1182 -87.5646 100.315C-103.758 100.662 -117.237 112.241 -120.505 127.555C-123.769 112.241 -137.247 100.662 -153.441 100.315C-153.788 84.1182 -165.37 70.6431 -180.684 67.3754C-165.37 64.1077 -153.788 50.6293 -153.441 34.4356ZM-53.8938 68.1401C-54.298 85.6914 -68.4974 99.8942 -86.0487 100.295C-85.6444 82.7438 -71.4451 68.5444 -53.8938 68.1401ZM-60.3214 202.126C-75.6392 205.394 -87.2177 218.869 -87.5646 235.066C-103.758 235.413 -117.237 246.992 -120.505 262.306C-123.769 246.992 -137.247 235.413 -153.441 235.066C-153.788 218.869 -165.37 205.394 -180.684 202.126C-165.37 198.859 -153.788 185.38 -153.441 169.186C-137.247 168.839 -123.769 157.261 -120.505 141.943C-117.237 157.261 -103.758 168.839 -87.5646 169.186C-87.2177 185.38 -75.6392 198.859 -60.3214 202.126ZM-86.0487 169.203C-68.4974 169.607 -54.298 183.807 -53.8938 201.358C-71.4451 200.957 -85.6444 186.755 -86.0487 169.203ZM-53.8938 202.891C-54.298 220.442 -68.4974 234.645 -86.0487 235.046C-85.6444 217.495 -71.4451 203.295 -53.8938 202.891ZM-60.3214 336.877C-75.6392 340.145 -87.2177 353.62 -87.5646 369.817C-103.758 370.164 -117.237 381.742 -120.505 397.057C-123.769 381.742 -137.247 370.164 -153.441 369.817C-153.788 353.62 -165.37 340.145 -180.684 336.877C-165.37 333.609 -153.788 320.131 -153.441 303.937C-137.247 303.59 -123.769 292.012 -120.505 276.694C-117.237 292.012 -103.758 303.59 -87.5646 303.937C-87.2177 320.131 -75.6392 333.609 -60.3214 336.877ZM-86.0487 303.954C-68.4974 304.358 -54.298 318.558 -53.8938 336.109C-71.4451 335.708 -85.6444 321.505 -86.0487 303.954ZM-53.8938 337.642C-54.298 355.193 -68.4974 369.396 -86.0487 369.797C-85.6444 352.245 -71.4451 338.046 -53.8938 337.642ZM-60.3214 471.628C-75.6392 474.896 -87.2177 488.371 -87.5646 504.568C-103.758 504.915 -117.237 516.493 -120.505 531.808C-123.769 516.493 -137.247 504.915 -153.441 504.568C-153.788 488.371 -165.37 474.896 -180.684 471.628C-165.37 468.36 -153.788 454.882 -153.441 438.688C-137.247 438.341 -123.769 426.763 -120.505 411.445C-117.237 426.763 -103.758 438.341 -87.5646 438.688C-87.2177 454.882 -75.6392 468.36 -60.3214 471.628ZM-86.0487 438.705C-68.4974 439.109 -54.298 453.309 -53.8938 470.86C-71.4451 470.459 -85.6444 456.256 -86.0487 438.705ZM-53.8938 472.393C-54.298 489.944 -68.4974 504.147 -86.0487 504.548C-85.6444 486.996 -71.4451 472.797 -53.8938 472.393ZM-87.5815 506.08C-87.9858 523.632 -102.185 537.834 -119.736 538.235C-119.332 520.684 -105.133 506.485 -87.5815 506.08ZM-87.5815 571.923C-105.133 571.522 -119.332 557.319 -119.736 539.768C-102.185 540.172 -87.9858 554.372 -87.5815 571.923ZM-121.269 538.235C-138.82 537.834 -153.02 523.632 -153.424 506.08C-135.873 506.485 -121.673 520.684 -121.269 538.235ZM-255.255 531.808C-258.52 516.493 -271.998 504.915 -288.192 504.568C-288.539 488.371 -300.121 474.896 -315.435 471.628C-300.121 468.36 -288.539 454.882 -288.192 438.688C-271.998 438.341 -258.52 426.763 -255.255 411.445C-251.988 426.763 -238.509 438.341 -222.315 438.688C-221.968 454.882 -210.39 468.36 -195.072 471.628C-210.39 474.896 -221.968 488.371 -222.315 504.568C-238.509 504.915 -251.988 516.493 -255.255 531.808ZM-222.332 506.08C-222.737 523.632 -236.936 537.834 -254.487 538.235C-254.083 520.684 -239.884 506.485 -222.332 506.08ZM-222.332 571.923C-239.884 571.522 -254.083 557.319 -254.487 539.768C-236.936 540.172 -222.737 554.372 -222.332 571.923ZM-256.02 538.235C-273.571 537.834 -287.771 523.632 -288.175 506.08C-270.624 506.485 -256.424 520.684 -256.02 538.235ZM-390.006 531.808C-393.27 516.493 -406.749 504.915 -422.943 504.568C-423.29 488.371 -434.871 474.896 -450.186 471.628C-434.871 468.36 -423.29 454.882 -422.943 438.688C-406.749 438.341 -393.27 426.763 -390.006 411.445C-386.738 426.763 -373.26 438.341 -357.066 438.688C-356.719 454.882 -345.141 468.36 -329.823 471.628C-345.141 474.896 -356.719 488.371 -357.066 504.568C-373.26 504.915 -386.738 516.493 -390.006 531.808ZM-357.083 506.08C-357.487 523.632 -371.687 537.834 -389.238 538.235C-388.834 520.684 -374.634 506.485 -357.083 506.08ZM-357.083 571.923C-374.634 571.522 -388.834 557.319 -389.238 539.768C-371.687 540.172 -357.487 554.372 -357.083 571.923ZM-390.771 538.235C-408.322 537.834 -422.522 523.632 -422.926 506.08C-405.374 506.485 -391.175 520.684 -390.771 538.235ZM-524.757 531.808C-528.021 516.493 -541.5 504.915 -557.693 504.568C-558.04 488.371 -569.622 474.896 -584.937 471.628C-569.622 468.36 -558.04 454.882 -557.693 438.688C-541.5 438.341 -528.021 426.763 -524.757 411.445C-521.489 426.763 -508.011 438.341 -491.817 438.688C-491.47 454.882 -479.892 468.36 -464.574 471.628C-479.892 474.896 -491.47 488.371 -491.817 504.568C-508.011 504.915 -521.489 516.493 -524.757 531.808ZM-491.834 506.08C-492.238 523.632 -506.438 537.834 -523.989 538.235C-523.585 520.684 -509.385 506.485 -491.834 506.08ZM-491.834 571.923C-509.385 571.522 -523.585 557.319 -523.989 539.768C-506.438 540.172 -492.238 554.372 -491.834 571.923ZM-525.522 538.235C-543.073 537.834 -557.272 523.632 -557.677 506.08C-540.125 506.485 -525.926 520.684 -525.522 538.235ZM-559.209 504.548C-576.761 504.147 -590.96 489.944 -591.364 472.393C-573.813 472.797 -559.614 486.996 -559.209 504.548ZM-591.364 470.86C-590.96 453.309 -576.761 439.109 -559.209 438.705C-559.614 456.256 -573.813 470.459 -591.364 470.86ZM-584.937 336.877C-569.622 333.609 -558.04 320.131 -557.693 303.937C-541.5 303.59 -528.021 292.012 -524.757 276.694C-521.489 292.012 -508.011 303.59 -491.817 303.937C-491.47 320.131 -479.892 333.609 -464.574 336.877C-479.892 340.145 -491.47 353.62 -491.817 369.817C-508.011 370.164 -521.489 381.742 -524.757 397.057C-528.021 381.742 -541.5 370.164 -557.693 369.817C-558.04 353.62 -569.622 340.145 -584.937 336.877ZM-559.209 369.797C-576.761 369.396 -590.96 355.193 -591.364 337.642C-573.813 338.046 -559.614 352.245 -559.209 369.797ZM-591.364 336.109C-590.96 318.558 -576.761 304.358 -559.209 303.954C-559.614 321.505 -573.813 335.708 -591.364 336.109ZM-584.937 202.126C-569.622 198.859 -558.04 185.38 -557.693 169.186C-541.5 168.839 -528.021 157.261 -524.757 141.943C-521.489 157.261 -508.011 168.839 -491.817 169.186C-491.47 185.38 -479.892 198.859 -464.574 202.126C-479.892 205.394 -491.47 218.869 -491.817 235.066C-508.011 235.413 -521.489 246.992 -524.757 262.306C-528.021 246.992 -541.5 235.413 -557.693 235.066C-558.04 218.869 -569.622 205.394 -584.937 202.126ZM-559.209 235.046C-576.761 234.645 -590.96 220.442 -591.364 202.891C-573.813 203.295 -559.614 217.495 -559.209 235.046ZM-591.364 201.358C-590.96 183.807 -576.761 169.607 -559.209 169.203C-559.614 186.755 -573.813 200.957 -591.364 201.358ZM-557.677 167.67C-557.272 150.119 -543.073 135.92 -525.522 135.516C-525.926 153.067 -540.125 167.27 -557.677 167.67ZM-557.677 101.828C-540.125 102.232 -525.926 116.431 -525.522 133.983C-543.073 133.582 -557.272 119.379 -557.677 101.828ZM-523.989 135.516C-506.438 135.92 -492.238 150.119 -491.834 167.67C-509.385 167.27 -523.585 153.067 -523.989 135.516ZM-390.006 141.943C-386.738 157.261 -373.26 168.839 -357.066 169.186C-356.719 185.38 -345.141 198.859 -329.823 202.126C-345.141 205.394 -356.719 218.869 -357.066 235.066C-373.26 235.413 -386.738 246.992 -390.006 262.306C-393.27 246.992 -406.749 235.413 -422.943 235.066C-423.29 218.869 -434.871 205.394 -450.186 202.126C-434.871 198.859 -423.29 185.38 -422.943 169.186C-406.749 168.839 -393.27 157.261 -390.006 141.943ZM-422.926 167.67C-422.522 150.119 -408.322 135.92 -390.771 135.516C-391.175 153.067 -405.374 167.27 -422.926 167.67ZM-422.926 101.828C-405.374 102.232 -391.175 116.431 -390.771 133.983C-408.322 133.582 -422.522 119.379 -422.926 101.828ZM-389.238 135.516C-371.687 135.92 -357.487 150.119 -357.083 167.67C-374.634 167.27 -388.834 153.067 -389.238 135.516ZM-255.255 141.943C-251.988 157.261 -238.509 168.839 -222.315 169.186C-221.968 185.38 -210.39 198.859 -195.072 202.126C-210.39 205.394 -221.968 218.869 -222.315 235.066C-238.509 235.413 -251.988 246.992 -255.255 262.306C-258.52 246.992 -271.998 235.413 -288.192 235.066C-288.539 218.869 -300.121 205.394 -315.435 202.126C-300.121 198.859 -288.539 185.38 -288.192 169.186C-271.998 168.839 -258.52 157.261 -255.255 141.943ZM-288.175 167.67C-287.771 150.119 -273.571 135.92 -256.02 135.516C-256.424 153.067 -270.624 167.27 -288.175 167.67ZM-288.175 101.828C-270.624 102.232 -256.424 116.431 -256.02 133.983C-273.571 133.582 -287.771 119.379 -288.175 101.828ZM-254.487 135.516C-236.936 135.92 -222.737 150.119 -222.332 167.67C-239.884 167.27 -254.083 153.067 -254.487 135.516ZM-154.94 236.562C-154.593 252.755 -143.015 266.234 -127.697 269.502C-143.015 272.769 -154.593 286.244 -154.94 302.441C-171.134 302.788 -184.612 314.367 -187.88 329.681C-191.144 314.367 -204.623 302.788 -220.816 302.441C-221.163 286.244 -232.745 272.769 -248.06 269.502C-232.745 266.234 -221.163 252.755 -220.816 236.562C-204.623 236.215 -191.144 224.636 -187.88 209.319C-184.612 224.636 -171.134 236.215 -154.94 236.562ZM-187.112 202.891C-169.561 203.295 -155.361 217.495 -154.957 235.046C-172.508 234.645 -186.708 220.442 -187.112 202.891ZM-153.424 236.579C-135.873 236.983 -121.673 251.182 -121.269 268.734C-138.82 268.333 -153.02 254.13 -153.424 236.579ZM-121.269 270.266C-121.673 287.818 -135.873 302.02 -153.424 302.421C-153.02 284.87 -138.82 270.671 -121.269 270.266ZM-154.957 303.954C-155.361 321.505 -169.561 335.708 -187.112 336.109C-186.708 318.558 -172.508 304.358 -154.957 303.954ZM-154.957 369.797C-172.508 369.396 -186.708 355.193 -187.112 337.642C-169.561 338.046 -155.361 352.245 -154.957 369.797ZM-255.255 397.057C-258.52 381.742 -271.998 370.164 -288.192 369.817C-288.539 353.62 -300.121 340.145 -315.435 336.877C-300.121 333.609 -288.539 320.131 -288.192 303.937C-271.998 303.59 -258.52 292.012 -255.255 276.694C-251.988 292.012 -238.509 303.59 -222.315 303.937C-221.968 320.131 -210.39 333.609 -195.072 336.877C-210.39 340.145 -221.968 353.62 -222.315 369.817C-238.509 370.164 -251.988 381.742 -255.255 397.057ZM-222.332 371.329C-222.737 388.881 -236.936 403.084 -254.487 403.484C-254.083 385.933 -239.884 371.734 -222.332 371.329ZM-222.332 437.172C-239.884 436.771 -254.083 422.569 -254.487 405.017C-236.936 405.421 -222.737 419.621 -222.332 437.172ZM-256.02 403.484C-273.571 403.084 -287.771 388.881 -288.175 371.329C-270.624 371.734 -256.424 385.933 -256.02 403.484ZM-289.708 369.797C-307.259 369.396 -321.458 355.193 -321.863 337.642C-304.311 338.046 -290.112 352.245 -289.708 369.797ZM-321.863 336.109C-321.458 318.558 -307.259 304.358 -289.708 303.954C-290.112 321.505 -304.311 335.708 -321.863 336.109ZM-288.175 302.421C-287.771 284.87 -273.571 270.671 -256.02 270.266C-256.424 287.818 -270.624 302.02 -288.175 302.421ZM-288.175 236.579C-270.624 236.983 -256.424 251.182 -256.02 268.734C-273.571 268.333 -287.771 254.13 -288.175 236.579ZM-254.487 270.266C-236.936 270.671 -222.737 284.87 -222.332 302.421C-239.884 302.02 -254.083 287.818 -254.487 270.266ZM-188.645 337.642C-189.049 355.193 -203.248 369.396 -220.8 369.797C-220.395 352.245 -206.196 338.046 -188.645 337.642ZM-220.8 303.954C-203.248 304.358 -189.049 318.558 -188.645 336.109C-206.196 335.708 -220.395 321.505 -220.8 303.954ZM-254.487 268.734C-254.083 251.182 -239.884 236.983 -222.332 236.579C-222.737 254.13 -236.936 268.333 -254.487 268.734ZM-220.8 235.046C-220.395 217.495 -206.196 203.295 -188.645 202.891C-189.049 220.442 -203.248 234.645 -220.8 235.046ZM-220.8 169.203C-203.248 169.607 -189.049 183.807 -188.645 201.358C-206.196 200.957 -220.395 186.755 -220.8 169.203ZM-321.863 201.358C-321.458 183.807 -307.259 169.607 -289.708 169.203C-290.112 186.755 -304.311 200.957 -321.863 201.358ZM-289.708 235.046C-307.259 234.645 -321.458 220.442 -321.863 202.891C-304.311 203.295 -290.112 217.495 -289.708 235.046ZM-289.691 236.562C-289.344 252.755 -277.765 266.234 -262.448 269.502C-277.765 272.769 -289.344 286.244 -289.691 302.441C-305.885 302.788 -319.363 314.367 -322.631 329.681C-325.895 314.367 -339.374 302.788 -355.567 302.441C-355.914 286.244 -367.496 272.769 -382.81 269.502C-367.496 266.234 -355.914 252.755 -355.567 236.562C-339.374 236.215 -325.895 224.636 -322.631 209.319C-319.363 224.636 -305.885 236.215 -289.691 236.562ZM-390.006 397.057C-393.27 381.742 -406.749 370.164 -422.943 369.817C-423.29 353.62 -434.871 340.145 -450.186 336.877C-434.871 333.609 -423.29 320.131 -422.943 303.937C-406.749 303.59 -393.27 292.012 -390.006 276.694C-386.738 292.012 -373.26 303.59 -357.066 303.937C-356.719 320.131 -345.141 333.609 -329.823 336.877C-345.141 340.145 -356.719 353.62 -357.066 369.817C-373.26 370.164 -386.738 381.742 -390.006 397.057ZM-357.083 371.329C-357.487 388.881 -371.687 403.084 -389.238 403.484C-388.834 385.933 -374.634 371.734 -357.083 371.329ZM-357.083 437.172C-374.634 436.771 -388.834 422.569 -389.238 405.017C-371.687 405.421 -357.487 419.621 -357.083 437.172ZM-390.771 403.484C-408.322 403.084 -422.522 388.881 -422.926 371.329C-405.374 371.734 -391.175 385.933 -390.771 403.484ZM-424.459 369.797C-442.01 369.396 -456.209 355.193 -456.613 337.642C-439.062 338.046 -424.863 352.245 -424.459 369.797ZM-456.613 336.109C-456.209 318.558 -442.01 304.358 -424.459 303.954C-424.863 321.505 -439.062 335.708 -456.613 336.109ZM-422.926 302.421C-422.522 284.87 -408.322 270.671 -390.771 270.266C-391.175 287.818 -405.374 302.02 -422.926 302.421ZM-422.926 236.579C-405.374 236.983 -391.175 251.182 -390.771 268.734C-408.322 268.333 -422.522 254.13 -422.926 236.579ZM-389.238 270.266C-371.687 270.671 -357.487 284.87 -357.083 302.421C-374.634 302.02 -388.834 287.818 -389.238 270.266ZM-323.395 337.642C-323.8 355.193 -337.999 369.396 -355.55 369.797C-355.146 352.245 -340.947 338.046 -323.395 337.642ZM-355.55 303.954C-337.999 304.358 -323.8 318.558 -323.395 336.109C-340.947 335.708 -355.146 321.505 -355.55 303.954ZM-389.238 268.734C-388.834 251.182 -374.634 236.983 -357.083 236.579C-357.487 254.13 -371.687 268.333 -389.238 268.734ZM-355.55 235.046C-355.146 217.495 -340.947 203.295 -323.395 202.891C-323.8 220.442 -337.999 234.645 -355.55 235.046ZM-355.55 169.203C-337.999 169.607 -323.8 183.807 -323.395 201.358C-340.947 200.957 -355.146 186.755 -355.55 169.203ZM-456.613 201.358C-456.209 183.807 -442.01 169.607 -424.459 169.203C-424.863 186.755 -439.062 200.957 -456.613 201.358ZM-424.459 235.046C-442.01 234.645 -456.209 220.442 -456.613 202.891C-439.062 203.295 -424.863 217.495 -424.459 235.046ZM-424.442 236.562C-424.095 252.755 -412.516 266.234 -397.198 269.502C-412.516 272.769 -424.095 286.244 -424.442 302.441C-440.635 302.788 -454.114 314.367 -457.382 329.681C-460.646 314.367 -474.124 302.788 -490.318 302.441C-490.665 286.244 -502.247 272.769 -517.561 269.502C-502.247 266.234 -490.665 252.755 -490.318 236.562C-474.124 236.215 -460.646 224.636 -457.382 209.319C-454.114 224.636 -440.635 236.215 -424.442 236.562ZM-458.146 336.109C-475.698 335.708 -489.897 321.505 -490.301 303.954C-472.75 304.358 -458.551 318.558 -458.146 336.109ZM-491.834 302.421C-509.385 302.02 -523.585 287.818 -523.989 270.266C-506.438 270.671 -492.238 284.87 -491.834 302.421ZM-523.989 268.734C-523.585 251.182 -509.385 236.983 -491.834 236.579C-492.238 254.13 -506.438 268.333 -523.989 268.734ZM-490.301 235.046C-489.897 217.495 -475.698 203.295 -458.146 202.891C-458.551 220.442 -472.75 234.645 -490.301 235.046ZM-490.301 169.203C-472.75 169.607 -458.551 183.807 -458.146 201.358C-475.698 200.957 -489.897 186.755 -490.301 169.203ZM-525.522 268.734C-543.073 268.333 -557.272 254.13 -557.677 236.579C-540.125 236.983 -525.926 251.182 -525.522 268.734ZM-557.677 302.421C-557.272 284.87 -543.073 270.671 -525.522 270.266C-525.926 287.818 -540.125 302.02 -557.677 302.421ZM-458.146 337.642C-458.551 355.193 -472.75 369.396 -490.301 369.797C-489.897 352.245 -475.698 338.046 -458.146 337.642ZM-491.834 371.329C-492.238 388.881 -506.438 403.084 -523.989 403.484C-523.585 385.933 -509.385 371.734 -491.834 371.329ZM-491.834 437.172C-509.385 436.771 -523.585 422.569 -523.989 405.017C-506.438 405.421 -492.238 419.621 -491.834 437.172ZM-525.522 403.484C-543.073 403.084 -557.272 388.881 -557.677 371.329C-540.125 371.734 -525.926 385.933 -525.522 403.484ZM-557.677 437.172C-557.272 419.621 -543.073 405.421 -525.522 405.017C-525.926 422.569 -540.125 436.771 -557.677 437.172ZM-458.146 472.393C-458.551 489.944 -472.75 504.147 -490.301 504.548C-489.897 486.996 -475.698 472.797 -458.146 472.393ZM-490.301 438.705C-472.75 439.109 -458.551 453.309 -458.146 470.86C-475.698 470.459 -489.897 456.256 -490.301 438.705ZM-490.318 437.192C-490.665 420.995 -502.247 407.52 -517.561 404.253C-502.247 400.985 -490.665 387.506 -490.318 371.313C-474.124 370.966 -460.646 359.387 -457.382 344.069C-454.114 359.387 -440.635 370.966 -424.442 371.313C-424.095 387.506 -412.516 400.985 -397.198 404.253C-412.516 407.52 -424.095 420.995 -424.442 437.192C-440.635 437.539 -454.114 449.118 -457.382 464.432C-460.646 449.118 -474.124 437.539 -490.318 437.192ZM-390.771 405.017C-391.175 422.569 -405.374 436.771 -422.926 437.172C-422.522 419.621 -408.322 405.421 -390.771 405.017ZM-424.459 438.705C-424.863 456.256 -439.062 470.459 -456.613 470.86C-456.209 453.309 -442.01 439.109 -424.459 438.705ZM-424.459 504.548C-442.01 504.147 -456.209 489.944 -456.613 472.393C-439.062 472.797 -424.863 486.996 -424.459 504.548ZM-323.395 472.393C-323.8 489.944 -337.999 504.147 -355.55 504.548C-355.146 486.996 -340.947 472.797 -323.395 472.393ZM-355.55 438.705C-337.999 439.109 -323.8 453.309 -323.395 470.86C-340.947 470.459 -355.146 456.256 -355.55 438.705ZM-355.567 437.192C-355.914 420.995 -367.496 407.52 -382.81 404.253C-367.496 400.985 -355.914 387.506 -355.567 371.313C-339.374 370.966 -325.895 359.387 -322.631 344.069C-319.363 359.387 -305.885 370.966 -289.691 371.313C-289.344 387.506 -277.765 400.985 -262.448 404.253C-277.765 407.52 -289.344 420.995 -289.691 437.192C-305.885 437.539 -319.363 449.118 -322.631 464.432C-325.895 449.118 -339.374 437.539 -355.567 437.192ZM-256.02 405.017C-256.424 422.569 -270.624 436.771 -288.175 437.172C-287.771 419.621 -273.571 405.421 -256.02 405.017ZM-289.708 438.705C-290.112 456.256 -304.311 470.459 -321.863 470.86C-321.458 453.309 -307.259 439.109 -289.708 438.705ZM-289.708 504.548C-307.259 504.147 -321.458 489.944 -321.863 472.393C-304.311 472.797 -290.112 486.996 -289.708 504.548ZM-188.645 472.393C-189.049 489.944 -203.248 504.147 -220.8 504.548C-220.395 486.996 -206.196 472.797 -188.645 472.393ZM-220.8 438.705C-203.248 439.109 -189.049 453.309 -188.645 470.86C-206.196 470.459 -220.395 456.256 -220.8 438.705ZM-220.816 437.192C-221.163 420.995 -232.745 407.52 -248.06 404.253C-232.745 400.985 -221.163 387.506 -220.816 371.313C-204.623 370.966 -191.144 359.387 -187.88 344.069C-184.612 359.387 -171.134 370.966 -154.94 371.313C-154.593 387.506 -143.015 400.985 -127.697 404.253C-143.015 407.52 -154.593 420.995 -154.94 437.192C-171.134 437.539 -184.612 449.118 -187.88 464.432C-191.144 449.118 -204.623 437.539 -220.816 437.192ZM-153.424 371.329C-135.873 371.734 -121.673 385.933 -121.269 403.484C-138.82 403.084 -153.02 388.881 -153.424 371.329ZM-121.269 405.017C-121.673 422.569 -135.873 436.771 -153.424 437.172C-153.02 419.621 -138.82 405.421 -121.269 405.017ZM-154.957 438.705C-155.361 456.256 -169.561 470.459 -187.112 470.86C-186.708 453.309 -172.508 439.109 -154.957 438.705ZM-154.957 504.548C-172.508 504.147 -186.708 489.944 -187.112 472.393C-169.561 472.797 -155.361 486.996 -154.957 504.548ZM-119.736 405.017C-102.185 405.421 -87.9858 419.621 -87.5815 437.172C-105.133 436.771 -119.332 422.569 -119.736 405.017ZM-87.5815 371.329C-87.9858 388.881 -102.185 403.084 -119.736 403.484C-119.332 385.933 -105.133 371.734 -87.5815 371.329ZM-119.736 270.266C-102.185 270.671 -87.9858 284.87 -87.5815 302.421C-105.133 302.02 -119.332 287.818 -119.736 270.266ZM-87.5815 236.579C-87.9858 254.13 -102.185 268.333 -119.736 268.734C-119.332 251.182 -105.133 236.983 -87.5815 236.579ZM-187.112 201.358C-186.708 183.807 -172.508 169.607 -154.957 169.203C-155.361 186.755 -169.561 200.957 -187.112 201.358ZM-153.424 167.67C-153.02 150.119 -138.82 135.92 -121.269 135.516C-121.673 153.067 -135.873 167.27 -153.424 167.67ZM-153.424 101.828C-135.873 102.232 -121.673 116.431 -121.269 133.983C-138.82 133.582 -153.02 119.379 -153.424 101.828ZM-119.736 135.516C-102.185 135.92 -87.9858 150.119 -87.5815 167.67C-105.133 167.27 -119.332 153.067 -119.736 135.516ZM-87.5815 101.828C-87.9858 119.379 -102.185 133.582 -119.736 133.983C-119.332 116.431 -105.133 102.232 -87.5815 101.828ZM-154.957 34.4524C-155.361 52.0037 -169.561 66.2065 -187.112 66.6073C-186.708 49.056 -172.508 34.8567 -154.957 34.4524ZM-154.957 100.295C-172.508 99.8942 -186.708 85.6914 -187.112 68.1401C-169.561 68.5444 -155.361 82.7438 -154.957 100.295ZM-154.94 101.811C-154.593 118.005 -143.015 131.483 -127.697 134.751C-143.015 138.019 -154.593 151.494 -154.94 167.691C-171.134 168.038 -184.612 179.616 -187.88 194.931C-191.144 179.616 -204.623 168.038 -220.816 167.691C-221.163 151.494 -232.745 138.019 -248.06 134.751C-232.745 131.483 -221.163 118.005 -220.816 101.811C-204.623 101.464 -191.144 89.8855 -187.88 74.5677C-184.612 89.8855 -171.134 101.464 -154.94 101.811ZM-254.487 133.983C-254.083 116.431 -239.884 102.232 -222.332 101.828C-222.737 119.379 -236.936 133.582 -254.487 133.983ZM-220.8 100.295C-220.395 82.7438 -206.196 68.5444 -188.645 68.1401C-189.049 85.6914 -203.248 99.8942 -220.8 100.295ZM-188.645 66.6073C-206.196 66.2065 -220.395 52.0037 -220.8 34.4524C-203.248 34.8567 -189.049 49.056 -188.645 66.6073ZM-222.332 32.9196C-239.884 32.5187 -254.083 18.316 -254.487 0.764711C-236.936 1.16896 -222.737 15.3683 -222.332 32.9196ZM-256.02 0.764711C-256.424 18.316 -270.624 32.5187 -288.175 32.9196C-287.771 15.3683 -273.571 1.16896 -256.02 0.764711ZM-288.192 34.4356C-271.998 34.0886 -258.52 22.5101 -255.255 7.19233C-251.988 22.5101 -238.509 34.0886 -222.315 34.4356C-221.968 50.6293 -210.39 64.1077 -195.072 67.3754C-210.39 70.6431 -221.968 84.1182 -222.315 100.315C-238.509 100.662 -251.988 112.241 -255.255 127.555C-258.52 112.241 -271.998 100.662 -288.192 100.315C-288.539 84.1182 -300.121 70.6431 -315.435 67.3754C-300.121 64.1077 -288.539 50.6293 -288.192 34.4356ZM-289.708 34.4524C-290.112 52.0037 -304.311 66.2065 -321.863 66.6073C-321.458 49.056 -307.259 34.8567 -289.708 34.4524ZM-289.708 100.295C-307.259 99.8942 -321.458 85.6914 -321.863 68.1401C-304.311 68.5444 -290.112 82.7438 -289.708 100.295ZM-289.691 101.811C-289.344 118.005 -277.765 131.483 -262.448 134.751C-277.765 138.019 -289.344 151.494 -289.691 167.691C-305.885 168.038 -319.363 179.616 -322.631 194.931C-325.895 179.616 -339.374 168.038 -355.567 167.691C-355.914 151.494 -367.496 138.019 -382.81 134.751C-367.496 131.483 -355.914 118.005 -355.567 101.811C-339.374 101.464 -325.895 89.8855 -322.631 74.5677C-319.363 89.8855 -305.885 101.464 -289.691 101.811ZM-389.238 133.983C-388.834 116.431 -374.634 102.232 -357.083 101.828C-357.487 119.379 -371.687 133.582 -389.238 133.983ZM-355.55 100.295C-355.146 82.7438 -340.947 68.5444 -323.395 68.1401C-323.8 85.6914 -337.999 99.8942 -355.55 100.295ZM-323.395 66.6073C-340.947 66.2065 -355.146 52.0037 -355.55 34.4524C-337.999 34.8567 -323.8 49.056 -323.395 66.6073ZM-357.083 32.9196C-374.634 32.5187 -388.834 18.316 -389.238 0.764711C-371.687 1.16896 -357.487 15.3683 -357.083 32.9196ZM-390.771 0.764711C-391.175 18.316 -405.374 32.5187 -422.926 32.9196C-422.522 15.3683 -408.322 1.16896 -390.771 0.764711ZM-422.943 34.4356C-406.749 34.0886 -393.27 22.5101 -390.006 7.19233C-386.738 22.5101 -373.26 34.0886 -357.066 34.4356C-356.719 50.6293 -345.141 64.1077 -329.823 67.3754C-345.141 70.6431 -356.719 84.1182 -357.066 100.315C-373.26 100.662 -386.738 112.241 -390.006 127.555C-393.27 112.241 -406.749 100.662 -422.943 100.315C-423.29 84.1182 -434.871 70.6431 -450.186 67.3754C-434.871 64.1077 -423.29 50.6293 -422.943 34.4356ZM-424.459 34.4524C-424.863 52.0037 -439.062 66.2065 -456.613 66.6073C-456.209 49.056 -442.01 34.8567 -424.459 34.4524ZM-424.459 100.295C-442.01 99.8942 -456.209 85.6914 -456.613 68.1401C-439.062 68.5444 -424.863 82.7438 -424.459 100.295ZM-424.442 101.811C-424.095 118.005 -412.516 131.483 -397.198 134.751C-412.516 138.019 -424.095 151.494 -424.442 167.691C-440.635 168.038 -454.114 179.616 -457.382 194.931C-460.646 179.616 -474.124 168.038 -490.318 167.691C-490.665 151.494 -502.247 138.019 -517.561 134.751C-502.247 131.483 -490.665 118.005 -490.318 101.811C-474.124 101.464 -460.646 89.8855 -457.382 74.5677C-454.114 89.8855 -440.635 101.464 -424.442 101.811ZM-523.989 133.983C-523.585 116.431 -509.385 102.232 -491.834 101.828C-492.238 119.379 -506.438 133.582 -523.989 133.983ZM-490.301 100.295C-489.897 82.7438 -475.698 68.5444 -458.146 68.1401C-458.551 85.6914 -472.75 99.8942 -490.301 100.295ZM-458.146 66.6073C-475.698 66.2065 -489.897 52.0037 -490.301 34.4524C-472.75 34.8567 -458.551 49.056 -458.146 66.6073ZM-491.834 32.9196C-509.385 32.5187 -523.585 18.316 -523.989 0.764711C-506.438 1.16896 -492.238 15.3683 -491.834 32.9196ZM-525.522 0.764711C-525.926 18.316 -540.125 32.5187 -557.677 32.9196C-557.272 15.3683 -543.073 1.16896 -525.522 0.764711ZM-557.693 34.4356C-541.5 34.0886 -528.021 22.5101 -524.757 7.19233C-521.489 22.5101 -508.011 34.0886 -491.817 34.4356C-491.47 50.6293 -479.892 64.1077 -464.574 67.3754C-479.892 70.6431 -491.47 84.1182 -491.817 100.315C-508.011 100.662 -521.489 112.241 -524.757 127.555C-528.021 112.241 -541.5 100.662 -557.693 100.315C-558.04 84.1182 -569.622 70.6431 -584.937 67.3754C-569.622 64.1077 -558.04 50.6293 -557.693 34.4356ZM-559.209 34.4524C-559.614 52.0037 -573.813 66.2065 -591.364 66.6073C-590.96 49.056 -576.761 34.8567 -559.209 34.4524ZM-559.209 100.295C-576.761 99.8942 -590.96 85.6914 -591.364 68.1401C-573.813 68.5444 -559.614 82.7438 -559.209 100.295ZM-625.052 34.4524C-607.501 34.8567 -593.301 49.056 -592.897 66.6073C-610.448 66.2065 -624.648 52.0037 -625.052 34.4524ZM-592.897 68.1401C-593.301 85.6914 -607.501 99.8942 -625.052 100.295C-624.648 82.7438 -610.448 68.5444 -592.897 68.1401ZM-626.585 101.828C-626.989 119.379 -641.188 133.582 -658.74 133.983C-658.335 116.431 -644.136 102.232 -626.585 101.828ZM-658.74 135.516C-641.188 135.92 -626.989 150.119 -626.585 167.67C-644.136 167.27 -658.335 153.067 -658.74 135.516ZM-652.312 134.751C-636.998 131.483 -625.416 118.005 -625.069 101.811C-608.875 101.464 -595.397 89.8855 -592.132 74.5677C-588.865 89.8855 -575.386 101.464 -559.193 101.811C-558.846 118.005 -547.267 131.483 -531.949 134.751C-547.267 138.019 -558.846 151.494 -559.193 167.691C-575.386 168.038 -588.865 179.616 -592.132 194.931C-595.397 179.616 -608.875 168.038 -625.069 167.691C-625.416 151.494 -636.998 138.019 -652.312 134.751ZM-625.052 169.203C-607.501 169.607 -593.301 183.807 -592.897 201.358C-610.448 200.957 -624.648 186.755 -625.052 169.203ZM-592.897 202.891C-593.301 220.442 -607.501 234.645 -625.052 235.046C-624.648 217.495 -610.448 203.295 -592.897 202.891ZM-626.585 236.579C-626.989 254.13 -641.188 268.333 -658.74 268.734C-658.335 251.182 -644.136 236.983 -626.585 236.579ZM-658.74 270.266C-641.188 270.671 -626.989 284.87 -626.585 302.421C-644.136 302.02 -658.335 287.818 -658.74 270.266ZM-652.312 269.502C-636.998 266.234 -625.416 252.755 -625.069 236.562C-608.875 236.215 -595.397 224.636 -592.132 209.319C-588.865 224.636 -575.386 236.215 -559.193 236.562C-558.846 252.755 -547.267 266.234 -531.949 269.502C-547.267 272.769 -558.846 286.244 -559.193 302.441C-575.386 302.788 -588.865 314.367 -592.132 329.681C-595.397 314.367 -608.875 302.788 -625.069 302.441C-625.416 286.244 -636.998 272.769 -652.312 269.502ZM-625.052 303.954C-607.501 304.358 -593.301 318.558 -592.897 336.109C-610.448 335.708 -624.648 321.505 -625.052 303.954ZM-592.897 337.642C-593.301 355.193 -607.501 369.396 -625.052 369.797C-624.648 352.245 -610.448 338.046 -592.897 337.642ZM-626.585 371.329C-626.989 388.881 -641.188 403.084 -658.74 403.484C-658.335 385.933 -644.136 371.734 -626.585 371.329ZM-658.74 405.017C-641.188 405.421 -626.989 419.621 -626.585 437.172C-644.136 436.771 -658.335 422.569 -658.74 405.017ZM-652.312 404.253C-636.998 400.985 -625.416 387.506 -625.069 371.313C-608.875 370.966 -595.397 359.387 -592.132 344.069C-588.865 359.387 -575.386 370.966 -559.193 371.313C-558.846 387.506 -547.267 400.985 -531.949 404.253C-547.267 407.52 -558.846 420.995 -559.193 437.192C-575.386 437.539 -588.865 449.118 -592.132 464.432C-595.397 449.118 -608.875 437.539 -625.069 437.192C-625.416 420.995 -636.998 407.52 -652.312 404.253ZM-625.052 438.705C-607.501 439.109 -593.301 453.309 -592.897 470.86C-610.448 470.459 -624.648 456.256 -625.052 438.705ZM-592.897 472.393C-593.301 489.944 -607.501 504.147 -625.052 504.548C-624.648 486.996 -610.448 472.797 -592.897 472.393ZM-626.585 506.08C-626.989 523.632 -641.188 537.834 -658.74 538.235C-658.335 520.684 -644.136 506.485 -626.585 506.08ZM-658.74 539.768C-641.188 540.172 -626.989 554.372 -626.585 571.923C-644.136 571.522 -658.335 557.319 -658.74 539.768ZM-625.052 639.298C-624.648 621.747 -610.448 607.548 -592.897 607.143C-593.301 624.695 -607.501 638.897 -625.052 639.298ZM-625.052 573.456C-607.501 573.86 -593.301 588.059 -592.897 605.611C-610.448 605.21 -624.648 591.007 -625.052 573.456ZM-625.069 571.943C-625.416 555.746 -636.998 542.271 -652.312 539.003C-636.998 535.736 -625.416 522.257 -625.069 506.063C-608.875 505.716 -595.397 494.138 -592.132 478.82C-588.865 494.138 -575.386 505.716 -559.193 506.063C-558.846 522.257 -547.267 535.736 -531.949 539.003C-547.267 542.271 -558.846 555.746 -559.193 571.943C-575.386 572.29 -588.865 583.869 -592.132 599.183C-595.397 583.869 -608.875 572.29 -625.069 571.943ZM-525.522 539.768C-525.926 557.319 -540.125 571.522 -557.677 571.923C-557.272 554.372 -543.073 540.172 -525.522 539.768ZM-559.209 573.456C-559.614 591.007 -573.813 605.21 -591.364 605.611C-590.96 588.059 -576.761 573.86 -559.209 573.456ZM-591.364 607.143C-573.813 607.548 -559.614 621.747 -559.209 639.298C-576.761 638.897 -590.96 624.695 -591.364 607.143ZM-557.677 640.831C-540.125 641.235 -525.926 655.435 -525.522 672.986C-543.073 672.585 -557.272 658.382 -557.677 640.831ZM-523.989 672.986C-523.585 655.435 -509.385 641.235 -491.834 640.831C-492.238 658.382 -506.438 672.585 -523.989 672.986ZM-491.817 639.319C-508.011 639.666 -521.489 651.244 -524.757 666.558C-528.021 651.244 -541.5 639.666 -557.693 639.319C-558.04 623.122 -569.622 609.646 -584.937 606.379C-569.622 603.111 -558.04 589.633 -557.693 573.439C-541.5 573.092 -528.021 561.513 -524.757 546.196C-521.489 561.513 -508.011 573.092 -491.817 573.439C-491.47 589.633 -479.892 603.111 -464.574 606.379C-479.892 609.646 -491.47 623.122 -491.817 639.319ZM-490.301 639.298C-489.897 621.747 -475.698 607.548 -458.146 607.143C-458.551 624.695 -472.75 638.897 -490.301 639.298ZM-490.301 573.456C-472.75 573.86 -458.551 588.059 -458.146 605.611C-475.698 605.21 -489.897 591.007 -490.301 573.456ZM-490.318 571.943C-490.665 555.746 -502.247 542.271 -517.561 539.003C-502.247 535.736 -490.665 522.257 -490.318 506.063C-474.124 505.716 -460.646 494.138 -457.382 478.82C-454.114 494.138 -440.635 505.716 -424.442 506.063C-424.095 522.257 -412.516 535.736 -397.198 539.003C-412.516 542.271 -424.095 555.746 -424.442 571.943C-440.635 572.29 -454.114 583.869 -457.382 599.183C-460.646 583.869 -474.124 572.29 -490.318 571.943ZM-390.771 539.768C-391.175 557.319 -405.374 571.522 -422.926 571.923C-422.522 554.372 -408.322 540.172 -390.771 539.768ZM-424.459 573.456C-424.863 591.007 -439.062 605.21 -456.613 605.611C-456.209 588.059 -442.01 573.86 -424.459 573.456ZM-456.613 607.143C-439.062 607.548 -424.863 621.747 -424.459 639.298C-442.01 638.897 -456.209 624.695 -456.613 607.143ZM-422.926 640.831C-405.374 641.235 -391.175 655.435 -390.771 672.986C-408.322 672.585 -422.522 658.382 -422.926 640.831ZM-389.238 672.986C-388.834 655.435 -374.634 641.235 -357.083 640.831C-357.487 658.382 -371.687 672.585 -389.238 672.986ZM-357.066 639.319C-373.26 639.666 -386.738 651.244 -390.006 666.558C-393.27 651.244 -406.749 639.666 -422.943 639.319C-423.29 623.122 -434.871 609.646 -450.186 606.379C-434.871 603.111 -423.29 589.633 -422.943 573.439C-406.749 573.092 -393.27 561.513 -390.006 546.196C-386.738 561.513 -373.26 573.092 -357.066 573.439C-356.719 589.633 -345.141 603.111 -329.823 606.379C-345.141 609.646 -356.719 623.122 -357.066 639.319ZM-355.55 639.298C-355.146 621.747 -340.947 607.548 -323.395 607.143C-323.8 624.695 -337.999 638.897 -355.55 639.298ZM-355.55 573.456C-337.999 573.86 -323.8 588.059 -323.395 605.611C-340.947 605.21 -355.146 591.007 -355.55 573.456ZM-355.567 571.943C-355.914 555.746 -367.496 542.271 -382.81 539.003C-367.496 535.736 -355.914 522.257 -355.567 506.063C-339.374 505.716 -325.895 494.138 -322.631 478.82C-319.363 494.138 -305.885 505.716 -289.691 506.063C-289.344 522.257 -277.765 535.736 -262.448 539.003C-277.765 542.271 -289.344 555.746 -289.691 571.943C-305.885 572.29 -319.363 583.869 -322.631 599.183C-325.895 583.869 -339.374 572.29 -355.567 571.943ZM-256.02 539.768C-256.424 557.319 -270.624 571.522 -288.175 571.923C-287.771 554.372 -273.571 540.172 -256.02 539.768ZM-289.708 573.456C-290.112 591.007 -304.311 605.21 -321.863 605.611C-321.458 588.059 -307.259 573.86 -289.708 573.456ZM-321.863 607.143C-304.311 607.548 -290.112 621.747 -289.708 639.298C-307.259 638.897 -321.458 624.695 -321.863 607.143ZM-288.175 640.831C-270.624 641.235 -256.424 655.435 -256.02 672.986C-273.571 672.585 -287.771 658.382 -288.175 640.831ZM-254.487 672.986C-254.083 655.435 -239.884 641.235 -222.332 640.831C-222.737 658.382 -236.936 672.585 -254.487 672.986ZM-222.315 639.319C-238.509 639.666 -251.988 651.244 -255.255 666.558C-258.52 651.244 -271.998 639.666 -288.192 639.319C-288.539 623.122 -300.121 609.646 -315.435 606.379C-300.121 603.111 -288.539 589.633 -288.192 573.439C-271.998 573.092 -258.52 561.513 -255.255 546.196C-251.988 561.513 -238.509 573.092 -222.315 573.439C-221.968 589.633 -210.39 603.111 -195.072 606.379C-210.39 609.646 -221.968 623.122 -222.315 639.319ZM-220.8 639.298C-220.395 621.747 -206.196 607.548 -188.645 607.143C-189.049 624.695 -203.248 638.897 -220.8 639.298ZM-220.8 573.456C-203.248 573.86 -189.049 588.059 -188.645 605.611C-206.196 605.21 -220.395 591.007 -220.8 573.456ZM-220.816 571.943C-221.163 555.746 -232.745 542.271 -248.06 539.003C-232.745 535.736 -221.163 522.257 -220.816 506.063C-204.623 505.716 -191.144 494.138 -187.88 478.82C-184.612 494.138 -171.134 505.716 -154.94 506.063C-154.593 522.257 -143.015 535.736 -127.697 539.003C-143.015 542.271 -154.593 555.746 -154.94 571.943C-171.134 572.29 -184.612 583.869 -187.88 599.183C-191.144 583.869 -204.623 572.29 -220.816 571.943ZM-121.269 539.768C-121.673 557.319 -135.873 571.522 -153.424 571.923C-153.02 554.372 -138.82 540.172 -121.269 539.768ZM-154.957 573.456C-155.361 591.007 -169.561 605.21 -187.112 605.611C-186.708 588.059 -172.508 573.86 -154.957 573.456ZM-187.112 607.143C-169.561 607.548 -155.361 621.747 -154.957 639.298C-172.508 638.897 -186.708 624.695 -187.112 607.143ZM-153.424 640.831C-135.873 641.235 -121.673 655.435 -121.269 672.986C-138.82 672.585 -153.02 658.382 -153.424 640.831ZM-119.736 672.986C-119.332 655.435 -105.133 641.235 -87.5815 640.831C-87.9858 658.382 -102.185 672.585 -119.736 672.986ZM-87.5646 639.319C-103.758 639.666 -117.237 651.244 -120.505 666.558C-123.769 651.244 -137.247 639.666 -153.441 639.319C-153.788 623.122 -165.37 609.646 -180.684 606.379C-165.37 603.111 -153.788 589.633 -153.441 573.439C-137.247 573.092 -123.769 561.513 -120.505 546.196C-117.237 561.513 -103.758 573.092 -87.5646 573.439C-87.2177 589.633 -75.6392 603.111 -60.3214 606.379C-75.6392 609.646 -87.2177 623.122 -87.5646 639.319ZM-86.0487 639.298C-85.6444 621.747 -71.4451 607.548 -53.8938 607.143C-54.298 624.695 -68.4974 638.897 -86.0487 639.298ZM-86.0487 573.456C-68.4974 573.86 -54.298 588.059 -53.8938 605.611C-71.4451 605.21 -85.6444 591.007 -86.0487 573.456ZM-20.2061 639.298C-37.7574 638.897 -51.9567 624.695 -52.361 607.143C-34.8097 607.548 -20.6104 621.747 -20.2061 639.298ZM-52.361 605.611C-51.9567 588.059 -37.7574 573.86 -20.2061 573.456C-20.6104 591.007 -34.8097 605.21 -52.361 605.611ZM-18.6733 571.923C-18.269 554.372 -4.06964 540.172 13.4816 539.768C13.0774 557.319 -1.12201 571.522 -18.6733 571.923ZM13.4816 538.235C-4.06964 537.834 -18.269 523.632 -18.6733 506.08C-1.12201 506.485 13.0774 520.684 13.4816 538.235ZM7.05402 539.003C-8.26379 542.271 -19.8422 555.746 -20.1892 571.943C-36.3829 572.29 -49.8614 583.869 -53.1291 599.183C-56.3934 583.869 -69.8719 572.29 -86.0656 571.943C-86.4125 555.746 -97.9944 542.271 -113.309 539.003C-97.9944 535.736 -86.4125 522.257 -86.0656 506.063C-69.8719 505.716 -56.3934 494.138 -53.1291 478.82C-49.8614 494.138 -36.3829 505.716 -20.1892 506.063C-19.8422 522.257 -8.26379 535.736 7.05402 539.003ZM-20.2061 504.548C-37.7574 504.147 -51.9567 489.944 -52.361 472.393C-34.8097 472.797 -20.6104 486.996 -20.2061 504.548ZM-52.361 470.86C-51.9567 453.309 -37.7574 439.109 -20.2061 438.705C-20.6104 456.256 -34.8097 470.459 -52.361 470.86ZM-18.6733 437.172C-18.269 419.621 -4.06964 405.421 13.4816 405.017C13.0774 422.569 -1.12201 436.771 -18.6733 437.172ZM13.4816 403.484C-4.06964 403.084 -18.269 388.881 -18.6733 371.329C-1.12201 371.734 13.0774 385.933 13.4816 403.484ZM7.05402 404.253C-8.26379 407.52 -19.8422 420.995 -20.1892 437.192C-36.3829 437.539 -49.8614 449.118 -53.1291 464.432C-56.3934 449.118 -69.8719 437.539 -86.0656 437.192C-86.4125 420.995 -97.9944 407.52 -113.309 404.253C-97.9944 400.985 -86.4125 387.506 -86.0656 371.313C-69.8719 370.966 -56.3934 359.387 -53.1291 344.069C-49.8614 359.387 -36.3829 370.966 -20.1892 371.313C-19.8422 387.506 -8.26379 400.985 7.05402 404.253ZM-20.2061 369.797C-37.7574 369.396 -51.9567 355.193 -52.361 337.642C-34.8097 338.046 -20.6104 352.245 -20.2061 369.797ZM-52.361 336.109C-51.9567 318.558 -37.7574 304.358 -20.2061 303.954C-20.6104 321.505 -34.8097 335.708 -52.361 336.109ZM-18.6733 302.421C-18.269 284.87 -4.06964 270.671 13.4816 270.266C13.0774 287.818 -1.12201 302.02 -18.6733 302.421ZM13.4816 268.734C-4.06964 268.333 -18.269 254.13 -18.6733 236.579C-1.12201 236.983 13.0774 251.182 13.4816 268.734ZM7.05402 269.502C-8.26379 272.769 -19.8422 286.244 -20.1892 302.441C-36.3829 302.788 -49.8614 314.367 -53.1291 329.681C-56.3934 314.367 -69.8719 302.788 -86.0656 302.441C-86.4125 286.244 -97.9944 272.769 -113.309 269.502C-97.9944 266.234 -86.4125 252.755 -86.0656 236.562C-69.8719 236.215 -56.3934 224.636 -53.1291 209.319C-49.8614 224.636 -36.3829 236.215 -20.1892 236.562C-19.8422 252.755 -8.26379 266.234 7.05402 269.502ZM-20.2061 235.046C-37.7574 234.645 -51.9567 220.442 -52.361 202.891C-34.8097 203.295 -20.6104 217.495 -20.2061 235.046ZM-52.361 201.358C-51.9567 183.807 -37.7574 169.607 -20.2061 169.203C-20.6104 186.755 -34.8097 200.957 -52.361 201.358ZM-18.6733 167.67C-18.269 150.119 -4.06964 135.92 13.4816 135.516C13.0774 153.067 -1.12201 167.27 -18.6733 167.67ZM13.4816 133.983C-4.06964 133.582 -18.269 119.379 -18.6733 101.828C-1.12201 102.232 13.0774 116.431 13.4816 133.983ZM7.05402 134.751C-8.26379 138.019 -19.8422 151.494 -20.1892 167.691C-36.3829 168.038 -49.8614 179.616 -53.1291 194.931C-56.3934 179.616 -69.8719 168.038 -86.0656 167.691C-86.4125 151.494 -97.9944 138.019 -113.309 134.751C-97.9944 131.483 -86.4125 118.005 -86.0656 101.811C-69.8719 101.464 -56.3934 89.8855 -53.1291 74.5677C-49.8614 89.8855 -36.3829 101.464 -20.1892 101.811C-19.8422 118.005 -8.26379 131.483 7.05402 134.751ZM-20.2061 100.295C-37.7574 99.8942 -51.9567 85.6914 -52.361 68.1401C-34.8097 68.5444 -20.6104 82.7438 -20.2061 100.295ZM-52.361 66.6073C-51.9567 49.056 -37.7574 34.8567 -20.2061 34.4524C-20.6104 52.0037 -34.8097 66.2065 -52.361 66.6073Z" fill="#FDFADF"/>
<path d="M14.2463 33.6875V101.063H14.1217C14.1217 82.5549 -0.933382 67.4998 -19.4414 67.4998V67.2472C-0.933382 67.2472 14.1217 52.1922 14.1217 33.6875H14.2463Z" fill="#FDFADF"/>
<path d="M14.2463 168.438V235.814H14.1217C14.1217 217.306 -0.933382 202.251 -19.4414 202.251V201.998C-0.933382 201.998 14.1217 186.943 14.1217 168.438H14.2463Z" fill="#FDFADF"/>
<path d="M655.064 34.4356C671.257 34.0886 684.736 22.5101 688 7.19233V0H680.808C665.49 3.26771 653.912 16.7428 653.565 32.9398C637.371 33.2868 623.893 44.8653 620.625 60.1797C617.36 44.8653 603.882 33.2868 587.688 32.9398C587.341 16.7428 575.76 3.26771 560.445 0H546.057C530.739 3.26771 519.161 16.7428 518.814 32.9398C502.62 33.2868 489.142 44.8653 485.874 60.1797C482.61 44.8653 469.131 33.2868 452.938 32.9398C452.591 16.7428 441.009 3.26771 425.694 0H411.306C395.988 3.26771 384.41 16.7428 384.063 32.9398C367.869 33.2868 354.391 44.8653 351.123 60.1797C347.859 44.8653 334.38 33.2868 318.187 32.9398C317.84 16.7428 306.258 3.26771 290.943 0H276.555C261.238 3.26771 249.659 16.7428 249.312 32.9398C233.119 33.2868 219.64 44.8653 216.372 60.1797C213.108 44.8653 199.63 33.2868 183.436 32.9398C183.089 16.7428 171.507 3.26771 156.193 0H141.805C126.487 3.26771 114.908 16.7428 114.561 32.9398C98.3677 33.2868 84.8892 44.8653 81.6215 60.1797C78.3572 44.8653 64.8787 33.2868 48.685 32.9398C48.338 16.7428 36.7562 3.26771 21.4418 0H14.2461V7.19233C17.5138 22.5101 30.9923 34.0886 47.1859 34.4356C47.5329 50.6293 59.1114 64.1077 74.4291 67.3754C59.1114 70.6431 47.5329 84.1182 47.1859 100.315C30.9923 100.662 17.5138 112.241 14.2461 127.555V141.943C17.5138 157.261 30.9923 168.839 47.1859 169.186C47.5329 185.38 59.1114 198.859 74.4291 202.126C59.1114 205.394 47.5329 218.869 47.1859 235.066C30.9923 235.413 17.5138 246.992 14.2461 262.306V276.694C17.5138 292.012 30.9923 303.59 47.1859 303.937C47.5329 320.131 59.1114 333.609 74.4291 336.877C59.1114 340.145 47.5329 353.62 47.1859 369.817C30.9923 370.164 17.5138 381.742 14.2461 397.057V411.445C17.5138 426.763 30.9923 438.341 47.1859 438.688C47.5329 454.882 59.1114 468.36 74.4291 471.628C59.1114 474.896 47.5329 488.371 47.1859 504.568C30.9923 504.915 17.5138 516.493 14.2461 531.808V546.196C17.5138 561.513 30.9923 573.092 47.1859 573.439C47.5329 589.633 59.1114 603.111 74.4291 606.379C59.1114 609.646 47.5329 623.122 47.1859 639.319C30.9923 639.666 17.5138 651.244 14.2461 666.558V673.754H21.4418C36.7562 670.486 48.338 657.008 48.685 640.814C64.8787 640.467 78.3572 628.889 81.6215 613.571C84.8892 628.889 98.3677 640.467 114.561 640.814C114.908 657.008 126.487 670.486 141.805 673.754H156.193C171.507 670.486 183.089 657.008 183.436 640.814C199.63 640.467 213.108 628.889 216.372 613.571C219.64 628.889 233.119 640.467 249.312 640.814C249.659 657.008 261.238 670.486 276.555 673.754H290.943C306.258 670.486 317.84 657.008 318.187 640.814C334.38 640.467 347.859 628.889 351.123 613.571C354.391 628.889 367.869 640.467 384.063 640.814C384.41 657.008 395.988 670.486 411.306 673.754H425.694C441.009 670.486 452.591 657.008 452.938 640.814C469.131 640.467 482.61 628.889 485.874 613.571C489.142 628.889 502.62 640.467 518.814 640.814C519.161 657.008 530.739 670.486 546.057 673.754H560.445C575.76 670.486 587.341 657.008 587.688 640.814C603.882 640.467 617.36 628.889 620.625 613.571C623.893 628.889 637.371 640.467 653.565 640.814C653.912 657.008 665.49 670.486 680.808 673.754H688V666.558C684.736 651.244 671.257 639.666 655.064 639.319C654.717 623.122 643.135 609.646 627.821 606.379C643.135 603.111 654.717 589.633 655.064 573.439C671.257 573.092 684.736 561.513 688 546.196V531.808C684.736 516.493 671.257 504.915 655.064 504.568C654.717 488.371 643.135 474.896 627.821 471.628C643.135 468.36 654.717 454.882 655.064 438.688C671.257 438.341 684.736 426.763 688 411.445V397.057C684.736 381.742 671.257 370.164 655.064 369.817C654.717 353.62 643.135 340.145 627.821 336.877C643.135 333.609 654.717 320.131 655.064 303.937C671.257 303.59 684.736 292.012 688 276.694V262.306C684.736 246.992 671.257 235.413 655.064 235.066C654.717 218.869 643.135 205.394 627.821 202.126C643.135 198.859 654.717 185.38 655.064 169.186C671.257 168.839 684.736 157.261 688 141.943V127.555C684.736 112.241 671.257 100.662 655.064 100.315C654.717 84.1182 643.135 70.6431 627.821 67.3754C643.135 64.1077 654.717 50.6293 655.064 34.4356ZM687.236 0.764711C686.831 18.316 672.632 32.5187 655.081 32.9196C655.485 15.3683 669.684 1.16896 687.236 0.764711ZM15.0142 0.764711C32.5655 1.16896 46.7648 15.3683 47.1691 32.9196C29.6178 32.5187 15.4184 18.316 15.0142 0.764711ZM15.0142 672.986C15.4184 655.435 29.6178 641.235 47.1691 640.831C46.7648 658.382 32.5655 672.585 15.0142 672.986ZM687.236 672.986C669.684 672.585 655.485 658.382 655.081 640.831C672.632 641.235 686.831 655.435 687.236 672.986ZM619.86 66.6073C602.309 66.2065 588.109 52.0037 587.705 34.4524C605.257 34.8567 619.456 49.056 619.86 66.6073ZM586.172 32.9196C568.621 32.5187 554.422 18.316 554.018 0.764711C571.569 1.16896 585.768 15.3683 586.172 32.9196ZM552.485 0.764711C552.08 18.316 537.881 32.5187 520.33 32.9196C520.734 15.3683 534.933 1.16896 552.485 0.764711ZM520.313 34.4356C536.507 34.0886 549.985 22.5101 553.249 7.19233C556.517 22.5101 569.996 34.0886 586.189 34.4356C586.536 50.6293 598.115 64.1077 613.432 67.3754C598.115 70.6431 586.536 84.1182 586.189 100.315C569.996 100.662 556.517 112.241 553.249 127.555C549.985 112.241 536.507 100.662 520.313 100.315C519.966 84.1182 508.384 70.6431 493.07 67.3754C508.384 64.1077 519.966 50.6293 520.313 34.4356ZM619.86 68.1401C619.456 85.6914 605.257 99.8942 587.705 100.295C588.109 82.7438 602.309 68.5444 619.86 68.1401ZM613.432 202.126C598.115 205.394 586.536 218.869 586.189 235.066C569.996 235.413 556.517 246.992 553.249 262.306C549.985 246.992 536.507 235.413 520.313 235.066C519.966 218.869 508.384 205.394 493.07 202.126C508.384 198.859 519.966 185.38 520.313 169.186C536.507 168.839 549.985 157.261 553.249 141.943C556.517 157.261 569.996 168.839 586.189 169.186C586.536 185.38 598.115 198.859 613.432 202.126ZM587.705 169.203C605.257 169.607 619.456 183.807 619.86 201.358C602.309 200.957 588.109 186.755 587.705 169.203ZM619.86 202.891C619.456 220.442 605.257 234.645 587.705 235.046C588.109 217.495 602.309 203.295 619.86 202.891ZM613.432 336.877C598.115 340.145 586.536 353.62 586.189 369.817C569.996 370.164 556.517 381.742 553.249 397.057C549.985 381.742 536.507 370.164 520.313 369.817C519.966 353.62 508.384 340.145 493.07 336.877C508.384 333.609 519.966 320.131 520.313 303.937C536.507 303.59 549.985 292.012 553.249 276.694C556.517 292.012 569.996 303.59 586.189 303.937C586.536 320.131 598.115 333.609 613.432 336.877ZM587.705 303.954C605.257 304.358 619.456 318.558 619.86 336.109C602.309 335.708 588.109 321.505 587.705 303.954ZM619.86 337.642C619.456 355.193 605.257 369.396 587.705 369.797C588.109 352.245 602.309 338.046 619.86 337.642ZM613.432 471.628C598.115 474.896 586.536 488.371 586.189 504.568C569.996 504.915 556.517 516.493 553.249 531.808C549.985 516.493 536.507 504.915 520.313 504.568C519.966 488.371 508.384 474.896 493.07 471.628C508.384 468.36 519.966 454.882 520.313 438.688C536.507 438.341 549.985 426.763 553.249 411.445C556.517 426.763 569.996 438.341 586.189 438.688C586.536 454.882 598.115 468.36 613.432 471.628ZM587.705 438.705C605.257 439.109 619.456 453.309 619.86 470.86C602.309 470.459 588.109 456.256 587.705 438.705ZM619.86 472.393C619.456 489.944 605.257 504.147 587.705 504.548C588.109 486.996 602.309 472.797 619.86 472.393ZM586.172 506.08C585.768 523.632 571.569 537.834 554.018 538.235C554.422 520.684 568.621 506.485 586.172 506.08ZM586.172 571.923C568.621 571.522 554.422 557.319 554.018 539.768C571.569 540.172 585.768 554.372 586.172 571.923ZM552.485 538.235C534.933 537.834 520.734 523.632 520.33 506.08C537.881 506.485 552.08 520.684 552.485 538.235ZM418.499 531.808C415.234 516.493 401.756 504.915 385.562 504.568C385.215 488.371 373.633 474.896 358.319 471.628C373.633 468.36 385.215 454.882 385.562 438.688C401.756 438.341 415.234 426.763 418.499 411.445C421.766 426.763 435.245 438.341 451.438 438.688C451.785 454.882 463.364 468.36 478.682 471.628C463.364 474.896 451.785 488.371 451.438 504.568C435.245 504.915 421.766 516.493 418.499 531.808ZM451.422 506.08C451.017 523.632 436.818 537.834 419.267 538.235C419.671 520.684 433.87 506.485 451.422 506.08ZM451.422 571.923C433.87 571.522 419.671 557.319 419.267 539.768C436.818 540.172 451.017 554.372 451.422 571.923ZM417.734 538.235C400.183 537.834 385.983 523.632 385.579 506.08C403.13 506.485 417.33 520.684 417.734 538.235ZM283.748 531.808C280.483 516.493 267.005 504.915 250.811 504.568C250.464 488.371 238.883 474.896 223.568 471.628C238.883 468.36 250.464 454.882 250.811 438.688C267.005 438.341 280.483 426.763 283.748 411.445C287.015 426.763 300.494 438.341 316.688 438.688C317.035 454.882 328.613 468.36 343.931 471.628C328.613 474.896 317.035 488.371 316.688 504.568C300.494 504.915 287.015 516.493 283.748 531.808ZM316.671 506.08C316.266 523.632 302.067 537.834 284.516 538.235C284.92 520.684 299.119 506.485 316.671 506.08ZM316.671 571.923C299.119 571.522 284.92 557.319 284.516 539.768C302.067 540.172 316.266 554.372 316.671 571.923ZM282.983 538.235C265.432 537.834 251.232 523.632 250.828 506.08C268.379 506.485 282.579 520.684 282.983 538.235ZM148.997 531.808C145.733 516.493 132.254 504.915 116.06 504.568C115.713 488.371 104.132 474.896 88.8172 471.628C104.132 468.36 115.713 454.882 116.06 438.688C132.254 438.341 145.733 426.763 148.997 411.445C152.265 426.763 165.743 438.341 181.937 438.688C182.284 454.882 193.862 468.36 209.18 471.628C193.862 474.896 182.284 488.371 181.937 504.568C165.743 504.915 152.265 516.493 148.997 531.808ZM181.92 506.08C181.516 523.632 167.316 537.834 149.765 538.235C150.169 520.684 164.369 506.485 181.92 506.08ZM181.92 571.923C164.369 571.522 150.169 557.319 149.765 539.768C167.316 540.172 181.516 554.372 181.92 571.923ZM148.232 538.235C130.681 537.834 116.482 523.632 116.077 506.08C133.629 506.485 147.828 520.684 148.232 538.235ZM114.545 504.548C96.9932 504.147 82.7939 489.944 82.3896 472.393C99.9409 472.797 114.14 486.996 114.545 504.548ZM82.3896 470.86C82.7939 453.309 96.9932 439.109 114.545 438.705C114.14 456.256 99.9409 470.459 82.3896 470.86ZM88.8172 336.877C104.132 333.609 115.713 320.131 116.06 303.937C132.254 303.59 145.733 292.012 148.997 276.694C152.265 292.012 165.743 303.59 181.937 303.937C182.284 320.131 193.862 333.609 209.18 336.877C193.862 340.145 182.284 353.62 181.937 369.817C165.743 370.164 152.265 381.742 148.997 397.057C145.733 381.742 132.254 370.164 116.06 369.817C115.713 353.62 104.132 340.145 88.8172 336.877ZM114.545 369.797C96.9932 369.396 82.7939 355.193 82.3896 337.642C99.9409 338.046 114.14 352.245 114.545 369.797ZM82.3896 336.109C82.7939 318.558 96.9932 304.358 114.545 303.954C114.14 321.505 99.9409 335.708 82.3896 336.109ZM88.8172 202.126C104.132 198.859 115.713 185.38 116.06 169.186C132.254 168.839 145.733 157.261 148.997 141.943C152.265 157.261 165.743 168.839 181.937 169.186C182.284 185.38 193.862 198.859 209.18 202.126C193.862 205.394 182.284 218.869 181.937 235.066C165.743 235.413 152.265 246.992 148.997 262.306C145.733 246.992 132.254 235.413 116.06 235.066C115.713 218.869 104.132 205.394 88.8172 202.126ZM114.545 235.046C96.9932 234.645 82.7939 220.442 82.3896 202.891C99.9409 203.295 114.14 217.495 114.545 235.046ZM82.3896 201.358C82.7939 183.807 96.9932 169.607 114.545 169.203C114.14 186.755 99.9409 200.957 82.3896 201.358ZM116.077 167.67C116.482 150.119 130.681 135.92 148.232 135.516C147.828 153.067 133.629 167.27 116.077 167.67ZM116.077 101.828C133.629 102.232 147.828 116.431 148.232 133.983C130.681 133.582 116.482 119.379 116.077 101.828ZM149.765 135.516C167.316 135.92 181.516 150.119 181.92 167.67C164.369 167.27 150.169 153.067 149.765 135.516ZM283.748 141.943C287.015 157.261 300.494 168.839 316.688 169.186C317.035 185.38 328.613 198.859 343.931 202.126C328.613 205.394 317.035 218.869 316.688 235.066C300.494 235.413 287.015 246.992 283.748 262.306C280.483 246.992 267.005 235.413 250.811 235.066C250.464 218.869 238.883 205.394 223.568 202.126C238.883 198.859 250.464 185.38 250.811 169.186C267.005 168.839 280.483 157.261 283.748 141.943ZM250.828 167.67C251.232 150.119 265.432 135.92 282.983 135.516C282.579 153.067 268.379 167.27 250.828 167.67ZM250.828 101.828C268.379 102.232 282.579 116.431 282.983 133.983C265.432 133.582 251.232 119.379 250.828 101.828ZM284.516 135.516C302.067 135.92 316.266 150.119 316.671 167.67C299.119 167.27 284.92 153.067 284.516 135.516ZM418.499 141.943C421.766 157.261 435.245 168.839 451.438 169.186C451.785 185.38 463.364 198.859 478.682 202.126C463.364 205.394 451.785 218.869 451.438 235.066C435.245 235.413 421.766 246.992 418.499 262.306C415.234 246.992 401.756 235.413 385.562 235.066C385.215 218.869 373.633 205.394 358.319 202.126C373.633 198.859 385.215 185.38 385.562 169.186C401.756 168.839 415.234 157.261 418.499 141.943ZM385.579 167.67C385.983 150.119 400.183 135.92 417.734 135.516C417.33 153.067 403.13 167.27 385.579 167.67ZM385.579 101.828C403.13 102.232 417.33 116.431 417.734 133.983C400.183 133.582 385.983 119.379 385.579 101.828ZM419.267 135.516C436.818 135.92 451.017 150.119 451.422 167.67C433.87 167.27 419.671 153.067 419.267 135.516ZM518.814 236.562C519.161 252.755 530.739 266.234 546.057 269.502C530.739 272.769 519.161 286.244 518.814 302.441C502.62 302.788 489.142 314.367 485.874 329.681C482.61 314.367 469.131 302.788 452.938 302.441C452.591 286.244 441.009 272.769 425.694 269.502C441.009 266.234 452.591 252.755 452.938 236.562C469.131 236.215 482.61 224.636 485.874 209.319C489.142 224.636 502.62 236.215 518.814 236.562ZM486.642 202.891C504.193 203.295 518.393 217.495 518.797 235.046C501.246 234.645 487.046 220.442 486.642 202.891ZM520.33 236.579C537.881 236.983 552.08 251.182 552.485 268.734C534.933 268.333 520.734 254.13 520.33 236.579ZM552.485 270.266C552.08 287.818 537.881 302.02 520.33 302.421C520.734 284.87 534.933 270.671 552.485 270.266ZM518.797 303.954C518.393 321.505 504.193 335.708 486.642 336.109C487.046 318.558 501.246 304.358 518.797 303.954ZM518.797 369.797C501.246 369.396 487.046 355.193 486.642 337.642C504.193 338.046 518.393 352.245 518.797 369.797ZM418.499 397.057C415.234 381.742 401.756 370.164 385.562 369.817C385.215 353.62 373.633 340.145 358.319 336.877C373.633 333.609 385.215 320.131 385.562 303.937C401.756 303.59 415.234 292.012 418.499 276.694C421.766 292.012 435.245 303.59 451.438 303.937C451.785 320.131 463.364 333.609 478.682 336.877C463.364 340.145 451.785 353.62 451.438 369.817C435.245 370.164 421.766 381.742 418.499 397.057ZM451.422 371.329C451.017 388.881 436.818 403.084 419.267 403.484C419.671 385.933 433.87 371.734 451.422 371.329ZM451.422 437.172C433.87 436.771 419.671 422.569 419.267 405.017C436.818 405.421 451.017 419.621 451.422 437.172ZM417.734 403.484C400.183 403.084 385.983 388.881 385.579 371.329C403.13 371.734 417.33 385.933 417.734 403.484ZM384.046 369.797C366.495 369.396 352.296 355.193 351.891 337.642C369.443 338.046 383.642 352.245 384.046 369.797ZM351.891 336.109C352.296 318.558 366.495 304.358 384.046 303.954C383.642 321.505 369.443 335.708 351.891 336.109ZM385.579 302.421C385.983 284.87 400.183 270.671 417.734 270.266C417.33 287.818 403.13 302.02 385.579 302.421ZM385.579 236.579C403.13 236.983 417.33 251.182 417.734 268.734C400.183 268.333 385.983 254.13 385.579 236.579ZM419.267 270.266C436.818 270.671 451.017 284.87 451.422 302.421C433.87 302.02 419.671 287.818 419.267 270.266ZM485.109 337.642C484.705 355.193 470.506 369.396 452.954 369.797C453.359 352.245 467.558 338.046 485.109 337.642ZM452.954 303.954C470.506 304.358 484.705 318.558 485.109 336.109C467.558 335.708 453.359 321.505 452.954 303.954ZM419.267 268.734C419.671 251.182 433.87 236.983 451.422 236.579C451.017 254.13 436.818 268.333 419.267 268.734ZM452.954 235.046C453.359 217.495 467.558 203.295 485.109 202.891C484.705 220.442 470.506 234.645 452.954 235.046ZM452.954 169.203C470.506 169.607 484.705 183.807 485.109 201.358C467.558 200.957 453.359 186.755 452.954 169.203ZM351.891 201.358C352.296 183.807 366.495 169.607 384.046 169.203C383.642 186.755 369.443 200.957 351.891 201.358ZM384.046 235.046C366.495 234.645 352.296 220.442 351.891 202.891C369.443 203.295 383.642 217.495 384.046 235.046ZM384.063 236.562C384.41 252.755 395.988 266.234 411.306 269.502C395.988 272.769 384.41 286.244 384.063 302.441C367.869 302.788 354.391 314.367 351.123 329.681C347.859 314.367 334.38 302.788 318.187 302.441C317.84 286.244 306.258 272.769 290.943 269.502C306.258 266.234 317.84 252.755 318.187 236.562C334.38 236.215 347.859 224.636 351.123 209.319C354.391 224.636 367.869 236.215 384.063 236.562ZM283.748 397.057C280.483 381.742 267.005 370.164 250.811 369.817C250.464 353.62 238.883 340.145 223.568 336.877C238.883 333.609 250.464 320.131 250.811 303.937C267.005 303.59 280.483 292.012 283.748 276.694C287.015 292.012 300.494 303.59 316.688 303.937C317.035 320.131 328.613 333.609 343.931 336.877C328.613 340.145 317.035 353.62 316.688 369.817C300.494 370.164 287.015 381.742 283.748 397.057ZM316.671 371.329C316.266 388.881 302.067 403.084 284.516 403.484C284.92 385.933 299.119 371.734 316.671 371.329ZM316.671 437.172C299.119 436.771 284.92 422.569 284.516 405.017C302.067 405.421 316.266 419.621 316.671 437.172ZM282.983 403.484C265.432 403.084 251.232 388.881 250.828 371.329C268.379 371.734 282.579 385.933 282.983 403.484ZM249.295 369.797C231.744 369.396 217.545 355.193 217.14 337.642C234.692 338.046 248.891 352.245 249.295 369.797ZM217.14 336.109C217.545 318.558 231.744 304.358 249.295 303.954C248.891 321.505 234.692 335.708 217.14 336.109ZM250.828 302.421C251.232 284.87 265.432 270.671 282.983 270.266C282.579 287.818 268.379 302.02 250.828 302.421ZM250.828 236.579C268.379 236.983 282.579 251.182 282.983 268.734C265.432 268.333 251.232 254.13 250.828 236.579ZM284.516 270.266C302.067 270.671 316.266 284.87 316.671 302.421C299.119 302.02 284.92 287.818 284.516 270.266ZM350.358 337.642C349.954 355.193 335.755 369.396 318.204 369.797C318.608 352.245 332.807 338.046 350.358 337.642ZM318.204 303.954C335.755 304.358 349.954 318.558 350.358 336.109C332.807 335.708 318.608 321.505 318.204 303.954ZM284.516 268.734C284.92 251.182 299.119 236.983 316.671 236.579C316.266 254.13 302.067 268.333 284.516 268.734ZM318.204 235.046C318.608 217.495 332.807 203.295 350.358 202.891C349.954 220.442 335.755 234.645 318.204 235.046ZM318.204 169.203C335.755 169.607 349.954 183.807 350.358 201.358C332.807 200.957 318.608 186.755 318.204 169.203ZM217.14 201.358C217.545 183.807 231.744 169.607 249.295 169.203C248.891 186.755 234.692 200.957 217.14 201.358ZM249.295 235.046C231.744 234.645 217.545 220.442 217.14 202.891C234.692 203.295 248.891 217.495 249.295 235.046ZM249.312 236.562C249.659 252.755 261.238 266.234 276.555 269.502C261.238 272.769 249.659 286.244 249.312 302.441C233.119 302.788 219.64 314.367 216.372 329.681C213.108 314.367 199.63 302.788 183.436 302.441C183.089 286.244 171.507 272.769 156.193 269.502C171.507 266.234 183.089 252.755 183.436 236.562C199.63 236.215 213.108 224.636 216.372 209.319C219.64 224.636 233.119 236.215 249.312 236.562ZM215.608 336.109C198.056 335.708 183.857 321.505 183.453 303.954C201.004 304.358 215.203 318.558 215.608 336.109ZM181.92 302.421C164.369 302.02 150.169 287.818 149.765 270.266C167.316 270.671 181.516 284.87 181.92 302.421ZM149.765 268.734C150.169 251.182 164.369 236.983 181.92 236.579C181.516 254.13 167.316 268.333 149.765 268.734ZM183.453 235.046C183.857 217.495 198.056 203.295 215.608 202.891C215.203 220.442 201.004 234.645 183.453 235.046ZM183.453 169.203C201.004 169.607 215.203 183.807 215.608 201.358C198.056 200.957 183.857 186.755 183.453 169.203ZM148.232 268.734C130.681 268.333 116.482 254.13 116.077 236.579C133.629 236.983 147.828 251.182 148.232 268.734ZM116.077 302.421C116.482 284.87 130.681 270.671 148.232 270.266C147.828 287.818 133.629 302.02 116.077 302.421ZM215.608 337.642C215.203 355.193 201.004 369.396 183.453 369.797C183.857 352.245 198.056 338.046 215.608 337.642ZM181.92 371.329C181.516 388.881 167.316 403.084 149.765 403.484C150.169 385.933 164.369 371.734 181.92 371.329ZM181.92 437.172C164.369 436.771 150.169 422.569 149.765 405.017C167.316 405.421 181.516 419.621 181.92 437.172ZM148.232 403.484C130.681 403.084 116.482 388.881 116.077 371.329C133.629 371.734 147.828 385.933 148.232 403.484ZM116.077 437.172C116.482 419.621 130.681 405.421 148.232 405.017C147.828 422.569 133.629 436.771 116.077 437.172ZM215.608 472.393C215.203 489.944 201.004 504.147 183.453 504.548C183.857 486.996 198.056 472.797 215.608 472.393ZM183.453 438.705C201.004 439.109 215.203 453.309 215.608 470.86C198.056 470.459 183.857 456.256 183.453 438.705ZM183.436 437.192C183.089 420.995 171.507 407.52 156.193 404.253C171.507 400.985 183.089 387.506 183.436 371.313C199.63 370.966 213.108 359.387 216.372 344.069C219.64 359.387 233.119 370.966 249.312 371.313C249.659 387.506 261.238 400.985 276.555 404.253C261.238 407.52 249.659 420.995 249.312 437.192C233.119 437.539 219.64 449.118 216.372 464.432C213.108 449.118 199.63 437.539 183.436 437.192ZM282.983 405.017C282.579 422.569 268.379 436.771 250.828 437.172C251.232 419.621 265.432 405.421 282.983 405.017ZM249.295 438.705C248.891 456.256 234.692 470.459 217.14 470.86C217.545 453.309 231.744 439.109 249.295 438.705ZM249.295 504.548C231.744 504.147 217.545 489.944 217.14 472.393C234.692 472.797 248.891 486.996 249.295 504.548ZM350.358 472.393C349.954 489.944 335.755 504.147 318.204 504.548C318.608 486.996 332.807 472.797 350.358 472.393ZM318.204 438.705C335.755 439.109 349.954 453.309 350.358 470.86C332.807 470.459 318.608 456.256 318.204 438.705ZM318.187 437.192C317.84 420.995 306.258 407.52 290.943 404.253C306.258 400.985 317.84 387.506 318.187 371.313C334.38 370.966 347.859 359.387 351.123 344.069C354.391 359.387 367.869 370.966 384.063 371.313C384.41 387.506 395.988 400.985 411.306 404.253C395.988 407.52 384.41 420.995 384.063 437.192C367.869 437.539 354.391 449.118 351.123 464.432C347.859 449.118 334.38 437.539 318.187 437.192ZM417.734 405.017C417.33 422.569 403.13 436.771 385.579 437.172C385.983 419.621 400.183 405.421 417.734 405.017ZM384.046 438.705C383.642 456.256 369.443 470.459 351.891 470.86C352.296 453.309 366.495 439.109 384.046 438.705ZM384.046 504.548C366.495 504.147 352.296 489.944 351.891 472.393C369.443 472.797 383.642 486.996 384.046 504.548ZM485.109 472.393C484.705 489.944 470.506 504.147 452.954 504.548C453.359 486.996 467.558 472.797 485.109 472.393ZM452.954 438.705C470.506 439.109 484.705 453.309 485.109 470.86C467.558 470.459 453.359 456.256 452.954 438.705ZM452.938 437.192C452.591 420.995 441.009 407.52 425.694 404.253C441.009 400.985 452.591 387.506 452.938 371.313C469.131 370.966 482.61 359.387 485.874 344.069C489.142 359.387 502.62 370.966 518.814 371.313C519.161 387.506 530.739 400.985 546.057 404.253C530.739 407.52 519.161 420.995 518.814 437.192C502.62 437.539 489.142 449.118 485.874 464.432C482.61 449.118 469.131 437.539 452.938 437.192ZM520.33 371.329C537.881 371.734 552.08 385.933 552.485 403.484C534.933 403.084 520.734 388.881 520.33 371.329ZM552.485 405.017C552.08 422.569 537.881 436.771 520.33 437.172C520.734 419.621 534.933 405.421 552.485 405.017ZM518.797 438.705C518.393 456.256 504.193 470.459 486.642 470.86C487.046 453.309 501.246 439.109 518.797 438.705ZM518.797 504.548C501.246 504.147 487.046 489.944 486.642 472.393C504.193 472.797 518.393 486.996 518.797 504.548ZM554.018 405.017C571.569 405.421 585.768 419.621 586.172 437.172C568.621 436.771 554.422 422.569 554.018 405.017ZM586.172 371.329C585.768 388.881 571.569 403.084 554.018 403.484C554.422 385.933 568.621 371.734 586.172 371.329ZM554.018 270.266C571.569 270.671 585.768 284.87 586.172 302.421C568.621 302.02 554.422 287.818 554.018 270.266ZM586.172 236.579C585.768 254.13 571.569 268.333 554.018 268.734C554.422 251.182 568.621 236.983 586.172 236.579ZM486.642 201.358C487.046 183.807 501.246 169.607 518.797 169.203C518.393 186.755 504.193 200.957 486.642 201.358ZM520.33 167.67C520.734 150.119 534.933 135.92 552.485 135.516C552.08 153.067 537.881 167.27 520.33 167.67ZM520.33 101.828C537.881 102.232 552.08 116.431 552.485 133.983C534.933 133.582 520.734 119.379 520.33 101.828ZM554.018 135.516C571.569 135.92 585.768 150.119 586.172 167.67C568.621 167.27 554.422 153.067 554.018 135.516ZM586.172 101.828C585.768 119.379 571.569 133.582 554.018 133.983C554.422 116.431 568.621 102.232 586.172 101.828ZM518.797 34.4524C518.393 52.0037 504.193 66.2065 486.642 66.6073C487.046 49.056 501.246 34.8567 518.797 34.4524ZM518.797 100.295C501.246 99.8942 487.046 85.6914 486.642 68.1401C504.193 68.5444 518.393 82.7438 518.797 100.295ZM518.814 101.811C519.161 118.005 530.739 131.483 546.057 134.751C530.739 138.019 519.161 151.494 518.814 167.691C502.62 168.038 489.142 179.616 485.874 194.931C482.61 179.616 469.131 168.038 452.938 167.691C452.591 151.494 441.009 138.019 425.694 134.751C441.009 131.483 452.591 118.005 452.938 101.811C469.131 101.464 482.61 89.8855 485.874 74.5677C489.142 89.8855 502.62 101.464 518.814 101.811ZM419.267 133.983C419.671 116.431 433.87 102.232 451.422 101.828C451.017 119.379 436.818 133.582 419.267 133.983ZM452.954 100.295C453.359 82.7438 467.558 68.5444 485.109 68.1401C484.705 85.6914 470.506 99.8942 452.954 100.295ZM485.109 66.6073C467.558 66.2065 453.359 52.0037 452.954 34.4524C470.506 34.8567 484.705 49.056 485.109 66.6073ZM451.422 32.9196C433.87 32.5187 419.671 18.316 419.267 0.764711C436.818 1.16896 451.017 15.3683 451.422 32.9196ZM417.734 0.764711C417.33 18.316 403.13 32.5187 385.579 32.9196C385.983 15.3683 400.183 1.16896 417.734 0.764711ZM385.562 34.4356C401.756 34.0886 415.234 22.5101 418.499 7.19233C421.766 22.5101 435.245 34.0886 451.438 34.4356C451.785 50.6293 463.364 64.1077 478.682 67.3754C463.364 70.6431 451.785 84.1182 451.438 100.315C435.245 100.662 421.766 112.241 418.499 127.555C415.234 112.241 401.756 100.662 385.562 100.315C385.215 84.1182 373.633 70.6431 358.319 67.3754C373.633 64.1077 385.215 50.6293 385.562 34.4356ZM384.046 34.4524C383.642 52.0037 369.443 66.2065 351.891 66.6073C352.296 49.056 366.495 34.8567 384.046 34.4524ZM384.046 100.295C366.495 99.8942 352.296 85.6914 351.891 68.1401C369.443 68.5444 383.642 82.7438 384.046 100.295ZM384.063 101.811C384.41 118.005 395.988 131.483 411.306 134.751C395.988 138.019 384.41 151.494 384.063 167.691C367.869 168.038 354.391 179.616 351.123 194.931C347.859 179.616 334.38 168.038 318.187 167.691C317.84 151.494 306.258 138.019 290.943 134.751C306.258 131.483 317.84 118.005 318.187 101.811C334.38 101.464 347.859 89.8855 351.123 74.5677C354.391 89.8855 367.869 101.464 384.063 101.811ZM284.516 133.983C284.92 116.431 299.119 102.232 316.671 101.828C316.266 119.379 302.067 133.582 284.516 133.983ZM318.204 100.295C318.608 82.7438 332.807 68.5444 350.358 68.1401C349.954 85.6914 335.755 99.8942 318.204 100.295ZM350.358 66.6073C332.807 66.2065 318.608 52.0037 318.204 34.4524C335.755 34.8567 349.954 49.056 350.358 66.6073ZM316.671 32.9196C299.119 32.5187 284.92 18.316 284.516 0.764711C302.067 1.16896 316.266 15.3683 316.671 32.9196ZM282.983 0.764711C282.579 18.316 268.379 32.5187 250.828 32.9196C251.232 15.3683 265.432 1.16896 282.983 0.764711ZM250.811 34.4356C267.005 34.0886 280.483 22.5101 283.748 7.19233C287.015 22.5101 300.494 34.0886 316.688 34.4356C317.035 50.6293 328.613 64.1077 343.931 67.3754C328.613 70.6431 317.035 84.1182 316.688 100.315C300.494 100.662 287.015 112.241 283.748 127.555C280.483 112.241 267.005 100.662 250.811 100.315C250.464 84.1182 238.883 70.6431 223.568 67.3754C238.883 64.1077 250.464 50.6293 250.811 34.4356ZM249.295 34.4524C248.891 52.0037 234.692 66.2065 217.14 66.6073C217.545 49.056 231.744 34.8567 249.295 34.4524ZM249.295 100.295C231.744 99.8942 217.545 85.6914 217.14 68.1401C234.692 68.5444 248.891 82.7438 249.295 100.295ZM249.312 101.811C249.659 118.005 261.238 131.483 276.555 134.751C261.238 138.019 249.659 151.494 249.312 167.691C233.119 168.038 219.64 179.616 216.372 194.931C213.108 179.616 199.63 168.038 183.436 167.691C183.089 151.494 171.507 138.019 156.193 134.751C171.507 131.483 183.089 118.005 183.436 101.811C199.63 101.464 213.108 89.8855 216.372 74.5677C219.64 89.8855 233.119 101.464 249.312 101.811ZM149.765 133.983C150.169 116.431 164.369 102.232 181.92 101.828C181.516 119.379 167.316 133.582 149.765 133.983ZM183.453 100.295C183.857 82.7438 198.056 68.5444 215.608 68.1401C215.203 85.6914 201.004 99.8942 183.453 100.295ZM215.608 66.6073C198.056 66.2065 183.857 52.0037 183.453 34.4524C201.004 34.8567 215.203 49.056 215.608 66.6073ZM181.92 32.9196C164.369 32.5187 150.169 18.316 149.765 0.764711C167.316 1.16896 181.516 15.3683 181.92 32.9196ZM148.232 0.764711C147.828 18.316 133.629 32.5187 116.077 32.9196C116.482 15.3683 130.681 1.16896 148.232 0.764711ZM116.06 34.4356C132.254 34.0886 145.733 22.5101 148.997 7.19233C152.265 22.5101 165.743 34.0886 181.937 34.4356C182.284 50.6293 193.862 64.1077 209.18 67.3754C193.862 70.6431 182.284 84.1182 181.937 100.315C165.743 100.662 152.265 112.241 148.997 127.555C145.733 112.241 132.254 100.662 116.06 100.315C115.713 84.1182 104.132 70.6431 88.8172 67.3754C104.132 64.1077 115.713 50.6293 116.06 34.4356ZM114.545 34.4524C114.14 52.0037 99.9409 66.2065 82.3896 66.6073C82.7939 49.056 96.9932 34.8567 114.545 34.4524ZM114.545 100.295C96.9932 99.8942 82.7939 85.6914 82.3896 68.1401C99.9409 68.5444 114.14 82.7438 114.545 100.295ZM48.7019 34.4524C66.2532 34.8567 80.4525 49.056 80.8568 66.6073C63.3055 66.2065 49.1061 52.0037 48.7019 34.4524ZM80.8568 68.1401C80.4525 85.6914 66.2532 99.8942 48.7019 100.295C49.1061 82.7438 63.3055 68.5444 80.8568 68.1401ZM47.1691 101.828C46.7648 119.379 32.5655 133.582 15.0142 133.983C15.4184 116.431 29.6178 102.232 47.1691 101.828ZM15.0142 135.516C32.5655 135.92 46.7648 150.119 47.1691 167.67C29.6178 167.27 15.4184 153.067 15.0142 135.516ZM21.4418 134.751C36.7562 131.483 48.338 118.005 48.685 101.811C64.8787 101.464 78.3572 89.8855 81.6215 74.5677C84.8892 89.8855 98.3677 101.464 114.561 101.811C114.908 118.005 126.487 131.483 141.805 134.751C126.487 138.019 114.908 151.494 114.561 167.691C98.3677 168.038 84.8892 179.616 81.6215 194.931C78.3572 179.616 64.8787 168.038 48.685 167.691C48.338 151.494 36.7562 138.019 21.4418 134.751ZM48.7019 169.203C66.2532 169.607 80.4525 183.807 80.8568 201.358C63.3055 200.957 49.1061 186.755 48.7019 169.203ZM80.8568 202.891C80.4525 220.442 66.2532 234.645 48.7019 235.046C49.1061 217.495 63.3055 203.295 80.8568 202.891ZM47.1691 236.579C46.7648 254.13 32.5655 268.333 15.0142 268.734C15.4184 251.182 29.6178 236.983 47.1691 236.579ZM15.0142 270.266C32.5655 270.671 46.7648 284.87 47.1691 302.421C29.6178 302.02 15.4184 287.818 15.0142 270.266ZM21.4418 269.502C36.7562 266.234 48.338 252.755 48.685 236.562C64.8787 236.215 78.3572 224.636 81.6215 209.319C84.8892 224.636 98.3677 236.215 114.561 236.562C114.908 252.755 126.487 266.234 141.805 269.502C126.487 272.769 114.908 286.244 114.561 302.441C98.3677 302.788 84.8892 314.367 81.6215 329.681C78.3572 314.367 64.8787 302.788 48.685 302.441C48.338 286.244 36.7562 272.769 21.4418 269.502ZM48.7019 303.954C66.2532 304.358 80.4525 318.558 80.8568 336.109C63.3055 335.708 49.1061 321.505 48.7019 303.954ZM80.8568 337.642C80.4525 355.193 66.2532 369.396 48.7019 369.797C49.1061 352.245 63.3055 338.046 80.8568 337.642ZM47.1691 371.329C46.7648 388.881 32.5655 403.084 15.0142 403.484C15.4184 385.933 29.6178 371.734 47.1691 371.329ZM15.0142 405.017C32.5655 405.421 46.7648 419.621 47.1691 437.172C29.6178 436.771 15.4184 422.569 15.0142 405.017ZM21.4418 404.253C36.7562 400.985 48.338 387.506 48.685 371.313C64.8787 370.966 78.3572 359.387 81.6215 344.069C84.8892 359.387 98.3677 370.966 114.561 371.313C114.908 387.506 126.487 400.985 141.805 404.253C126.487 407.52 114.908 420.995 114.561 437.192C98.3677 437.539 84.8892 449.118 81.6215 464.432C78.3572 449.118 64.8787 437.539 48.685 437.192C48.338 420.995 36.7562 407.52 21.4418 404.253ZM48.7019 438.705C66.2532 439.109 80.4525 453.309 80.8568 470.86C63.3055 470.459 49.1061 456.256 48.7019 438.705ZM80.8568 472.393C80.4525 489.944 66.2532 504.147 48.7019 504.548C49.1061 486.996 63.3055 472.797 80.8568 472.393ZM47.1691 506.08C46.7648 523.632 32.5655 537.834 15.0142 538.235C15.4184 520.684 29.6178 506.485 47.1691 506.08ZM15.0142 539.768C32.5655 540.172 46.7648 554.372 47.1691 571.923C29.6178 571.522 15.4184 557.319 15.0142 539.768ZM48.7019 639.298C49.1061 621.747 63.3055 607.548 80.8568 607.143C80.4525 624.695 66.2532 638.897 48.7019 639.298ZM48.7019 573.456C66.2532 573.86 80.4525 588.059 80.8568 605.611C63.3055 605.21 49.1061 591.007 48.7019 573.456ZM48.685 571.943C48.338 555.746 36.7562 542.271 21.4418 539.003C36.7562 535.736 48.338 522.257 48.685 506.063C64.8787 505.716 78.3572 494.138 81.6215 478.82C84.8892 494.138 98.3677 505.716 114.561 506.063C114.908 522.257 126.487 535.736 141.805 539.003C126.487 542.271 114.908 555.746 114.561 571.943C98.3677 572.29 84.8892 583.869 81.6215 599.183C78.3572 583.869 64.8787 572.29 48.685 571.943ZM148.232 539.768C147.828 557.319 133.629 571.522 116.077 571.923C116.482 554.372 130.681 540.172 148.232 539.768ZM114.545 573.456C114.14 591.007 99.9409 605.21 82.3896 605.611C82.7939 588.059 96.9932 573.86 114.545 573.456ZM82.3896 607.143C99.9409 607.548 114.14 621.747 114.545 639.298C96.9932 638.897 82.7939 624.695 82.3896 607.143ZM116.077 640.831C133.629 641.235 147.828 655.435 148.232 672.986C130.681 672.585 116.482 658.382 116.077 640.831ZM149.765 672.986C150.169 655.435 164.369 641.235 181.92 640.831C181.516 658.382 167.316 672.585 149.765 672.986ZM181.937 639.319C165.743 639.666 152.265 651.244 148.997 666.558C145.733 651.244 132.254 639.666 116.06 639.319C115.713 623.122 104.132 609.646 88.8172 606.379C104.132 603.111 115.713 589.633 116.06 573.439C132.254 573.092 145.733 561.513 148.997 546.196C152.265 561.513 165.743 573.092 181.937 573.439C182.284 589.633 193.862 603.111 209.18 606.379C193.862 609.646 182.284 623.122 181.937 639.319ZM183.453 639.298C183.857 621.747 198.056 607.548 215.608 607.143C215.203 624.695 201.004 638.897 183.453 639.298ZM183.453 573.456C201.004 573.86 215.203 588.059 215.608 605.611C198.056 605.21 183.857 591.007 183.453 573.456ZM183.436 571.943C183.089 555.746 171.507 542.271 156.193 539.003C171.507 535.736 183.089 522.257 183.436 506.063C199.63 505.716 213.108 494.138 216.372 478.82C219.64 494.138 233.119 505.716 249.312 506.063C249.659 522.257 261.238 535.736 276.555 539.003C261.238 542.271 249.659 555.746 249.312 571.943C233.119 572.29 219.64 583.869 216.372 599.183C213.108 583.869 199.63 572.29 183.436 571.943ZM282.983 539.768C282.579 557.319 268.379 571.522 250.828 571.923C251.232 554.372 265.432 540.172 282.983 539.768ZM249.295 573.456C248.891 591.007 234.692 605.21 217.14 605.611C217.545 588.059 231.744 573.86 249.295 573.456ZM217.14 607.143C234.692 607.548 248.891 621.747 249.295 639.298C231.744 638.897 217.545 624.695 217.14 607.143ZM250.828 640.831C268.379 641.235 282.579 655.435 282.983 672.986C265.432 672.585 251.232 658.382 250.828 640.831ZM284.516 672.986C284.92 655.435 299.119 641.235 316.671 640.831C316.266 658.382 302.067 672.585 284.516 672.986ZM316.688 639.319C300.494 639.666 287.015 651.244 283.748 666.558C280.483 651.244 267.005 639.666 250.811 639.319C250.464 623.122 238.883 609.646 223.568 606.379C238.883 603.111 250.464 589.633 250.811 573.439C267.005 573.092 280.483 561.513 283.748 546.196C287.015 561.513 300.494 573.092 316.688 573.439C317.035 589.633 328.613 603.111 343.931 606.379C328.613 609.646 317.035 623.122 316.688 639.319ZM318.204 639.298C318.608 621.747 332.807 607.548 350.358 607.143C349.954 624.695 335.755 638.897 318.204 639.298ZM318.204 573.456C335.755 573.86 349.954 588.059 350.358 605.611C332.807 605.21 318.608 591.007 318.204 573.456ZM318.187 571.943C317.84 555.746 306.258 542.271 290.943 539.003C306.258 535.736 317.84 522.257 318.187 506.063C334.38 505.716 347.859 494.138 351.123 478.82C354.391 494.138 367.869 505.716 384.063 506.063C384.41 522.257 395.988 535.736 411.306 539.003C395.988 542.271 384.41 555.746 384.063 571.943C367.869 572.29 354.391 583.869 351.123 599.183C347.859 583.869 334.38 572.29 318.187 571.943ZM417.734 539.768C417.33 557.319 403.13 571.522 385.579 571.923C385.983 554.372 400.183 540.172 417.734 539.768ZM384.046 573.456C383.642 591.007 369.443 605.21 351.891 605.611C352.296 588.059 366.495 573.86 384.046 573.456ZM351.891 607.143C369.443 607.548 383.642 621.747 384.046 639.298C366.495 638.897 352.296 624.695 351.891 607.143ZM385.579 640.831C403.13 641.235 417.33 655.435 417.734 672.986C400.183 672.585 385.983 658.382 385.579 640.831ZM419.267 672.986C419.671 655.435 433.87 641.235 451.422 640.831C451.017 658.382 436.818 672.585 419.267 672.986ZM451.438 639.319C435.245 639.666 421.766 651.244 418.499 666.558C415.234 651.244 401.756 639.666 385.562 639.319C385.215 623.122 373.633 609.646 358.319 606.379C373.633 603.111 385.215 589.633 385.562 573.439C401.756 573.092 415.234 561.513 418.499 546.196C421.766 561.513 435.245 573.092 451.438 573.439C451.785 589.633 463.364 603.111 478.682 606.379C463.364 609.646 451.785 623.122 451.438 639.319ZM452.954 639.298C453.359 621.747 467.558 607.548 485.109 607.143C484.705 624.695 470.506 638.897 452.954 639.298ZM452.954 573.456C470.506 573.86 484.705 588.059 485.109 605.611C467.558 605.21 453.359 591.007 452.954 573.456ZM452.938 571.943C452.591 555.746 441.009 542.271 425.694 539.003C441.009 535.736 452.591 522.257 452.938 506.063C469.131 505.716 482.61 494.138 485.874 478.82C489.142 494.138 502.62 505.716 518.814 506.063C519.161 522.257 530.739 535.736 546.057 539.003C530.739 542.271 519.161 555.746 518.814 571.943C502.62 572.29 489.142 583.869 485.874 599.183C482.61 583.869 469.131 572.29 452.938 571.943ZM552.485 539.768C552.08 557.319 537.881 571.522 520.33 571.923C520.734 554.372 534.933 540.172 552.485 539.768ZM518.797 573.456C518.393 591.007 504.193 605.21 486.642 605.611C487.046 588.059 501.246 573.86 518.797 573.456ZM486.642 607.143C504.193 607.548 518.393 621.747 518.797 639.298C501.246 638.897 487.046 624.695 486.642 607.143ZM520.33 640.831C537.881 641.235 552.08 655.435 552.485 672.986C534.933 672.585 520.734 658.382 520.33 640.831ZM554.018 672.986C554.422 655.435 568.621 641.235 586.172 640.831C585.768 658.382 571.569 672.585 554.018 672.986ZM586.189 639.319C569.996 639.666 556.517 651.244 553.249 666.558C549.985 651.244 536.507 639.666 520.313 639.319C519.966 623.122 508.384 609.646 493.07 606.379C508.384 603.111 519.966 589.633 520.313 573.439C536.507 573.092 549.985 561.513 553.249 546.196C556.517 561.513 569.996 573.092 586.189 573.439C586.536 589.633 598.115 603.111 613.432 606.379C598.115 609.646 586.536 623.122 586.189 639.319ZM587.705 639.298C588.109 621.747 602.309 607.548 619.86 607.143C619.456 624.695 605.257 638.897 587.705 639.298ZM587.705 573.456C605.257 573.86 619.456 588.059 619.86 605.611C602.309 605.21 588.109 591.007 587.705 573.456ZM653.548 639.298C635.997 638.897 621.797 624.695 621.393 607.143C638.944 607.548 653.144 621.747 653.548 639.298ZM621.393 605.611C621.797 588.059 635.997 573.86 653.548 573.456C653.144 591.007 638.944 605.21 621.393 605.611ZM655.081 571.923C655.485 554.372 669.684 540.172 687.236 539.768C686.831 557.319 672.632 571.522 655.081 571.923ZM687.236 538.235C669.684 537.834 655.485 523.632 655.081 506.08C672.632 506.485 686.831 520.684 687.236 538.235ZM680.808 539.003C665.49 542.271 653.912 555.746 653.565 571.943C637.371 572.29 623.893 583.869 620.625 599.183C617.36 583.869 603.882 572.29 587.688 571.943C587.341 555.746 575.76 542.271 560.445 539.003C575.76 535.736 587.341 522.257 587.688 506.063C603.882 505.716 617.36 494.138 620.625 478.82C623.893 494.138 637.371 505.716 653.565 506.063C653.912 522.257 665.49 535.736 680.808 539.003ZM653.548 504.548C635.997 504.147 621.797 489.944 621.393 472.393C638.944 472.797 653.144 486.996 653.548 504.548ZM621.393 470.86C621.797 453.309 635.997 439.109 653.548 438.705C653.144 456.256 638.944 470.459 621.393 470.86ZM655.081 437.172C655.485 419.621 669.684 405.421 687.236 405.017C686.831 422.569 672.632 436.771 655.081 437.172ZM687.236 403.484C669.684 403.084 655.485 388.881 655.081 371.329C672.632 371.734 686.831 385.933 687.236 403.484ZM680.808 404.253C665.49 407.52 653.912 420.995 653.565 437.192C637.371 437.539 623.893 449.118 620.625 464.432C617.36 449.118 603.882 437.539 587.688 437.192C587.341 420.995 575.76 407.52 560.445 404.253C575.76 400.985 587.341 387.506 587.688 371.313C603.882 370.966 617.36 359.387 620.625 344.069C623.893 359.387 637.371 370.966 653.565 371.313C653.912 387.506 665.49 400.985 680.808 404.253ZM653.548 369.797C635.997 369.396 621.797 355.193 621.393 337.642C638.944 338.046 653.144 352.245 653.548 369.797ZM621.393 336.109C621.797 318.558 635.997 304.358 653.548 303.954C653.144 321.505 638.944 335.708 621.393 336.109ZM655.081 302.421C655.485 284.87 669.684 270.671 687.236 270.266C686.831 287.818 672.632 302.02 655.081 302.421ZM687.236 268.734C669.684 268.333 655.485 254.13 655.081 236.579C672.632 236.983 686.831 251.182 687.236 268.734ZM680.808 269.502C665.49 272.769 653.912 286.244 653.565 302.441C637.371 302.788 623.893 314.367 620.625 329.681C617.36 314.367 603.882 302.788 587.688 302.441C587.341 286.244 575.76 272.769 560.445 269.502C575.76 266.234 587.341 252.755 587.688 236.562C603.882 236.215 617.36 224.636 620.625 209.319C623.893 224.636 637.371 236.215 653.565 236.562C653.912 252.755 665.49 266.234 680.808 269.502ZM653.548 235.046C635.997 234.645 621.797 220.442 621.393 202.891C638.944 203.295 653.144 217.495 653.548 235.046ZM621.393 201.358C621.797 183.807 635.997 169.607 653.548 169.203C653.144 186.755 638.944 200.957 621.393 201.358ZM655.081 167.67C655.485 150.119 669.684 135.92 687.236 135.516C686.831 153.067 672.632 167.27 655.081 167.67ZM687.236 133.983C669.684 133.582 655.485 119.379 655.081 101.828C672.632 102.232 686.831 116.431 687.236 133.983ZM680.808 134.751C665.49 138.019 653.912 151.494 653.565 167.691C637.371 168.038 623.893 179.616 620.625 194.931C617.36 179.616 603.882 168.038 587.688 167.691C587.341 151.494 575.76 138.019 560.445 134.751C575.76 131.483 587.341 118.005 587.688 101.811C603.882 101.464 617.36 89.8855 620.625 74.5677C623.893 89.8855 637.371 101.464 653.565 101.811C653.912 118.005 665.49 131.483 680.808 134.751ZM653.548 100.295C635.997 99.8942 621.797 85.6914 621.393 68.1401C638.944 68.5444 653.144 82.7438 653.548 100.295ZM621.393 66.6073C621.797 49.056 635.997 34.8567 653.548 34.4524C653.144 52.0037 638.944 66.2065 621.393 66.6073Z" fill="#FDFADF"/>
<path d="M47.9338 201.998V202.251C29.4291 202.251 14.3741 217.306 14.3741 235.814H14.2461V168.438H14.3741C14.3741 186.943 29.4291 201.998 47.9338 201.998Z" fill="#FDFADF"/>
<path d="M81.6213 168.438H81.7493C81.7493 149.934 96.8044 134.875 115.312 134.875V134.623C96.8077 134.623 81.7493 119.568 81.7493 101.06H81.4966C81.4966 119.564 66.4416 134.623 47.9336 134.623V134.875C66.4382 134.875 81.4966 149.93 81.4966 168.438H81.6247H81.6213Z" fill="#FDFADF"/>
<path d="M47.9338 67.2472V67.4998C29.4291 67.4998 14.3741 82.5549 14.3741 101.063H14.2461V33.6875H14.3741C14.3741 52.1922 29.4291 67.2472 47.9338 67.2472Z" fill="#FDFADF"/>
<path d="M81.6213 303.189H81.7493C81.7493 284.685 96.8044 269.626 115.312 269.626V269.374C96.8077 269.374 81.7493 254.319 81.7493 235.811H81.4966C81.4966 254.315 66.4416 269.374 47.9336 269.374V269.626C66.4382 269.626 81.4966 284.681 81.4966 303.189H81.6247H81.6213Z" fill="#FDFADF"/>
<path d="M148.996 235.814H149.124C149.124 217.31 164.179 202.251 182.687 202.251V201.999C164.183 201.999 149.124 186.944 149.124 168.436H148.872C148.872 186.94 133.817 201.999 115.309 201.999V202.251C133.813 202.251 148.872 217.306 148.872 235.814H149H148.996Z" fill="#FDFADF"/>
<path d="M216.371 303.189H216.499C216.499 284.685 231.554 269.626 250.062 269.626V269.374C231.558 269.374 216.499 254.319 216.499 235.811H216.247C216.247 254.315 201.192 269.374 182.684 269.374V269.626C201.188 269.626 216.247 284.681 216.247 303.189H216.375H216.371Z" fill="#FDFADF"/>
<path d="M115.309 0V0.124645C96.8043 0.124645 81.7493 15.1797 81.7493 33.6877H81.4966C81.4966 15.1797 66.4416 0.124645 47.9336 0.124645V0L115.309 0Z" fill="#FDFADF"/>
<path d="M148.872 101.063H149H149.128C149.128 82.5587 164.183 67.5003 182.691 67.5003V67.2476C164.187 67.2476 149.128 52.1926 149.128 33.6846H148.876C148.876 52.1892 133.821 67.2476 115.312 67.2476V67.5003C133.817 67.5003 148.876 82.5553 148.876 101.063H148.872Z" fill="#FDFADF"/>
<path d="M250.059 0V0.124645C231.554 0.124645 216.499 15.1797 216.499 33.6877H216.247C216.247 15.1797 201.192 0.124645 182.684 0.124645V0L250.059 0Z" fill="#FDFADF"/>
<path d="M216.247 168.438H216.375H216.503C216.503 149.934 231.558 134.875 250.066 134.875V134.623C231.562 134.623 216.503 119.568 216.503 101.06H216.251C216.251 119.564 201.196 134.623 182.688 134.623V134.875C201.192 134.875 216.251 149.93 216.251 168.438H216.247Z" fill="#FDFADF"/>
<path d="M283.622 101.063H283.75H283.878C283.878 82.5587 298.933 67.5003 317.441 67.5003V67.2476C298.937 67.2476 283.878 52.1926 283.878 33.6846H283.626C283.626 52.1892 268.571 67.2476 250.062 67.2476V67.5003C268.567 67.5003 283.626 82.5553 283.626 101.063H283.622Z" fill="#FDFADF"/>
<path d="M384.813 0V0.124645C366.308 0.124645 351.253 15.1797 351.253 33.6877H351.001C351.001 15.1797 335.946 0.124645 317.438 0.124645V0L384.813 0Z" fill="#FDFADF"/>
<path d="M350.997 303.189H351.125H351.253C351.253 284.685 366.308 269.626 384.816 269.626V269.374C366.312 269.374 351.253 254.319 351.253 235.811H351.001C351.001 254.315 335.946 269.374 317.438 269.374V269.626C335.942 269.626 351.001 284.681 351.001 303.189H350.997Z" fill="#FDFADF"/>
<path d="M283.622 235.814H283.75H283.878C283.878 217.31 298.933 202.251 317.441 202.251V201.999C298.937 201.999 283.878 186.944 283.878 168.436H283.626C283.626 186.94 268.571 201.999 250.062 201.999V202.251C268.567 202.251 283.626 217.306 283.626 235.814H283.622Z" fill="#FDFADF"/>
<path d="M350.997 168.438H351.125H351.253C351.253 149.934 366.308 134.875 384.816 134.875V134.623C366.312 134.623 351.253 119.568 351.253 101.06H351.001C351.001 119.564 335.946 134.623 317.438 134.623V134.875C335.942 134.875 351.001 149.93 351.001 168.438H350.997Z" fill="#FDFADF"/>
<path d="M418.372 101.063H418.5H418.628C418.628 82.5587 433.683 67.5003 452.191 67.5003V67.2476C433.687 67.2476 418.628 52.1926 418.628 33.6846H418.376C418.376 52.1892 403.321 67.2476 384.812 67.2476V67.5003C403.317 67.5003 418.376 82.5553 418.376 101.063H418.372Z" fill="#FDFADF"/>
<path d="M418.372 235.814H418.5H418.628C418.628 217.31 433.683 202.251 452.191 202.251V201.999C433.687 201.999 418.628 186.944 418.628 168.436H418.376C418.376 186.94 403.321 201.999 384.812 201.999V202.251C403.317 202.251 418.376 217.306 418.376 235.814H418.372Z" fill="#FDFADF"/>
<path d="M485.747 168.438H485.875H486.003C486.003 149.934 501.058 134.875 519.566 134.875V134.623C501.062 134.623 486.003 119.568 486.003 101.06H485.751C485.751 119.564 470.696 134.623 452.188 134.623V134.875C470.692 134.875 485.751 149.93 485.751 168.438H485.747Z" fill="#FDFADF"/>
<path d="M553.126 101.063H553.254H553.382C553.382 82.5587 568.437 67.5003 586.945 67.5003V67.2476C568.441 67.2476 553.382 52.1926 553.382 33.6846H553.129C553.129 52.1892 538.074 67.2476 519.566 67.2476V67.5003C538.071 67.5003 553.129 82.5553 553.129 101.063H553.126Z" fill="#FDFADF"/>
<path d="M519.563 0V0.124645C501.058 0.124645 486.003 15.1797 486.003 33.6877H485.751C485.751 15.1797 470.696 0.124645 452.188 0.124645V0L519.563 0Z" fill="#FDFADF"/>
<path d="M654.313 0V0.124645C635.808 0.124645 620.753 15.1797 620.753 33.6877H620.501C620.501 15.1797 605.446 0.124645 586.938 0.124645V0L654.313 0Z" fill="#FDFADF"/>
<path d="M485.751 235.813C485.751 254.318 470.696 269.377 452.188 269.377V269.629C470.692 269.629 485.751 284.684 485.751 303.192H485.879H486.007C486.007 284.688 501.062 269.629 519.57 269.629V269.377C501.065 269.377 486.007 254.322 486.007 235.813H485.754H485.751Z" fill="#FDFADF"/>
<path d="M553.126 168.438C553.126 186.943 538.071 202.002 519.562 202.002V202.254C538.067 202.254 553.126 217.309 553.126 235.817H553.254H553.382C553.382 217.313 568.437 202.254 586.945 202.254V202.002C568.44 202.002 553.382 186.947 553.382 168.438H553.129H553.126Z" fill="#FDFADF"/>
<path d="M620.501 235.813C620.501 254.318 605.446 269.377 586.938 269.377V269.629C605.442 269.629 620.501 284.684 620.501 303.192H620.629H620.757C620.757 284.688 635.812 269.629 654.32 269.629V269.377C635.815 269.377 620.757 254.322 620.757 235.813H620.504H620.501Z" fill="#FDFADF"/>
<path d="M620.501 101.063C620.501 119.568 605.446 134.627 586.938 134.627V134.879C605.442 134.879 620.501 149.934 620.501 168.442H620.629H620.757C620.757 149.938 635.812 134.879 654.32 134.879V134.627C635.815 134.627 620.757 119.572 620.757 101.063H620.504H620.501Z" fill="#FDFADF"/>
<path d="M688 33.6875V101.063H687.876C687.876 82.5549 672.821 67.4998 654.312 67.4998V67.2472C672.821 67.2472 687.876 52.1922 687.876 33.6875H688Z" fill="#FDFADF"/>
<path d="M688 168.438V235.814H687.876C687.876 217.306 672.821 202.251 654.312 202.251V201.998C672.821 201.998 687.876 186.943 687.876 168.438H688Z" fill="#FDFADF"/>
</g>
<defs>
<radialGradient id="paint0_radial_526_12220" cx="0" cy="0" r="1" gradientUnits="userSpaceOnUse" gradientTransform="translate(1800 -1923.5) rotate(125.709) scale(2575.2 1472.1)">
<stop stop-color="#D9D9D9"/>
<stop offset="1" stop-color="#D9D9D9" stop-opacity="0"/>
</radialGradient>
</defs>
</svg>
