<svg width="32" height="32" viewBox="0 0 32 32" fill="none" xmlns="http://www.w3.org/2000/svg">
<mask id="mask0_350_14888" style="mask-type:alpha" maskUnits="userSpaceOnUse" x="0" y="0" width="32" height="32">
<circle cx="16" cy="16" r="16" fill="#3EB0EE"/>
</mask>
<g mask="url(#mask0_350_14888)">
<mask id="mask1_350_14888" style="mask-type:alpha" maskUnits="userSpaceOnUse" x="-1" y="-1" width="34" height="34">
<path fill-rule="evenodd" clip-rule="evenodd" d="M7.58786 -0.712851L9.01884 -0.727539L23.9079 -0.72179C24.1337 -0.71949 24.2741 -0.716667 24.4145 -0.712851C25.1526 -0.693248 25.8972 -0.650018 26.6272 -0.520328C27.3683 -0.388913 28.0574 -0.173913 28.7303 0.165027C29.3915 0.497589 29.9972 0.932188 30.522 1.45157C31.0468 1.96971 31.4864 2.56803 31.8228 3.22223C32.1662 3.88798 32.3832 4.56931 32.5161 5.30192C32.6473 6.02355 32.691 6.75961 32.7108 7.48934C32.7202 7.82421 32.7242 8.15912 32.726 8.49456L32.728 9.09094L32.7283 22.3069C32.7283 22.7046 32.7283 23.1023 32.726 23.5006C32.7242 23.8355 32.7202 24.1704 32.7108 24.5053C32.691 25.2344 32.6473 25.9711 32.5161 26.6921C32.3832 27.4247 32.1662 28.1066 31.8228 28.7724C31.4864 29.426 31.0468 30.0243 30.522 30.5431C29.9972 31.0619 29.3915 31.497 28.7303 31.8296C28.0574 32.1685 27.3683 32.3835 26.6272 32.515C25.8972 32.6446 25.1526 32.6879 24.4145 32.7075L22.1907 32.7248L8.09397 32.7164C7.86821 32.7141 7.72806 32.7113 7.58786 32.7075C6.84971 32.6879 6.10513 32.6446 5.37514 32.515C4.63411 32.3835 3.94494 32.1685 3.27208 31.8296C2.6103 31.497 2.00508 31.0619 1.48031 30.5431C0.955592 30.0243 0.515921 29.426 0.178915 28.7724C-0.163893 28.1066 -0.380828 27.4247 -0.514334 26.6921C-0.64554 25.9711 -0.688665 25.2344 -0.708476 24.5053C-0.717833 24.1704 -0.72191 23.8355 -0.723635 23.5006L-0.726196 22.9035L-0.726562 9.68775C-0.726562 9.29 -0.726563 8.89173 -0.723635 8.49456C-0.72191 8.15912 -0.717833 7.82421 -0.708476 7.48934C-0.688665 6.75961 -0.64554 6.02355 -0.514334 5.30192C-0.380828 4.56931 -0.163893 3.88798 0.178915 3.22223C0.515921 2.56803 0.955592 1.96971 1.48031 1.45157C2.00508 0.932188 2.6103 0.497589 3.27208 0.165027C3.94494 -0.173913 4.63411 -0.388913 5.37514 -0.520328C6.10513 -0.650018 6.84971 -0.693248 7.58786 -0.712851Z" fill="white"/>
</mask>
<g mask="url(#mask1_350_14888)">
<path d="M32.7283 -0.729492H-0.726562V32.7254H32.7283V-0.729492Z" fill="#19AA1E"/>
<path fill-rule="evenodd" clip-rule="evenodd" d="M-0.726562 -0.729492H32.7283V10.2479L-0.726562 5.02057V-0.729492Z" fill="#FFB919"/>
<path fill-rule="evenodd" clip-rule="evenodd" d="M-0.726562 29.0662L32.7283 23.8389V32.7253H-0.726562V29.0662Z" fill="#82D714"/>
<path fill-rule="evenodd" clip-rule="evenodd" d="M-0.726562 4.35938L10.9511 6.18397C12.4048 5.26381 14.1342 4.75932 16.0009 4.75932C18.5863 4.75932 20.9084 5.72716 22.5993 7.42666C22.8127 7.64114 23.0139 7.86539 23.2026 8.09827L32.7283 9.58665V10.9093L24.1699 9.57212C24.8057 10.7923 25.1487 12.1517 25.1487 13.5391C25.1487 15.3315 24.7478 17.1186 23.9191 18.9128L23.8938 18.9671L23.5419 19.7213H22.7096C20.991 19.7213 19.851 20.2354 19.1056 21.1465C18.5204 21.8619 18.182 22.8262 18.0681 23.8784L18.0647 23.9113L18.048 24.0794L18.0409 24.1525L18.0274 24.2956C17.9839 24.7654 17.9547 25.1638 17.9399 25.4884L32.7283 23.1777V24.5004L-0.726562 29.7277V28.405L14.0785 26.0917L14.072 25.7948L14.0701 25.711L14.0688 25.6681L14.0666 25.6018C14.0532 25.2418 14.0202 24.7802 13.9673 24.2208L13.9572 24.1147L13.9391 23.9311C13.8328 22.8733 13.4995 21.8967 12.9158 21.1708C12.1783 20.2535 11.0488 19.7318 9.34398 19.7215L9.29218 19.7213H8.45989L8.10793 18.9671C7.2621 17.1547 6.85306 15.3496 6.85306 13.5391C6.85306 11.2624 7.77673 9.06078 9.40248 7.42666C9.44942 7.37951 9.49683 7.33289 9.54471 7.28689L-0.726562 5.68199V4.35938Z" fill="white"/>
<path fill-rule="evenodd" clip-rule="evenodd" d="M16.0011 6.06641C20.6718 6.06641 23.8421 9.6614 23.8421 13.5394C23.8421 15.0963 23.5025 16.7164 22.7098 18.4148C18.114 18.4148 16.9795 21.7061 16.7651 23.7769L16.7513 23.9149C16.6787 24.654 16.6366 25.2471 16.6251 25.6942L15.3803 25.8886L15.38 25.8484C15.3753 25.3798 15.331 24.7224 15.2472 23.8762L15.2434 23.8393C15.0453 21.7729 13.9347 18.4148 9.29245 18.4148C8.49983 16.7164 8.16016 15.0963 8.16016 13.5394C8.16016 9.6614 11.3305 6.06641 16.0011 6.06641Z" fill="#0073FA"/>
</g>
</g>
</svg>
