<svg width="80" height="80" viewBox="0 0 80 80" fill="none" xmlns="http://www.w3.org/2000/svg">
<mask id="mask0_350_14984" style="mask-type:alpha" maskUnits="userSpaceOnUse" x="0" y="0" width="80" height="80">
<rect width="80" height="80" rx="12" fill="#F2F8F6"/>
</mask>
<g mask="url(#mask0_350_14984)">
<path d="M79.9991 -0.00341797H-0.00390625V79.9996H79.9991V-0.00341797Z" fill="#19AA1E"/>
<path fill-rule="evenodd" clip-rule="evenodd" d="M-0.00390625 -0.00341797H79.9991V26.2476L-0.00390625 13.7471V-0.00341797Z" fill="#FFB919"/>
<path fill-rule="evenodd" clip-rule="evenodd" d="M-0.00390625 71.2483L79.9991 58.7478V79.9986H-0.00390625V71.2483Z" fill="#82D714"/>
<path fill-rule="evenodd" clip-rule="evenodd" d="M-0.00390625 12.1675L27.9218 16.5308C31.398 14.3303 35.5337 13.1239 39.9976 13.1239C46.1804 13.1239 51.7334 15.4384 55.7768 19.5025C56.2871 20.0154 56.7684 20.5517 57.2197 21.1086L79.9991 24.6678V27.8308L59.5327 24.6331C61.0532 27.5509 61.8735 30.8019 61.8735 34.1197C61.8735 38.4059 60.9147 42.6795 58.933 46.9701L58.8726 47.1001L58.0309 48.9036H56.0406C51.9308 48.9036 49.2046 50.133 47.4223 52.3118C46.0227 54.0224 45.2134 56.3285 44.9412 58.8448L44.9329 58.9234L44.8931 59.3254L44.8762 59.5003L44.8438 59.8424C44.7397 60.9658 44.6699 61.9185 44.6345 62.6949L79.9991 57.1691V60.3321L-0.00390625 72.8325V69.6695L35.4006 64.1376L35.3849 63.4274L35.3803 63.2272L35.3773 63.1245L35.3719 62.966C35.3399 62.105 35.2611 61.0012 35.1347 59.6635L35.1104 59.4099L35.0672 58.9706C34.813 56.4412 34.0159 54.1058 32.6201 52.3698C30.8564 50.1762 28.1553 48.9288 24.0785 48.904L23.9546 48.9036H21.9643L21.1227 47.1001C19.0999 42.7658 18.1218 38.4492 18.1218 34.1197C18.1218 28.6751 20.3306 23.4103 24.2184 19.5025C24.3307 19.3898 24.444 19.2783 24.5585 19.1682L-0.00390625 15.3303V12.1675Z" fill="white"/>
<path fill-rule="evenodd" clip-rule="evenodd" d="M39.9968 16.2476C51.166 16.2476 58.7475 24.8445 58.7475 34.1182C58.7475 37.8414 57.9352 41.7155 56.0398 45.7771C45.0494 45.7771 42.3365 53.6479 41.8236 58.6001L41.7907 58.9301C41.617 60.6975 41.5164 62.1157 41.489 63.1849L38.5121 63.6499L38.5114 63.5536C38.5001 62.4329 38.3942 60.8609 38.1937 58.8374L38.1849 58.7492C37.7111 53.8076 35.0552 45.7771 23.9538 45.7771C22.0584 41.7155 21.2461 37.8414 21.2461 34.1182C21.2461 24.8445 28.8276 16.2476 39.9968 16.2476Z" fill="#0073FA"/>
</g>
</svg>
