<svg width="121" height="199" viewBox="0 0 121 199" fill="none" xmlns="http://www.w3.org/2000/svg">
<g filter="url(#filter0_d_350_14972)">
<path d="M12 58.5C12 31.7142 33.7142 10 60.5 10C87.2858 10 109 31.7142 109 58.5V176.587C109 182.402 102.991 186.274 97.6952 183.872L60.5 167L23.3048 183.872C18.0085 186.274 12 182.402 12 176.587V58.5Z" fill="white"/>
</g>
<path d="M21.1578 140L24.7316 134.115L21.3063 128.445H24.6078L26.6959 132.035L28.8501 128.445H32.069L28.5612 134.165L32.1433 140H28.8171L26.5804 136.187L24.3932 140H21.1578ZM37.1917 140.248C36.2728 140.248 35.4612 140.047 34.7569 139.645C34.0526 139.238 33.4996 138.696 33.0979 138.019C32.7017 137.342 32.5036 136.6 32.5036 135.791C32.5036 135.202 32.6164 134.641 32.842 134.107C33.0731 133.568 33.3978 133.092 33.8159 132.679C34.2341 132.261 34.7293 131.933 35.3016 131.697C35.8738 131.455 36.5039 131.334 37.1917 131.334C38.1106 131.334 38.9222 131.537 39.6265 131.944C40.3308 132.346 40.881 132.885 41.2772 133.562C41.6734 134.239 41.8715 134.982 41.8715 135.791C41.8715 136.379 41.7587 136.943 41.5331 137.483C41.3075 138.016 40.9856 138.49 40.5674 138.902C40.1492 139.315 39.654 139.642 39.0817 139.884C38.5095 140.127 37.8795 140.248 37.1917 140.248ZM37.1917 137.92C37.5768 137.92 37.9235 137.835 38.2316 137.664C38.5398 137.488 38.7819 137.241 38.9579 136.921C39.134 136.602 39.2221 136.225 39.2221 135.791C39.2221 135.35 39.134 134.974 38.9579 134.66C38.7874 134.341 38.548 134.096 38.2399 133.925C37.9317 133.749 37.5823 133.661 37.1917 133.661C36.801 133.661 36.4516 133.749 36.1435 133.925C35.8353 134.096 35.5932 134.341 35.4171 134.66C35.2411 134.974 35.153 135.35 35.153 135.791C35.153 136.225 35.2411 136.602 35.4171 136.921C35.5987 137.241 35.8436 137.488 36.1517 137.664C36.4599 137.835 36.8065 137.92 37.1917 137.92ZM43.4569 143.467V131.581H45.7927V132.547C46.1063 132.178 46.5053 131.884 46.9895 131.664C47.4792 131.444 48.0459 131.334 48.6897 131.334C49.4931 131.334 50.2084 131.518 50.8356 131.887C51.4684 132.255 51.9664 132.775 52.3295 133.447C52.6927 134.118 52.8743 134.899 52.8743 135.791C52.8743 136.418 52.7697 137.004 52.5606 137.549C52.3571 138.088 52.0654 138.561 51.6858 138.968C51.3061 139.37 50.8576 139.684 50.3404 139.909C49.8287 140.135 49.262 140.248 48.6402 140.248C48.145 140.248 47.6883 140.168 47.2701 140.008C46.8574 139.849 46.486 139.623 46.1558 139.331V143.467H43.4569ZM48.1862 137.92C48.5769 137.92 48.9263 137.835 49.2344 137.664C49.5426 137.488 49.7847 137.241 49.9608 136.921C50.1368 136.602 50.2249 136.225 50.2249 135.791C50.2249 135.35 50.1341 134.974 49.9525 134.66C49.7764 134.341 49.5343 134.096 49.2262 133.925C48.9236 133.749 48.5769 133.661 48.1862 133.661C47.8011 133.661 47.4544 133.749 47.1463 133.925C46.8381 134.096 46.596 134.341 46.42 134.66C46.2439 134.974 46.1558 135.35 46.1558 135.791C46.1558 136.225 46.2439 136.602 46.42 136.921C46.596 137.241 46.8354 137.488 47.138 137.664C47.4462 137.835 47.7956 137.92 48.1862 137.92ZM58.5511 140.248C57.6322 140.248 56.8206 140.047 56.1163 139.645C55.412 139.238 54.859 138.696 54.4573 138.019C54.0611 137.342 53.863 136.6 53.863 135.791C53.863 135.202 53.9758 134.641 54.2014 134.107C54.4325 133.568 54.7572 133.092 55.1754 132.679C55.5935 132.261 56.0888 131.933 56.661 131.697C57.2333 131.455 57.8633 131.334 58.5511 131.334C59.47 131.334 60.2816 131.537 60.9859 131.944C61.6902 132.346 62.2404 132.885 62.6366 133.562C63.0328 134.239 63.2309 134.982 63.2309 135.791C63.2309 136.379 63.1181 136.943 62.8925 137.483C62.6669 138.016 62.345 138.49 61.9268 138.902C61.5086 139.315 61.0134 139.642 60.4411 139.884C59.8689 140.127 59.2389 140.248 58.5511 140.248ZM58.5511 137.92C58.9362 137.92 59.2829 137.835 59.591 137.664C59.8992 137.488 60.1413 137.241 60.3173 136.921C60.4934 136.602 60.5815 136.225 60.5815 135.791C60.5815 135.35 60.4934 134.974 60.3173 134.66C60.1468 134.341 59.9074 134.096 59.5993 133.925C59.2911 133.749 58.9417 133.661 58.5511 133.661C58.1604 133.661 57.811 133.749 57.5029 133.925C57.1947 134.096 56.9526 134.341 56.7766 134.66C56.6005 134.974 56.5124 135.35 56.5124 135.791C56.5124 136.225 56.6005 136.602 56.7766 136.921C56.9581 137.241 57.203 137.488 57.5111 137.664C57.8193 137.835 58.1659 137.92 58.5511 137.92ZM64.8163 140V131.581H67.3997V137.854H70.0491V131.581H72.6325V137.854H75.2819V131.581H77.8653V140H64.8163ZM84.101 140.248C83.1766 140.248 82.365 140.063 81.6662 139.695C80.9674 139.32 80.4226 138.8 80.032 138.135C79.6413 137.463 79.446 136.679 79.446 135.782C79.446 135.133 79.5588 134.536 79.7843 133.991C80.0155 133.447 80.3346 132.976 80.7418 132.58C81.1544 132.184 81.6387 131.878 82.1944 131.664C82.7556 131.444 83.3719 131.334 84.0432 131.334C84.7805 131.334 85.4381 131.466 86.0158 131.73C86.5936 131.989 87.0695 132.352 87.4437 132.819C87.8234 133.282 88.0847 133.829 88.2278 134.462C88.3708 135.089 88.3763 135.771 88.2443 136.509H81.922C81.9275 136.839 82.0266 137.128 82.2192 137.375C82.4117 137.623 82.6759 137.818 83.0115 137.961C83.3472 138.099 83.7378 138.168 84.1835 138.168C84.6787 138.168 85.1492 138.104 85.5949 137.978C86.0406 137.846 86.467 137.645 86.8742 137.375L87.7243 139.208C87.4657 139.406 87.13 139.585 86.7174 139.744C86.3102 139.898 85.8755 140.019 85.4133 140.107C84.9566 140.201 84.5192 140.248 84.101 140.248ZM82.0871 134.685H85.6692C85.6582 134.261 85.5013 133.923 85.1987 133.669C84.8961 133.416 84.4861 133.29 83.9689 133.29C83.4462 133.29 83.0115 133.416 82.6649 133.669C82.3237 133.923 82.1311 134.261 82.0871 134.685ZM93.9827 140.248C93.0583 140.248 92.2467 140.063 91.5479 139.695C90.8491 139.32 90.3044 138.8 89.9137 138.135C89.523 137.463 89.3277 136.679 89.3277 135.782C89.3277 135.133 89.4405 134.536 89.6661 133.991C89.8972 133.447 90.2163 132.976 90.6235 132.58C91.0362 132.184 91.5204 131.878 92.0761 131.664C92.6374 131.444 93.2537 131.334 93.9249 131.334C94.6623 131.334 95.3198 131.466 95.8976 131.73C96.4753 131.989 96.9513 132.352 97.3254 132.819C97.7051 133.282 97.9665 133.829 98.1095 134.462C98.2526 135.089 98.2581 135.771 98.126 136.509H91.8038C91.8093 136.839 91.9083 137.128 92.1009 137.375C92.2935 137.623 92.5576 137.818 92.8932 137.961C93.2289 138.099 93.6196 138.168 94.0653 138.168C94.5605 138.168 95.0309 138.104 95.4766 137.978C95.9223 137.846 96.3488 137.645 96.7559 137.375L97.6061 139.208C97.3474 139.406 97.0118 139.585 96.5991 139.744C96.1919 139.898 95.7572 140.019 95.295 140.107C94.8383 140.201 94.4009 140.248 93.9827 140.248ZM91.9688 134.685H95.5509C95.5399 134.261 95.3831 133.923 95.0805 133.669C94.7778 133.416 94.3679 133.29 93.8507 133.29C93.3279 133.29 92.8932 133.416 92.5466 133.669C92.2055 133.923 92.0129 134.261 91.9688 134.685ZM36.0496 154V145.581H38.3524H38.4019L41.8189 150.781L40.6634 150.798L43.8658 145.581H46.2181V154H43.8493L43.8823 148.544L44.4105 148.751L41.9345 152.572H40.3415L37.7086 148.742L38.2286 148.536L38.2781 154H36.0496ZM52.4649 154.248C51.5405 154.248 50.7289 154.063 50.0301 153.695C49.3313 153.32 48.7865 152.8 48.3959 152.135C48.0052 151.463 47.8099 150.679 47.8099 149.782C47.8099 149.133 47.9227 148.536 48.1483 147.991C48.3794 147.447 48.6985 146.976 49.1057 146.58C49.5183 146.184 50.0026 145.878 50.5583 145.664C51.1195 145.444 51.7358 145.334 52.4071 145.334C53.1444 145.334 53.802 145.466 54.3797 145.73C54.9575 145.989 55.4334 146.352 55.8076 146.819C56.1873 147.282 56.4486 147.829 56.5917 148.462C56.7347 149.089 56.7402 149.771 56.6082 150.509H50.2859C50.2914 150.839 50.3905 151.128 50.5831 151.375C50.7756 151.623 51.0398 151.818 51.3754 151.961C51.7111 152.099 52.1017 152.168 52.5474 152.168C53.0426 152.168 53.5131 152.104 53.9588 151.978C54.4045 151.846 54.8309 151.645 55.2381 151.375L56.0882 153.208C55.8296 153.406 55.494 153.585 55.0813 153.744C54.6741 153.898 54.2394 154.019 53.7772 154.107C53.3205 154.201 52.8831 154.248 52.4649 154.248ZM50.451 148.685H54.0331C54.0221 148.261 53.8652 147.923 53.5626 147.669C53.26 147.416 52.8501 147.29 52.3328 147.29C51.8101 147.29 51.3754 147.416 51.0288 147.669C50.6876 147.923 50.495 148.261 50.451 148.685ZM62.3549 154.248C61.4635 154.248 60.6656 154.055 59.9613 153.67C59.2625 153.279 58.7095 152.748 58.3024 152.077C57.8952 151.4 57.6916 150.638 57.6916 149.791C57.6916 149.152 57.8099 148.564 58.0465 148.024C58.2886 147.485 58.627 147.015 59.0617 146.613C59.4964 146.206 60.0026 145.892 60.5804 145.672C61.1581 145.447 61.7854 145.334 62.4622 145.334C63.1005 145.334 63.692 145.422 64.2367 145.598C64.7814 145.768 65.2712 146.027 65.7058 146.374L64.5173 148.379C64.2477 148.132 63.9506 147.95 63.6259 147.835C63.3068 147.719 62.9712 147.661 62.619 147.661C62.1568 147.661 61.7579 147.744 61.4222 147.909C61.0866 148.074 60.828 148.316 60.6464 148.635C60.4703 148.954 60.3823 149.337 60.3823 149.782C60.3823 150.454 60.5804 150.979 60.9765 151.359C61.3782 151.733 61.9284 151.92 62.6273 151.92C63.0234 151.92 63.3948 151.849 63.7415 151.706C64.0936 151.557 64.4155 151.342 64.7072 151.062L65.8049 153.109C65.3317 153.461 64.7897 153.739 64.1789 153.942C63.5737 154.146 62.9657 154.248 62.3549 154.248ZM68.8857 154V147.727H66.4591V145.581H74.0112V147.727H71.5928V154H68.8857ZM79.5316 154.248C78.6127 154.248 77.8011 154.047 77.0968 153.645C76.3925 153.238 75.8395 152.696 75.4379 152.019C75.0417 151.342 74.8436 150.6 74.8436 149.791C74.8436 149.202 74.9564 148.641 75.182 148.107C75.4131 147.568 75.7377 147.092 76.1559 146.679C76.5741 146.261 77.0693 145.933 77.6416 145.697C78.2138 145.455 78.8438 145.334 79.5316 145.334C80.4505 145.334 81.2622 145.537 81.9665 145.944C82.6708 146.346 83.221 146.885 83.6172 147.562C84.0133 148.239 84.2114 148.982 84.2114 149.791C84.2114 150.379 84.0986 150.943 83.873 151.483C83.6474 152.016 83.3255 152.49 82.9074 152.902C82.4892 153.315 81.994 153.642 81.4217 153.884C80.8495 154.127 80.2194 154.248 79.5316 154.248ZM79.5316 151.92C79.9168 151.92 80.2635 151.835 80.5716 151.664C80.8797 151.488 81.1218 151.241 81.2979 150.921C81.474 150.602 81.562 150.225 81.562 149.791C81.562 149.35 81.474 148.974 81.2979 148.66C81.1273 148.341 80.888 148.096 80.5799 147.925C80.2717 147.749 79.9223 147.661 79.5316 147.661C79.141 147.661 78.7916 147.749 78.4834 147.925C78.1753 148.096 77.9332 148.341 77.7571 148.66C77.581 148.974 77.493 149.35 77.493 149.791C77.493 150.225 77.581 150.602 77.7571 150.921C77.9387 151.241 78.1836 151.488 78.4917 151.664C78.7998 151.835 79.1465 151.92 79.5316 151.92Z" fill="#172D2D"/>
<path d="M60.5002 18C38.1319 18 20 36.087 20 58.4C20 69.5524 24.53 79.6504 31.8564 86.9609C39.1849 94.2754 56.4502 104.86 57.4626 115.97C57.6144 117.636 58.8234 119 60.5 119C62.1768 119 63.3858 117.636 63.5374 115.97C64.5498 104.86 81.815 94.2754 89.1436 86.9609C96.4702 79.6504 101 69.5526 101 58.4C101 36.087 82.8686 18 60.5002 18Z" fill="#FF3D00"/>
<path d="M73 79H65.3785V41.8121H61.9752C55.7438 41.8121 52.4843 44.8835 52.4843 49.467C52.4843 54.6648 54.7372 57.0747 59.3868 60.1462L63.2215 62.6978L52.1967 79H44L53.9223 64.4462C48.2182 60.4297 45.0066 56.5077 45.0066 49.8923C45.0066 41.6231 50.8545 36 61.9273 36H72.9521V79H73Z" fill="white"/>
<defs>
<filter id="filter0_d_350_14972" x="0" y="0" width="121" height="198.596" filterUnits="userSpaceOnUse" color-interpolation-filters="sRGB">
<feFlood flood-opacity="0" result="BackgroundImageFix"/>
<feColorMatrix in="SourceAlpha" type="matrix" values="0 0 0 0 0 0 0 0 0 0 0 0 0 0 0 0 0 0 127 0" result="hardAlpha"/>
<feOffset dy="2"/>
<feGaussianBlur stdDeviation="6"/>
<feComposite in2="hardAlpha" operator="out"/>
<feColorMatrix type="matrix" values="0 0 0 0 0 0 0 0 0 0 0 0 0 0 0 0 0 0 0.1 0"/>
<feBlend mode="normal" in2="BackgroundImageFix" result="effect1_dropShadow_350_14972"/>
<feBlend mode="normal" in="SourceGraphic" in2="effect1_dropShadow_350_14972" result="shape"/>
</filter>
</defs>
</svg>
