<svg width="80" height="80" viewBox="0 0 80 80" fill="none" xmlns="http://www.w3.org/2000/svg">
<rect width="80" height="80" rx="12" fill="#FF4433"/>
<circle cx="40.0014" cy="40.0014" r="34.7826" fill="#FF4433"/>
<path d="M40.0043 21.0273C30.3992 21.0273 22.6133 28.8133 22.6133 38.4184C22.6133 43.2191 24.5585 47.5661 27.7045 50.713C30.8514 53.8617 38.2652 58.4181 38.6999 63.2006C38.7652 63.9177 39.2843 64.5049 40.0042 64.5049C40.7243 64.5049 41.2434 63.9176 41.3085 63.2006C41.7432 58.4181 49.157 53.8617 52.304 50.713C55.4501 47.5661 57.3952 43.2192 57.3952 38.4184C57.3954 28.8133 49.6094 21.0273 40.0043 21.0273Z" fill="white"/>
<path d="M40.0049 44.5068C43.3666 44.5068 46.0917 41.7816 46.0917 38.4199C46.0917 35.0582 43.3666 32.333 40.0049 32.333C36.6432 32.333 33.918 35.0582 33.918 38.4199C33.918 41.7816 36.6432 44.5068 40.0049 44.5068Z" fill="#FF4433"/>
</svg>
