<svg width="32" height="32" viewBox="0 0 32 32" fill="none" xmlns="http://www.w3.org/2000/svg">
<circle cx="16" cy="16" r="16" fill="#FF4433"/>
<path d="M15.9999 7.27246C11.5815 7.27246 8 10.854 8 15.2723C8 17.4807 8.8948 19.4803 10.3419 20.9279C11.7895 22.3763 15.1999 24.4722 15.3999 26.6722C15.4299 27.002 15.6687 27.2721 15.9998 27.2721C16.331 27.2721 16.5699 27.002 16.5998 26.6722C16.7998 24.4722 20.2101 22.3763 21.6577 20.9279C23.1049 19.4803 23.9997 17.4807 23.9997 15.2723C23.9998 10.854 20.4182 7.27246 15.9999 7.27246Z" fill="white"/>
<path d="M15.9992 18.0726C17.5456 18.0726 18.7991 16.819 18.7991 15.2726C18.7991 13.7263 17.5456 12.4727 15.9992 12.4727C14.4528 12.4727 13.1992 13.7263 13.1992 15.2726C13.1992 16.819 14.4528 18.0726 15.9992 18.0726Z" fill="#FF4433"/>
</svg>
