<svg width="694" height="648" viewBox="0 0 694 648" fill="none" xmlns="http://www.w3.org/2000/svg">
<mask id="mask0_350_15592" style="mask-type:alpha" maskUnits="userSpaceOnUse" x="0" y="0" width="694" height="648">
<rect width="694" height="648" fill="#D9D9D9"/>
</mask>
<g mask="url(#mask0_350_15592)">
<mask id="mask1_350_15592" style="mask-type:alpha" maskUnits="userSpaceOnUse" x="0" y="13" width="667" height="684">
<rect y="13" width="667" height="684" fill="url(#paint0_linear_350_15592)"/>
</mask>
<g mask="url(#mask1_350_15592)">
<path d="M243.724 53.7634C240.27 51.9255 236.796 50.1635 233.266 48.4961C237.391 50.2203 240.116 51.755 241.056 52.2476C241.958 52.7403 242.841 53.2519 243.743 53.7634H243.724Z" fill="#F2F8F6"/>
<path d="M472.233 421.206C472.233 439.584 477.68 558.308 404.338 674.928C392.716 693.421 380.383 709.715 367.859 724.058C364.906 727.412 361.933 730.69 358.96 733.835C351.614 741.66 344.23 748.804 336.866 755.378C333.49 758.391 330.114 761.271 326.777 764.037C275.338 806.668 228.215 820.519 216.592 822.508C202.629 824.896 194.018 824.214 186.615 823.058C180.746 822.148 164.213 818.416 153.952 805.588C153.761 805.361 153.607 805.172 153.53 805.058C151.401 802.273 143.922 791.776 145.015 778.285C145.36 774.136 146.108 765.439 153.185 760.077C153.722 759.717 163.12 752.858 172.173 757.709C177.14 760.361 181.973 766.443 180.516 773.321C179.058 780.029 172 785.069 163.945 784.367C164.712 786.186 166.438 789.635 169.699 792.894C184.697 807.748 214.099 799.98 220.792 798.199C225.568 796.948 229.749 795.452 233.029 794.031C233.086 794.012 233.163 793.974 233.24 793.955C237.363 792.231 240.087 790.696 241.026 790.203C241.928 789.711 242.81 789.199 243.712 788.687C244.191 788.422 244.671 788.138 245.169 787.873C263.754 777.149 280.593 764.947 295.572 752.404C295.649 752.347 295.726 752.271 295.803 752.195C299.101 749.315 302.304 746.321 305.488 743.233C308.653 740.22 311.721 737.075 314.79 733.873C322.481 725.82 329.846 717.275 336.885 708.219C339.666 704.619 342.408 700.981 345.093 697.229C396.283 626.101 427.833 528.674 427.833 421.243C427.833 313.813 396.283 216.386 345.093 145.258L367.879 118.391C380.403 132.734 392.735 149.028 404.358 167.521C477.699 284.141 472.252 402.865 472.252 421.243L472.233 421.206Z" fill="#F2F8F6"/>
<path d="M326.785 78.3706C319.65 84.7748 312.496 91.7663 305.496 99.1936C302.312 96.1052 299.09 93.1116 295.81 90.2316C295.733 90.1558 295.657 90.08 295.58 90.0232C280.601 77.4801 263.781 65.297 245.177 54.5539C244.678 54.2886 244.199 54.0044 243.719 53.7392C242.818 53.2087 241.935 52.716 241.034 52.2234C240.113 51.7308 237.371 50.196 233.247 48.4718C233.17 48.4529 233.094 48.415 233.036 48.396C229.737 46.975 225.576 45.4782 220.8 44.2277C214.106 42.4466 184.723 34.6782 169.706 49.5329C166.446 52.7918 164.719 56.2402 163.952 58.0591C171.988 57.3581 179.066 62.3791 180.523 69.1054C181.981 75.9832 177.148 82.0653 172.18 84.7179C163.128 89.5684 153.73 82.7285 153.193 82.3495C146.096 77.0064 145.368 68.2907 145.022 64.1412C143.929 50.6318 151.428 40.135 153.538 37.3687C153.615 37.2551 153.768 37.0845 153.96 36.8382C164.202 24.0109 180.753 20.2783 186.622 19.3689C194.025 18.2131 202.637 17.531 216.6 19.9183C228.222 21.9078 275.365 35.7582 326.785 78.3895V78.3706Z" fill="#F2F8F6"/>
<path d="M528.718 64.1449C528.373 68.2944 527.625 76.9912 520.547 82.3532C520.01 82.7132 510.613 89.5721 501.56 84.7216C496.592 82.069 491.759 75.987 493.217 69.1091C494.674 62.4018 501.732 57.3618 509.788 58.0629C509.021 56.2439 507.294 52.7955 504.034 49.5366C489.036 34.682 459.634 42.4503 452.94 44.2314C448.165 45.4819 443.983 46.9787 440.704 48.3998C440.646 48.4187 440.57 48.4566 440.493 48.4756C436.369 50.1998 433.646 51.7345 432.706 52.2271C431.805 52.7197 430.922 53.2313 430.021 53.7429C429.542 54.0082 429.062 54.2924 428.563 54.5576C409.979 65.2818 393.139 77.4838 378.16 90.0269C378.083 90.0837 378.007 90.1595 377.93 90.2353C374.631 93.1532 371.428 96.1279 368.244 99.1973C365.118 102.248 362.011 105.355 358.981 108.557C351.251 116.61 343.906 125.155 336.886 134.212C334.105 137.812 331.362 141.45 328.677 145.201C277.469 216.329 245.919 313.756 245.919 421.187C245.919 528.618 277.469 626.045 328.677 697.173L326.338 700.166C319.836 708.579 312.931 716.612 305.892 724.04C293.33 709.697 281.036 693.402 269.375 674.91C196.072 558.289 201.48 439.566 201.48 421.187C201.48 402.808 196.072 284.085 269.375 167.464C281.036 148.972 293.33 132.677 305.892 118.334C308.846 114.98 311.819 111.703 314.792 108.557C322.137 100.732 329.521 93.5511 336.886 87.0143C340.262 84.0016 343.637 81.1217 346.974 78.3554C398.413 35.7241 445.499 21.8736 457.14 19.8841C471.141 17.4968 479.734 18.1789 487.137 19.3347C492.987 20.2441 509.519 23.9768 519.761 36.804C519.953 37.0314 520.106 37.2209 520.183 37.3346C522.331 40.1198 529.792 50.6166 528.699 64.107L528.718 64.1449Z" fill="#F2F8F6"/>
<path d="M201.427 421.202C201.427 421.202 196.383 424.044 159.923 447.141C159.923 447.141 79.811 504.248 38.211 596.028C37.4055 597.753 33.9149 605.654 31.9969 616.681C30.827 623.426 25.6869 653.06 42.0277 666.436C45.6142 669.373 49.2775 670.737 51.1571 671.344C49.6994 663.481 54.1299 656.072 60.7659 654.026C67.5362 651.961 74.1147 656.148 77.2601 660.79C82.9755 669.241 76.9341 679.131 76.6273 679.681C71.8708 687.165 63.1634 688.68 59.0207 689.382C44.4252 691.883 32.4189 684.209 30.6927 683.091C25.9171 679.908 22.062 675.872 19.0317 671.363C19.0317 671.363 18.4947 670.567 17.996 669.771C15.7329 666.095 6.58438 646.826 7.00632 624.582C7.90775 579.317 48.6638 517.094 61.2838 498.128C68.4185 487.404 74.6325 478.802 78.8328 473.137C90.1486 458.812 106.029 440.566 127.184 421.221C106.029 401.895 90.1486 383.63 78.8328 369.306C74.6325 363.64 68.4185 355.038 61.2838 344.314C48.6638 325.348 7.90775 263.125 7.00632 217.86C6.58438 195.616 15.7329 176.347 17.996 172.671C18.4947 171.856 19.0317 171.079 19.0317 171.079C22.062 166.57 25.9171 162.534 30.6927 159.351C32.4189 158.214 44.4252 150.56 59.0207 153.061C63.1634 153.762 71.8708 155.296 76.6273 162.762C76.9533 163.311 82.9755 173.201 77.2601 181.652C74.1339 186.294 67.5362 190.5 60.7659 188.416C54.1299 186.37 49.6994 178.98 51.1571 171.098C49.2775 171.705 45.6142 173.069 42.0277 176.006C25.6677 189.382 30.827 219.016 31.9969 225.761C33.9149 236.77 37.4055 244.671 38.211 246.395C79.811 338.175 159.923 395.282 159.923 395.282C196.383 418.398 201.427 421.221 201.427 421.221V421.202Z" fill="#F2F8F6"/>
<path d="M612.448 498.113C625.068 517.079 665.824 579.302 666.726 624.567C667.147 646.811 657.999 666.08 655.736 669.756C655.237 670.571 654.7 671.347 654.7 671.347C651.67 675.857 647.815 679.893 643.039 683.076C641.313 684.213 629.307 691.867 614.711 689.366C610.568 688.665 601.861 687.13 597.105 679.665C596.779 679.116 590.756 669.225 596.472 660.775C599.598 656.133 606.196 651.927 612.966 654.011C619.602 656.057 624.032 663.446 622.575 671.328C624.454 670.722 628.118 669.358 631.704 666.421C648.064 653.044 642.905 623.411 641.735 616.666C639.817 605.657 636.326 597.756 635.521 596.013C593.921 504.233 513.809 447.126 513.809 447.126C477.349 424.01 472.305 421.187 472.305 421.187C472.305 421.187 477.349 418.345 513.809 395.248C513.809 395.248 593.921 338.141 635.521 246.361C636.326 244.636 639.817 236.735 641.735 225.727C642.905 218.982 648.045 189.348 631.704 175.972C628.118 173.035 624.454 171.671 622.575 171.064C624.032 178.927 619.602 186.336 612.966 188.382C606.196 190.447 599.617 186.26 596.472 181.618C590.756 173.167 596.798 163.277 597.105 162.727C601.861 155.243 610.568 153.727 614.711 153.026C629.307 150.525 641.313 158.199 643.039 159.317C647.815 162.5 651.67 166.536 654.7 171.045C654.7 171.045 655.237 171.841 655.736 172.637C657.999 176.313 667.147 195.582 666.726 217.826C665.824 263.091 625.068 325.314 612.448 344.28C605.313 355.004 599.099 363.606 594.899 369.271C583.583 383.596 567.703 401.842 546.548 421.187C567.703 440.513 583.583 458.778 594.899 473.102C599.099 478.768 605.313 487.37 612.448 498.094V498.113Z" fill="#F2F8F6"/>
</g>
</g>
<defs>
<linearGradient id="paint0_linear_350_15592" x1="433.5" y1="-28" x2="241.75" y2="396.053" gradientUnits="userSpaceOnUse">
<stop stop-color="#D9D9D9"/>
<stop offset="1" stop-color="#D9D9D9" stop-opacity="0"/>
</linearGradient>
</defs>
</svg>
